<svg width="370" height="48" viewBox="0 0 370 48" fill="none" xmlns="http://www.w3.org/2000/svg">
<rect width="370" height="48" rx="8" fill="#05C050"/>
<path d="M137.617 30H135.805L130.445 22.2656H130.352V30H128.32V18.6875H130.164L135.492 26.4219H135.602V18.6875H137.617V30ZM139.227 27.6094C139.227 26.7396 139.521 26.1094 140.109 25.7188C140.703 25.3281 141.461 25.1042 142.383 25.0469C142.857 25.0104 143.583 24.9714 144.562 24.9297L144.555 24.25C144.555 23.8281 144.422 23.5026 144.156 23.2734C143.896 23.0391 143.518 22.9219 143.023 22.9219C142.591 22.9219 142.237 23.013 141.961 23.1953C141.685 23.3776 141.508 23.625 141.43 23.9375H139.508C139.555 23.4531 139.727 23.0208 140.023 22.6406C140.32 22.2552 140.729 21.9531 141.25 21.7344C141.771 21.5156 142.378 21.4062 143.07 21.4062C143.664 21.4062 144.221 21.5 144.742 21.6875C145.268 21.8698 145.698 22.1797 146.031 22.6172C146.37 23.0495 146.539 23.6198 146.539 24.3281V30H144.633V28.8281H144.57C144.362 29.224 144.049 29.5469 143.633 29.7969C143.216 30.0469 142.695 30.1719 142.07 30.1719C141.523 30.1719 141.034 30.0729 140.602 29.875C140.174 29.6771 139.839 29.388 139.594 29.0078C139.349 28.6224 139.227 28.1562 139.227 27.6094ZM141.148 27.5938C141.148 27.9479 141.279 28.2214 141.539 28.4141C141.805 28.6068 142.154 28.7031 142.586 28.7031C142.977 28.7031 143.323 28.625 143.625 28.4688C143.927 28.3125 144.159 28.1016 144.32 27.8359C144.487 27.5651 144.57 27.2708 144.57 26.9531L144.562 26.2578C144.302 26.2682 143.992 26.2865 143.633 26.3125C143.279 26.3333 142.966 26.3542 142.695 26.375C142.211 26.4167 141.831 26.5391 141.555 26.7422C141.284 26.9453 141.148 27.2292 141.148 27.5938ZM152.648 30H150.461L147.43 21.5156H149.555L151.508 27.8281H151.602L153.57 21.5156H155.68L152.648 30ZM160.398 30.1719C159.555 30.1719 158.823 29.9948 158.203 29.6406C157.583 29.2812 157.107 28.7734 156.773 28.1172C156.44 27.4609 156.273 26.6927 156.273 25.8125C156.273 24.9427 156.44 24.1771 156.773 23.5156C157.107 22.849 157.576 22.3307 158.18 21.9609C158.789 21.5911 159.492 21.4062 160.289 21.4062C161.008 21.4062 161.659 21.5625 162.242 21.875C162.831 22.1823 163.297 22.6562 163.641 23.2969C163.99 23.9375 164.164 24.7344 164.164 25.6875V26.3125H158.242C158.253 26.7865 158.346 27.1979 158.523 27.5469C158.706 27.8906 158.956 28.1536 159.273 28.3359C159.596 28.5182 159.971 28.6094 160.398 28.6094C160.826 28.6094 161.188 28.5312 161.484 28.375C161.781 28.2135 161.997 28 162.133 27.7344H164.086C163.966 28.224 163.74 28.6536 163.406 29.0234C163.073 29.388 162.648 29.6719 162.133 29.875C161.622 30.0729 161.044 30.1719 160.398 30.1719ZM162.258 24.9531C162.258 24.5729 162.174 24.2318 162.008 23.9297C161.846 23.6224 161.617 23.3828 161.32 23.2109C161.029 23.0391 160.695 22.9531 160.32 22.9531C159.935 22.9531 159.589 23.0443 159.281 23.2266C158.974 23.4036 158.732 23.6458 158.555 23.9531C158.378 24.2604 158.276 24.5938 158.25 24.9531H162.258ZM165.711 21.5156H167.648V22.9219H167.742C167.893 22.4375 168.156 22.0625 168.531 21.7969C168.906 21.526 169.341 21.3906 169.836 21.3906C170.065 21.3906 170.305 21.4062 170.555 21.4375V23.2812C170.466 23.25 170.331 23.224 170.148 23.2031C169.971 23.1771 169.799 23.1615 169.633 23.1562C169.268 23.1562 168.94 23.237 168.648 23.3984C168.357 23.5547 168.128 23.7734 167.961 24.0547C167.794 24.3307 167.711 24.6458 167.711 25V30H165.711V21.5156ZM184.164 29.75H171.258V28.3125H176.82V26.0156H172.789V21.3906H180.914V19.6406H172.758V18.2344H182.633V22.7656H174.523V24.5938H182.961V26.0156H178.539V28.3125H184.164V29.75ZM194.227 20.6562C194.221 21.526 194.365 22.3724 194.656 23.1953C194.948 24.0182 195.37 24.75 195.922 25.3906C196.474 26.0312 197.122 26.5104 197.867 26.8281L196.836 28.2188C196.039 27.849 195.344 27.3125 194.75 26.6094C194.161 25.901 193.701 25.0755 193.367 24.1328C193.034 25.1484 192.562 26.0391 191.953 26.8047C191.349 27.5703 190.628 28.151 189.789 28.5469L188.727 27.0938C189.492 26.7656 190.156 26.2708 190.719 25.6094C191.281 24.9427 191.711 24.1797 192.008 23.3203C192.305 22.4609 192.456 21.5729 192.461 20.6562V18.4062H194.227V20.6562ZM198.883 17.2656H200.633V31.4062H198.883V17.2656ZM207.773 19.7188C207.773 20.3125 207.898 20.8828 208.148 21.4297C208.404 21.9766 208.781 22.4661 209.281 22.8984C209.786 23.3307 210.398 23.6667 211.117 23.9062L210.242 25.25C209.466 24.9896 208.797 24.6094 208.234 24.1094C207.677 23.6094 207.24 23.0208 206.922 22.3438C206.604 23.0833 206.151 23.7266 205.562 24.2734C204.979 24.8151 204.284 25.224 203.477 25.5L202.555 24.1562C203.289 23.9115 203.917 23.5599 204.438 23.1016C204.964 22.6432 205.359 22.1224 205.625 21.5391C205.891 20.9505 206.023 20.3438 206.023 19.7188V19.5469H203.039V18.1562H210.711V19.5469H207.773V19.7188ZM204.445 26.4375H213.852V31.3906H212.117V27.8281H204.445V26.4375ZM212.117 17.2656H213.852V20.7969H215.82V22.25H213.852V25.7812H212.117V17.2656ZM227.602 22.8906H229.773V24.3281H227.602V31.3906H225.883V17.2656H227.602V22.8906ZM216.461 19.4375H219.805V17.4688H221.539V19.4375H224.789V20.8281H216.461V19.4375ZM217.117 25.0781C217.112 24.4375 217.263 23.8646 217.57 23.3594C217.878 22.849 218.302 22.4531 218.844 22.1719C219.385 21.8906 219.997 21.75 220.68 21.75C221.352 21.75 221.956 21.8906 222.492 22.1719C223.029 22.4531 223.451 22.849 223.758 23.3594C224.07 23.8646 224.227 24.4375 224.227 25.0781C224.227 25.7188 224.07 26.2917 223.758 26.7969C223.451 27.2969 223.029 27.6875 222.492 27.9688C221.956 28.25 221.352 28.3906 220.68 28.3906C219.997 28.3906 219.385 28.25 218.844 27.9688C218.302 27.6875 217.878 27.2969 217.57 26.7969C217.263 26.2917 217.112 25.7188 217.117 25.0781ZM218.773 25.0781C218.773 25.4531 218.854 25.7839 219.016 26.0703C219.177 26.3516 219.401 26.5703 219.688 26.7266C219.979 26.8776 220.31 26.9531 220.68 26.9531C221.039 26.9531 221.362 26.8776 221.648 26.7266C221.935 26.5755 222.159 26.3568 222.32 26.0703C222.482 25.7839 222.565 25.4531 222.57 25.0781C222.565 24.7031 222.479 24.3724 222.312 24.0859C222.151 23.7943 221.927 23.5703 221.641 23.4141C221.359 23.2526 221.039 23.1719 220.68 23.1719C220.31 23.1719 219.979 23.2526 219.688 23.4141C219.401 23.5703 219.177 23.7943 219.016 24.0859C218.854 24.3724 218.773 24.7031 218.773 25.0781ZM242.164 31.3906H240.414V17.2656H242.164V31.3906ZM230.461 27.5C232.284 26.6354 233.651 25.6016 234.562 24.3984C235.479 23.1953 236.018 21.776 236.18 20.1406H231.18V18.7656H237.945C237.945 21.0104 237.438 22.9792 236.422 24.6719C235.406 26.3646 233.721 27.7708 231.367 28.8906L230.461 27.5Z" fill="white"/>
<rect x="16" y="13" width="24" height="24" rx="12" fill="#36AE50"/>
<g clip-path="url(#clip0_1307_110122)">
<path d="M20.5586 18H25.7268C25.7268 18 30.4215 25.5658 30.5612 25.7691C30.7013 25.972 30.7186 25.7691 30.7186 25.7691C30.5022 24.5975 30.2673 24.0717 30.2673 22.2008V18H35.4158V32.0142H30.2674C30.2674 32.0142 25.669 24.852 25.5297 24.6541C25.3914 24.4563 25.3733 24.6541 25.3733 24.6541C25.5501 25.6212 25.7071 25.7829 25.7071 27.4606V32.0142H20.5586V18Z" fill="white"/>
</g>
<defs>
<clipPath id="clip0_1307_110122">
<rect width="15" height="16" fill="white" transform="translate(20.5 17)"/>
</clipPath>
</defs>
</svg>
