<svg width="371" height="242" viewBox="0 0 371 242" fill="none" xmlns="http://www.w3.org/2000/svg">
<path fill-rule="evenodd" clip-rule="evenodd" d="M323.905 236.21C321.8 238.081 318.873 238.014 316.298 236.873L36.5237 112.871C33.9549 111.733 31.0033 112.19 28.5613 113.58C27.5065 114.18 26.4098 114.719 25.2768 115.191C21.6189 116.716 17.654 117.525 13.6086 117.571C13.3198 117.574 13.031 117.574 12.7423 117.569C6.50318 117.473 3.48408 110.728 5.68568 104.889L12.0249 88.078L18.3641 71.2666C20.5657 65.428 27.2867 62.3558 32.036 66.403C32.2558 66.5903 32.473 66.7805 32.6877 66.9737C35.6954 69.6796 38.139 72.9049 39.8793 76.4654C40.449 77.631 40.9397 78.8251 41.3493 80.0399C42.2322 82.6584 44.0829 84.9324 46.7014 85.8155L335.631 183.261C339.611 184.603 342.497 188.068 342.307 192.264C342.056 197.804 340.829 206.336 336.534 216.423C331.686 227.811 326.988 233.469 323.905 236.21Z" fill="#FFCD67"/>
<ellipse cx="268.915" cy="175.055" rx="54.1195" ry="24.727" transform="rotate(20.5626 268.915 175.055)" fill="#CFA755"/>
<path d="M215.808 96.6041C209.663 97.5379 205.344 95.167 204.944 94.0636L229.5 81.8209C229.771 86.6697 222.93 95.5219 215.808 96.6041Z" fill="#892439"/>
<g clip-path="url(#clip0_1654_116283)">
<rect x="211.049" y="51.4836" width="140.487" height="140.487" rx="70.2433" transform="rotate(-5.26281 211.049 51.4836)" fill="#F2F3F6"/>
<path fill-rule="evenodd" clip-rule="evenodd" d="M265.322 128.04L258.228 129.824C257.964 128.776 257.68 127.729 257.375 126.682C257.07 125.636 256.746 124.6 256.405 123.575L263.347 121.266C263.717 122.378 264.067 123.5 264.398 124.635C264.728 125.769 265.037 126.904 265.322 128.04ZM260.873 114.669L254.126 117.494C253.284 115.485 252.372 113.522 251.395 111.61L257.908 108.28C258.97 110.357 259.96 112.488 260.873 114.669ZM254.462 102.133L248.223 105.953C247.089 104.101 245.89 102.303 244.629 100.561L250.556 96.2725C251.926 98.1659 253.229 100.12 254.462 102.133ZM246.207 90.726L240.629 95.4585C239.226 93.8053 237.765 92.2126 236.249 90.6828L241.446 85.534C243.094 87.1972 244.683 88.9288 246.207 90.726ZM236.297 80.7243L231.514 86.2591C229.876 84.8433 228.187 83.4944 226.451 82.2151L230.792 76.3268C232.679 77.7181 234.516 79.1849 236.297 80.7243ZM224.964 72.3696L221.093 78.577C219.259 77.4331 217.382 76.3623 215.469 75.3672L218.844 68.877C220.927 69.9601 222.968 71.1252 224.964 72.3696ZM212.471 65.8736L209.615 72.6084C207.629 71.7663 205.611 71.0027 203.566 70.3201L205.881 63.3808C208.11 64.1246 210.309 64.9565 212.471 65.8736ZM199.115 61.4186L197.359 68.5202C195.272 68.0041 193.161 67.5709 191.033 67.223L192.213 60.0034C194.536 60.3831 196.838 60.8557 199.115 61.4186ZM185.219 59.1488L184.627 66.4402C182.491 66.2667 180.342 66.179 178.183 66.1796L178.181 58.8642C180.539 58.8635 182.887 58.9593 185.219 59.1488ZM171.14 59.1533L171.737 66.4443C169.608 66.6189 167.473 66.8807 165.337 67.2322L164.15 60.0138C166.482 59.6301 168.813 59.3441 171.14 59.1533ZM157.249 61.4377L159.015 68.5369C157.973 68.796 156.932 69.0771 155.891 69.3805C154.851 69.6839 153.822 70.0066 152.804 70.3482L150.477 63.4127C151.587 63.0402 152.709 62.6883 153.843 62.3576C154.977 62.0269 156.113 61.7204 157.249 61.4377ZM143.893 65.921L146.771 72.6464C144.781 73.4981 142.84 74.4247 140.951 75.422L137.536 68.9526C139.6 67.863 141.72 66.851 143.893 65.921ZM131.442 72.4936L135.373 78.6635C133.552 79.8232 131.787 81.0524 130.079 82.3467L125.661 76.5166C127.526 75.1031 129.454 73.7605 131.442 72.4936ZM120.222 80.9965L125.098 86.4503C123.49 87.8876 121.944 89.3872 120.461 90.9445L115.163 85.8997C116.78 84.2013 118.468 82.5653 120.222 80.9965ZM110.512 91.1913L116.195 95.7983C114.836 97.4735 113.545 99.2021 112.323 100.979L106.295 96.8356C107.625 94.8999 109.032 93.0168 110.512 91.1913ZM102.535 102.794L108.87 106.452C107.791 108.32 106.785 110.232 105.853 112.182L99.252 109.028C100.266 106.906 101.361 104.827 102.535 102.794ZM96.4642 115.498L103.29 118.13C102.514 120.142 101.815 122.187 101.194 124.262L94.1855 122.165C94.8601 119.91 95.6205 117.686 96.4642 115.498ZM92.4292 128.989L99.5788 130.537C99.123 132.642 98.7468 134.77 98.4528 136.918L91.2049 135.926C91.5246 133.591 91.9336 131.277 92.4292 128.989ZM90.5191 142.941L97.8219 143.371C97.6954 145.517 97.6506 147.678 97.6899 149.849L90.3757 149.982C90.333 147.622 90.3816 145.274 90.5191 142.941ZM90.7735 157.017L98.0561 156.325C98.2595 158.463 98.5454 160.608 98.9161 162.755L91.7074 164C91.3049 161.669 90.9944 159.34 90.7735 157.017ZM93.1676 170.892C93.4532 172.028 93.7613 173.163 94.092 174.297C94.4227 175.431 94.7732 176.554 95.1428 177.666L102.084 175.357C101.743 174.332 101.42 173.296 101.115 172.249C100.81 171.203 100.526 170.155 100.262 169.108L93.1676 170.892ZM97.6163 184.263L104.364 181.438C105.206 183.447 106.117 185.409 107.095 187.322L100.582 190.652C99.5195 188.575 98.5296 186.444 97.6163 184.263ZM104.028 196.799L110.267 192.979C111.401 194.831 112.6 196.629 113.86 198.371L107.934 202.659C106.564 200.766 105.26 198.812 104.028 196.799ZM112.282 208.206L117.861 203.473C119.263 205.127 120.725 206.719 122.24 208.249L117.044 213.398C115.396 211.735 113.807 210.003 112.282 208.206ZM122.192 218.208L126.976 212.673C128.614 214.089 130.303 215.437 132.038 216.717L127.698 222.605C125.81 221.214 123.974 219.747 122.192 218.208ZM133.526 226.562L137.397 220.355C139.231 221.499 141.107 222.57 143.021 223.565L139.645 230.055C137.563 228.972 135.521 227.807 133.526 226.562ZM146.019 233.058L148.875 226.323C150.86 227.166 152.878 227.929 154.924 228.612L152.609 235.551C150.379 234.807 148.181 233.975 146.019 233.058ZM159.375 237.513L161.131 230.412C163.218 230.928 165.328 231.361 167.457 231.709L166.277 238.928C163.954 238.549 161.652 238.076 159.375 237.513ZM173.271 239.783L173.863 232.492C175.999 232.665 178.148 232.753 180.307 232.752L180.309 240.068C177.951 240.068 175.603 239.972 173.271 239.783ZM187.35 239.778L186.752 232.487C188.882 232.313 191.016 232.051 193.152 231.7L194.34 238.918C192.008 239.302 189.676 239.588 187.35 239.778ZM201.24 237.494L199.475 230.395C200.517 230.136 201.558 229.855 202.598 229.551C203.639 229.248 204.668 228.925 205.686 228.584L208.013 235.519C206.903 235.892 205.781 236.243 204.646 236.574C203.512 236.905 202.377 237.211 201.24 237.494ZM214.597 233.011L211.719 226.285C213.709 225.434 215.65 224.507 217.539 223.51L220.954 229.979C218.89 231.069 216.77 232.081 214.597 233.011ZM227.047 226.438L223.117 220.268C224.937 219.109 226.703 217.879 228.41 216.585L232.829 222.415C230.964 223.829 229.036 225.171 227.047 226.438ZM238.267 217.935L233.392 212.482C235 211.044 236.546 209.545 238.029 207.987L243.327 213.032C241.709 214.73 240.022 216.367 238.267 217.935ZM247.978 207.741L242.295 203.133C243.653 201.458 244.945 199.73 246.166 197.952L252.195 202.096C250.864 204.032 249.458 205.915 247.978 207.741ZM255.955 196.138L249.62 192.479C250.698 190.612 251.705 188.7 252.637 186.75L259.238 189.903C258.224 192.025 257.129 194.105 255.955 196.138ZM262.026 183.434C262.869 181.246 263.63 179.022 264.304 176.766L257.296 174.67C256.675 176.745 255.976 178.79 255.2 180.802L262.026 183.434ZM266.061 169.943L258.911 168.395C259.367 166.29 259.743 164.161 260.037 162.013L267.285 163.006C266.965 165.341 266.556 167.655 266.061 169.943ZM267.971 155.991L260.668 155.561C260.794 153.414 260.839 151.254 260.8 149.082L268.114 148.95C268.157 151.309 268.108 153.658 267.971 155.991ZM267.716 141.914L260.434 142.607C260.23 140.469 259.944 138.324 259.574 136.177L266.782 134.932C267.185 137.263 267.495 139.592 267.716 141.914Z" fill="#F94267"/>
<path fill-rule="evenodd" clip-rule="evenodd" d="M477.809 57.5912L471.26 60.8523C470.779 59.8854 470.277 58.9231 469.755 57.966C469.233 57.0089 468.695 56.0662 468.143 55.138L474.43 51.3972C475.029 52.4037 475.611 53.4256 476.177 54.4627C476.743 55.4997 477.287 56.5428 477.809 57.5912ZM470.602 45.4823L464.615 49.686C463.363 47.9029 462.052 46.1813 460.688 44.5224L466.338 39.8753C467.82 41.6773 469.243 43.5468 470.602 45.4823ZM461.656 34.6085L456.379 39.6749C454.875 38.1085 453.319 36.6087 451.715 35.1769L456.587 29.7196C458.33 31.276 460.022 32.9062 461.656 34.6085ZM451.152 25.2322L446.715 31.0489C444.992 29.7341 443.223 28.491 441.415 27.321L445.39 21.1794C447.355 22.4514 449.278 23.8029 451.152 25.2322ZM439.331 17.5829L435.843 24.0131C433.94 22.9807 432.001 22.0246 430.032 21.1462L433.012 14.4654C435.154 15.4206 437.262 16.4603 439.331 17.5829ZM426.472 11.8471L424.019 18.7391C421.983 18.0142 419.921 17.3697 417.839 16.8071L419.747 9.74497C422.013 10.3573 424.257 11.0586 426.472 11.8471ZM412.879 8.17496L411.53 15.365C409.41 14.9673 407.275 14.6532 405.131 14.4242L405.908 7.15016C408.245 7.39971 410.57 7.74188 412.879 8.17496ZM398.879 6.68131L398.683 13.9941C396.534 13.9367 394.38 13.9651 392.226 14.0808L391.834 6.77587C394.184 6.64965 396.534 6.6187 398.879 6.68131ZM384.819 7.43779L385.801 14.687C383.677 14.9746 381.559 15.3489 379.451 15.8113L377.883 8.66581C380.186 8.16059 382.5 7.7518 384.819 7.43779ZM371.067 10.4551L373.211 17.4492C371.168 18.0755 369.139 18.788 367.128 19.5884L364.423 12.7915C366.619 11.9175 368.835 11.1392 371.067 10.4551ZM357.987 15.659L361.231 22.2159C360.269 22.692 359.312 23.1894 358.36 23.7085C357.409 24.2275 356.472 24.763 355.551 25.3144L351.794 19.0376C352.799 18.4361 353.82 17.8522 354.857 17.2865C355.894 16.7207 356.937 16.1783 357.987 15.659ZM345.899 22.8967L350.15 28.8504C348.388 30.1082 346.691 31.4287 345.058 32.8073L340.338 27.2184C342.121 25.7124 343.975 24.2702 345.899 22.8967ZM335.144 31.9813L340.304 37.1672C338.773 38.6896 337.312 40.2681 335.921 41.8979L330.357 37.1484C331.876 35.3686 333.472 33.6444 335.144 31.9813ZM326.003 42.6884L331.933 46.9724C330.67 48.7205 329.48 50.5163 328.365 52.3549L322.11 48.5606C323.327 46.5555 324.625 44.5962 326.003 42.6884ZM318.7 54.7249L325.236 58.0092C324.268 59.9361 323.377 61.901 322.564 63.8987L315.788 61.1409C316.673 58.9654 317.644 56.8248 318.7 54.7249ZM313.39 67.7657L320.361 69.9839C319.707 72.0391 319.133 74.1217 318.64 76.2264L311.517 74.5583C312.054 72.2686 312.678 70.0025 313.39 67.7657ZM310.179 81.4748L317.409 82.5853C317.082 84.7163 316.837 86.8639 316.674 89.023L309.38 88.4753C309.556 86.1276 309.823 83.7923 310.179 81.4748ZM309.124 95.5164L316.439 95.499C316.444 97.6525 316.533 99.8122 316.705 101.973L309.413 102.555C309.225 100.206 309.13 97.8576 309.124 95.5164ZM310.244 109.554L317.47 108.412C317.805 110.535 318.224 112.656 318.727 114.768L311.611 116.463C311.064 114.167 310.609 111.862 310.244 109.554ZM313.505 123.25L320.47 121.015C321.127 123.06 321.865 125.094 322.686 127.112L315.911 129.871C315.019 127.68 314.218 125.472 313.505 123.25ZM318.812 136.291C319.334 137.339 319.878 138.382 320.444 139.419C321.01 140.457 321.592 141.478 322.191 142.485L328.478 138.744C327.926 137.816 327.388 136.873 326.866 135.916C326.344 134.959 325.842 133.997 325.361 133.03L318.812 136.291ZM326.019 148.4L332.006 144.196C333.258 145.979 334.569 147.701 335.933 149.36L330.283 154.007C328.801 152.205 327.378 150.335 326.019 148.4ZM334.965 159.274L340.242 154.207C341.746 155.774 343.302 157.273 344.906 158.705L340.034 164.163C338.291 162.606 336.6 160.976 334.965 159.274ZM345.469 168.65L349.906 162.833C351.63 164.148 353.398 165.391 355.206 166.561L351.231 172.703C349.266 171.431 347.343 170.079 345.469 168.65ZM357.29 176.299L360.778 169.869C362.681 170.901 364.62 171.858 366.589 172.736L363.609 179.417C361.467 178.462 359.359 177.422 357.29 176.299ZM370.149 182.035L372.602 175.143C374.639 175.868 376.7 176.512 378.782 177.075L376.874 184.137C374.608 183.525 372.365 182.824 370.149 182.035ZM383.742 185.707L385.091 178.517C387.211 178.915 389.346 179.229 391.49 179.458L390.713 186.732C388.376 186.482 386.051 186.14 383.742 185.707ZM397.743 187.201L397.938 179.888C400.087 179.945 402.242 179.917 404.395 179.801L404.787 187.106C402.437 187.232 400.087 187.263 397.743 187.201ZM411.802 186.444L410.821 179.195C412.944 178.908 415.062 178.533 417.171 178.071L418.738 185.216C416.435 185.722 414.121 186.13 411.802 186.444ZM425.554 183.427L423.41 176.433C425.453 175.807 427.482 175.094 429.493 174.294L432.198 181.091C430.002 181.965 427.786 182.743 425.554 183.427ZM438.634 178.223L435.39 171.666C436.353 171.19 437.31 170.693 438.261 170.174C439.213 169.655 440.149 169.119 441.07 168.568L444.827 174.845C443.823 175.446 442.802 176.03 441.764 176.596C440.727 177.161 439.684 177.704 438.634 178.223ZM450.722 170.985L446.471 165.032C448.233 163.774 449.931 162.453 451.563 161.075L456.283 166.664C454.5 168.17 452.646 169.612 450.722 170.985ZM461.477 161.901L456.318 156.715C457.848 155.193 459.309 153.614 460.7 151.984L466.264 156.734C464.745 158.514 463.149 160.238 461.477 161.901ZM470.618 151.194L464.688 146.91C465.951 145.162 467.141 143.366 468.256 141.527L474.511 145.322C473.294 147.327 471.996 149.286 470.618 151.194ZM477.922 139.157L471.385 135.873C472.353 133.946 473.245 131.981 474.058 129.983L480.833 132.741C479.948 134.917 478.977 137.057 477.922 139.157ZM483.231 126.116L476.26 123.898C476.914 121.843 477.488 119.76 477.981 117.656L485.104 119.324C484.568 121.614 483.943 123.88 483.231 126.116ZM486.443 112.407C486.799 110.09 487.065 107.755 487.242 105.407L479.947 104.859C479.785 107.018 479.539 109.166 479.212 111.297L486.443 112.407ZM487.497 98.3658L480.182 98.3832C480.177 96.2297 480.089 94.0699 479.916 91.9088L487.208 91.3271C487.396 93.6765 487.492 96.0245 487.497 98.3658ZM486.377 84.3283L479.152 85.4705C478.816 83.3469 478.397 81.2265 477.894 79.114L485.011 77.4195C485.557 79.7153 486.012 82.0199 486.377 84.3283ZM483.116 70.6321L476.151 72.867C475.495 70.8218 474.756 68.788 473.935 66.7701L480.71 64.0115C481.602 66.2019 482.404 68.4104 483.116 70.6321Z" fill="#F94267"/>
</g>
<path fill-rule="evenodd" clip-rule="evenodd" d="M204.942 94.0635C217.604 90.0439 226.083 87.9172 242.539 93.2405C247.726 94.9183 251.608 96.4835 254.869 97.7985C264.542 101.699 268.757 103.398 285.375 99.3058C296.022 96.6839 302.573 92.4392 307.3 89.3769C312.438 86.0478 315.419 84.1163 319.16 87.1864C322.682 90.0762 320.587 92.4717 317.769 95.694C314.839 99.0441 311.128 103.288 312.135 109.91C312.174 110.17 312.212 110.456 312.253 110.764C312.854 115.309 314.099 124.725 331.055 128.69C349.163 132.924 360.329 114.462 361.849 87.6855C363.368 60.9091 357.204 15.7405 313.002 9.88275C268.801 4.02499 237.834 25.4961 235.287 68.4957L204.942 94.0635ZM339.905 113.374C345.184 112.572 348.814 107.642 348.012 102.362C347.21 97.0828 342.279 93.4533 337 94.2555C331.721 95.0577 328.091 99.9879 328.893 105.267C329.696 110.547 334.626 114.176 339.905 113.374Z" fill="#FA6885"/>
<path d="M235.349 67.5735C238.582 67.7841 251.681 66.5809 268.903 69.6682C287.477 72.9978 310.221 80.8114 312.629 86.2724" stroke="#FCA8B9" stroke-width="1.84851"/>
<path d="M293.083 23.2839C294.674 27.9288 287.984 32.9961 278.778 36.1499C269.572 39.3037 261.336 39.3499 259.744 34.7049C258.153 30.06 263.589 23.4841 272.795 20.3303C282.001 17.1764 291.492 18.6389 293.083 23.2839Z" fill="#FCA8B9"/>
<defs>
<clipPath id="clip0_1654_116283">
<rect x="211.049" y="51.4836" width="140.487" height="140.487" rx="70.2433" transform="rotate(-5.26281 211.049 51.4836)" fill="white"/>
</clipPath>
</defs>
</svg>
