<svg width="292" height="411" viewBox="0 0 292 411" fill="none" xmlns="http://www.w3.org/2000/svg">
<path d="M69.0454 336.555C63.7341 380.01 171.11 378.078 161.601 399.474C148.85 428.164 115.379 380.348 148.85 359.627C175.627 343.051 232.529 354.752 257.764 342.626C283 330.5 313.976 315 257.764 285" stroke="#D7D8E2" stroke-width="3.86266" stroke-linecap="round"/>
<mask id="mask0_1654_116248" style="mask-type:alpha" maskUnits="userSpaceOnUse" x="43" y="2" width="130" height="347">
<path fill-rule="evenodd" clip-rule="evenodd" d="M135.035 2.78741C128.52 1.21455 122.01 5.39323 120.728 11.9707L62.7633 309.208C62.2066 312.063 60.075 314.3 57.4601 315.573C56.3335 316.122 55.236 316.744 54.1744 317.437C50.8185 319.628 47.8868 322.482 45.5467 325.838C45.4442 325.985 45.3429 326.133 45.2429 326.281C41.6151 331.671 45.6551 338.231 51.9704 339.755L69.302 343.94L86.6336 348.125C92.9489 349.65 99.537 345.656 98.7681 339.205C98.7469 339.027 98.7243 338.85 98.7001 338.672C98.149 334.618 96.8428 330.74 94.8563 327.26C94.2284 326.16 93.5364 325.107 92.7851 324.105C91.0587 321.803 90.1831 318.879 90.9567 316.108L172.406 24.3396C174.197 17.9253 170.31 11.3049 163.837 9.74185L135.035 2.78741Z" fill="#FFCD67"/>
</mask>
<g mask="url(#mask0_1654_116248)">
<rect x="121.152" y="-10.7981" width="66.5951" height="228.15" transform="rotate(13.5745 121.152 -10.7981)" fill="#FB8099"/>
<rect x="65.8662" y="218.171" width="66.5951" height="12.3324" transform="rotate(13.5745 65.8662 218.171)" fill="#FB8099"/>
<rect x="62.9727" y="230.159" width="66.5951" height="108.525" transform="rotate(13.5745 62.9727 230.159)" fill="#F2F3F6"/>
</g>
<mask id="mask1_1654_116248" style="mask-type:alpha" maskUnits="userSpaceOnUse" x="4" y="32" width="278" height="275">
<path fill-rule="evenodd" clip-rule="evenodd" d="M8.3978 56.4816C3.65924 61.2202 3.83068 68.9541 8.77457 73.478L232.191 277.916C234.336 279.88 235.133 282.865 234.857 285.76C234.738 287.008 234.696 288.269 234.734 289.536C234.854 293.542 235.761 297.532 237.404 301.278C237.476 301.442 237.549 301.606 237.624 301.769C240.332 307.674 248.036 307.647 252.629 303.053L265.237 290.446L277.844 277.838C282.438 273.244 282.466 265.54 276.56 262.833C276.397 262.758 276.233 262.685 276.069 262.613C272.323 260.97 268.333 260.062 264.327 259.943C263.061 259.905 261.802 259.946 260.555 260.065C257.691 260.338 254.74 259.561 252.778 257.456L46.2739 35.8288C41.734 30.9565 34.0584 30.821 29.3494 35.53L8.3978 56.4816Z" fill="#FFCD67"/>
</mask>
<g mask="url(#mask1_1654_116248)">
<rect x="-10.4336" y="61.2444" width="66.5951" height="228.15" transform="rotate(-45 -10.4336 61.2444)" fill="#FA6885"/>
<rect x="156.125" y="227.803" width="66.5951" height="12.3324" transform="rotate(-45 156.125 227.803)" fill="#FA6885"/>
<rect x="164.845" y="236.523" width="66.5951" height="108.525" transform="rotate(-45 164.845 236.523)" fill="#F2F3F6"/>
</g>
<path d="M31.0311 65.9482L28.2856 63.2027L37.9756 53.5127L40.7211 56.2582L31.0311 65.9482ZM38.7254 66.0982L34.5956 61.9684L36.8682 59.6959L40.998 63.8256L38.7254 66.0982ZM44.4587 59.9958L47.2042 62.7413L37.5142 72.4313L34.7687 69.6858L44.4587 59.9958Z" fill="white"/>
<path d="M49.9368 67.6434C49.4523 67.1589 49.2101 66.6398 49.1755 66.0745C49.1409 65.5093 49.337 65.0363 49.7292 64.6441C50.1214 64.2519 50.6059 64.0673 51.1596 64.0904C51.7249 64.125 52.244 64.3673 52.7285 64.8518C53.213 65.3363 53.4668 65.8438 53.5129 66.3975C53.559 66.9513 53.3745 67.4127 52.9707 67.8164C52.567 68.2202 52.0594 68.4278 51.5057 68.4048C50.9404 68.3932 50.4213 68.1279 49.9368 67.6434Z" fill="#F2F3F6"/>
<mask id="mask2_1654_116248" style="mask-type:luminance" maskUnits="userSpaceOnUse" x="49" y="64" width="5" height="5">
<path d="M49.9358 67.6434C49.4513 67.1589 49.2091 66.6398 49.1745 66.0745C49.1399 65.5093 49.336 65.0363 49.7282 64.6441C50.1204 64.2519 50.6049 64.0673 51.1586 64.0904C51.7239 64.125 52.243 64.3673 52.7275 64.8518C53.212 65.3363 53.4658 65.8438 53.5119 66.3975C53.5581 66.9513 53.3735 67.4127 52.9697 67.8164C52.566 68.2202 52.0584 68.4278 51.5047 68.4048C50.9395 68.3932 50.4203 68.1279 49.9358 67.6434Z" fill="white"/>
</mask>
<g mask="url(#mask2_1654_116248)">
<path fill-rule="evenodd" clip-rule="evenodd" d="M50.4901 63.9979C50.0759 63.5838 49.4045 63.5838 48.9904 63.9979C48.5763 64.412 48.5763 65.0834 48.9904 65.4975C49.4045 65.9116 50.0759 65.9116 50.4901 65.4975C50.9042 65.0834 50.9042 64.412 50.4901 63.9979ZM48.7597 63.7672C49.3012 63.2256 50.1792 63.2256 50.7208 63.7672C51.2623 64.3087 51.2623 65.1867 50.7208 65.7282C50.1792 66.2698 49.3012 66.2698 48.7597 65.7282C48.2182 65.1867 48.2182 64.3087 48.7597 63.7672Z" fill="#F94267"/>
<path fill-rule="evenodd" clip-rule="evenodd" d="M53.5809 67.0889C53.1668 66.6748 52.4953 66.6748 52.0812 67.0889C51.6671 67.5031 51.6671 68.1745 52.0812 68.5886C52.4953 69.0027 53.1668 69.0027 53.5809 68.5886C53.995 68.1745 53.995 67.5031 53.5809 67.0889ZM51.8505 66.8582C52.3921 66.3167 53.2701 66.3167 53.8116 66.8582C54.3531 67.3998 54.3531 68.2778 53.8116 68.8193C53.2701 69.3608 52.3921 69.3608 51.8505 68.8193C51.309 68.2778 51.309 67.3998 51.8505 66.8582Z" fill="#F94267"/>
</g>
<path d="M40.0399 74.9111L47.5381 67.4128L50.1682 70.043L42.67 77.5412L40.0399 74.9111Z" fill="#FCA8B9"/>
<path d="M47.3067 82.2248L54.828 74.7035L51.8518 71.7273L54.0205 69.5586L62.6954 78.2335L60.5267 80.4022L57.562 77.4375L50.0407 84.9588L47.2952 82.2133L47.3067 82.2248Z" fill="white"/>
<path d="M57.2211 92.1395L58.9399 90.4207L71.4101 89.3478L70.7756 90.6514L64.8693 84.7451L67.038 82.5764L75.3899 90.9282L73.6711 92.6471L61.2009 93.7199L61.8354 92.4163L68.0762 98.6572L65.9075 100.826L57.2326 92.151L57.2211 92.1395Z" fill="white"/>
<path d="M70.5802 105.752C69.7612 104.933 69.1959 104.045 68.8845 103.064C68.5846 102.095 68.5384 101.126 68.7576 100.192C68.9768 99.2343 69.4728 98.3922 70.2342 97.6308C70.9955 96.8695 71.8492 96.385 72.7836 96.1658C73.7179 95.9466 74.687 95.9928 75.6444 96.3042C76.6019 96.6157 77.5017 97.1694 78.3322 98C79.1628 98.8305 79.7281 99.7188 80.028 100.688C80.351 101.657 80.3856 102.614 80.1664 103.549C79.9473 104.483 79.4628 105.337 78.7014 106.098C77.94 106.859 77.0864 107.344 76.1405 107.575C75.1945 107.805 74.2255 107.759 73.2681 107.448C72.2875 107.136 71.3993 106.571 70.5802 105.752ZM72.6682 103.664C72.9681 103.964 73.3142 104.172 73.6833 104.264C74.0525 104.356 74.4562 104.345 74.86 104.218C75.2637 104.091 75.6675 103.826 76.0482 103.445C76.4289 103.064 76.6826 102.672 76.798 102.28C76.9134 101.888 76.9364 101.495 76.8326 101.115C76.7403 100.745 76.5327 100.399 76.2327 100.099C75.9328 99.7995 75.5983 99.6034 75.2291 99.5112C74.86 99.4189 74.4678 99.4189 74.064 99.5458C73.6603 99.6727 73.2565 99.9149 72.8874 100.284C72.5182 100.653 72.2529 101.057 72.126 101.484C71.9991 101.911 71.9876 102.291 72.0799 102.66C72.1722 103.03 72.3683 103.364 72.6682 103.664Z" fill="white"/>
<path d="M79.0239 113.941L76.2784 111.196L84.2266 103.248L86.9721 105.993L79.0239 113.941ZM86.2222 114.611L82.0924 110.481L84.365 108.208L88.4948 112.338L86.2222 114.611ZM87.745 111.588L90.4905 114.334L84.9533 119.871L82.2078 117.125L87.745 111.588Z" fill="#FCA8B9"/>
<path d="M90.5718 125.743C89.6836 124.855 89.0837 123.909 88.7607 122.917C88.4377 121.925 88.38 120.944 88.6107 119.999C88.8299 119.041 89.326 118.199 90.0642 117.461C90.8025 116.722 91.6562 116.215 92.5906 115.996C93.5365 115.765 94.4709 115.8 95.4399 116.099C96.3858 116.399 97.2741 116.942 98.0585 117.726C98.7968 118.464 99.3159 119.283 99.6274 120.195C99.9388 121.106 99.985 122.029 99.7543 122.975C99.5351 123.909 99.0044 124.809 98.1739 125.639C98.0816 125.732 97.9778 125.836 97.8393 125.951C97.724 126.066 97.5855 126.159 97.4817 126.262L91.5408 120.322L92.9251 118.937L97.4702 123.482L96.0859 122.882C96.432 122.536 96.6627 122.19 96.7896 121.81C96.9049 121.417 96.9049 121.048 96.8126 120.679C96.7204 120.31 96.5127 119.964 96.2012 119.652C95.8898 119.341 95.5437 119.133 95.1746 119.041C94.8054 118.949 94.4247 118.96 94.0441 119.087C93.6634 119.214 93.2942 119.445 92.9597 119.779L92.556 120.183C92.1868 120.552 91.9446 120.956 91.8292 121.371C91.7139 121.787 91.7254 122.213 91.8753 122.64C92.0253 123.067 92.2791 123.482 92.6828 123.886C93.052 124.255 93.4211 124.509 93.7903 124.67C94.1594 124.832 94.5747 124.924 95.0707 124.959L95.0131 127.785C94.2632 127.82 93.5019 127.681 92.7751 127.37C92.0368 127.047 91.3101 126.528 90.5949 125.813L90.5718 125.743Z" fill="white"/>
</svg>
