<svg width="90" height="21" viewBox="0 0 90 21" fill="none" xmlns="http://www.w3.org/2000/svg">
<path d="M0 4C0 1.79086 1.79086 0 4 0H86C88.2091 0 90 1.79086 90 4V17C90 19.2091 88.2091 21 86 21H4C1.79086 21 0 19.2091 0 17V4Z" fill="#D7D8E2"/>
<path d="M12.0604 10.97C12.2622 11.2397 12.5196 11.4628 12.8151 11.6243C13.1107 11.7858 13.4376 11.8819 13.7736 11.9059C14.1095 11.93 14.4467 11.8815 14.7623 11.7638C15.0779 11.6461 15.3645 11.4619 15.6026 11.2236L17.012 9.81427C17.4398 9.37126 17.6766 8.77791 17.6713 8.16203C17.6659 7.54614 17.4189 6.957 16.9834 6.52148C16.5478 6.08597 15.9587 5.83894 15.3428 5.83358C14.7269 5.82823 14.1336 6.06499 13.6906 6.49287L12.8825 7.29621M13.9396 10.0304C13.7378 9.76066 13.4804 9.53748 13.1848 9.37599C12.8892 9.2145 12.5624 9.11846 12.2264 9.0944C11.8904 9.07034 11.5532 9.11881 11.2376 9.23654C10.9221 9.35426 10.6355 9.53847 10.3974 9.77669L8.98799 11.1861C8.56011 11.6291 8.32335 12.2224 8.3287 12.8383C8.33405 13.4542 8.58109 14.0433 9.0166 14.4788C9.45211 14.9144 10.0413 15.1614 10.6571 15.1667C11.273 15.1721 11.8664 14.9353 12.3094 14.5075L13.1127 13.7041" stroke="white" stroke-width="0.939576" stroke-linecap="round" stroke-linejoin="round"/>
<path d="M32.8755 14.9561H31.7261V5.24512H32.8755V14.9561ZM30.9097 14.4834H29.7817V11.4219H28.5088C28.3298 11.9017 28.0827 12.2723 27.7676 12.5337C27.4561 12.7915 27.0962 12.9186 26.688 12.915C26.269 12.9186 25.9002 12.7808 25.5815 12.5015C25.2664 12.2186 25.0229 11.8158 24.8511 11.293C24.6792 10.7666 24.5933 10.1507 24.5933 9.44531C24.5933 8.73991 24.6792 8.1276 24.8511 7.6084C25.0229 7.08561 25.2664 6.68457 25.5815 6.40527C25.9002 6.12598 26.269 5.98633 26.688 5.98633C27.0962 5.98633 27.4561 6.11523 27.7676 6.37305C28.0791 6.62728 28.3262 6.99251 28.5088 7.46875H29.7817V5.41699H30.9097V14.4834ZM26.688 7.11426C26.3693 7.1071 26.1222 7.30583 25.9468 7.71045C25.7713 8.11507 25.6854 8.69336 25.689 9.44531C25.6854 10.1973 25.7713 10.7756 25.9468 11.1802C26.1222 11.5848 26.3693 11.7835 26.688 11.7764C26.9028 11.7799 27.0872 11.6922 27.2412 11.5132C27.3988 11.3341 27.5187 11.0692 27.6011 10.7183C27.687 10.3674 27.73 9.94303 27.73 9.44531C27.73 8.94759 27.687 8.52327 27.6011 8.17236C27.5187 7.82145 27.3988 7.55648 27.2412 7.37744C27.0872 7.1984 26.9028 7.11068 26.688 7.11426ZM28.7505 8.43555C28.8006 8.75781 28.8257 9.0944 28.8257 9.44531C28.8257 9.77474 28.8024 10.1077 28.7559 10.4443H29.7817V8.43555H28.7505ZM42.3823 14.9561H41.2329V9.98242H40.2017V14.4834H39.0737V5.41699H40.2017V8.99414H41.2329V5.24512H42.3823V14.9561ZM38.1177 12.4531H34.3042V6.29785H38.1177V12.4531ZM35.4214 11.5078H37.0005V7.24316H35.4214V11.5078ZM51.1157 9.1123H52.6089V10.1006H51.1157V14.9561H49.9341V5.24512H51.1157V9.1123ZM49.1821 7.69434H43.4565V6.73828H45.7554V5.38477H46.9478V6.73828H49.1821V7.69434ZM46.3569 8.32812C46.8188 8.32812 47.2342 8.4266 47.603 8.62354C47.9754 8.81689 48.2673 9.08724 48.4785 9.43457C48.6898 9.7819 48.7954 10.1758 48.7954 10.6162C48.7954 11.0566 48.6898 11.4505 48.4785 11.7979C48.2673 12.1416 47.9754 12.4102 47.603 12.6035C47.2342 12.7969 46.8188 12.8936 46.3569 12.8936C45.8879 12.8936 45.4671 12.7969 45.0947 12.6035C44.7223 12.4102 44.4305 12.1416 44.2192 11.7979C44.008 11.4505 43.9041 11.0566 43.9077 10.6162C43.9041 10.1758 44.008 9.7819 44.2192 9.43457C44.4305 9.08724 44.7223 8.81689 45.0947 8.62354C45.4671 8.4266 45.8879 8.32812 46.3569 8.32812ZM46.3569 9.30566C46.1027 9.30566 45.8753 9.35938 45.6748 9.4668C45.4779 9.57422 45.3239 9.72819 45.2129 9.92871C45.1019 10.1257 45.0464 10.3548 45.0464 10.6162C45.0464 10.8776 45.1019 11.1068 45.2129 11.3037C45.3239 11.4971 45.4779 11.6475 45.6748 11.7549C45.8753 11.8587 46.1027 11.9089 46.3569 11.9053C46.604 11.9089 46.8242 11.8587 47.0176 11.7549C47.2145 11.6475 47.3685 11.4971 47.4795 11.3037C47.5941 11.1068 47.6532 10.8776 47.6567 10.6162C47.6532 10.3548 47.5941 10.1257 47.4795 9.92871C47.3685 9.73177 47.2145 9.57959 47.0176 9.47217C46.8242 9.36117 46.604 9.30566 46.3569 9.30566ZM61.1489 14.9668H59.9565V9.7998H58.2915V8.82227H59.9565V5.24512H61.1489V14.9668ZM57.7329 9.64941H54.5532V11.6904C55.3517 11.6868 56.05 11.6654 56.6479 11.626C57.2495 11.5866 57.8547 11.5114 58.4634 11.4004L58.5601 12.3779C57.8761 12.4997 57.1976 12.582 56.5244 12.625C55.8512 12.668 55.0581 12.6895 54.145 12.6895H53.3716V8.68262H56.562V7.06055H53.3394V6.09375H57.7329V9.64941ZM72.7397 9.03711H74.1792V10.0361H72.7397V14.9346H71.5474V5.24512H72.7397V9.03711ZM70.1724 6.25488C70.1724 9.44173 68.7007 11.7585 65.7573 13.2051L65.0806 12.2812C66.2622 11.694 67.1735 10.9832 67.8145 10.1489C68.459 9.31462 68.8421 8.34603 68.9639 7.24316H65.6069V6.25488H70.1724ZM82.7515 14.9561H81.5483V5.24512H82.7515V14.9561ZM79.8511 6.27637C79.8511 7.81966 79.502 9.17497 78.8037 10.3423C78.1055 11.506 76.9471 12.471 75.3286 13.2373L74.7056 12.2812C75.9552 11.6868 76.8952 10.9761 77.5254 10.1489C78.1592 9.3182 78.5298 8.34245 78.6372 7.22168H75.1997V6.27637H79.8511Z" fill="#454858"/>
</svg>
