<svg width="252" height="245" viewBox="0 0 252 245" fill="none" xmlns="http://www.w3.org/2000/svg">
<g clip-path="url(#clip0_1653_116242)">
<rect width="187.284" height="187.284" rx="93.642" transform="matrix(0.91948 0.393138 -0.423347 0.905968 79.6772 0.951416)" fill="#FEECF0"/>
<path fill-rule="evenodd" clip-rule="evenodd" d="M88.9306 125.21L78.3343 122.5C78.7791 120.965 79.1966 119.415 79.5862 117.851C79.9758 116.287 80.3337 114.724 80.6605 113.162L91.452 115.088C91.0977 116.781 90.7097 118.475 90.2875 120.17C89.8654 121.865 89.4128 123.545 88.9306 125.21ZM93.1907 104.842L82.2631 103.718C82.6782 100.535 82.9658 97.3632 83.1296 94.2088L94.1315 94.5162C93.9536 97.9428 93.6412 101.387 93.1907 104.842ZM94.2625 84.1638L83.2502 84.6806C83.1651 81.494 82.9541 78.3306 82.6212 75.1966L93.5788 73.8557C93.9407 77.2625 94.17 80.7007 94.2625 84.1638ZM92.081 63.6394L81.2433 65.7984C80.6582 62.6783 79.9509 59.5945 79.1252 56.5535L89.7783 53.5885C90.6759 56.8948 91.4449 60.2474 92.081 63.6394ZM86.6825 43.7567L76.278 47.5107C75.2068 44.53 74.0188 41.5996 72.7182 38.7262L82.8115 34.2042C84.226 37.3292 85.5178 40.5157 86.6825 43.7567ZM78.1875 24.9908L68.467 30.2556C66.9354 27.4868 65.2941 24.7825 63.5473 22.1495L72.8343 16.1705C74.7355 19.0362 76.5214 21.9787 78.1875 24.9908ZM66.7821 7.80141L57.9881 14.4621C56.032 11.9753 53.9746 9.56678 51.8201 7.24314L60.0627 -0.0629006C62.4105 2.46935 64.6518 5.09322 66.7821 7.80141ZM52.7142 -7.36798L45.0796 0.542365C42.7453 -1.59637 40.3188 -3.64436 37.8046 -5.59517L44.7771 -14.064C47.5211 -11.9349 50.1683 -9.70049 52.7142 -7.36798ZM36.298 -20.1027L30.0379 -11.1266C27.3827 -12.858 24.6454 -14.4884 21.8296 -16.0115L27.3326 -25.4382C30.4085 -23.7744 33.3984 -21.9935 36.298 -20.1027ZM17.9306 -30.037L13.2232 -20.2211C10.3145 -21.4995 7.33314 -22.6693 4.28275 -23.7244L8.16596 -33.8632C11.4967 -32.7111 14.753 -31.4335 17.9306 -30.037ZM-1.90585 -36.9002C-3.60083 -37.3384 -5.31262 -37.7452 -7.04073 -38.1197C-8.76882 -38.4943 -10.4975 -38.8333 -12.2259 -39.1371L-14.4103 -28.5585C-12.8257 -28.28 -11.2404 -27.9691 -9.65496 -27.6255C-8.06953 -27.2818 -6.49967 -26.9088 -4.94577 -26.5071L-1.90585 -36.9002ZM-22.7013 -40.5538L-24.0086 -29.8566C-27.2452 -30.1643 -30.474 -30.3406 -33.689 -30.3895L-33.2742 -41.1358C-29.762 -41.0823 -26.2355 -40.8897 -22.7013 -40.5538ZM-43.8866 -40.8753L-43.4035 -30.151C-46.6507 -29.9421 -49.8783 -29.6046 -53.0798 -29.1427L-54.4555 -39.7739C-50.9593 -40.2784 -47.434 -40.647 -43.8866 -40.8753ZM-64.9204 -37.8413L-62.6655 -27.3724C-65.8443 -26.6556 -68.9901 -25.8154 -72.0963 -24.856L-75.2095 -35.0959C-71.8219 -36.1423 -68.3897 -37.059 -64.9204 -37.8413ZM-85.2581 -31.5617L-81.3136 -21.6141C-84.3457 -20.4147 -87.3308 -19.0991 -90.262 -17.6716L-95.0065 -27.2669C-91.8143 -28.8214 -88.5624 -30.2546 -85.2581 -31.5617ZM-104.395 -22.2445L-98.8855 -13.0584C-101.698 -11.4136 -104.449 -9.6615 -107.133 -7.80634L-113.369 -16.5297C-110.449 -18.5479 -107.456 -20.4544 -104.395 -22.2445ZM-121.874 -10.1622L-114.952 -1.95214C-117.478 0.0919539 -119.93 2.23348 -122.3 4.46821L-129.864 -3.18058C-127.287 -5.61043 -124.621 -7.93917 -121.874 -10.1622ZM-137.29 4.37066L-129.13 11.4134C-131.308 13.8033 -133.401 16.2802 -135.401 18.84L-144.108 12.4446C-141.933 9.66179 -139.658 6.96899 -137.29 4.37066ZM-150.281 20.9982L-141.08 26.7085C-142.861 29.3845 -144.545 32.137 -146.128 34.9621L-155.768 29.9689C-154.047 26.8986 -152.217 23.907 -150.281 20.9982ZM-160.544 39.3145L-150.524 43.5637C-151.868 46.4623 -153.109 49.4273 -154.241 52.4553L-164.58 48.9697C-163.351 45.6829 -162.004 42.4632 -160.544 39.3145ZM-167.863 58.881C-168.345 60.5461 -168.798 62.2262 -169.22 63.9209C-169.642 65.6157 -170.03 67.3098 -170.384 69.0027L-159.593 70.9287C-159.266 69.3674 -158.908 67.8045 -158.519 66.2405C-158.129 64.6765 -157.711 63.1265 -157.267 61.5908L-167.863 58.881ZM-172.123 79.2486L-161.196 80.3727C-161.611 83.5561 -161.898 86.7278 -162.062 89.8822L-173.064 89.5748C-172.886 86.1483 -172.574 82.7041 -172.123 79.2486ZM-173.195 99.9273L-162.183 99.4104C-162.097 102.597 -161.887 105.76 -161.554 108.894L-172.511 110.235C-172.873 106.829 -173.102 103.39 -173.195 99.9273ZM-171.013 120.452L-160.176 118.293C-159.591 121.413 -158.883 124.497 -158.058 127.538L-168.711 130.503C-169.608 127.196 -170.377 123.844 -171.013 120.452ZM-165.615 140.334L-155.21 136.58C-154.139 139.561 -152.951 142.491 -151.651 145.365L-161.744 149.887C-163.158 146.762 -164.45 143.575 -165.615 140.334ZM-157.12 159.1L-147.399 153.835C-145.868 156.604 -144.226 159.308 -142.48 161.942L-151.767 167.921C-153.668 165.055 -155.454 162.112 -157.12 159.1ZM-145.714 176.29L-136.92 169.629C-134.964 172.116 -132.907 174.524 -130.753 176.848L-138.995 184.154C-141.343 181.622 -143.584 178.998 -145.714 176.29ZM-131.647 191.459L-124.012 183.549C-121.678 185.687 -119.251 187.735 -116.737 189.686L-123.71 198.155C-126.454 196.026 -129.101 193.792 -131.647 191.459ZM-115.23 204.194L-108.97 195.218C-106.315 196.949 -103.578 198.579 -100.762 200.103L-106.265 209.529C-109.341 207.865 -112.331 206.085 -115.23 204.194ZM-96.863 214.128L-92.1556 204.312C-89.2468 205.591 -86.2655 206.76 -83.2151 207.815L-87.0983 217.954C-90.4291 216.802 -93.6854 215.525 -96.863 214.128ZM-77.0265 220.991L-73.9866 210.598C-72.4327 211 -70.8628 211.373 -69.2774 211.716C-67.692 212.06 -66.1067 212.371 -64.5221 212.65L-66.7065 223.228C-68.4349 222.924 -70.1636 222.585 -71.8916 222.211C-73.6198 221.836 -75.3315 221.429 -77.0265 220.991ZM-56.231 224.645L-54.9238 213.948C-51.6872 214.255 -48.4584 214.432 -45.2433 214.481L-45.6582 225.227C-49.1704 225.173 -52.6969 224.981 -56.231 224.645ZM-35.0457 224.966L-35.5289 214.242C-32.2817 214.033 -29.0541 213.696 -25.8526 213.234L-24.4768 223.865C-27.9731 224.369 -31.4984 224.738 -35.0457 224.966ZM-14.0119 221.932L-16.2669 211.463C-13.0881 210.747 -9.94224 209.906 -6.83604 208.947L-3.72288 219.187C-7.11051 220.233 -10.5427 221.15 -14.0119 221.932ZM6.32573 215.653L2.38126 205.705C5.41333 204.506 8.39847 203.19 11.3297 201.763L16.0741 211.358C12.882 212.912 9.63003 214.346 6.32573 215.653ZM25.4623 206.336L19.9531 197.149C22.7655 195.505 25.5169 193.753 28.2004 191.897L34.4363 200.621C31.5171 202.639 28.5233 204.545 25.4623 206.336ZM42.9417 194.253C45.6884 192.03 48.3542 189.701 50.9315 187.272L43.3675 179.623C40.9971 181.858 38.5457 183.999 36.02 186.043L42.9417 194.253ZM58.3575 179.72L50.1975 172.678C52.3761 170.288 54.4686 167.811 56.4687 165.251L65.1753 171.646C63.001 174.429 60.726 177.122 58.3575 179.72ZM71.349 163.093C73.2841 160.184 75.1151 157.192 76.8352 154.122L67.1955 149.129C65.6128 151.954 63.9281 154.707 62.1479 157.383L71.349 163.093ZM81.6112 144.777L71.5912 140.527C72.9353 137.629 74.1764 134.664 75.3086 131.636L85.6479 135.121C84.4188 138.408 83.0712 141.628 81.6112 144.777Z" fill="#F94267"/>
<path fill-rule="evenodd" clip-rule="evenodd" d="M419.099 184.461L408.103 184.04C408.203 182.454 408.273 180.86 408.312 179.258C408.351 177.657 408.36 176.063 408.338 174.477L419.353 174.095C419.377 175.815 419.368 177.543 419.325 179.278C419.282 181.014 419.207 182.742 419.099 184.461ZM418.812 163.772L407.839 164.961C407.548 161.78 407.135 158.637 406.603 155.536L417.47 153.537C418.047 156.905 418.496 160.319 418.812 163.772ZM415.327 143.446L404.631 146.248C403.849 143.168 402.947 140.137 401.933 137.16L412.394 133.568C413.497 136.805 414.476 140.099 415.327 143.446ZM408.683 123.95L398.519 128.312C397.26 125.401 395.889 122.551 394.411 119.767L404.217 114.66C405.824 117.687 407.314 120.785 408.683 123.95ZM399.022 105.749L389.633 111.571C387.927 108.897 386.118 106.297 384.211 103.775L393.126 97.2711C395.2 100.014 397.168 102.841 399.022 105.749ZM386.566 89.2803L378.18 96.4282C376.069 94.0565 373.865 91.7704 371.573 89.5756L379.377 81.8239C381.872 84.2127 384.27 86.7002 386.566 89.2803ZM371.6 74.9521L364.43 83.2636C361.964 81.2546 359.416 79.3429 356.791 77.534L363.279 68.7104C366.139 70.6817 368.915 72.7643 371.6 74.9521ZM354.463 63.1436L348.705 72.4277C345.945 70.8361 343.114 69.3519 340.218 67.9806L345.204 58.2918C348.364 59.7885 351.453 61.4078 354.463 63.1436ZM335.556 54.1922L331.381 64.2253C328.395 63.0967 325.35 62.0834 322.252 61.1908L325.585 50.8777C328.97 51.8529 332.295 52.9596 335.556 54.1922ZM315.348 48.3707L312.881 58.8959C309.745 58.2606 306.562 57.746 303.337 57.3573L304.924 46.6903C308.446 47.1147 311.922 47.6767 315.348 48.3707ZM294.371 45.8413L293.668 56.5795C292.054 56.5135 290.432 56.4787 288.8 56.4757C287.169 56.4727 285.544 56.5016 283.928 56.5617L283.751 45.8219C285.514 45.7564 287.285 45.7249 289.064 45.7281C290.842 45.7314 292.612 45.7693 294.371 45.8413ZM273.158 46.6324L274.222 57.3042C270.977 57.6811 267.769 58.184 264.603 58.8078L262.652 48.2745C266.112 47.5931 269.615 47.0439 273.158 46.6324ZM252.293 50.744L255.12 61.0683C251.979 61.9495 248.885 62.9516 245.843 64.0693L242.161 54.0218C245.482 52.8012 248.861 51.7067 252.293 50.744ZM232.313 58.0859L236.823 67.7919C233.86 69.1526 230.956 70.6263 228.118 72.2077L222.816 62.9034C225.911 61.1787 229.079 59.5709 232.313 58.0859ZM213.728 68.4375L219.782 77.284C217.069 79.0832 214.427 80.9854 211.864 82.9852L205.101 74.6483C207.894 72.4705 210.771 70.3982 213.728 68.4375ZM196.988 81.4911L204.411 89.2706C202.012 91.4569 199.695 93.7347 197.468 96.0985L189.433 88.9206C191.856 86.3491 194.376 83.8706 196.988 81.4911ZM182.482 96.8868L191.077 103.422C189.047 105.937 187.11 108.531 185.274 111.198L176.171 105.342C178.168 102.442 180.274 99.6214 182.482 96.8868ZM170.539 114.234L180.094 119.376C178.479 122.154 176.969 124.999 175.567 127.905L165.618 123.506C167.142 120.347 168.784 117.254 170.539 114.234ZM161.435 133.11L171.719 136.74C170.559 139.713 169.509 142.741 168.575 145.818L158.018 142.977C159.033 139.633 160.174 136.342 161.435 133.11ZM155.381 153.059L166.148 155.097C165.465 158.196 164.897 161.337 164.45 164.517L153.537 163.288C154.022 159.836 154.638 156.425 155.381 153.059ZM152.489 173.608C152.381 175.328 152.305 177.056 152.263 178.791C152.22 180.527 152.211 182.255 152.235 183.974L163.25 183.593C163.228 182.007 163.236 180.413 163.276 178.811C163.315 177.21 163.385 175.616 163.484 174.03L152.489 173.608ZM152.776 194.298L163.748 193.108C164.039 196.29 164.453 199.433 164.984 202.534L154.118 204.532C153.541 201.164 153.092 197.751 152.776 194.298ZM156.261 214.623L166.956 211.821C167.739 214.901 168.64 217.932 169.655 220.91L159.193 224.501C158.091 221.265 157.111 217.971 156.261 214.623ZM162.905 234.12L173.069 229.758C174.328 232.669 175.699 235.519 177.176 238.303L167.37 243.41C165.764 240.383 164.273 237.285 162.905 234.12ZM172.566 252.321L181.955 246.499C183.66 249.173 185.469 251.773 187.376 254.295L178.461 260.799C176.387 258.056 174.42 255.228 172.566 252.321ZM185.021 268.789L193.407 261.641C195.518 264.013 197.723 266.299 200.015 268.494L192.211 276.246C189.716 273.857 187.318 271.369 185.021 268.789ZM199.988 283.118L207.158 274.806C209.624 276.815 212.172 278.727 214.796 280.536L208.309 289.359C205.448 287.388 202.673 285.305 199.988 283.118ZM217.124 294.926L222.882 285.642C225.643 287.234 228.474 288.718 231.37 290.089L226.384 299.778C223.223 298.281 220.135 296.662 217.124 294.926ZM236.032 303.877L240.207 293.844C243.193 294.973 246.238 295.986 249.336 296.879L246.002 307.192C242.618 306.217 239.292 305.11 236.032 303.877ZM256.24 309.699L258.707 299.174C261.842 299.809 265.025 300.324 268.251 300.712L266.664 311.379C263.142 310.955 259.665 310.393 256.24 309.699ZM277.216 312.228L277.92 301.49C279.533 301.556 281.156 301.591 282.787 301.594C284.419 301.597 286.043 301.568 287.66 301.508L287.837 312.248C286.073 312.313 284.302 312.345 282.524 312.342C280.745 312.338 278.976 312.3 277.216 312.228ZM298.43 311.437L297.366 300.765C300.61 300.389 303.818 299.886 306.985 299.262L308.935 309.795C305.476 310.477 301.972 311.026 298.43 311.437ZM319.295 307.326L316.468 297.001C319.609 296.12 322.703 295.118 325.744 294L329.427 304.048C326.106 305.268 322.726 306.363 319.295 307.326ZM339.275 299.984L334.765 290.278C337.728 288.917 340.631 287.443 343.47 285.862L348.772 295.166C345.676 296.891 342.509 298.499 339.275 299.984ZM357.86 289.632L351.806 280.786C354.519 278.987 357.16 277.084 359.724 275.084L366.486 283.421C363.694 285.599 360.816 287.671 357.86 289.632ZM374.599 276.579L367.176 268.799C369.576 266.613 371.892 264.335 374.119 261.971L382.154 269.149C379.731 271.721 377.211 274.199 374.599 276.579ZM389.106 261.183L380.51 254.647C382.541 252.133 384.477 249.539 386.314 246.872L395.416 252.727C393.42 255.628 391.314 258.448 389.106 261.183ZM401.049 243.836L391.494 238.694C393.108 235.916 394.619 233.071 396.02 230.165L405.969 234.563C404.446 237.723 402.804 240.816 401.049 243.836ZM410.153 224.959L399.868 221.33C401.029 218.356 402.078 215.329 403.012 212.252L413.57 215.093C412.555 218.437 411.414 221.727 410.153 224.959ZM416.207 205.011L405.44 202.972C406.123 199.874 406.691 196.732 407.138 193.552L418.051 194.782C417.566 198.233 416.949 201.645 416.207 205.011Z" fill="#F94267"/>
</g>
<defs>
<clipPath id="clip0_1653_116242">
<rect width="187.284" height="187.284" rx="93.642" transform="matrix(0.91948 0.393138 -0.423347 0.905968 79.6772 0.951416)" fill="white"/>
</clipPath>
</defs>
</svg>
