<svg width="66" height="66" viewBox="0 0 66 66" fill="none" xmlns="http://www.w3.org/2000/svg">
<g clip-path="url(#clip0_1653_54179)">
<rect width="66" height="66" rx="33" fill="#FEECF0"/>
<path fill-rule="evenodd" clip-rule="evenodd" d="M22.0913 38.1529L18.6955 38.6819C18.6174 38.1805 18.5296 37.6783 18.4319 37.1755C18.3342 36.6727 18.2276 36.1742 18.1123 35.68L21.4591 34.899C21.5842 35.4349 21.6997 35.9753 21.8056 36.5201C21.9114 37.0649 22.0066 37.6092 22.0913 38.1529ZM20.5863 31.7063L17.3078 32.7371C17.0008 31.7607 16.6588 30.8034 16.2838 29.8666L19.4743 28.5893C19.8817 29.6069 20.253 30.6463 20.5863 31.7063ZM18.127 25.5653L15.0437 27.0834C14.5931 26.1682 14.1095 25.2753 13.595 24.4061L16.5524 22.6554C17.1117 23.6002 17.6373 24.5706 18.127 25.5653ZM14.757 19.8733L11.9434 21.8468C11.3585 21.013 10.7435 20.2049 10.1004 19.424L12.7534 17.2392C13.4526 18.0883 14.1212 18.9668 14.757 19.8733ZM10.552 14.7673L8.07571 17.1504C7.37036 16.4175 6.63829 15.7137 5.88158 15.0404L8.16605 12.4728C8.98899 13.205 9.78504 13.9704 10.552 14.7673ZM5.60993 10.3705L3.53155 13.1075C2.72273 12.4934 1.89115 11.9116 1.0389 11.3636L2.89764 8.47286C3.8252 9.06927 4.73005 9.70233 5.60993 10.3705ZM0.045589 6.79318L-1.58081 9.82075C-2.47343 9.34123 -3.38458 8.89705 -4.31214 8.48958L-2.92992 5.34304C-1.91908 5.78709 -0.926487 6.27099 0.045589 6.79318ZM-6.01069 4.13351L-7.13804 7.38011C-8.09238 7.04872 -9.06093 6.75512 -10.0416 6.50067L-9.17849 3.17406C-8.10817 3.45177 -7.0515 3.7721 -6.01069 4.13351ZM-12.4135 2.4729L-13.0049 5.85841C-13.9966 5.6852 -14.9983 5.55156 -16.008 5.45882L-15.6937 2.03646C-14.5906 2.13777 -13.4965 2.28375 -12.4135 2.4729ZM-19.0003 1.86831L-19.0348 5.30489C-20.0385 5.29481 -21.0484 5.3253 -22.0628 5.39768L-22.3074 1.96964C-21.1998 1.89061 -20.0968 1.8573 -19.0003 1.86831ZM-25.5969 2.33843L-25.0768 5.73561C-25.5754 5.81193 -26.0747 5.89856 -26.5745 5.99566C-27.0743 6.09276 -27.5697 6.19938 -28.0605 6.31528L-28.8503 2.9705C-28.3149 2.84408 -27.7747 2.72782 -27.2299 2.62198C-26.6851 2.51614 -26.1407 2.42168 -25.5969 2.33843ZM-32.0385 3.86019L-30.9818 7.13046C-31.9495 7.44314 -32.8974 7.79301 -33.8243 8.17816L-35.143 5.00448C-34.1304 4.58373 -33.0952 4.20161 -32.0385 3.86019ZM-38.1461 6.39847L-36.5733 9.45419C-37.4749 9.91827 -38.3537 10.4172 -39.2083 10.9492L-41.0243 8.03134C-40.0909 7.45046 -39.1311 6.90544 -38.1461 6.39847ZM-43.7615 9.89278L-41.7156 12.6542C-42.5297 13.2574 -43.3178 13.8922 -44.0787 14.5569L-46.3396 11.9685C-45.5098 11.2437 -44.65 10.551 -43.7615 9.89278ZM-48.7434 14.2436L-46.2836 16.6437C-46.9911 17.3688 -47.6697 18.1219 -48.3178 18.9007L-50.9595 16.7024C-50.2536 15.8542 -49.5145 15.0338 -48.7434 14.2436ZM-52.9752 19.3277L-50.1693 21.3122C-50.7544 22.1395 -51.3076 22.9903 -51.8276 23.8626L-54.7797 22.1028C-54.2139 21.1539 -53.6119 20.2281 -52.9752 19.3277ZM-56.3627 25.0094L-53.283 26.5348C-53.7326 27.4424 -54.1479 28.3691 -54.5275 29.3129L-57.7159 28.0303C-57.3032 27.0041 -56.8516 25.9964 -56.3627 25.0094ZM-58.8316 31.1466L-55.5536 32.1791C-55.8576 33.1441 -56.1253 34.1236 -56.3554 35.1158L-59.7033 34.3393C-59.4531 33.2607 -59.1621 32.1957 -58.8316 31.1466ZM-60.3264 37.5913L-56.9286 38.1073C-57.0803 39.1059 -57.1943 40.1149 -57.2695 41.1323L-60.6969 40.879C-60.6152 39.7734 -60.4912 38.6768 -60.3264 37.5913ZM-60.8139 44.1875L-57.3772 44.1774C-57.3742 45.1864 -57.3329 46.2021 -57.252 47.2224L-60.678 47.4941C-60.7658 46.3865 -60.8107 45.2837 -60.8139 44.1875ZM-60.2919 50.7814C-60.2072 51.3251 -60.112 51.8695 -60.0061 52.4143C-59.9003 52.9591 -59.7847 53.4995 -59.6597 54.0353L-56.3129 53.2544C-56.4282 52.7602 -56.5348 52.2617 -56.6325 51.7589C-56.7301 51.2561 -56.818 50.7539 -56.8961 50.2525L-60.2919 50.7814ZM-58.7869 57.2281L-55.5083 56.1973C-55.2013 57.1737 -54.8594 58.1309 -54.4843 59.0677L-57.6749 60.3451C-58.0823 59.3275 -58.4536 58.288 -58.7869 57.2281ZM-56.3276 63.3691L-53.2443 61.851C-52.7936 62.7662 -52.3101 63.6591 -51.7956 64.5282L-54.753 66.279C-55.3123 65.3342 -55.8378 64.3637 -56.3276 63.3691ZM-52.9576 69.0611L-50.144 67.0875C-49.5591 67.9214 -48.9441 68.7294 -48.301 69.5104L-50.9539 71.6952C-51.6532 70.8461 -52.3218 69.9676 -52.9576 69.0611ZM-48.7526 74.1671L-46.2763 71.7839C-45.5709 72.5169 -44.8389 73.2207 -44.0822 73.8939L-46.3666 76.4615C-47.1896 75.7293 -47.9856 74.964 -48.7526 74.1671ZM-43.8105 78.5639L-41.7321 75.8268C-40.9233 76.441 -40.0917 77.0228 -39.2395 77.5708L-41.0982 80.4615C-42.0258 79.8651 -42.9306 79.232 -43.8105 78.5639ZM-38.2462 82.1412L-36.6198 79.1136C-35.7271 79.5931 -34.816 80.0373 -33.8884 80.4448L-35.2707 83.5913C-36.2815 83.1473 -37.2741 82.6634 -38.2462 82.1412ZM-32.1899 84.8009L-31.0625 81.5543C-30.1082 81.8856 -29.1396 82.1792 -28.159 82.4337L-29.0221 85.7603C-30.0924 85.4826 -31.1491 85.1623 -32.1899 84.8009ZM-25.787 86.4615L-25.1957 83.076C-24.204 83.2492 -23.2023 83.3828 -22.1925 83.4755L-22.5068 86.8979C-23.6099 86.7966 -24.7041 86.6506 -25.787 86.4615ZM-19.2002 87.0661L-19.1657 83.6295C-18.1621 83.6396 -17.1521 83.6091 -16.1378 83.5367L-15.8932 86.9647C-17.0008 87.0438 -18.1038 87.0771 -19.2002 87.0661ZM-12.6037 86.5959L-13.1238 83.1988C-12.6252 83.1224 -12.1259 83.0358 -11.6261 82.9387C-11.1263 82.8416 -10.6309 82.735 -10.14 82.6191L-9.35026 85.9639C-9.88569 86.0903 -10.4259 86.2065 -10.9707 86.3124C-11.5155 86.4182 -12.0599 86.5127 -12.6037 86.5959ZM-6.16202 85.0742L-7.21874 81.8039C-6.25107 81.4912 -5.3032 81.1414 -4.3763 80.7562L-3.05756 83.9299C-4.07013 84.3506 -5.10541 84.7327 -6.16202 85.0742ZM-0.0544585 82.5359L-1.62731 79.4802C-0.725707 79.0161 0.153088 78.5171 1.00777 77.9852L2.8237 80.903C1.89035 81.4839 0.93048 82.0289 -0.0544585 82.5359ZM5.5609 79.0416L3.515 76.2801C4.32908 75.677 5.11724 75.0421 5.87809 74.3775L8.13904 76.9658C7.30926 77.6907 6.44938 78.3833 5.5609 79.0416ZM10.5428 74.6908L8.083 72.2906C8.79053 71.5655 9.46909 70.8125 10.1172 70.0336L12.7589 72.232C12.0531 73.0802 11.3139 73.9005 10.5428 74.6908ZM14.7746 69.6066L11.9687 67.6221C12.5538 66.7949 13.107 65.9441 13.6271 65.0717L16.5791 66.8315C16.0134 67.7805 15.4114 68.7063 14.7746 69.6066ZM18.1621 63.925L15.0824 62.3995C15.532 61.4919 15.9473 60.5652 16.3269 59.6215L19.5154 60.9041C19.1026 61.9302 18.651 62.9379 18.1621 63.925ZM20.631 57.7878L17.3531 56.7553C17.657 55.7903 17.9247 54.8107 18.1548 53.8186L21.5027 54.5951C21.2525 55.6737 20.9615 56.7386 20.631 57.7878ZM22.1258 51.3431L18.728 50.8271C18.8797 49.8284 18.9937 48.8195 19.0689 47.8021L22.4963 48.0553C22.4146 49.161 22.2907 50.2576 22.1258 51.3431ZM22.6134 44.7468L19.1766 44.757C19.1736 43.7479 19.1323 42.7323 19.0514 41.7119L22.4774 41.4402C22.5652 42.5478 22.6101 43.6507 22.6134 44.7468Z" fill="#F94267"/>
<path fill-rule="evenodd" clip-rule="evenodd" d="M124.532 14.3523L121.328 15.5957C121.144 15.1226 120.951 14.6508 120.748 14.1806C120.545 13.7104 120.334 13.2462 120.116 12.7881L123.218 11.309C123.455 11.8057 123.683 12.3089 123.903 12.8184C124.123 13.3279 124.333 13.8393 124.532 14.3523ZM121.682 8.37702L118.7 10.0856C118.191 9.19745 117.653 8.33559 117.086 7.50074L119.929 5.5702C120.545 6.47707 121.13 7.41298 121.682 8.37702ZM117.966 2.90457L115.279 5.04734C114.643 4.24973 113.979 3.48103 113.291 2.74209L115.805 0.399053C116.553 1.20228 117.274 2.03777 117.966 2.90457ZM113.456 -1.93442L111.13 0.595517C110.38 -0.0938283 109.606 -0.751578 108.811 -1.37683L110.935 -4.07869C111.8 -3.39891 112.641 -2.68382 113.456 -1.93442ZM108.255 -6.02226L106.347 -3.16441C105.501 -3.72942 104.635 -4.26026 103.752 -4.75599L105.434 -7.75297C106.394 -7.21384 107.336 -6.6366 108.255 -6.02226ZM102.487 -9.25966L101.042 -6.14122C100.121 -6.56807 99.1842 -6.95843 98.2344 -7.31135L99.4315 -10.5329C100.465 -10.1488 101.485 -9.72402 102.487 -9.25966ZM96.2861 -11.5633L95.3452 -8.25785C94.3707 -8.53524 93.3856 -8.77416 92.3923 -8.97369L93.0692 -12.3431C94.1516 -12.1257 95.2247 -11.8654 96.2861 -11.5633ZM89.8009 -12.8654L89.3944 -9.45274C88.3913 -9.57223 87.3823 -9.65176 86.3699 -9.69045L86.5012 -13.1247C87.6061 -13.0825 88.7069 -12.9957 89.8009 -12.8654ZM83.191 -13.1173L83.3379 -9.68371C82.3321 -9.6407 81.325 -9.55688 80.3188 -9.43138L79.8934 -12.8417C80.9927 -12.9788 82.0927 -13.0704 83.191 -13.1173ZM76.6274 -12.2984L77.3291 -8.93402C76.3466 -8.72909 75.3666 -8.48319 74.3912 -8.19541L73.4186 -11.4917C74.4837 -11.8059 75.554 -12.0745 76.6274 -12.2984ZM70.2843 -10.4275L71.5193 -7.22033C71.0486 -7.03909 70.5795 -6.84763 70.112 -6.64582C69.6445 -6.444 69.1834 -6.23384 68.7287 -6.01558L67.2415 -9.11388C67.7375 -9.35195 68.2403 -9.58111 68.7498 -9.80108C69.2593 -10.0211 69.7709 -10.2298 70.2843 -10.4275ZM64.3175 -7.56253L66.0496 -4.59415C65.1712 -4.08163 64.3202 -3.53703 63.4972 -2.96245L61.5298 -5.78041C62.4289 -6.40809 63.3584 -7.00291 64.3175 -7.56253ZM58.8946 -3.77606L61.0849 -1.12771C60.3035 -0.481445 59.5519 0.194033 58.8308 0.896529L56.4325 -1.5651C57.22 -2.33226 58.041 -3.07006 58.8946 -3.77606ZM54.1571 0.83896L56.7465 3.09862C56.0804 3.862 55.4463 4.65084 54.8453 5.46287L52.0829 3.41834C52.7383 2.53273 53.4301 1.6721 54.1571 0.83896ZM50.2216 6.1551L53.1381 7.97323C52.6021 8.83296 52.1004 9.71375 51.634 10.6133L48.583 9.03113C49.091 8.05155 49.6375 7.09202 50.2216 6.1551ZM47.1759 12.027L50.3414 13.3651C49.9469 14.2984 49.5886 15.2479 49.2673 16.2113L46.007 15.124C46.3566 14.0759 46.7465 13.0428 47.1759 12.027ZM45.0827 18.302L48.4174 19.133C48.1725 20.1158 47.9652 21.11 47.7963 22.113L44.4072 21.5425C44.5908 20.4518 44.8163 19.3708 45.0827 18.302ZM43.9843 24.8254L47.4073 25.1325C47.3169 26.1401 47.265 27.1543 47.2525 28.1727L43.816 28.1306C43.8296 27.0235 43.886 25.9209 43.9843 24.8254ZM43.9033 31.4406L47.3328 31.2176C47.3983 32.2255 47.5028 33.2355 47.6471 34.2454L44.2449 34.7315C44.0881 33.634 43.9745 32.5362 43.9033 31.4406ZM44.8385 37.9884L48.1935 37.243C48.4124 38.2281 48.6701 39.2113 48.9675 40.1908L45.679 41.1893C45.3562 40.1262 45.0763 39.0585 44.8385 37.9884ZM46.7596 44.3178C46.9587 44.8308 47.1682 45.3422 47.3881 45.8517C47.6081 46.3613 47.8366 46.8644 48.0734 47.3611L51.1756 45.882C50.9572 45.424 50.7464 44.9598 50.5434 44.4895C50.3404 44.0193 50.1471 43.5475 49.9635 43.0744L46.7596 44.3178ZM49.6093 50.2931L52.5913 48.5846C53.1001 49.4727 53.639 50.3345 54.2058 51.1694L51.3625 53.0999C50.7468 52.1931 50.1617 51.2572 49.6093 50.2931ZM53.3258 55.7656L56.0127 53.6228C56.6488 54.4204 57.3122 55.1891 58.0008 55.928L55.4866 58.2711C54.738 57.4678 54.017 56.6324 53.3258 55.7656ZM57.8357 60.6045L60.1618 58.0746C60.9116 58.764 61.6853 59.4217 62.4806 60.047L60.3567 62.7488C59.4919 62.069 58.6508 61.354 57.8357 60.6045ZM63.036 64.6924L64.9449 61.8345C65.7908 62.3996 66.6565 62.9304 67.5398 63.4261L65.8577 66.4231C64.8971 65.884 63.9557 65.3067 63.036 64.6924ZM68.8045 67.9298L70.249 64.8113C71.1705 65.2382 72.1073 65.6286 73.0571 65.9815L71.86 69.203C70.8263 68.8189 69.807 68.3942 68.8045 67.9298ZM75.0054 70.2335L75.9463 66.928C76.9208 67.2054 77.9059 67.4443 78.8992 67.6438L78.2223 71.0133C77.1399 70.7958 76.0667 70.5355 75.0054 70.2335ZM81.4906 71.5355L81.8971 68.1229C82.9002 68.2424 83.9091 68.3219 84.9216 68.3606L84.7903 71.7948C83.6854 71.7526 82.5846 71.6658 81.4906 71.5355ZM88.1005 71.7875L87.9536 68.3538C88.9594 68.3108 89.9665 68.227 90.9727 68.1015L91.3981 71.5118C90.2988 71.649 89.1988 71.7405 88.1005 71.7875ZM94.664 70.9685L93.9623 67.6042C94.9449 67.3992 95.9249 67.1533 96.9003 66.8655L97.8728 70.1618C96.8078 70.4761 95.7375 70.7446 94.664 70.9685ZM101.007 69.0977L99.7722 65.8905C100.243 65.7092 100.712 65.5178 101.179 65.3159C101.647 65.1141 102.108 64.904 102.563 64.6857L104.05 67.784C103.554 68.0221 103.051 68.2512 102.542 68.4712C102.032 68.6912 101.521 68.9 101.007 69.0977ZM106.974 66.2327L105.242 63.2643C106.12 62.7518 106.971 62.2072 107.794 61.6326L109.762 64.4505C108.863 65.0782 107.933 65.673 106.974 66.2327ZM112.397 62.4462L110.207 59.7978C110.988 59.1516 111.74 58.4761 112.461 57.7736L114.859 60.2352C114.072 61.0024 113.251 61.7402 112.397 62.4462ZM117.134 57.8312L114.545 55.5715C115.211 54.8081 115.845 54.0193 116.446 53.2073L119.209 55.2518C118.553 56.1374 117.861 56.998 117.134 57.8312ZM121.07 52.515L118.153 50.6969C118.689 49.8372 119.191 48.9564 119.658 48.0569L122.708 49.639C122.2 50.6186 121.654 51.5781 121.07 52.515ZM124.116 46.6431L120.95 45.305C121.345 44.3717 121.703 43.4222 122.024 42.4588L125.284 43.5461C124.935 44.5942 124.545 45.6274 124.116 46.6431ZM126.209 40.3682L122.874 39.5371C123.119 38.5543 123.326 37.5602 123.495 36.5571L126.884 37.1277C126.701 38.2184 126.475 39.2994 126.209 40.3682ZM127.307 33.8448L123.884 33.5377C123.975 32.53 124.026 31.5159 124.039 30.4974L127.475 30.5395C127.462 31.6467 127.406 32.7492 127.307 33.8448ZM127.388 27.2295L123.959 27.4525C123.893 26.4446 123.789 25.4346 123.644 24.4247L127.047 23.9386C127.203 25.0362 127.317 26.1339 127.388 27.2295ZM126.453 20.6817L123.098 21.4271C122.879 20.442 122.621 19.4588 122.324 18.4794L125.613 17.4808C125.935 18.544 126.215 19.6117 126.453 20.6817Z" fill="#F94267"/>
</g>
<defs>
<clipPath id="clip0_1653_54179">
<rect width="66" height="66" rx="33" fill="white"/>
</clipPath>
</defs>
</svg>
