<svg width="148" height="153" viewBox="0 0 148 153" fill="none" xmlns="http://www.w3.org/2000/svg">
<g clip-path="url(#clip0_1653_116245)">
<rect width="111.12" height="111.12" rx="55.56" transform="matrix(0.882386 -0.470527 0.441072 0.897472 0.240234 52.285)" fill="#F2F3F6"/>
<path fill-rule="evenodd" clip-rule="evenodd" d="M61.1511 94.1833L55.9598 98.0772C55.4148 97.3008 54.8531 96.5317 54.2745 95.7702C53.6959 95.0088 53.106 94.2624 52.5053 93.5311L57.4066 89.2556C58.0579 90.0486 58.6973 90.8576 59.3243 91.6827C59.9512 92.5077 60.5601 93.3415 61.1511 94.1833ZM53.3138 84.6437L48.7329 89.2801C47.4148 87.9051 46.0547 86.5934 44.6566 85.3453L48.8874 80.371C50.4061 81.7267 51.883 83.1511 53.3138 84.6437ZM44.1479 76.4631L40.2944 81.7486C38.7889 80.6037 37.2474 79.5257 35.6741 78.515L39.1261 72.9485C40.8363 74.0472 42.5117 75.2189 44.1479 76.4631ZM33.8442 69.8446L30.8152 75.6596C29.1547 74.7707 27.4655 73.9518 25.7521 73.2035L28.3398 67.1744C30.2025 67.988 32.039 68.8782 33.8442 69.8446ZM22.6419 64.9524L20.5115 71.1599C18.7348 70.5476 16.938 70.008 15.1256 69.5417L16.7851 63.1929C18.7561 63.7 20.71 64.2867 22.6419 64.9524ZM10.8053 61.9076C8.79296 61.5588 6.76829 61.2913 4.73634 61.1056L4.05039 67.623C5.91737 67.7936 7.7781 68.0395 9.62791 68.3601L10.8053 61.9076ZM-1.38374 60.7947L-1.57113 67.3374C-3.44829 67.318 -5.32688 67.3745 -7.20227 67.5074L-7.51828 60.98C-5.47452 60.8351 -3.42799 60.7735 -1.38374 60.7947ZM-13.6279 61.664L-12.8065 68.1348C-14.6632 68.4197 -16.5122 68.7809 -18.3488 69.2188L-19.6746 62.8466C-17.6701 62.3686 -15.6529 61.9747 -13.6279 61.664ZM-25.6188 64.5242L-23.7936 70.7554C-25.5812 71.34 -27.3525 72.0002 -29.1034 72.7365L-31.4184 66.688C-29.5057 65.8837 -27.5709 65.1626 -25.6188 64.5242ZM-37.0394 69.3276L-34.2488 75.1527C-35.9211 76.023 -37.5701 76.9671 -39.1917 77.9859L-42.438 72.4219C-40.6673 71.3095 -38.8663 70.2783 -37.0394 69.3276ZM-47.5857 75.9517L-43.9084 81.2201C-44.6716 81.7896 -45.4276 82.377 -46.1757 82.9826C-46.9238 83.5882 -47.6568 84.2059 -48.3745 84.8352L-52.4555 79.8936C-51.6726 79.2071 -50.8734 78.5335 -50.058 77.8735C-49.2425 77.2134 -48.4182 76.5728 -47.5857 75.9517ZM-57.0038 84.2122L-52.5419 88.7922C-53.887 90.1749 -55.1685 91.6028 -56.386 93.0716L-61.2021 88.8861C-59.8721 87.2815 -58.4725 85.722 -57.0038 84.2122ZM-65.0255 93.8913L-59.8858 97.6533C-60.9959 99.2329 -62.0393 100.851 -63.0155 102.504L-68.4439 99.189C-67.3779 97.3844 -66.2383 95.6169 -65.0255 93.8913ZM-71.4391 104.747L-65.759 107.595C-66.6088 109.332 -67.3893 111.099 -68.0999 112.892L-73.993 110.527C-73.218 108.571 -72.3665 106.643 -71.4391 104.747ZM-76.0928 116.488L-70.0259 118.36C-70.598 120.208 -71.0989 122.078 -71.5279 123.964L-77.7291 122.593C-77.2618 120.538 -76.7162 118.502 -76.0928 116.488ZM-78.8951 128.801L-72.599 129.667C-72.8834 131.579 -73.0955 133.503 -73.2348 135.433L-79.587 135.076C-79.4355 132.975 -79.2047 130.882 -78.8951 128.801ZM-79.8027 141.376L-73.4331 141.226C-73.4263 143.153 -73.3468 145.083 -73.1941 147.01L-79.5428 147.666C-79.7089 145.571 -79.7953 143.473 -79.8027 141.376ZM-78.81 153.907L-72.5201 152.75C-72.2243 154.646 -71.8564 156.534 -71.4157 158.411L-77.6093 160.061C-78.0884 158.021 -78.4884 155.968 -78.81 153.907ZM-75.9474 166.095L-69.8869 163.961C-69.3108 165.779 -68.6638 167.581 -67.9453 169.363L-73.8372 171.966C-74.618 170.03 -75.3212 168.071 -75.9474 166.095ZM-71.2896 177.648L-65.6005 174.593C-64.7594 176.292 -63.8492 177.968 -62.8695 179.617L-68.324 183.104C-69.3875 181.314 -70.3758 179.494 -71.2896 177.648ZM-64.9598 188.305C-64.3689 189.147 -63.76 189.981 -63.133 190.806C-62.5061 191.631 -61.8667 192.44 -61.2154 193.233L-56.3141 188.957C-56.9148 188.226 -57.5046 187.48 -58.0832 186.718C-58.6618 185.957 -59.2236 185.188 -59.7686 184.411L-64.9598 188.305ZM-57.1226 197.845L-52.5417 193.208C-51.2235 194.583 -49.8634 195.895 -48.4653 197.143L-52.6961 202.118C-54.2149 200.762 -55.6918 199.337 -57.1226 197.845ZM-47.9566 206.025L-44.1032 200.74C-42.5976 201.885 -41.0561 202.963 -39.4828 203.974L-42.9349 209.54C-44.645 208.441 -46.3205 207.27 -47.9566 206.025ZM-37.653 212.644L-34.624 206.829C-32.9634 207.718 -31.2742 208.537 -29.5608 209.285L-32.1485 215.314C-34.0113 214.501 -35.8477 213.61 -37.653 212.644ZM-26.4506 217.536L-24.3203 211.329C-22.5436 211.941 -20.7467 212.481 -18.9343 212.947L-20.5938 219.296C-22.5649 218.789 -24.5188 218.202 -26.4506 217.536ZM-14.614 220.581L-13.4366 214.129C-11.5868 214.449 -9.72611 214.695 -7.85912 214.866L-8.54508 221.383C-10.577 221.197 -12.6017 220.93 -14.614 220.581ZM-2.42499 221.694L-2.23761 215.151C-0.360445 215.171 1.51815 215.114 3.39353 214.981L3.70954 221.509C1.66578 221.653 -0.380742 221.715 -2.42499 221.694ZM9.81919 220.825L8.99774 214.354C10.8545 214.069 12.7034 213.708 14.5401 213.27L15.8659 219.642C13.8614 220.12 11.8442 220.514 9.81919 220.825ZM21.8101 217.964L19.9849 211.733C21.7724 211.149 23.5438 210.488 25.2947 209.752L27.6096 215.801C25.6969 216.605 23.7621 217.326 21.8101 217.964ZM33.2307 213.161L30.4401 207.336C32.1124 206.466 33.7614 205.521 35.383 204.503L38.6293 210.067C36.8586 211.179 35.0575 212.21 33.2307 213.161ZM43.7769 206.537L40.0996 201.268C40.8629 200.699 41.6188 200.112 42.367 199.506C43.1151 198.9 43.848 198.283 44.5657 197.653L48.6468 202.595C47.8639 203.281 47.0647 203.955 46.2492 204.615C45.4338 205.275 44.6095 205.916 43.7769 206.537ZM53.195 198.276L48.7332 193.696C50.0783 192.314 51.3597 190.886 52.5772 189.417L57.3934 193.602C56.0634 195.207 54.6638 196.767 53.195 198.276ZM61.2168 188.597L56.0771 184.835C57.1872 183.256 58.2306 181.637 59.2067 179.985L64.6351 183.3C63.5692 185.104 62.4295 186.872 61.2168 188.597ZM67.6304 177.741L61.9503 174.894C62.8001 173.157 63.5806 171.39 64.2912 169.596L70.1843 171.962C69.4093 173.918 68.5578 175.846 67.6304 177.741ZM72.284 166.001L66.2172 164.128C66.7892 162.28 67.2901 160.411 67.7192 158.525L73.9204 159.896C73.4531 161.95 72.9074 163.987 72.284 166.001ZM75.0864 153.687L68.7902 152.822C69.0747 150.91 69.2868 148.986 69.426 147.055L75.7782 147.413C75.6268 149.513 75.396 151.606 75.0864 153.687ZM75.994 141.113L69.6243 141.263C69.6175 139.335 69.5381 137.405 69.3854 135.479L75.7341 134.823C75.9001 136.918 75.9865 139.016 75.994 141.113ZM75.0012 128.582C74.6797 126.521 74.2797 124.468 73.8006 122.428L67.6069 124.078C68.0476 125.954 68.4156 127.843 68.7113 129.738L75.0012 128.582ZM72.1387 116.394L66.0782 118.527C65.5021 116.709 64.8551 114.907 64.1366 113.125L70.0285 110.522C70.8093 112.459 71.5125 114.417 72.1387 116.394ZM67.4808 104.84L61.7918 107.895C60.9506 106.197 60.0405 104.521 59.0608 102.872L64.5153 99.3849C65.5787 101.175 66.5671 102.995 67.4808 104.84Z" fill="#F94267"/>
<path fill-rule="evenodd" clip-rule="evenodd" d="M211.3 -36.4684L207.015 -31.5426C206.319 -32.1785 205.608 -32.8036 204.882 -33.4176C204.156 -34.0316 203.423 -34.6284 202.682 -35.2082L206.602 -40.4418C207.406 -39.8131 208.201 -39.1661 208.988 -38.5009C209.774 -37.8356 210.545 -37.1579 211.3 -36.4684ZM201.629 -44.0315L198.097 -38.517C196.519 -39.5658 194.912 -40.5438 193.281 -41.4516L196.399 -47.218C198.171 -46.232 199.915 -45.1699 201.629 -44.0315ZM190.937 -49.9811L188.254 -43.9946C186.539 -44.7785 184.803 -45.4894 183.049 -46.1279L185.28 -52.2997C187.187 -51.6056 189.074 -50.8329 190.937 -49.9811ZM179.454 -54.1617L177.689 -47.8408C175.875 -48.3417 174.048 -48.7681 172.212 -49.1206L173.498 -55.553C175.495 -55.1698 177.482 -54.7062 179.454 -54.1617ZM167.447 -56.466C165.413 -56.6902 163.374 -56.8328 161.335 -56.8942L161.025 -50.354C162.9 -50.2976 164.775 -50.1665 166.646 -49.9602L167.447 -56.466ZM155.201 -56.8341L155.386 -50.2988C153.504 -50.2052 151.628 -50.0366 149.761 -49.7934L149.08 -56.2842C151.112 -56.5488 153.154 -56.7323 155.201 -56.8341ZM143.011 -55.2454L144.186 -48.8393C142.34 -48.4468 140.509 -47.9801 138.696 -47.4398L137.031 -53.7207C139.006 -54.3096 141.001 -54.818 143.011 -55.2454ZM131.178 -51.7163L133.328 -45.6012C131.565 -44.9171 129.826 -44.1606 128.115 -43.332L125.491 -49.2406C127.359 -50.1449 129.256 -50.9703 131.178 -51.7163ZM120.008 -46.3059L123.092 -40.6439C121.46 -39.6834 119.859 -38.6529 118.294 -37.5529L114.767 -42.9298C116.476 -44.1315 118.225 -45.257 120.008 -46.3059ZM109.8 -39.13L113.748 -34.0747C112.288 -32.8615 110.866 -31.5816 109.486 -30.2351L105.146 -34.9365C106.652 -36.4068 108.205 -37.8048 109.8 -39.13ZM100.828 -30.3745L105.53 -26.055C104.9 -25.3338 104.28 -24.5966 103.672 -23.8435C103.063 -23.0904 102.473 -22.3288 101.899 -21.5593L96.8689 -25.4724C97.4945 -26.3118 98.1387 -27.1422 98.8017 -27.9631C99.4647 -28.7839 100.14 -29.5878 100.828 -30.3745ZM93.3033 -20.2742L98.6321 -16.7964C97.5995 -15.1565 96.6387 -13.4866 95.7493 -11.7908L90.1548 -14.8072C91.1264 -16.6597 92.1758 -18.4836 93.3033 -20.2742ZM87.4429 -9.09991L93.2669 -6.56648C92.5057 -4.78654 91.8181 -2.98359 91.2035 -1.16208L85.1892 -3.19699C85.8603 -5.18616 86.6114 -7.15545 87.4429 -9.09991ZM83.4048 2.86691C82.8884 4.91405 82.4534 6.97641 82.0992 9.04886L88.3724 10.0587C88.6971 8.15841 89.0959 6.26808 89.569 4.39236L83.4048 2.86691ZM81.277 15.3082L87.6182 15.8002C87.4407 17.7236 87.3375 19.6522 87.3082 21.5812L80.9393 21.606C80.9712 19.5052 81.0836 17.4042 81.277 15.3082ZM81.0846 27.9016L87.4417 27.364C87.5597 29.2864 87.7511 31.2044 88.0154 33.1131L81.7088 34.1573C81.4212 32.0809 81.213 29.994 81.0846 27.9016ZM82.8055 40.3338L89.0237 38.7916C89.4307 40.6656 89.9094 42.5254 90.4594 44.3665L84.3666 46.396C83.7687 44.3942 83.2481 42.3718 82.8055 40.3338ZM86.3817 52.3069C87.1252 54.2415 87.944 56.151 88.8376 58.0305L94.5717 55.0677C93.7497 53.3388 92.9966 51.5824 92.3127 49.8029L86.3817 52.3069ZM91.7213 63.5366L97.2244 60.1328C98.1671 61.775 99.1762 63.3864 100.251 64.9625L95.011 68.786C93.8427 67.0731 92.746 65.3218 91.7213 63.5366ZM98.6905 73.7554L103.638 69.5363C104.816 71.0047 106.057 72.4356 107.36 73.8251L102.733 78.4126C101.318 76.9043 99.9702 75.3505 98.6905 73.7554ZM107.114 82.7357C107.868 83.4252 108.639 84.1028 109.426 84.7681C110.212 85.4333 111.007 86.0803 111.811 86.709L115.732 81.4754C114.991 80.8956 114.257 80.2988 113.531 79.6848C112.805 79.0709 112.095 78.4457 111.399 77.8098L107.114 82.7357ZM116.784 90.2987L120.316 84.7842C121.895 85.833 123.502 86.811 125.133 87.7188L122.015 93.4853C120.243 92.4992 118.498 91.4371 116.784 90.2987ZM127.476 96.2483L130.159 90.2619C131.874 91.0457 133.61 91.7566 135.364 92.3951L133.133 98.5669C131.227 97.8729 129.34 97.1002 127.476 96.2483ZM138.96 100.429L140.724 94.108C142.538 94.6089 144.365 95.0353 146.202 95.3878L144.915 101.82C142.918 101.437 140.932 100.973 138.96 100.429ZM150.967 102.733L151.768 96.2274C153.638 96.4337 155.513 96.5648 157.388 96.6212L157.078 103.161C155.039 103.1 153 102.957 150.967 102.733ZM163.212 103.101L163.028 96.566C164.909 96.4724 166.786 96.3038 168.653 96.0606L169.333 102.551C167.301 102.816 165.259 103 163.212 103.101ZM175.403 101.513L174.228 95.1065C176.073 94.714 177.905 94.2473 179.717 93.707L181.383 99.988C179.408 100.577 177.413 101.085 175.403 101.513ZM187.235 97.9835L185.085 91.8684C186.848 91.1844 188.587 90.4278 190.298 89.5993L192.922 95.5079C191.055 96.4121 189.157 97.2375 187.235 97.9835ZM198.406 92.5731L195.321 86.9111C196.954 85.9506 198.554 84.9202 200.119 83.8201L203.647 89.197C201.937 90.3987 200.189 91.5242 198.406 92.5731ZM208.614 85.3973L204.666 80.3419C206.126 79.1288 207.548 77.8488 208.927 76.5023L213.268 81.2037C211.761 82.674 210.208 84.072 208.614 85.3973ZM217.585 76.6417L212.883 72.3222C213.514 71.601 214.133 70.8638 214.742 70.1107C215.35 69.3576 215.941 68.5961 216.514 67.8265L221.545 71.7396C220.919 72.579 220.275 73.4094 219.612 74.2303C218.949 75.0512 218.273 75.855 217.585 76.6417ZM225.11 66.5414L219.781 63.0636C220.814 61.4237 221.775 59.7538 222.664 58.0581L228.259 61.0744C227.287 62.9269 226.238 64.7508 225.11 66.5414ZM230.971 55.3671L225.147 52.8337C225.908 51.0538 226.595 49.2508 227.21 47.4293L233.224 49.4642C232.553 51.4534 231.802 53.4227 230.971 55.3671ZM235.009 43.4003L228.844 41.8748C229.318 39.9991 229.716 38.1088 230.041 36.2085L236.314 37.2184C235.96 39.2908 235.525 41.3532 235.009 43.4003ZM237.136 30.959L230.795 30.467C230.973 28.5436 231.076 26.6151 231.105 24.686L237.474 24.6612C237.442 26.762 237.33 28.863 237.136 30.959ZM237.329 18.3656L230.972 18.9032C230.854 16.9808 230.662 15.0628 230.398 13.1541L236.705 12.1099C236.992 14.1863 237.2 16.2733 237.329 18.3656ZM235.608 5.93347L229.39 7.47563C228.983 5.60166 228.504 3.74179 227.954 1.90073L234.047 -0.128801C234.645 1.87302 235.165 3.89547 235.608 5.93347ZM232.032 -6.03964L226.101 -3.53572C225.417 -5.31519 224.664 -7.07161 223.842 -8.80043L229.576 -11.7633C230.469 -9.88381 231.288 -7.9743 232.032 -6.03964ZM226.692 -17.2694L221.189 -13.8655C220.246 -15.5078 219.237 -17.1192 218.162 -18.6953L223.402 -22.5187C224.571 -20.8059 225.667 -19.0545 226.692 -17.2694ZM219.723 -27.4882L214.776 -23.2691C213.598 -24.7375 212.357 -26.1684 211.053 -27.5579L215.681 -32.1454C217.096 -30.6371 218.443 -29.0833 219.723 -27.4882Z" fill="#F94267"/>
</g>
<defs>
<clipPath id="clip0_1653_116245">
<rect width="111.12" height="111.12" rx="55.56" transform="matrix(0.882386 -0.470527 0.441072 0.897472 0.240234 52.285)" fill="white"/>
</clipPath>
</defs>
</svg>
