<svg width="101" height="30" viewBox="0 0 101 30" fill="none" xmlns="http://www.w3.org/2000/svg">
<path d="M0 8C0 3.58172 3.58172 0 8 0H93C97.4183 0 101 3.58172 101 8V22C101 26.4183 97.4183 30 93 30H8C3.58172 30 0 26.4183 0 22V8Z" fill="#FEECF0"/>
<path d="M14.0002 15H18.0002M14.0002 17.6667H18.0002M19.3335 21H12.6668C11.9304 21 11.3335 20.403 11.3335 19.6667V10.3333C11.3335 9.59695 11.9304 9 12.6668 9H16.3907C16.5675 9 16.7371 9.07024 16.8621 9.19526L20.4716 12.8047C20.5966 12.9298 20.6668 13.0993 20.6668 13.2761V19.6667C20.6668 20.403 20.0699 21 19.3335 21Z" stroke="#F94267" stroke-width="1.33333" stroke-linecap="round" stroke-linejoin="round"/>
<path d="M31.373 10.2812C31.8926 10.2812 32.3555 10.4336 32.7617 10.7383C33.1719 11.0391 33.4922 11.4688 33.7227 12.0273C33.9531 12.582 34.0684 13.2266 34.0684 13.9609C34.0684 14.7031 33.9531 15.3535 33.7227 15.9121C33.4922 16.4707 33.1738 16.9004 32.7676 17.2012C32.3613 17.502 31.8965 17.6523 31.373 17.6523C30.8496 17.6523 30.3848 17.502 29.9785 17.2012C29.5723 16.9004 29.2559 16.4707 29.0293 15.9121C28.8027 15.3535 28.6895 14.7031 28.6895 13.9609C28.6895 13.2266 28.8027 12.582 29.0293 12.0273C29.2559 11.4688 29.5723 11.0391 29.9785 10.7383C30.3848 10.4336 30.8496 10.2812 31.373 10.2812ZM29.7559 13.9609C29.7559 14.5078 29.8223 14.9844 29.9551 15.3906C30.0918 15.7969 30.2832 16.1094 30.5293 16.3281C30.7754 16.5469 31.0566 16.6562 31.373 16.6562C31.6973 16.6562 31.9824 16.5488 32.2285 16.334C32.4746 16.1152 32.6641 15.8027 32.7969 15.3965C32.9336 14.9863 33.002 14.5078 33.002 13.9609C33.002 13.418 32.9336 12.9453 32.7969 12.543C32.6641 12.1367 32.4746 11.8242 32.2285 11.6055C31.9824 11.3867 31.6973 11.2773 31.373 11.2773C31.0566 11.2773 30.7754 11.3887 30.5293 11.6113C30.2832 11.8301 30.0918 12.1426 29.9551 12.5488C29.8223 12.9512 29.7559 13.4219 29.7559 13.9609ZM35.627 9.49609H36.7402V12.0625H38.3691V13.0117H36.7402V15.1914H38.3691V16.1055H36.7402V19.9961H35.627V9.49609ZM47.2871 11.0781C47.2871 11.7578 47.2695 12.3594 47.2344 12.8828C47.2031 13.4023 47.123 13.9922 46.9941 14.6523H48.5059V15.5664H44.252V20.0078H43.127V15.5664H38.9316V14.6523H45.8691C46.0059 13.9922 46.0918 13.4043 46.127 12.8887C46.1621 12.373 46.1816 11.7695 46.1855 11.0781V11.0664H40.1035V10.1523H47.2871V11.0781ZM56.123 11.3828C56.123 11.832 56.2285 12.2676 56.4395 12.6895C56.6543 13.1074 56.959 13.4785 57.3535 13.8027C57.752 14.123 58.2168 14.3672 58.748 14.5352L58.1738 15.4023C57.5762 15.2031 57.0527 14.9062 56.6035 14.5117C56.1582 14.1172 55.8164 13.6543 55.5781 13.123C55.3398 13.6973 54.9922 14.1992 54.5352 14.6289C54.0781 15.0586 53.541 15.3828 52.9238 15.6016L52.3496 14.7461C52.8848 14.5586 53.3516 14.293 53.75 13.9492C54.1484 13.6016 54.4551 13.2051 54.6699 12.7598C54.8887 12.3145 54.998 11.8555 54.998 11.3828V11.0898H52.6426V10.1875H58.4316V11.0898H56.123V11.3828ZM53.8262 16.3633H60.9395V19.9961H59.8262V17.2656H53.8262V16.3633ZM59.8262 9.49609H60.9395V15.8359H59.8262V9.49609ZM68.4512 10.8789V11.0137C68.4434 11.5254 68.4219 12.0098 68.3867 12.4668C68.3555 12.9199 68.2871 13.4258 68.1816 13.9844L67.0801 13.8789C67.1816 13.3594 67.25 12.8906 67.2852 12.4727C67.3242 12.0547 67.3477 11.6328 67.3555 11.207H63.1543V10.293H68.4512V10.8789ZM62.5215 14.8867C63.2676 14.8867 63.9824 14.8789 64.666 14.8633V12.6484H65.7676V14.8281C67.0723 14.7734 68.1855 14.6797 69.1074 14.5469L69.1777 15.3555C68.2051 15.5273 67.1777 15.6426 66.0957 15.7012C65.0137 15.7559 63.8574 15.7852 62.627 15.7891L62.5215 14.8867ZM64.1152 16.668H65.2285V18.8711H71.252V19.7734H64.1152V16.668ZM69.7754 9.49609H70.9121V12.8359H72.3535V13.7734H70.9121V17.3828H69.7754V9.49609ZM75.9629 10.5156H82.5371V11.6289H79.9004V19H78.6113V11.6289H75.9629V10.5156ZM83.7441 12.6367H84.998V19H83.7441V12.6367ZM84.3652 11.6523C84.2246 11.6523 84.0938 11.6191 83.9727 11.5527C83.8555 11.4863 83.7598 11.3965 83.6855 11.2832C83.6152 11.1699 83.5801 11.0469 83.5801 10.9141C83.5801 10.7812 83.6152 10.6582 83.6855 10.5449C83.7598 10.4316 83.8574 10.3418 83.9785 10.2754C84.1035 10.209 84.2363 10.1758 84.377 10.1758C84.5176 10.1758 84.6484 10.209 84.7695 10.2754C84.8906 10.3418 84.9863 10.4316 85.0566 10.5449C85.127 10.6582 85.1621 10.7812 85.1621 10.9141C85.1621 11.0508 85.125 11.1758 85.0508 11.2891C84.9805 11.4023 84.8848 11.4922 84.7637 11.5586C84.6426 11.6211 84.5098 11.6523 84.3652 11.6523ZM86.5215 12.6367H87.7402V13.668H87.8457C87.9551 13.4766 88.0742 13.3027 88.2031 13.1465C88.3359 12.9902 88.5234 12.8535 88.7656 12.7363C89.0117 12.6152 89.3145 12.5547 89.6738 12.5547C90.1895 12.5547 90.6484 12.6855 91.0508 12.9473C91.457 13.209 91.7734 13.5879 92 14.084C92.2305 14.5762 92.3457 15.1602 92.3457 15.8359C92.3457 16.5039 92.2324 17.0879 92.0059 17.5879C91.7793 18.084 91.4648 18.4648 91.0625 18.7305C90.6602 18.9922 90.2012 19.125 89.6855 19.1289C89.1816 19.125 88.791 19.0137 88.5137 18.7949C88.2363 18.5762 88.0137 18.3125 87.8457 18.0039H87.7754V21.3906H86.5215V12.6367ZM87.752 15.8125C87.752 16.2617 87.8164 16.6562 87.9453 16.9961C88.0742 17.332 88.2617 17.5938 88.5078 17.7812C88.7578 17.9688 89.0566 18.0625 89.4043 18.0625C89.7598 18.0625 90.0625 17.9648 90.3125 17.7695C90.5664 17.5742 90.7578 17.3086 90.8867 16.9727C91.0156 16.6328 91.0801 16.2461 91.0801 15.8125C91.0801 15.3867 91.0156 15.0098 90.8867 14.6816C90.7617 14.3496 90.5742 14.0898 90.3242 13.9023C90.0742 13.7148 89.7676 13.6211 89.4043 13.6211C89.0527 13.6211 88.752 13.7109 88.502 13.8906C88.2559 14.0664 88.0684 14.3203 87.9395 14.6523C87.8145 14.9805 87.752 15.3672 87.752 15.8125Z" fill="#F94267"/>
</svg>
