<svg width="125" height="30" viewBox="0 0 125 30" fill="none" xmlns="http://www.w3.org/2000/svg">
<path d="M0 8C0 3.58172 3.58172 0 8 0H117C121.418 0 125 3.58172 125 8V22C125 26.4183 121.418 30 117 30H8C3.58172 30 0 26.4183 0 22V8Z" fill="#FEECF0"/>
<path d="M14.0002 15H18.0002M14.0002 17.6667H18.0002M19.3335 21H12.6668C11.9304 21 11.3335 20.403 11.3335 19.6667V10.3333C11.3335 9.59695 11.9304 9 12.6668 9H16.3907C16.5675 9 16.7371 9.07024 16.8621 9.19526L20.4716 12.8047C20.5966 12.9298 20.6668 13.0993 20.6668 13.2761V19.6667C20.6668 20.403 20.0699 21 19.3335 21Z" stroke="#F94267" stroke-width="1.33333" stroke-linecap="round" stroke-linejoin="round"/>
<path d="M31.2852 10.2812C31.8047 10.2812 32.2676 10.4336 32.6738 10.7383C33.084 11.0391 33.4043 11.4688 33.6348 12.0273C33.8652 12.582 33.9805 13.2266 33.9805 13.9609C33.9805 14.7031 33.8652 15.3535 33.6348 15.9121C33.4043 16.4707 33.0859 16.9004 32.6797 17.2012C32.2734 17.502 31.8086 17.6523 31.2852 17.6523C30.7617 17.6523 30.2969 17.502 29.8906 17.2012C29.4844 16.9004 29.168 16.4707 28.9414 15.9121C28.7148 15.3535 28.6016 14.7031 28.6016 13.9609C28.6016 13.2266 28.7148 12.582 28.9414 12.0273C29.168 11.4688 29.4844 11.0391 29.8906 10.7383C30.2969 10.4336 30.7617 10.2812 31.2852 10.2812ZM29.668 13.9609C29.668 14.5078 29.7344 14.9844 29.8672 15.3906C30.0039 15.7969 30.1953 16.1094 30.4414 16.3281C30.6875 16.5469 30.9688 16.6562 31.2852 16.6562C31.6094 16.6562 31.8945 16.5488 32.1406 16.334C32.3867 16.1152 32.5762 15.8027 32.709 15.3965C32.8457 14.9863 32.9141 14.5078 32.9141 13.9609C32.9141 13.418 32.8457 12.9453 32.709 12.543C32.5762 12.1367 32.3867 11.8242 32.1406 11.6055C31.8945 11.3867 31.6094 11.2773 31.2852 11.2773C30.9688 11.2773 30.6875 11.3887 30.4414 11.6113C30.1953 11.8301 30.0039 12.1426 29.8672 12.5488C29.7344 12.9512 29.668 13.4219 29.668 13.9609ZM35.5391 9.49609H36.6523V12.0625H38.2812V13.0117H36.6523V15.1914H38.2812V16.1055H36.6523V19.9961H35.5391V9.49609ZM47.1992 11.0781C47.1992 11.7578 47.1816 12.3594 47.1465 12.8828C47.1152 13.4023 47.0352 13.9922 46.9062 14.6523H48.418V15.5664H44.1641V20.0078H43.0391V15.5664H38.8438V14.6523H45.7812C45.918 13.9922 46.0039 13.4043 46.0391 12.8887C46.0742 12.373 46.0938 11.7695 46.0977 11.0781V11.0664H40.0156V10.1523H47.1992V11.0781ZM52.8828 11.4297C52.8789 11.875 52.9766 12.3008 53.1758 12.707C53.3789 13.1094 53.6699 13.4668 54.0488 13.7793C54.4277 14.0879 54.8789 14.3242 55.4023 14.4883L54.875 15.3555C54.2852 15.168 53.7734 14.8867 53.3398 14.5117C52.9102 14.1367 52.5781 13.6953 52.3438 13.1875C52.1133 13.7695 51.7715 14.2773 51.3184 14.7109C50.8652 15.1406 50.3281 15.4648 49.707 15.6836L49.1328 14.793C49.668 14.6172 50.1348 14.3594 50.5332 14.0195C50.9316 13.6797 51.2363 13.2871 51.4473 12.8418C51.6582 12.3965 51.7656 11.9297 51.7695 11.4414V11.1484H49.4609V10.2461H55.1445V11.1484H52.8828V11.4297ZM50.5508 18.0039C50.5508 17.5977 50.6914 17.248 50.9727 16.9551C51.2578 16.6621 51.6641 16.4395 52.1914 16.2871C52.7227 16.1348 53.3516 16.0586 54.0781 16.0586C54.7969 16.0586 55.416 16.1348 55.9355 16.2871C56.459 16.4395 56.8594 16.6621 57.1367 16.9551C57.418 17.248 57.5586 17.5977 57.5586 18.0039C57.5586 18.418 57.418 18.7715 57.1367 19.0645C56.8594 19.3613 56.459 19.5859 55.9355 19.7383C55.416 19.8945 54.7969 19.9727 54.0781 19.9727C53.3516 19.9727 52.7227 19.8945 52.1914 19.7383C51.6641 19.5859 51.2578 19.3613 50.9727 19.0645C50.6914 18.7715 50.5508 18.418 50.5508 18.0039ZM51.6641 18.0039C51.6602 18.3516 51.8672 18.6211 52.2852 18.8125C52.707 19 53.293 19.0938 54.043 19.0938C54.8125 19.0938 55.4102 19 55.8359 18.8125C56.2617 18.625 56.4727 18.3555 56.4688 18.0039C56.4727 17.6641 56.2676 17.4023 55.8535 17.2188C55.4395 17.0312 54.8594 16.9375 54.1133 16.9375C53.3359 16.9375 52.7324 17.0293 52.3027 17.2129C51.873 17.3965 51.6602 17.6602 51.6641 18.0039ZM56.3516 9.49609H57.4648V12.0977H58.9883V13.0117H57.4648V15.8008H56.3516V9.49609ZM72.125 18.707H62.5156V17.793H66.7578V15.5078H67.8594V17.793H72.125V18.707ZM62.9844 15.0039C63.6953 14.8984 64.332 14.7012 64.8945 14.4121C65.4609 14.123 65.9062 13.7695 66.2305 13.3516C66.5586 12.9297 66.7305 12.4766 66.7461 11.9922H63.3828V11.0898H66.7578V9.68359H67.8594V11.0898H71.2344V11.9922H67.8711C67.8867 12.4766 68.0566 12.9297 68.3809 13.3516C68.709 13.7695 69.1543 14.123 69.7168 14.4121C70.2832 14.7012 70.9219 14.8984 71.6328 15.0039L71.2109 15.8711C70.3203 15.7305 69.5312 15.459 68.8438 15.0566C68.1562 14.6504 67.6426 14.1445 67.3027 13.5391C66.9668 14.1445 66.4551 14.6504 65.7676 15.0566C65.084 15.459 64.2969 15.7305 63.4062 15.8711L62.9844 15.0039ZM82.4961 18.6953H72.8867V17.7695H77.1172V15.6133H73.9883V10.2109H75.1016V12.0156H80.2578V10.2109H81.3594V15.6133H78.2188V17.7695H82.4961V18.6953ZM80.2578 14.7109V12.918H75.1016V14.7109H80.2578ZM94.3672 13.6797H95.9961V14.6055H94.3672V19.9844H93.2539V9.49609H94.3672V13.6797ZM86.1992 17.1836C87.5117 16.5273 88.5254 15.7266 89.2402 14.7812C89.959 13.8359 90.375 12.75 90.4883 11.5234H86.7266V10.5977H91.625C91.6172 12.1992 91.2285 13.6387 90.459 14.916C89.6895 16.1895 88.4766 17.2344 86.8203 18.0508L86.1992 17.1836ZM105.254 20.0195H104.141V9.49609H105.254V20.0195ZM96.9219 13.9609C96.9219 13.2266 97.0371 12.582 97.2676 12.0273C97.498 11.4688 97.8184 11.0391 98.2285 10.7383C98.6426 10.4336 99.1133 10.2812 99.6406 10.2812C100.16 10.2812 100.625 10.4336 101.035 10.7383C101.445 11.0391 101.766 11.4688 101.996 12.0273C102.23 12.582 102.348 13.2266 102.348 13.9609C102.348 14.7031 102.23 15.3535 101.996 15.9121C101.766 16.4707 101.445 16.9004 101.035 17.2012C100.625 17.502 100.16 17.6523 99.6406 17.6523C99.1133 17.6523 98.6426 17.502 98.2285 17.2012C97.8184 16.9004 97.498 16.4707 97.2676 15.9121C97.0371 15.3535 96.9219 14.7031 96.9219 13.9609ZM98 13.9609C98 14.5078 98.0684 14.9844 98.2051 15.3906C98.3418 15.7969 98.5332 16.1094 98.7793 16.3281C99.0293 16.5469 99.3164 16.6562 99.6406 16.6562C99.9609 16.6562 100.244 16.5469 100.49 16.3281C100.736 16.1094 100.928 15.7969 101.064 15.3906C101.201 14.9844 101.27 14.5078 101.27 13.9609C101.27 13.4219 101.201 12.9512 101.064 12.5488C100.928 12.1426 100.736 11.8301 100.49 11.6113C100.244 11.3887 99.9609 11.2773 99.6406 11.2773C99.3164 11.2773 99.0293 11.3887 98.7793 11.6113C98.5332 11.8301 98.3418 12.1426 98.2051 12.5488C98.0684 12.9512 98 13.4219 98 13.9609ZM115.438 15.3906H108.125V10.4336H115.344V11.3477H109.227V14.4766H115.438V15.3906ZM106.93 17.6875H116.539V18.6133H106.93V17.6875Z" fill="#F94267"/>
</svg>
