<svg width="28" height="28" viewBox="0 0 28 28" fill="none" xmlns="http://www.w3.org/2000/svg">
<rect width="28" height="28" rx="14" fill="#F94267"/>
<path d="M6.23159 14.0055C6.36923 14.1413 6.55822 14.2211 6.75799 14.2278C6.97213 14.2315 7.1781 14.1509 7.32567 14.0055L13.2089 8.49542V21.275C13.2145 21.6732 13.5578 21.9948 13.983 22C14.4082 21.9948 14.7516 21.6732 14.7571 21.275V8.49541L20.6404 14.0055C20.8376 14.1954 21.1281 14.2724 21.4024 14.2073C21.6767 14.1423 21.8931 13.9452 21.9701 13.6902C22.0471 13.4352 21.973 13.1611 21.7757 12.9711L14.5507 6.20439C14.244 5.93187 13.7633 5.93187 13.4566 6.20439L6.23159 12.9711C6.08345 13.1075 6 13.2938 6 13.4883C6 13.6828 6.08345 13.8692 6.23159 14.0055Z" fill="white"/>
</svg>
