<svg width="245" height="99" viewBox="0 0 245 99" fill="none" xmlns="http://www.w3.org/2000/svg">
<path d="M0 8C0 3.58172 3.58172 0 8 0H237C241.418 0 245 3.58172 245 8V99H0V8Z" fill="#F94267"/>
<path d="M19.9277 31.4121C23.25 31.4121 25.3242 32.5547 25.3242 34.5059C25.3242 36.4922 23.25 37.6348 19.9277 37.6348C16.5352 37.6348 14.4434 36.4922 14.4434 34.5059C14.4434 32.5547 16.5352 31.4121 19.9277 31.4121ZM19.9277 33.1523C17.8184 33.1523 16.6758 33.5918 16.6934 34.5059C16.6758 35.4199 17.8184 35.8945 19.9277 35.8945C22.002 35.8945 23.1094 35.4199 23.1094 34.5059C23.1094 33.5918 22.002 33.1523 19.9277 33.1523ZM25.166 21.6211V25.3301H27.3281V27.2109H25.166V31.0605H22.916V21.6211H25.166ZM15.1816 22.623V24.6445H18.4512V22.623H20.7012V30.1465H12.9492V22.623H15.1816ZM15.1816 28.3711H18.4512V26.3848H15.1816V28.3711ZM42.6562 29.5312V31.3066H36.627V34.0664H34.4121V31.3066H28.0137V29.5312H42.6562ZM40.7754 22.3242V28.2129H29.8418V22.3242H40.7754ZM32.0391 24.0645V26.4727H38.5781V24.0645H32.0391ZM41.0391 35.543V37.3359H29.7363V32.6777H31.9688V35.543H41.0391ZM61.6055 21.6211V37.6172H59.4609V21.6211H61.6055ZM58.3359 21.8496V36.8789H56.2266V31.9219H54.3457C53.748 33.4775 52.7021 34.3652 51.3574 34.3652C49.248 34.3652 47.877 32.1504 47.877 28.5469C47.877 24.9609 49.248 22.7637 51.3574 22.7637C52.6934 22.7637 53.7393 23.6338 54.3457 25.1719H56.2266V21.8496H58.3359ZM51.3574 24.873C50.4258 24.873 49.8984 26.1035 49.916 28.5469C49.8984 31.0078 50.4258 32.2207 51.3574 32.2031C52.2891 32.2207 52.8516 31.0078 52.8516 28.5469C52.8516 26.1035 52.2715 24.873 51.3574 24.873ZM54.7852 26.9648C54.8555 27.457 54.8906 27.9844 54.8906 28.5469C54.8906 29.1006 54.8555 29.6279 54.7852 30.1113H56.2266V26.9648H54.7852ZM76.7754 21.6211V31.1133H74.543V27.334H72.0469V25.5234H74.543V21.6211H76.7754ZM71.3086 31.4648C74.7188 31.4824 76.8105 32.6074 76.8281 34.5586C76.8105 36.4922 74.7188 37.6348 71.3086 37.6348C67.8984 37.6348 65.8066 36.4922 65.8066 34.5586C65.8066 32.6074 67.8984 31.4824 71.3086 31.4648ZM71.3086 33.1875C69.1816 33.1875 68.0391 33.627 68.0391 34.5586C68.0391 35.4727 69.1816 35.9297 71.3086 35.9297C73.4355 35.9297 74.5957 35.4727 74.5957 34.5586C74.5957 33.627 73.4355 33.1875 71.3086 33.1875ZM72.5215 22.5879V24.3809H69.3398C69.3926 26.2441 70.5176 28.125 73.0137 28.9512L71.9062 30.709C70.1396 30.1377 68.9268 28.9775 68.2324 27.5273C67.5205 29.1621 66.2461 30.4805 64.3477 31.1309L63.1875 29.3555C65.8154 28.4766 66.9932 26.3848 67.0547 24.3809H63.8379V22.5879H72.5215ZM92.2441 21.6211V37.6523H89.9766V21.6211H92.2441ZM83.5605 22.7461C85.9688 22.7461 87.7617 24.9609 87.7617 28.4414C87.7617 31.957 85.9688 34.1543 83.5605 34.1543C81.0996 34.1543 79.3066 31.957 79.3242 28.4414C79.3066 24.9609 81.0996 22.7461 83.5605 22.7461ZM83.5605 24.7676C82.3125 24.7676 81.4863 26.0684 81.4863 28.4414C81.4863 30.832 82.3125 32.1152 83.5605 32.1152C84.7734 32.1152 85.5996 30.832 85.5996 28.4414C85.5996 26.0684 84.7734 24.7676 83.5605 24.7676ZM107.801 21.6387V33.3105H105.551V21.6387H107.801ZM108.223 35.543V37.3359H97.0781V32.1855H99.3457V35.543H108.223ZM100.541 24.0645C100.523 26.1738 101.648 28.248 104.285 29.0918L103.143 30.8496C101.341 30.252 100.093 29.0566 99.3809 27.5273C98.6689 29.1709 97.3857 30.4893 95.5137 31.1309L94.3535 29.3555C97.043 28.459 98.2031 26.2266 98.2031 24.0645V22.5176H100.541V24.0645ZM126.996 22.5527V23.9941C126.996 25.4883 126.996 27.123 126.592 29.3555H128.701V31.166H122.461V37.6348H120.211V31.166H114.111V29.3555H124.324C124.729 27.29 124.764 25.7256 124.764 24.3457H115.781V22.5527H126.996ZM138.756 22.6934V24.4863H135.574C135.592 26.3496 136.708 28.1514 139.266 28.8984L138.193 30.6562C136.427 30.1201 135.205 29.0479 134.502 27.668C133.79 29.2852 132.489 30.5684 130.564 31.2012L129.422 29.4258C132.076 28.5908 133.271 26.5166 133.307 24.4863H130.037V22.6934H138.756ZM142.359 21.6211V25.3301H144.521V27.1582H142.359V31.1133H140.109V21.6211H142.359ZM137.121 31.4297C140.443 31.4121 142.518 32.5547 142.518 34.5059C142.518 36.457 140.443 37.6172 137.121 37.6172C133.729 37.6172 131.637 36.457 131.637 34.5059C131.637 32.5547 133.729 31.4121 137.121 31.4297ZM137.121 33.1699C135.012 33.1699 133.869 33.6094 133.887 34.5059C133.869 35.4199 135.012 35.877 137.121 35.877C139.195 35.877 140.303 35.4199 140.303 34.5059C140.303 33.6094 139.195 33.1699 137.121 33.1699ZM152.52 21.8496C156.193 21.8496 158.32 22.8164 158.338 24.5742C158.32 26.3496 156.193 27.3164 152.52 27.3164C148.828 27.3164 146.684 26.3496 146.684 24.5742C146.684 22.8164 148.828 21.8496 152.52 21.8496ZM152.52 23.4844C150.164 23.4844 149.021 23.8711 149.039 24.5742C149.021 25.3652 150.164 25.6641 152.52 25.6641C154.893 25.6641 156.018 25.3652 156.018 24.5742C156.018 23.8711 154.893 23.4844 152.52 23.4844ZM159.814 28.0723V29.8477H145.225V28.0723H159.814ZM158.039 30.7793V34.8574H149.127V35.8242H158.461V37.5117H146.93V33.293H155.824V32.4141H146.912V30.7793H158.039ZM18.4688 51.3633C18.4688 53.4375 19.5762 55.4941 22.125 56.3379L20.9121 58.0957C19.2158 57.4717 18.0469 56.2939 17.3789 54.8086C16.6846 56.4785 15.4365 57.7969 13.582 58.4648L12.3691 56.707C15.041 55.8281 16.2012 53.6309 16.2012 51.3457V49.6055H18.4688V51.3633ZM25.957 48.6387V60.4512H23.7246V53.8418H20.7188V52.0312H23.7246V48.6387H25.957ZM26.291 62.543V64.3359H15.3047V59.2031H17.5723V62.543H26.291ZM34.9219 49.6934V51.4863H30.7383V52.8047H34.7637V54.5098H30.7383V55.916C32.5137 55.9072 33.832 55.8369 35.3086 55.582L35.5371 57.375C33.6562 57.709 32.0918 57.7617 29.6836 57.7617H28.5938V49.6934H34.9219ZM41.7773 48.6387V58.3945H39.6504V54.334H38.2617V58.2715H36.1699V48.9199H38.2617V52.541H39.6504V48.6387H41.7773ZM41.7773 59.0625V64.6172H39.5449V60.8555H30.7207V59.0625H41.7773ZM51.3047 51.0645V52.8398H43.5703V51.0645H46.3477V49.0605H48.5625V51.0645H51.3047ZM47.4727 53.5605C49.5117 53.5605 50.9707 55.1426 50.9883 57.3574C50.9707 59.5898 49.5117 61.1719 47.4727 61.1719C45.4336 61.1719 43.9395 59.5898 43.9395 57.3574C43.9395 55.1426 45.4336 53.5605 47.4727 53.5605ZM47.4727 55.4238C46.541 55.4238 45.9082 56.1445 45.9082 57.3574C45.9082 58.5703 46.541 59.2734 47.4727 59.2734C48.3691 59.2734 49.002 58.5703 49.0195 57.3574C49.002 56.1445 48.3691 55.4238 47.4727 55.4238ZM57.4219 48.6211V64.6172H55.2949V56.918H53.9941V63.9316H51.9023V48.9375H53.9941V55.125H55.2949V48.6211H57.4219ZM73.7344 57.4453V59.2383H67.5117V64.6172H65.2969V59.2383H59.1445V57.4453H73.7344ZM72.4336 49.4648V51.2227H67.7754C67.9951 52.7871 69.7617 54.3604 73.0488 54.7559L72.2402 56.5137C69.4277 56.1357 67.415 54.9316 66.457 53.2793C65.4727 54.9316 63.4775 56.1357 60.6914 56.5137L59.8652 54.7559C63.0996 54.3604 64.8838 52.7871 65.1387 51.2227H60.4629V49.4648H72.4336ZM79.834 52.6465C79.834 55.2305 80.5547 57.9023 82.7344 59.3086L81.5215 61.0488C80.1416 60.2139 79.2627 58.8428 78.7617 57.1992C78.1816 59.0098 77.2236 60.5215 75.7734 61.4004L74.4023 59.748C76.7754 58.2715 77.6543 55.459 77.6543 52.752V49.9922H79.834V52.6465ZM88.5703 48.6211V64.6172H86.4258V48.6211H88.5703ZM85.2129 48.8496V63.8789H83.1211V55.8457H81.0469V54.0176H83.1211V48.8496H85.2129ZM104.9 60.9082V62.7539H90.2578V60.9082H93.5273V56.9883C92.2881 56.25 91.541 55.1162 91.541 53.7012C91.541 51.1172 94.0723 49.3945 97.5527 49.3945C101.016 49.3945 103.564 51.1172 103.582 53.7012C103.573 55.0811 102.844 56.2061 101.648 56.9531V60.9082H104.9ZM97.5527 51.1699C95.2676 51.1699 93.7559 52.084 93.7559 53.7012C93.7559 55.2656 95.2676 56.2324 97.5527 56.2324C99.8203 56.2324 101.35 55.2656 101.367 53.7012C101.35 52.084 99.8203 51.1699 97.5527 51.1699ZM95.7422 60.9082H99.3809V57.7969C98.8096 57.9111 98.1943 57.9727 97.5527 57.9727C96.9111 57.9727 96.3047 57.9199 95.7422 57.7969V60.9082Z" fill="white"/>
<path d="M190.913 73.3838C191.398 70.4716 191.641 69.0155 192.662 68.1508C193.683 67.2861 195.159 67.2861 198.111 67.2861H221.662C224.615 67.2861 226.091 67.2861 227.112 68.1508C228.132 69.0155 228.375 70.4716 228.86 73.3838L230.019 80.3379C230.677 84.2823 231.006 86.2545 229.913 87.5447C228.819 88.835 226.82 88.835 222.821 88.835H196.952C192.953 88.835 190.954 88.835 189.861 87.5447C188.768 86.2545 189.097 84.2823 189.754 80.3379L190.913 73.3838Z" fill="#892439"/>
<path fill-rule="evenodd" clip-rule="evenodd" d="M219.019 42.388C216.424 39.5578 213.043 38 209.499 38C205.956 38 202.573 39.5596 199.976 42.3917C197.34 45.2646 195.892 49.1247 196.006 52.9811C196.189 59.1751 200.153 63.6965 203.651 67.6844C206.024 70.389 208.108 72.7655 208.541 75.1005C208.629 75.5763 209.015 75.9714 209.499 75.9714V75.9714C209.983 75.9714 210.369 75.5764 210.454 75.0999C210.878 72.7062 212.972 70.3533 215.355 67.6733C218.849 63.7446 222.812 59.2918 222.994 52.9811C223.106 49.1229 221.657 45.2609 219.019 42.388Z" fill="#FEECF0"/>
<path d="M205 52.6045C205 55.2884 207.019 57.4726 209.5 57.4726C211.981 57.4726 214 55.2884 214 52.6045C214 49.9206 211.981 47.7363 209.5 47.7363C207.019 47.7363 205 49.9206 205 52.6045Z" fill="#F94267"/>
<g clip-path="url(#clip0_2260_102836)">
<rect width="19.8554" height="18.75" rx="9.37502" transform="matrix(0.919594 0.392871 -0.423084 0.90609 166.934 63.2129)" fill="white"/>
<path d="M168.364 74.1849C168.317 74.5446 168.256 74.9055 168.18 75.267L167.61 75.1655C167.574 75.3373 167.535 75.5094 167.492 75.6814C167.449 75.8535 167.403 76.0241 167.355 76.1932L167.914 76.3361C167.811 76.6917 167.696 77.0408 167.568 77.383L167.022 77.1991C166.897 77.5326 166.761 77.8592 166.613 78.1786L167.142 78.4029C166.986 78.7398 166.817 79.069 166.638 79.39L166.129 79.1265C165.954 79.4379 165.769 79.7413 165.572 80.0362L166.058 80.3376C165.852 80.6479 165.635 80.9493 165.407 81.2412L164.947 80.9036C164.726 81.1858 164.496 81.4589 164.256 81.7224L164.687 82.0942C164.435 82.3703 164.174 82.6364 163.903 82.8919L163.503 82.4881C163.242 82.7345 162.972 82.9707 162.694 83.1961L163.059 83.6295C162.768 83.8652 162.469 84.0896 162.161 84.3023L161.832 83.8417C161.536 84.0463 161.233 84.2396 160.922 84.4211L161.213 84.9061C160.89 85.0955 160.559 85.2726 160.222 85.4369L159.971 84.9302C159.648 85.0878 159.319 85.233 158.984 85.3655L159.193 85.8908C158.844 86.0287 158.49 86.1534 158.131 86.2643L157.967 85.7236C157.624 85.8297 157.277 85.9225 156.926 86.0018L157.045 86.5546C156.68 86.637 156.311 86.7053 155.94 86.759L155.867 86.1976C155.513 86.2488 155.157 86.2862 154.798 86.3094L154.823 86.8757C154.452 86.8997 154.078 86.9091 153.703 86.9035L153.724 86.336C153.369 86.3307 153.012 86.3113 152.655 86.2775L152.586 86.8424C152.218 86.8075 151.849 86.7579 151.48 86.6931L151.595 86.1344C151.42 86.1037 151.245 86.0694 151.07 86.0316C150.895 85.9937 150.722 85.9526 150.55 85.9083L150.39 86.4571C150.028 86.3637 149.673 86.2566 149.326 86.1367L149.531 85.6012C149.194 85.4848 148.864 85.3556 148.543 85.2145L148.294 85.7329C147.955 85.5837 147.623 85.4217 147.301 85.2475L147.592 84.7496C147.28 84.5814 146.978 84.4013 146.685 84.2101L146.354 84.6842C146.046 84.4833 145.747 84.2705 145.458 84.0467L145.827 83.5994C145.549 83.384 145.281 83.158 145.023 82.9219L144.62 83.3398C144.35 83.0928 144.091 82.8355 143.844 82.5685L144.279 82.1825C144.041 81.9262 143.814 81.6605 143.598 81.3862L143.134 81.7381C142.909 81.4522 142.695 81.1573 142.494 80.8544L142.985 80.5385C142.792 80.2482 142.611 79.95 142.442 79.6448L141.929 79.923C141.753 79.6057 141.59 79.2811 141.44 78.95L141.973 78.7111C141.829 78.3944 141.698 78.0714 141.58 77.7429L141.031 77.9413C140.908 77.6006 140.799 77.2543 140.704 76.903L141.266 76.7462C141.175 76.4111 141.097 76.0712 141.032 75.7273L140.46 75.8415C140.393 75.4857 140.34 75.1259 140.302 74.7626L140.88 74.6916C140.843 74.3462 140.82 73.9976 140.811 73.6464L140.229 73.6739C140.219 73.3118 140.224 72.9471 140.243 72.5805L140.824 72.5966C140.841 72.2491 140.873 71.8997 140.919 71.5491L140.342 71.4899C140.388 71.1301 140.449 70.7692 140.525 70.4077L141.095 70.5093C141.131 70.3374 141.17 70.1654 141.213 69.9933C141.256 69.8212 141.302 69.6506 141.35 69.4816L140.791 69.3386C140.894 68.9831 141.009 68.634 141.137 68.2917L141.683 68.4757C141.808 68.1421 141.945 67.8155 142.093 67.4961L141.563 67.2719C141.719 66.935 141.888 66.6058 142.067 66.2847L142.577 66.5482C142.751 66.2369 142.936 65.9335 143.133 65.6385L142.647 65.3371C142.853 65.0268 143.07 64.7255 143.298 64.4335L143.758 64.7711C143.979 64.4889 144.209 64.2158 144.449 63.9524L144.018 63.5806C144.27 63.3044 144.531 63.0383 144.802 62.7828L145.202 63.1866C145.463 62.9402 145.733 62.7041 146.012 62.4787L145.646 62.0452C145.937 61.8096 146.237 61.5851 146.544 61.3725L146.873 61.833C147.169 61.6284 147.473 61.4351 147.783 61.2536L147.492 60.7686C147.815 60.5792 148.146 60.4021 148.483 60.2379L148.734 60.7445C149.057 60.5869 149.386 60.4417 149.721 60.3092L149.512 59.784C149.861 59.646 150.215 59.5213 150.574 59.4104L150.738 59.9511C151.081 59.8451 151.428 59.7522 151.779 59.6729L151.66 59.1201C152.025 59.0378 152.394 58.9695 152.765 58.9157L152.838 59.4771C153.192 59.426 153.548 59.3886 153.907 59.3654L153.882 58.7991C154.253 58.775 154.627 58.7656 155.002 58.7712L154.981 59.3387C155.336 59.344 155.693 59.3634 156.05 59.3973L156.119 58.8324C156.487 58.8673 156.856 58.9169 157.226 58.9817L157.11 59.5403C157.285 59.571 157.46 59.6053 157.635 59.6432C157.81 59.6811 157.984 59.7222 158.155 59.7665L158.316 59.2176C158.678 59.3111 159.032 59.4181 159.379 59.538L159.174 60.0735C159.511 60.19 159.841 60.3191 160.162 60.4603L160.411 59.9419C160.75 60.091 161.082 60.2531 161.404 60.4273L161.113 60.9252C161.425 61.0934 161.727 61.2734 162.021 61.4646L162.351 60.9905C162.659 61.1915 162.958 61.4042 163.247 61.628L162.879 62.0753C163.156 62.2907 163.424 62.5168 163.682 62.7528L164.085 62.335C164.355 62.5819 164.614 62.8393 164.861 63.1063L164.426 63.4922C164.664 63.7486 164.891 64.0143 165.107 64.2885L165.571 63.9367C165.796 64.2226 166.01 64.5174 166.211 64.8204L165.721 65.1363C165.913 65.4266 166.094 65.7247 166.263 66.0299L166.776 65.7518C166.952 66.069 167.115 66.3936 167.265 66.7247L166.732 66.9637C166.876 67.2804 167.007 67.6034 167.125 67.9319L167.674 67.7335C167.797 68.0741 167.906 68.4205 168.002 68.7718L167.439 68.9285C167.53 69.2637 167.608 69.6035 167.673 69.9474L168.245 69.8332C168.312 70.189 168.365 70.5489 168.404 70.9122L167.825 70.9832C167.862 71.3285 167.885 71.6771 167.895 72.0283L168.476 72.0008C168.486 72.3629 168.481 72.7276 168.463 73.0942L167.882 73.0782C167.864 73.4257 167.832 73.7751 167.786 74.1257L168.364 74.1849Z" stroke="#F94267" stroke-width="1.14937" stroke-dasharray="1.15 1.15"/>
<path d="M202.757 80.3989C202.79 80.7584 202.809 81.122 202.815 81.4892L202.233 81.5095C202.235 81.6841 202.235 81.8595 202.23 82.0358C202.226 82.212 202.218 82.3874 202.207 82.5619L202.788 82.584C202.765 82.9512 202.728 83.3147 202.678 83.6741L202.101 83.6093C202.052 83.9595 201.99 84.3056 201.915 84.647L202.483 84.7544C202.404 85.1145 202.311 85.4697 202.205 85.8194L201.647 85.6695C201.545 86.0086 201.429 86.3423 201.301 86.67L201.844 86.8615C201.71 87.2062 201.563 87.5445 201.403 87.876L200.877 87.6438C200.723 87.9642 200.557 88.2778 200.379 88.584L200.884 88.8555C200.697 89.1765 200.499 89.4898 200.289 89.7947L199.808 89.4856C199.606 89.7797 199.392 90.0657 199.169 90.3429L199.623 90.6879C199.389 90.9778 199.144 91.2585 198.889 91.5295L198.464 91.1505C198.219 91.4112 197.964 91.6625 197.699 91.9037L198.091 92.3144C197.815 92.5661 197.529 92.8073 197.234 93.0373L196.877 92.5972C196.594 92.8179 196.303 93.0278 196.004 93.2265L196.324 93.6935C196.012 93.9004 195.692 94.0956 195.364 94.2783L195.084 93.7871C194.77 93.9617 194.45 94.1246 194.123 94.2749L194.361 94.7874C194.021 94.9436 193.674 95.087 193.321 95.2169L193.126 94.6864C192.79 94.81 192.449 94.9208 192.102 95.0183L192.251 95.5634C191.892 95.6644 191.527 95.7516 191.157 95.8246L191.054 95.2684C190.704 95.3374 190.35 95.393 189.991 95.4348L190.047 95.9983C189.678 96.0413 189.305 96.0701 188.929 96.0842L188.919 95.5171C188.741 95.5238 188.561 95.527 188.381 95.5267C188.201 95.5265 188.022 95.5227 187.844 95.5154L187.807 96.0825C187.431 96.0673 187.06 96.0373 186.693 95.9932L186.776 95.4298C186.42 95.387 186.068 95.3303 185.722 95.2602L185.592 95.816C185.225 95.7419 184.865 95.6536 184.51 95.5515L184.686 95.0069C184.344 94.9084 184.007 94.7965 183.677 94.6719L183.457 95.2018C183.11 95.0708 182.77 94.9264 182.438 94.7691L182.701 94.2574C182.381 94.106 182.069 93.9422 181.764 93.7666L181.46 94.257C181.141 94.0732 180.83 93.8771 180.529 93.6693L180.871 93.2033C180.581 93.0037 180.3 92.7929 180.028 92.5713L179.65 93.0103C179.366 92.7794 179.092 92.5373 178.828 92.2848L179.24 91.8753C178.987 91.6334 178.744 91.3814 178.511 91.1199L178.069 91.4975C177.827 91.2258 177.595 90.9443 177.375 90.6538L177.846 90.3102C177.636 90.0323 177.436 89.7457 177.248 89.451L176.753 89.7586C176.558 89.453 176.374 89.1391 176.204 88.8176L176.721 88.5477C176.558 88.241 176.407 87.9269 176.268 87.6061L175.732 87.8366C175.588 87.5047 175.457 87.1659 175.339 86.8208L175.892 86.631C175.78 86.3029 175.68 85.9689 175.594 85.6295L175.029 85.7777C174.94 85.4277 174.865 85.0723 174.803 84.712L175.377 84.6063C175.318 84.2647 175.272 83.9184 175.24 83.5681L174.661 83.6311C174.628 83.2716 174.608 82.908 174.603 82.5408L175.185 82.5205C175.182 82.3459 175.183 82.1705 175.188 81.9943C175.192 81.818 175.199 81.6426 175.21 81.4681L174.63 81.446C174.653 81.0788 174.69 80.7153 174.74 80.356L175.316 80.4207C175.366 80.0705 175.428 79.7244 175.503 79.383L174.934 79.2756C175.014 78.9155 175.107 78.5603 175.213 78.2106L175.77 78.3605C175.873 78.0214 175.989 77.6877 176.116 77.36L175.573 77.1685C175.708 76.8238 175.855 76.4855 176.015 76.154L176.54 76.3862C176.695 76.0658 176.861 75.7522 177.039 75.446L176.534 75.1746C176.721 74.8535 176.919 74.5402 177.129 74.2353L177.61 74.5444C177.812 74.2503 178.025 73.9644 178.249 73.6871L177.795 73.3421C178.029 73.0522 178.274 72.7715 178.529 72.5005L178.953 72.8795C179.199 72.6188 179.454 72.3675 179.719 72.1263L179.327 71.7156C179.603 71.464 179.889 71.2228 180.183 70.9927L180.541 71.4328C180.823 71.2121 181.115 71.0022 181.414 70.8035L181.094 70.3365C181.406 70.1296 181.726 69.9344 182.054 69.7517L182.334 70.243C182.647 70.0683 182.968 69.9055 183.295 69.7551L183.057 69.2426C183.397 69.0864 183.744 68.943 184.097 68.8131L184.291 69.3436C184.627 69.22 184.969 69.1092 185.316 69.0117L185.167 68.4666C185.526 68.3656 185.891 68.2784 186.261 68.2055L186.364 68.7617C186.714 68.6926 187.068 68.637 187.427 68.5952L187.37 68.0317C187.739 67.9887 188.113 67.9599 188.489 67.9458L188.499 68.5129C188.677 68.5062 188.856 68.503 189.036 68.5033C189.216 68.5035 189.396 68.5073 189.574 68.5146L189.611 67.9475C189.987 67.9628 190.358 67.9927 190.725 68.0368L190.642 68.6002C190.998 68.643 191.35 68.6997 191.696 68.7698L191.826 68.214C192.192 68.2881 192.553 68.3764 192.908 68.4785L192.732 69.0231C193.074 69.1216 193.41 69.2335 193.74 69.3581L193.961 68.8282C194.308 68.9592 194.647 69.1036 194.98 69.2609L194.717 69.7726C195.036 69.924 195.349 70.0878 195.654 70.2634L195.958 69.773C196.277 69.9568 196.587 70.1529 196.889 70.3607L196.547 70.8267C196.836 71.0263 197.118 71.2371 197.39 71.4587L197.768 71.0197C198.052 71.2506 198.326 71.4927 198.59 71.7452L198.178 72.1547C198.431 72.3966 198.674 72.6486 198.907 72.9101L199.349 72.5325C199.591 72.8042 199.822 73.0857 200.042 73.3762L199.572 73.7198C199.782 73.9977 199.981 74.2843 200.17 74.579L200.665 74.2714C200.86 74.577 201.043 74.8909 201.214 75.2124L200.696 75.4823C200.859 75.789 201.011 76.1031 201.149 76.4239L201.686 76.1934C201.83 76.5253 201.961 76.8641 202.078 77.2092L201.526 77.399C201.638 77.7271 201.737 78.0611 201.824 78.4005L202.388 78.2523C202.478 78.6023 202.553 78.9577 202.615 79.318L202.041 79.4238C202.1 79.7653 202.146 80.1116 202.178 80.4619L202.757 80.3989Z" stroke="#F94267" stroke-width="1.14937" stroke-dasharray="1.15 1.15"/>
</g>
<defs>
<clipPath id="clip0_2260_102836">
<rect width="19.8554" height="18.75" rx="9.37502" transform="matrix(0.919594 0.392871 -0.423084 0.90609 166.934 63.2129)" fill="white"/>
</clipPath>
</defs>
</svg>
