<svg width="24" height="24" viewBox="0 0 24 24" fill="none" xmlns="http://www.w3.org/2000/svg">
<circle cx="3.40499" cy="10.4177" r="2.40499" fill="white"/>
<circle cx="20.2399" cy="10.4177" r="2.40499" fill="white"/>
<path d="M21.442 10.9902C21.442 13.0716 20.6725 14.9957 19.3781 16.5174C17.6466 18.6163 14.9005 19.963 11.8221 19.963L7.61337 21.8411C6.84377 22.3134 5.86428 21.6663 5.96923 20.7742L6.05012 18.1615C3.70635 16.5348 2.20215 13.9287 2.20215 10.9902C2.20215 7.91181 3.84629 5.20077 6.36497 3.59162C7.92165 2.57715 9.79316 2 11.8221 2C17.1393 2 21.442 6.02281 21.442 10.9902Z" fill="#FA6885"/>
<ellipse cx="11.8224" cy="11.019" rx="7.21496" ry="6.61371" fill="white"/>
<circle cx="9.41734" cy="10.4173" r="1.20249" fill="#595C72"/>
<circle cx="14.2274" cy="10.4173" r="1.20249" fill="#595C72"/>
</svg>
