<svg width="14" height="14" viewBox="0 0 14 14" fill="none" xmlns="http://www.w3.org/2000/svg">
<circle cx="7" cy="7" r="4.66667" stroke="#595C72" stroke-width="1.16667"/>
<path d="M4.88597 7.26129H5.19433L5.51052 8.44026C5.56644 8.64878 5.75542 8.79375 5.9713 8.79375C6.18775 8.79375 6.37707 8.64804 6.43247 8.4388L6.74428 7.26129H7.25442L7.56622 8.4388C7.62163 8.64804 7.81095 8.79375 8.02739 8.79375C8.24328 8.79375 8.43225 8.64878 8.48818 8.44026L8.80437 7.26129H9.11272C9.25837 7.26129 9.37643 7.14323 9.37643 6.99758C9.37643 6.85194 9.25837 6.73387 9.11272 6.73387H8.94485L9.23641 5.64328C9.29537 5.42273 9.12916 5.20625 8.90087 5.20625C8.74028 5.20625 8.60064 5.31634 8.56314 5.47249L8.26029 6.73387H7.73816L7.42882 5.53871C7.37815 5.34297 7.20154 5.20625 6.99935 5.20625C6.79716 5.20625 6.62054 5.34297 6.56988 5.53871L6.26054 6.73387H5.74361L5.44121 5.47439C5.40345 5.31713 5.26281 5.20625 5.10107 5.20625C4.87114 5.20625 4.70374 5.42428 4.76312 5.64641L5.05385 6.73387H4.88597C4.74033 6.73387 4.62227 6.85194 4.62227 6.99758C4.62227 7.14323 4.74033 7.26129 4.88597 7.26129ZM5.86864 7.26129H6.12341L5.99101 7.77205L5.86864 7.26129ZM6.88191 6.73387L6.99935 6.29031L7.11679 6.73387H6.88191ZM7.87518 7.26129H8.13254L8.00788 7.77694L7.87518 7.26129Z" fill="#595C72" stroke="#595C72" stroke-width="0.0875"/>
</svg>
