<svg width="14" height="14" viewBox="0 0 14 14" fill="none" xmlns="http://www.w3.org/2000/svg">
<path d="M11.296 6.04545C11.296 9.38636 7.00053 12.25 7.00053 12.25C7.00053 12.25 2.70508 9.38636 2.70508 6.04545C2.70508 4.90623 3.15763 3.81366 3.96319 3.00811C4.76874 2.20256 5.86131 1.75 7.00053 1.75C8.13976 1.75 9.23232 2.20256 10.0379 3.00811C10.8434 3.81366 11.296 4.90623 11.296 6.04545Z" stroke="#595C72" stroke-width="1.16667" stroke-linecap="round" stroke-linejoin="round"/>
<path d="M7.00018 7.47594C7.79095 7.47594 8.432 6.83489 8.432 6.04412C8.432 5.25335 7.79095 4.6123 7.00018 4.6123C6.20941 4.6123 5.56836 5.25335 5.56836 6.04412C5.56836 6.83489 6.20941 7.47594 7.00018 7.47594Z" stroke="#595C72" stroke-width="1.16667" stroke-linecap="round" stroke-linejoin="round"/>
</svg>
