<svg width="14" height="14" viewBox="0 0 14 14" fill="none" xmlns="http://www.w3.org/2000/svg">
<path d="M5.25033 2.91667H4.08366C3.43933 2.91667 2.91699 3.439 2.91699 4.08333V11.0833C2.91699 11.7277 3.43933 12.25 4.08366 12.25H9.91699C10.5613 12.25 11.0837 11.7277 11.0837 11.0833V4.08333C11.0837 3.439 10.5613 2.91667 9.91699 2.91667H8.75033M5.25033 2.91667C5.25033 3.561 5.77266 4.08333 6.41699 4.08333H7.58366C8.22799 4.08333 8.75033 3.561 8.75033 2.91667M5.25033 2.91667C5.25033 2.27233 5.77266 1.75 6.41699 1.75H7.58366C8.22799 1.75 8.75033 2.27233 8.75033 2.91667M7.00033 7H8.75033M7.00033 9.33333H8.75033M5.25033 7H5.25616M5.25033 9.33333H5.25616" stroke="#595C72" stroke-width="1.16667" stroke-linecap="round"/>
</svg>
