<svg width="155" height="28" viewBox="0 0 155 28" fill="none" xmlns="http://www.w3.org/2000/svg">
<path d="M6.39495 27.0987H0V4.52832H6.39495V27.0987ZM15.5306 18.3124H5.9113V13.0191H15.5306V18.3124ZM15.1007 4.52832H21.4956V27.0987H15.1007V4.52832Z" fill="#353743"/>
<path d="M30.3877 7.05418C29.2592 7.05418 28.3725 6.73175 27.6739 6.11375C26.9753 5.49575 26.6528 4.71653 26.6528 3.80297C26.6528 2.88941 27.0021 2.11019 27.6739 1.49219C28.3725 0.874193 29.2592 0.551758 30.3877 0.551758C31.5162 0.551758 32.4029 0.847322 33.1015 1.43845C33.8001 2.02958 34.1226 2.78193 34.1226 3.72236C34.1226 4.6628 33.7733 5.49575 33.1015 6.11375C32.4298 6.75862 31.5162 7.05418 30.3877 7.05418Z" fill="#E0E0E0"/>
<mask id="mask0_2003_7247" style="mask-type:luminance" maskUnits="userSpaceOnUse" x="26" y="0" width="9" height="8">
<path d="M30.3882 7.05418C29.2597 7.05418 28.373 6.73175 27.6744 6.11375C26.9758 5.49575 26.6533 4.71654 26.6533 3.80297C26.6533 2.88941 27.0026 2.11019 27.6744 1.49219C28.373 0.874193 29.2597 0.551758 30.3882 0.551758C31.5167 0.551758 32.4034 0.847322 33.102 1.43845C33.8006 2.02958 34.1231 2.78193 34.1231 3.72236C34.1231 4.6628 33.7737 5.49575 33.102 6.11375C32.4303 6.75862 31.5167 7.05418 30.3882 7.05418Z" fill="white"/>
</mask>
<g mask="url(#mask0_2003_7247)">
<path fill-rule="evenodd" clip-rule="evenodd" d="M26.7868 2.16386C25.8223 2.16386 25.0403 2.9458 25.0403 3.91037C25.0403 4.87495 25.8223 5.65689 26.7868 5.65689C27.7514 5.65689 28.5334 4.87495 28.5334 3.91037C28.5334 2.9458 27.7514 2.16386 26.7868 2.16386ZM24.5029 3.91037C24.5029 2.64901 25.5255 1.62646 26.7868 1.62646C28.0482 1.62646 29.0707 2.64901 29.0707 3.91037C29.0707 5.17174 28.0482 6.19428 26.7868 6.19428C25.5255 6.19428 24.5029 5.17174 24.5029 3.91037Z" fill="#F44A4A"/>
<path fill-rule="evenodd" clip-rule="evenodd" d="M33.987 2.16361C33.0225 2.16361 32.2405 2.94555 32.2405 3.91013C32.2405 4.87471 33.0225 5.65665 33.987 5.65665C34.9516 5.65665 35.7336 4.87471 35.7336 3.91013C35.7336 2.94555 34.9516 2.16361 33.987 2.16361ZM31.7031 3.91013C31.7031 2.64876 32.7257 1.62622 33.987 1.62622C35.2484 1.62622 36.2709 2.64876 36.2709 3.91013C36.2709 5.1715 35.2484 6.19404 33.987 6.19404C32.7257 6.19404 31.7031 5.1715 31.7031 3.91013Z" fill="#F44A4A"/>
</g>
<path d="M27.3257 27.0445V9.57935H33.4519V27.0445H27.3257Z" fill="#353743"/>
<path d="M44.3073 27.0987V9.57979H37.375V4.52832H57.5809V9.57979H50.6754V27.0987H44.2805H44.3073Z" fill="#353743"/>
<path d="M67.4004 27.0987V23.0952L80.6739 7.32275L81.4532 9.57979H67.696V4.52832H87.1495V8.53188L73.8759 24.3043L73.0967 22.0473H87.6331V27.0987H67.4273H67.4004Z" fill="#353743"/>
<path d="M98.8118 27.3945C96.9041 27.3945 95.2113 27.0183 93.7066 26.2391C92.2288 25.4599 91.0465 24.3851 90.2135 23.0416C89.3537 21.6713 88.9507 20.1128 88.9507 18.3394C88.9507 16.566 89.3806 15.0076 90.2135 13.6641C91.0465 12.3207 92.2288 11.2459 93.7066 10.4935C95.1844 9.74118 96.8772 9.33813 98.8118 9.33813C100.746 9.33813 102.439 9.71431 103.917 10.4935C105.422 11.2459 106.577 12.3207 107.41 13.6641C108.243 15.0076 108.673 16.566 108.673 18.3394C108.673 20.1128 108.243 21.6713 107.41 23.0416C106.577 24.4119 105.395 25.4867 103.917 26.2391C102.412 27.0183 100.72 27.3945 98.8118 27.3945ZM98.8118 22.5311C99.5104 22.5311 100.155 22.3699 100.693 22.0474C101.23 21.725 101.687 21.2413 102.009 20.6233C102.332 20.0053 102.493 19.2261 102.493 18.3394C102.493 17.4527 102.332 16.7004 102.009 16.1093C101.687 15.5181 101.257 15.0345 100.693 14.712C100.155 14.3896 99.5104 14.2284 98.8118 14.2284C98.1132 14.2284 97.4952 14.3896 96.9578 14.712C96.4204 15.0345 95.9636 15.4913 95.6412 16.1093C95.3188 16.7273 95.1307 17.4796 95.1307 18.3394C95.1307 19.1993 95.2919 19.9785 95.6412 20.6233C95.9905 21.2682 96.4204 21.725 96.9578 22.0474C97.4952 22.3699 98.1132 22.5311 98.8118 22.5311Z" fill="#353743"/>
<path d="M118.184 27.098H111.789V10.5H118.184V27.098ZM127.346 19.4939H117.727V14.2006H127.346V19.4939ZM125.6 14.2006H131.994V27.098H125.6V14.2006Z" fill="#F94267"/>
<path d="M145.376 27.3945C143.307 27.3945 141.507 26.9914 139.975 26.2122C138.444 25.433 137.234 24.3582 136.402 22.9879C135.542 21.6175 135.139 20.0591 135.139 18.3394C135.139 16.6198 135.542 15.0345 136.375 13.691C137.208 12.3206 138.336 11.2727 139.814 10.4935C141.265 9.74118 142.931 9.33813 144.758 9.33813C146.478 9.33813 148.036 9.68744 149.46 10.386C150.884 11.0847 152.013 12.1057 152.846 13.476C153.679 14.8195 154.109 16.4854 154.109 18.42C154.109 18.635 154.109 18.8768 154.082 19.1724C154.082 19.4411 154.028 19.7098 154.028 19.9516H140.19V16.7273H150.777L148.466 17.6408C148.466 16.8347 148.332 16.163 148.036 15.5719C147.714 14.9807 147.284 14.5508 146.746 14.2284C146.209 13.906 145.564 13.7447 144.839 13.7447C144.113 13.7447 143.468 13.906 142.931 14.2284C142.393 14.5508 141.964 15.0076 141.668 15.5987C141.372 16.1899 141.211 16.8885 141.211 17.6677V18.6081C141.211 19.4679 141.399 20.2203 141.749 20.8383C142.098 21.4563 142.608 21.9399 143.28 22.2624C143.952 22.5848 144.731 22.7729 145.672 22.7729C146.531 22.7729 147.257 22.6386 147.875 22.3967C148.493 22.1549 149.084 21.7787 149.702 21.2413L152.926 24.6C152.093 25.5136 151.045 26.2391 149.836 26.7227C148.6 27.2064 147.149 27.4482 145.483 27.4482L145.376 27.3945Z" fill="#353743"/>
</svg>
