<svg width="730" height="128" viewBox="0 0 730 128" fill="none" xmlns="http://www.w3.org/2000/svg">
<path d="M30.2668 125.645H0V18.8208H30.2668V125.645ZM73.505 84.0597H27.9777V59.0069H73.505V84.0597ZM71.4703 18.8208H101.737V125.645H71.4703V18.8208Z" fill="#353743"/>
<path d="M143.83 30.7755C138.489 30.7755 134.292 29.2494 130.986 26.3245C127.679 23.3995 126.153 19.7116 126.153 15.3877C126.153 11.0639 127.807 7.37594 130.986 4.451C134.292 1.52606 138.489 0 143.83 0C149.171 0 153.368 1.39888 156.674 4.19665C159.981 6.99442 161.507 10.5552 161.507 15.0062C161.507 19.4572 159.854 23.3995 156.674 26.3245C153.495 29.3766 149.171 30.7755 143.83 30.7755Z" fill="#EDEDED"/>
<mask id="mask0_528_78" style="mask-type:luminance" maskUnits="userSpaceOnUse" x="126" y="0" width="36" height="31">
<path d="M143.83 30.7755C138.489 30.7755 134.292 29.2494 130.986 26.3245C127.679 23.3995 126.153 19.7116 126.153 15.3877C126.153 11.0639 127.807 7.37594 130.986 4.451C134.292 1.52606 138.489 0 143.83 0C149.171 0 153.368 1.39888 156.674 4.19665C159.981 6.99442 161.507 10.5552 161.507 15.0062C161.507 19.4572 159.854 23.3995 156.674 26.3245C153.495 29.3766 149.171 30.7755 143.83 30.7755Z" fill="white"/>
</mask>
<g mask="url(#mask0_528_78)">
<path fill-rule="evenodd" clip-rule="evenodd" d="M126.791 7.62936C122.226 7.62936 118.525 11.3302 118.525 15.8955C118.525 20.4608 122.226 24.1616 126.791 24.1616C131.357 24.1616 135.058 20.4608 135.058 15.8955C135.058 11.3302 131.357 7.62936 126.791 7.62936ZM115.982 15.8955C115.982 9.92554 120.822 5.08594 126.791 5.08594C132.761 5.08594 137.601 9.92554 137.601 15.8955C137.601 21.8655 132.761 26.7051 126.791 26.7051C120.822 26.7051 115.982 21.8655 115.982 15.8955Z" fill="#F44A4A"/>
<path fill-rule="evenodd" clip-rule="evenodd" d="M160.876 7.62936C156.311 7.62936 152.61 11.3302 152.61 15.8955C152.61 20.4608 156.311 24.1616 160.876 24.1616C165.441 24.1616 169.142 20.4608 169.142 15.8955C169.142 11.3302 165.441 7.62936 160.876 7.62936ZM150.066 15.8955C150.066 9.92554 154.906 5.08594 160.876 5.08594C166.846 5.08594 171.686 9.92554 171.686 15.8955C171.686 21.8655 166.846 26.7051 160.876 26.7051C154.906 26.7051 150.066 21.8655 150.066 15.8955Z" fill="#F44A4A"/>
</g>
<path d="M129.333 125.388V42.7271H158.328V125.388H129.333Z" fill="#F94267"/>
<path d="M209.7 125.645V42.729H176.89V18.8208H272.523V42.729H239.84V125.645H209.573H209.7Z" fill="#353743"/>
<path d="M319 125.645V106.696L381.823 32.0466L385.511 42.729H320.399V18.8208H412.471V37.7693L349.648 112.419L345.96 101.736H414.76V125.645H319.127H319Z" fill="#353743"/>
<path d="M467.663 127.045C458.634 127.045 450.622 125.264 443.501 121.576C436.506 117.888 430.911 112.801 426.968 106.443C422.899 99.9571 420.991 92.5811 420.991 84.1878C420.991 75.7945 423.026 68.4186 426.968 62.06C430.911 55.7015 436.506 50.6146 443.501 47.0538C450.495 43.493 458.507 41.5854 467.663 41.5854C476.819 41.5854 484.831 43.3659 491.826 47.0538C498.947 50.6146 504.416 55.7015 508.358 62.06C512.3 68.4186 514.335 75.7945 514.335 84.1878C514.335 92.5811 512.3 99.9571 508.358 106.443C504.416 112.929 498.82 118.015 491.826 121.576C484.704 125.264 476.692 127.045 467.663 127.045ZM467.663 104.027C470.97 104.027 474.022 103.264 476.565 101.737C479.108 100.211 481.27 97.9223 482.796 94.9974C484.323 92.0724 485.086 88.3845 485.086 84.1878C485.086 79.9912 484.323 76.4304 482.796 73.6326C481.27 70.8349 479.236 68.5458 476.565 67.0197C474.022 65.4937 470.97 64.7306 467.663 64.7306C464.357 64.7306 461.432 65.4937 458.888 67.0197C456.345 68.5458 454.183 70.7077 452.657 73.6326C451.131 76.5576 450.241 80.1184 450.241 84.1878C450.241 88.2573 451.004 91.9453 452.657 94.9974C454.31 98.0495 456.345 100.211 458.888 101.737C461.432 103.264 464.357 104.027 467.663 104.027Z" fill="#353743"/>
<path d="M559.356 125.641H529.089V38.02H559.356V125.641ZM602.721 89.6516H557.194V64.5988H602.721V89.6516ZM594.455 64.5988H624.722V125.641H594.455V64.5988Z" fill="#F94267"/>
<path d="M688.051 127.045C678.259 127.045 669.738 125.137 662.489 121.449C655.241 117.761 649.518 112.674 645.576 106.188C641.506 99.7027 639.599 92.3268 639.599 84.1878C639.599 76.0489 641.506 68.5457 645.449 62.1872C649.391 55.7014 654.732 50.7418 661.726 47.0538C668.594 43.493 676.478 41.5854 685.126 41.5854C693.265 41.5854 700.641 43.2387 707.381 46.5451C714.121 49.8516 719.462 54.6841 723.404 61.1698C727.347 67.5284 729.382 75.413 729.382 84.5693C729.382 85.5867 729.382 86.7313 729.254 88.1301C729.254 89.4019 729 90.6736 729 91.8181H663.507V76.5576H713.612L702.676 80.8814C702.676 77.0662 702.04 73.887 700.641 71.0892C699.115 68.2914 697.08 66.2567 694.537 64.7306C691.993 63.2046 688.941 62.4415 685.507 62.4415C682.074 62.4415 679.022 63.2046 676.478 64.7306C673.935 66.2567 671.9 68.4186 670.501 71.2164C669.102 74.0141 668.339 77.3206 668.339 81.0086V85.4595C668.339 89.529 669.23 93.0898 670.883 96.0147C672.536 98.9397 674.952 101.229 678.132 102.755C681.311 104.281 684.999 105.171 689.45 105.171C693.519 105.171 696.953 104.535 699.878 103.391C702.803 102.246 705.601 100.466 708.525 97.9223L723.786 113.819C719.844 118.143 714.884 121.576 709.161 123.865C703.311 126.154 696.444 127.299 688.56 127.299L688.051 127.045Z" fill="#353743"/>
</svg>
