<svg width="237" height="125" viewBox="0 0 237 125" fill="none" xmlns="http://www.w3.org/2000/svg">
<g clip-path="url(#clip0_2331_143483)">
<path d="M0 7.99999C0 3.58172 3.58172 0 8 0H229C233.418 0 237 3.58172 237 8V124.425H0V7.99999Z" fill="#FEECF0"/>
<g clip-path="url(#clip1_2331_143483)">
<rect x="145.193" y="78.6936" width="19.9213" height="19.9213" rx="9.96067" transform="rotate(44.6126 145.193 78.6936)" fill="white"/>
<path d="M142.895 89.8704C142.745 90.1645 142.582 90.4551 142.406 90.7414L141.964 90.4706C141.881 90.6067 141.794 90.7419 141.705 90.876C141.616 91.0101 141.525 91.142 141.431 91.2715L141.852 91.5746C141.656 91.8471 141.451 92.1099 141.238 92.3628L140.842 92.0289C140.634 92.2754 140.419 92.5121 140.196 92.739L140.567 93.1021C140.332 93.3414 140.09 93.5702 139.84 93.7882L139.499 93.3977C139.257 93.6092 139.008 93.8102 138.753 94.0005L139.064 94.4161C138.795 94.6163 138.521 94.8053 138.24 94.9828L137.963 94.5445C137.692 94.7161 137.415 94.8765 137.134 95.0256L137.376 95.484C137.081 95.6403 136.781 95.7848 136.476 95.9171L136.269 95.4414C135.975 95.569 135.677 95.685 135.376 95.789L135.545 96.2793C135.229 96.3882 134.91 96.4845 134.588 96.5683L134.458 96.0663C134.148 96.1469 133.836 96.2154 133.521 96.2715L133.612 96.7821C133.284 96.8406 132.954 96.8863 132.623 96.9189L132.572 96.4027C132.254 96.434 131.935 96.4528 131.616 96.4588L131.625 96.9774C131.293 96.9838 130.959 96.9769 130.627 96.9567L130.658 96.439C130.34 96.4197 130.022 96.3876 129.706 96.3427L129.633 96.8562C129.304 96.8095 128.976 96.7495 128.65 96.6759L128.764 96.17C128.454 96.1 128.146 96.0173 127.84 95.9217L127.685 96.4167C127.369 96.3176 127.055 96.2053 126.745 96.0796L126.939 95.5988C126.645 95.4798 126.355 95.3483 126.068 95.204L125.835 95.6674C125.54 95.5188 125.248 95.3572 124.961 95.1827L125.231 94.7396C125.095 94.6569 124.96 94.571 124.826 94.4821C124.693 94.3932 124.561 94.302 124.432 94.2087L124.128 94.6288C123.856 94.4319 123.595 94.2256 123.343 94.0107L123.68 93.6165C123.436 93.4079 123.203 93.1908 122.979 92.9659L122.611 93.3315C122.375 93.0938 122.15 92.8479 121.936 92.5944L122.333 92.26C122.126 92.0152 121.931 91.763 121.746 91.5042L121.324 91.8053C121.13 91.5332 120.948 91.2541 120.778 90.9688L121.223 90.7029C121.059 90.4283 120.906 90.1477 120.765 89.8618L120.3 90.0911C120.153 89.792 120.018 89.4874 119.895 89.1782L120.377 88.9866C120.259 88.6897 120.153 88.3882 120.058 88.0829L119.563 88.2358C119.465 87.9176 119.379 87.5955 119.306 87.2703L119.812 87.1568C119.742 86.8452 119.684 86.5306 119.639 86.2139L119.125 86.2876C119.078 85.9584 119.044 85.6269 119.022 85.294L119.539 85.2603C119.519 84.9419 119.51 84.6221 119.514 84.3017L118.996 84.2952C119 83.963 119.017 83.6301 119.047 83.2974L119.563 83.3439C119.592 83.0265 119.633 82.7093 119.686 82.3929L119.174 82.3067C119.23 81.9794 119.298 81.653 119.378 81.3283L119.882 81.4537C119.959 81.145 120.048 80.8379 120.149 80.533L119.657 80.3693C119.762 80.0549 119.879 79.7429 120.009 79.4339L120.487 79.6349C120.61 79.3419 120.745 79.0518 120.892 78.7652L120.43 78.5284C120.581 78.2343 120.744 77.9437 120.92 77.6574L121.362 77.9282C121.445 77.7921 121.532 77.6569 121.621 77.5228C121.71 77.3887 121.801 77.2568 121.894 77.1273L121.474 76.8242C121.67 76.5517 121.875 76.289 122.087 76.036L122.484 76.37C122.692 76.1235 122.907 75.8867 123.129 75.6599L122.759 75.2967C122.994 75.0574 123.236 74.8287 123.486 74.6106L123.827 75.0011C124.069 74.7896 124.318 74.5887 124.573 74.3983L124.262 73.9827C124.53 73.7825 124.805 73.5936 125.085 73.416L125.363 73.8543C125.634 73.6828 125.911 73.5223 126.192 73.3732L125.95 72.9148C126.245 72.7585 126.545 72.6141 126.85 72.4817L127.057 72.9575C127.35 72.8298 127.649 72.7139 127.95 72.6098L127.781 72.1195C128.096 72.0107 128.415 71.9143 128.737 71.8305L128.868 72.3325C129.178 72.2519 129.49 72.1835 129.804 72.1274L129.713 71.6168C130.041 71.5582 130.372 71.5126 130.703 71.4799L130.754 71.9961C131.072 71.9648 131.391 71.9461 131.71 71.94L131.7 71.4214C132.033 71.4151 132.366 71.4219 132.699 71.4421L132.668 71.9598C132.986 71.9792 133.304 72.0112 133.62 72.0562L133.693 71.5426C134.022 71.5893 134.35 71.6494 134.676 71.7229L134.562 72.2289C134.872 72.2988 135.18 72.3815 135.486 72.4772L135.64 71.9822C135.957 72.0812 136.271 72.1935 136.581 72.3193L136.387 72.8C136.68 72.919 136.971 73.0505 137.258 73.1948L137.491 72.7315C137.786 72.8801 138.078 73.0416 138.365 73.2162L138.095 73.6592C138.231 73.742 138.366 73.8278 138.499 73.9167C138.633 74.0056 138.765 74.0968 138.893 74.1901L139.198 73.77C139.47 73.967 139.731 74.1732 139.983 74.3881L139.646 74.7823C139.89 74.991 140.123 75.2081 140.347 75.4329L140.715 75.0674C140.951 75.305 141.176 75.5509 141.39 75.8044L140.993 76.1388C141.199 76.3836 141.395 76.6358 141.579 76.8946L142.002 76.5936C142.196 76.8656 142.378 77.1447 142.548 77.43L142.103 77.6959C142.267 77.9705 142.419 78.2511 142.56 78.537L143.026 78.3077C143.173 78.6068 143.308 78.9114 143.431 79.2207L142.949 79.4122C143.067 79.7091 143.173 80.0106 143.267 80.3159L143.763 80.163C143.861 80.4812 143.947 80.8033 144.02 81.1285L143.514 81.2421C143.584 81.5537 143.641 81.8682 143.687 82.185L144.2 82.1112C144.248 82.4404 144.282 82.7719 144.304 83.1048L143.786 83.1385C143.807 83.4569 143.816 83.7767 143.812 84.0972L144.33 84.1036C144.326 84.4358 144.309 84.7687 144.279 85.1014L143.763 85.0549C143.734 85.3723 143.693 85.6896 143.64 86.0059L144.151 86.0921C144.096 86.4194 144.028 86.7458 143.947 87.0705L143.444 86.9451C143.367 87.2538 143.278 87.561 143.177 87.8658L143.669 88.0295C143.564 88.3439 143.447 88.6559 143.317 88.9649L142.839 88.764C142.716 89.0569 142.581 89.347 142.434 89.6336L142.895 89.8704Z" stroke="#F94267" stroke-width="1.03734" stroke-dasharray="1.04 1.04"/>
<path d="M169.564 106.289C169.48 106.608 169.383 106.927 169.273 107.244L168.783 107.074C168.73 107.225 168.675 107.376 168.616 107.526C168.558 107.676 168.497 107.824 168.434 107.971L168.91 108.177C168.776 108.485 168.633 108.785 168.479 109.078L168.02 108.837C167.87 109.122 167.71 109.399 167.541 109.668L167.981 109.944C167.803 110.228 167.615 110.503 167.418 110.77L167.001 110.461C166.81 110.719 166.61 110.969 166.402 111.21L166.794 111.549C166.575 111.802 166.347 112.045 166.111 112.279L165.746 111.91C165.518 112.136 165.282 112.352 165.039 112.558L165.374 112.953C165.119 113.169 164.857 113.375 164.587 113.569L164.284 113.149C164.024 113.336 163.757 113.513 163.485 113.679L163.755 114.122C163.47 114.296 163.179 114.458 162.883 114.609L162.648 114.147C162.363 114.292 162.072 114.425 161.777 114.547L161.975 115.027C161.667 115.154 161.354 115.269 161.038 115.372L160.878 114.879C160.574 114.977 160.266 115.064 159.955 115.138L160.076 115.643C159.752 115.72 159.425 115.785 159.096 115.836L159.016 115.324C158.701 115.373 158.384 115.41 158.065 115.434L158.103 115.951C157.772 115.976 157.439 115.987 157.105 115.985L157.108 115.466C156.79 115.464 156.472 115.449 156.153 115.421L156.107 115.938C155.777 115.909 155.446 115.867 155.116 115.81L155.203 115.299C154.891 115.246 154.579 115.179 154.268 115.1L154.139 115.602C153.819 115.52 153.5 115.425 153.182 115.316L153.351 114.825C153.2 114.773 153.05 114.718 152.9 114.66C152.751 114.602 152.603 114.541 152.457 114.477L152.25 114.953C151.942 114.819 151.642 114.673 151.351 114.517L151.596 114.06C151.313 113.908 151.038 113.746 150.772 113.574L150.49 114.01C150.209 113.829 149.936 113.637 149.673 113.435L149.989 113.023C149.735 112.828 149.49 112.624 149.255 112.41L148.906 112.795C148.659 112.571 148.421 112.337 148.194 112.095L148.572 111.74C148.353 111.507 148.144 111.265 147.945 111.016L147.54 111.34C147.332 111.079 147.134 110.81 146.948 110.535L147.378 110.244C147.199 109.979 147.031 109.708 146.874 109.43L146.422 109.685C146.258 109.395 146.106 109.099 145.965 108.797L146.435 108.578C146.3 108.288 146.176 107.993 146.064 107.694L145.578 107.876C145.461 107.564 145.357 107.248 145.264 106.927L145.763 106.783C145.674 106.477 145.597 106.166 145.533 105.852L145.025 105.957C144.958 105.632 144.903 105.303 144.861 104.971L145.376 104.906C145.336 104.59 145.308 104.272 145.292 103.951L144.774 103.976C144.758 103.645 144.754 103.311 144.764 102.977L145.282 102.992C145.291 102.674 145.313 102.355 145.347 102.035L144.831 101.981C144.866 101.651 144.913 101.321 144.974 100.992L145.484 101.086C145.542 100.773 145.611 100.461 145.694 100.149L145.192 100.017C145.277 99.6973 145.374 99.3785 145.484 99.0613L145.974 99.2312C146.026 99.0804 146.081 98.9299 146.14 98.7798C146.198 98.6297 146.259 98.4814 146.323 98.3349L145.847 98.1289C145.98 97.8207 146.124 97.5202 146.278 97.2276L146.737 97.4688C146.887 97.1837 147.046 96.9063 147.215 96.6371L146.776 96.3616C146.954 96.0777 147.141 95.8024 147.338 95.536L147.755 95.8444C147.946 95.586 148.146 95.3365 148.355 95.096L147.963 94.7564C148.182 94.5035 148.41 94.2601 148.646 94.0267L149.01 94.3955C149.238 94.1699 149.474 93.9539 149.718 93.748L149.382 93.3522C149.637 93.1363 149.9 92.931 150.169 92.7364L150.473 93.157C150.733 92.9694 150.999 92.7923 151.271 92.6261L151.001 92.1833C151.286 92.0096 151.577 91.8472 151.873 91.6964L152.109 92.1588C152.394 92.0138 152.684 91.8801 152.979 91.7581L152.781 91.2788C153.089 91.1514 153.402 91.0361 153.719 90.9333L153.879 91.4267C154.183 91.3281 154.49 91.2415 154.801 91.1672L154.68 90.6627C155.004 90.5853 155.331 90.5207 155.66 90.4692L155.741 90.9817C156.055 90.9325 156.373 90.8958 156.692 90.8719L156.653 90.3547C156.984 90.3299 157.317 90.3184 157.651 90.3205L157.648 90.8392C157.966 90.8412 158.285 90.856 158.604 90.884L158.649 90.3673C158.98 90.3964 159.31 90.4389 159.64 90.4953L159.553 91.0066C159.865 91.0599 160.177 91.1262 160.489 91.2058L160.617 90.7033C160.937 90.7853 161.257 90.8807 161.574 90.9898L161.406 91.4803C161.556 91.532 161.706 91.587 161.856 91.6453C162.006 91.7035 162.153 91.7644 162.299 91.828L162.506 91.3526C162.814 91.4867 163.114 91.6322 163.406 91.7883L163.161 92.2456C163.444 92.3972 163.718 92.5592 163.985 92.731L164.266 92.2952C164.547 92.4768 164.82 92.6689 165.083 92.8708L164.767 93.2823C165.021 93.4772 165.266 93.6817 165.502 93.8951L165.85 93.5106C166.098 93.7349 166.335 93.9685 166.563 94.2107L166.185 94.5658C166.404 94.7989 166.613 95.0404 166.811 95.2895L167.217 94.966C167.425 95.2266 167.622 95.4952 167.808 95.771L167.378 96.0612C167.557 96.326 167.726 96.5978 167.883 96.8759L168.334 96.6205C168.498 96.9103 168.651 97.2066 168.792 97.5087L168.322 97.7279C168.457 98.0173 168.58 98.3122 168.693 98.6119L169.178 98.43C169.295 98.7415 169.4 99.0578 169.492 99.3784L168.994 99.5221C169.082 99.8287 169.159 100.139 169.224 100.453L169.732 100.348C169.799 100.674 169.853 101.003 169.895 101.334L169.381 101.399C169.421 101.715 169.449 102.034 169.464 102.354L169.982 102.329C169.998 102.661 170.002 102.994 169.992 103.329L169.474 103.314C169.465 103.632 169.444 103.951 169.41 104.27L169.926 104.325C169.891 104.654 169.843 104.984 169.782 105.314L169.272 105.22C169.215 105.532 169.145 105.845 169.063 106.156L169.564 106.289Z" stroke="#F94267" stroke-width="1.03735" stroke-dasharray="1.04 1.04"/>
</g>
<g clip-path="url(#clip2_2331_143483)">
<rect x="-12.875" y="89.6606" width="36.0484" height="36.0484" rx="18.0242" transform="rotate(-20.5265 -12.875 89.6606)" fill="white"/>
<path d="M3.72719 101.936C4.09531 102.407 4.44835 102.896 4.78512 103.402L4.00393 103.922C4.16404 104.163 4.32034 104.407 4.47271 104.655C4.62508 104.904 4.7721 105.154 4.91381 105.406L5.73165 104.945C6.02974 105.475 6.30534 106.011 6.55871 106.553L5.70851 106.95C5.95544 107.478 6.18036 108.012 6.38355 108.55L7.26153 108.218C7.47587 108.785 7.66702 109.357 7.83529 109.933L6.93446 110.196C7.09764 110.754 7.23839 111.316 7.35701 111.879L8.27542 111.686C8.40018 112.278 8.50144 112.873 8.57951 113.468L7.64891 113.59C7.72437 114.166 7.77725 114.742 7.80786 115.318L8.7451 115.268C8.77719 115.872 8.78579 116.475 8.77124 117.076L7.83296 117.053C7.81893 117.633 7.78245 118.211 7.72386 118.785L8.65757 118.88C8.59631 119.481 8.51184 120.078 8.40449 120.67L7.48099 120.503C7.3777 121.073 7.25237 121.638 7.10531 122.197L8.01296 122.435C7.85949 123.019 7.6833 123.595 7.48472 124.164L6.59858 123.855C6.40809 124.401 6.19616 124.939 5.96311 125.468L6.82205 125.846C6.57932 126.398 6.3146 126.939 6.0282 127.471L5.2021 127.025C4.92834 127.533 4.63397 128.03 4.31932 128.516L5.107 129.026C4.78005 129.531 4.43208 130.023 4.06338 130.502L3.31955 129.93C2.9688 130.386 2.59853 130.829 2.20902 131.258L2.9039 131.889C2.50052 132.333 2.07737 132.763 1.63475 133.177L0.993574 132.492C0.574713 132.883 0.137607 133.261 -0.31748 133.622L0.265931 134.357C-0.202763 134.729 -0.689666 135.084 -1.1945 135.423L-1.71677 134.643C-1.95605 134.803 -2.19956 134.959 -2.44729 135.111C-2.69502 135.263 -2.94461 135.409 -3.19593 135.55L-2.73761 136.369C-3.26784 136.666 -3.80557 136.938 -4.34957 137.188L-4.74039 136.334C-5.26859 136.576 -5.80288 136.795 -6.34202 136.991L-6.02177 137.873C-6.5915 138.08 -7.16647 138.262 -7.74533 138.42L-7.99266 137.515C-8.55163 137.667 -9.11442 137.797 -9.67972 137.903L-9.50676 138.825C-10.101 138.936 -10.6978 139.023 -11.2958 139.086L-11.3936 138.152C-11.9691 138.213 -12.5459 138.25 -13.1225 138.264L-13.0999 139.202C-13.7032 139.216 -14.3061 139.207 -14.9074 139.173L-14.8552 138.236C-15.4325 138.204 -16.0083 138.149 -16.5811 138.071L-16.7071 139.001C-17.3043 138.92 -17.8983 138.816 -18.4877 138.688L-18.2891 137.771C-18.8539 137.649 -19.4143 137.504 -19.969 137.338L-20.2385 138.237C-20.815 138.064 -21.3855 137.869 -21.9486 137.651L-21.6102 136.776C-22.1488 136.568 -22.6803 136.338 -23.2033 136.088L-23.6084 136.935C-24.1508 136.675 -24.6844 136.394 -25.2079 136.092L-24.7386 135.279C-25.238 134.991 -25.7278 134.682 -26.2066 134.354L-26.7372 135.128C-27.2327 134.789 -27.7168 134.429 -28.1884 134.049L-27.5997 133.318C-28.048 132.957 -28.4845 132.577 -28.9079 132.178L-29.5511 132.862C-29.9877 132.451 -30.4109 132.021 -30.8194 131.573L-30.1257 130.941C-30.513 130.516 -30.8866 130.074 -31.2454 129.614L-31.9852 130.192C-32.3533 129.72 -32.7063 129.232 -33.0431 128.726L-32.2619 128.206C-32.422 127.965 -32.5783 127.721 -32.7307 127.472C-32.883 127.224 -33.0301 126.974 -33.1718 126.722L-33.9896 127.183C-34.2877 126.653 -34.5633 126.117 -34.8167 125.575L-33.9665 125.177C-34.2134 124.649 -34.4383 124.116 -34.6415 123.578L-35.5195 123.91C-35.7338 123.342 -35.925 122.77 -36.0933 122.195L-35.1924 121.931C-35.3556 121.373 -35.4964 120.812 -35.615 120.249L-36.5334 120.442C-36.6582 119.85 -36.7594 119.255 -36.8375 118.659L-35.9069 118.537C-35.9823 117.962 -36.0352 117.385 -36.0658 116.81L-37.0031 116.859C-37.0352 116.256 -37.0438 115.653 -37.0292 115.052L-36.0909 115.074C-36.0769 114.495 -36.0404 113.917 -35.9818 113.343L-36.9155 113.247C-36.8543 112.647 -36.7698 112.05 -36.6625 111.457L-35.739 111.625C-35.6357 111.055 -35.5103 110.49 -35.3633 109.931L-36.2709 109.692C-36.1175 109.109 -35.9413 108.532 -35.7427 107.963L-34.8565 108.273C-34.6661 107.727 -34.4541 107.189 -34.2211 106.66L-35.08 106.281C-34.8373 105.73 -34.5726 105.188 -34.2862 104.657L-33.4601 105.103C-33.1863 104.595 -32.8919 104.098 -32.5773 103.612L-33.365 103.102C-33.038 102.597 -32.69 102.105 -32.3214 101.625L-31.5775 102.198C-31.2268 101.742 -30.8565 101.299 -30.467 100.87L-31.1619 100.239C-30.7585 99.7947 -30.3353 99.3648 -29.8927 98.9508L-29.2515 99.6362C-28.8327 99.2443 -28.3956 98.8672 -27.9405 98.5061L-28.5239 97.7709C-28.0552 97.399 -27.5683 97.0433 -27.0635 96.7052L-26.5412 97.485C-26.3019 97.3248 -26.0584 97.1686 -25.8107 97.0167C-25.5629 96.8647 -25.3134 96.7185 -25.062 96.5779L-25.5204 95.7588C-24.9901 95.4621 -24.4524 95.1893 -23.9084 94.9402L-23.5176 95.7935C-22.9894 95.5516 -22.4551 95.3329 -21.9159 95.1372L-22.2362 94.255C-21.6665 94.0482 -21.0915 93.8659 -20.5126 93.7077L-20.2653 94.6131C-19.7063 94.4604 -19.1436 94.3313 -18.5783 94.2253L-18.7512 93.3028C-18.157 93.1914 -17.5602 93.1045 -16.9622 93.0419L-16.8644 93.9753C-16.2888 93.915 -15.7121 93.8781 -15.1355 93.8642L-15.158 92.926C-14.5548 92.9114 -13.9518 92.9211 -13.3506 92.9546L-13.4028 93.8917C-12.8255 93.9239 -12.2497 93.979 -11.6769 94.0566L-11.5508 93.1265C-10.9537 93.2075 -10.3597 93.3119 -9.77029 93.4395L-9.96886 94.3568C-9.40408 94.4791 -8.84364 94.6235 -8.28896 94.7897L-8.0195 93.8907C-7.44296 94.0635 -6.87244 94.2589 -6.30938 94.4765L-6.64778 95.352C-6.10919 95.5602 -5.57769 95.7896 -5.05464 96.0399L-4.64952 95.1932C-4.10716 95.4528 -3.57355 95.7338 -3.0501 96.036L-3.5194 96.8488C-3.01999 97.1372 -2.5302 97.4456 -2.05136 97.7738L-1.52075 96.9997C-1.02531 97.3392 -0.541136 97.6991 -0.0695615 98.0789L-0.65829 98.8099C-0.209941 99.171 0.226558 99.5509 0.649956 99.9493L1.29315 99.2658C1.72974 99.6766 2.15293 100.106 2.56145 100.555L1.86777 101.187C2.25505 101.612 2.62865 102.054 2.98741 102.514L3.72719 101.936Z" stroke="#F94267" stroke-width="1.87711" stroke-dasharray="1.88 1.88"/>
<path d="M50.9706 70.6417C51.4311 71.0235 51.8806 71.4253 52.3178 71.8473L51.666 72.5226C51.8738 72.7232 52.0788 72.9285 52.2808 73.1386C52.4828 73.3487 52.68 73.5616 52.8723 73.7771L53.5726 73.1523C53.9771 73.6057 54.3611 74.0705 54.7245 74.5456L53.9791 75.1159C54.3333 75.5789 54.6672 76.052 54.9808 76.5339L55.7674 76.022C56.0982 76.5303 56.4074 77.0481 56.6949 77.5742L55.8713 78.0243C56.1501 78.5345 56.4077 79.0527 56.6441 79.5776L57.4999 79.1921C57.7485 79.7442 57.9747 80.3035 58.1784 80.8685L57.2955 81.1868C57.4924 81.7329 57.6674 82.2847 57.8205 82.8406L58.7254 82.5914C58.8859 83.1741 59.0233 83.7614 59.1377 84.3516L58.2163 84.5302C58.3267 85.0995 58.4147 85.6716 58.4804 86.2453L59.4128 86.1385C59.4815 86.7383 59.5268 87.3397 59.5486 87.9411L58.6107 87.9752C58.6317 88.5539 58.6302 89.1327 58.6061 89.71L59.5439 89.7491C59.5188 90.3516 59.4701 90.9528 59.3979 91.551L58.4661 91.4386C58.3968 92.0124 58.3049 92.5835 58.1905 93.1503L59.1105 93.336C58.9913 93.9263 58.8487 94.5122 58.6826 95.0923L57.7803 94.8339C57.6215 95.3884 57.4404 95.9372 57.237 96.479L58.1156 96.8089C57.9042 97.3718 57.6697 97.9275 57.4121 98.4744L56.563 98.0745C56.3179 98.5948 56.0511 99.1069 55.7624 99.6093L56.5762 100.077C56.2772 100.597 55.9558 101.108 55.6121 101.607L54.8391 101.074C54.5138 101.547 54.1675 102.009 53.8002 102.459L54.5275 103.052C54.1492 103.516 53.7497 103.967 53.3289 104.406L52.6519 103.756C52.4524 103.964 52.248 104.168 52.0385 104.37C51.829 104.571 51.6165 104.767 51.4011 104.958L52.0241 105.66C51.5696 106.064 51.1027 106.445 50.6246 106.805L50.0603 106.055C49.5961 106.405 49.1209 106.732 48.6362 107.039L49.1378 107.832C48.6255 108.156 48.1029 108.457 47.5713 108.736L47.1359 107.904C46.6226 108.173 46.1005 108.42 45.571 108.644L45.9373 109.508C45.3807 109.744 44.8163 109.957 44.2455 110.146L43.9502 109.255C43.401 109.437 42.8455 109.597 42.2852 109.733L42.508 110.645C41.9219 110.788 41.3308 110.908 40.7363 111.004L40.5867 110.077C40.0159 110.17 39.4417 110.239 38.8655 110.286L38.9414 111.221C38.3408 111.27 37.7382 111.295 37.1352 111.296L37.1329 110.358C36.555 110.359 35.9766 110.338 35.3992 110.295L35.3284 111.23C34.7282 111.185 34.1291 111.116 33.5325 111.024L33.6757 110.097C33.1051 110.008 32.5368 109.898 31.9723 109.765L31.7578 110.679C31.1724 110.542 30.591 110.381 30.015 110.198L30.2995 109.304C29.75 109.129 29.2055 108.932 28.6675 108.714L28.3149 109.584C27.7583 109.358 27.2083 109.111 26.6664 108.84L27.085 108C26.5698 107.744 26.0621 107.466 25.5633 107.167L25.0812 107.973C24.5668 107.665 24.0615 107.336 23.5665 106.985L24.1088 106.219C23.6396 105.887 23.18 105.535 22.7312 105.163L22.1322 105.885C21.6717 105.503 21.2222 105.102 20.785 104.68L21.4368 104.004C21.229 103.804 21.024 103.598 20.822 103.388C20.62 103.178 20.4228 102.965 20.2305 102.75L19.5302 103.375C19.1257 102.921 18.7417 102.456 18.3783 101.981L19.1237 101.411C18.7695 100.948 18.4356 100.475 18.122 99.993L17.3353 100.505C17.0046 99.9966 16.6954 99.4788 16.4079 98.9527L17.2315 98.5026C16.9527 97.9924 16.6951 97.4742 16.4587 96.9493L15.6029 97.3348C15.3543 96.7827 15.1281 96.2234 14.9244 95.6584L15.8073 95.3401C15.6104 94.794 15.4354 94.2422 15.2823 93.6863L14.3774 93.9355C14.2169 93.3528 14.0795 92.7655 13.9651 92.1753L14.8865 91.9967C14.7761 91.4274 14.6881 90.8552 14.6224 90.2816L13.69 90.3883C13.6213 89.7886 13.576 89.1872 13.5542 88.5858L14.4921 88.5517C14.4711 87.973 14.4726 87.3942 14.4966 86.8169L13.5589 86.7778C13.584 86.1753 13.6327 85.5741 13.7049 84.9759L14.6367 85.0883C14.706 84.5144 14.7979 83.9434 14.9123 83.3766L13.9923 83.1909C14.1114 82.6006 14.2541 82.0147 14.4202 81.4346L15.3225 81.693C15.4813 81.1385 15.6624 80.5896 15.8658 80.0479L14.9872 79.718C15.1986 79.1551 15.4331 78.5994 15.6907 78.0525L16.5398 78.4524C16.7849 77.9321 17.0517 77.42 17.3404 76.9176L16.5266 76.45C16.8256 75.9297 17.1469 75.4193 17.4907 74.9201L18.2637 75.4524C18.589 74.98 18.9353 74.5181 19.3026 74.068L18.5753 73.4746C18.9536 73.011 19.3531 72.5594 19.7739 72.1211L20.4509 72.7711C20.6504 72.5634 20.8548 72.3587 21.0643 72.1573C21.2738 71.9559 21.4863 71.7596 21.7017 71.5684L21.0787 70.8664C21.5332 70.4631 22.0001 70.0816 22.4782 69.7218L23.0425 70.4717C23.5067 70.1224 23.9819 69.7945 24.4666 69.4879L23.965 68.6947C24.4773 68.3707 24.9999 68.0696 25.5315 67.7913L25.9669 68.6227C26.4802 68.354 27.0023 68.1073 27.5318 67.8828L27.1655 67.0187C27.7221 66.7827 28.2865 66.5702 28.8573 66.381L29.1525 67.2719C29.7018 67.0899 30.2573 66.9304 30.8176 66.7934L30.5948 65.8817C31.1809 65.7385 31.772 65.6189 32.3665 65.5229L32.5161 66.4495C33.0869 66.3574 33.6611 66.288 34.2373 66.2412L34.1614 65.3057C34.762 65.257 35.3646 65.2319 35.9676 65.2304L35.9699 66.169C36.5478 66.1675 37.1262 66.1887 37.7036 66.2324L37.7744 65.2965C38.3746 65.3419 38.9737 65.4107 39.5703 65.5028L39.4271 66.4304C39.9977 66.5185 40.566 66.6289 41.1305 66.7614L41.345 65.8477C41.9304 65.9852 42.5118 66.1455 43.0878 66.3287L42.8033 67.2231C43.3528 67.3979 43.8973 67.5944 44.4353 67.8125L44.7879 66.9427C45.3445 67.1684 45.8945 67.4163 46.4364 67.6864L46.0178 68.5264C46.533 68.7832 47.0407 69.0609 47.5395 69.3595L48.0216 68.5542C48.536 68.8621 49.0413 69.1913 49.5363 69.5417L48.994 70.3077C49.4632 70.6399 49.9228 70.9921 50.3716 71.3642L50.9706 70.6417Z" stroke="#F94267" stroke-width="1.87711" stroke-dasharray="1.88 1.88"/>
</g>
<g clip-path="url(#clip3_2331_143483)">
<rect x="55.2539" y="84.8445" width="14.1086" height="14.1086" rx="7.05428" transform="rotate(15 55.2539 84.8445)" fill="#FCA8B9"/>
<path d="M57.7516 92.53C57.7617 92.7639 57.763 92.9999 57.7552 93.2375L57.3881 93.2256C57.3844 93.3386 57.3786 93.452 57.3706 93.5657C57.3627 93.6795 57.3526 93.7926 57.3405 93.905L57.7057 93.9444C57.6803 94.1808 57.6461 94.4143 57.6036 94.6445L57.2423 94.5778C57.2009 94.8021 57.1512 95.0232 57.0936 95.2408L57.4487 95.3348C57.3879 95.5642 57.3187 95.7899 57.2415 96.0115L56.8946 95.8905C56.8197 96.1053 56.7369 96.3161 56.6466 96.5225L56.9831 96.6698C56.8881 96.8869 56.7851 97.0994 56.6745 97.3068L56.3503 97.134C56.2435 97.3345 56.1292 97.5302 56.008 97.7205L56.3179 97.9178C56.1908 98.1174 56.0564 98.3114 55.9151 98.4996L55.6214 98.2789C55.4851 98.4604 55.3421 98.6361 55.1928 98.8058L55.4685 99.0485C55.3124 99.2258 55.1497 99.3968 54.9808 99.561L54.7248 99.2977C54.5623 99.4557 54.3939 99.6071 54.2199 99.7517L54.4547 100.034C54.2732 100.185 54.0859 100.329 53.8933 100.465L53.6813 100.165C53.4965 100.295 53.3067 100.418 53.1121 100.534L53.2996 100.85C53.097 100.97 52.8894 101.083 52.6774 101.187L52.5156 100.857C52.313 100.956 52.1061 101.048 51.8954 101.131L52.0302 101.473C51.8113 101.559 51.5885 101.637 51.3621 101.705L51.2553 101.354C51.0399 101.419 50.8212 101.476 50.5996 101.524L50.6774 101.883C50.4479 101.933 50.2154 101.974 49.9802 102.005L49.9319 101.641C49.7094 101.671 49.4844 101.691 49.2573 101.703L49.2759 102.07C49.042 102.081 48.8061 102.084 48.5684 102.077L48.5794 101.71C48.4667 101.706 48.3536 101.701 48.2402 101.693C48.1267 101.685 48.0139 101.675 47.9019 101.662L47.8616 102.027C47.6253 102.001 47.3919 101.966 47.162 101.922L47.2316 101.561C47.0083 101.518 46.7884 101.466 46.5722 101.406L46.4735 101.76C46.245 101.696 46.0204 101.623 45.8001 101.542L45.9272 101.197C45.7144 101.119 45.5058 101.032 45.3016 100.937L45.1469 101.27C44.9323 101.171 44.7225 101.063 44.5178 100.947L44.6989 100.627C44.5019 100.515 44.3098 100.396 44.1229 100.269L43.9167 100.573C43.7213 100.441 43.5314 100.3 43.3475 100.153L43.5773 99.8663C43.4007 99.7248 43.2298 99.5763 43.065 99.4213L42.8134 99.6889C42.6416 99.5273 42.4761 99.3589 42.3174 99.1843L42.5893 98.9372C42.4372 98.7699 42.2915 98.5964 42.1527 98.4173L41.8624 98.6424C41.718 98.4562 41.5807 98.2642 41.4509 98.0669L41.7578 97.865C41.6336 97.6762 41.5164 97.4822 41.4068 97.2836L41.0852 97.4611C40.9714 97.2551 40.8654 97.0442 40.7674 96.8289L41.1017 96.6767C41.0082 96.4713 40.9224 96.2617 40.8445 96.0482L40.4994 96.1742C40.4188 95.9533 40.3464 95.7286 40.2826 95.5004L40.6364 95.4014C40.5757 95.1844 40.5231 94.9642 40.4788 94.741L40.1185 94.8124C40.0729 94.5822 40.0358 94.3491 40.0076 94.1135L40.3723 94.0698C40.3456 93.8464 40.3272 93.6206 40.3174 93.3926L39.9504 93.4083C39.9404 93.1744 39.9391 92.9385 39.9469 92.7008L40.314 92.7128C40.3177 92.5998 40.3235 92.4864 40.3315 92.3726C40.3394 92.2588 40.3495 92.1457 40.3616 92.0333L39.9964 91.9939C40.0218 91.7575 40.056 91.524 40.0985 91.2938L40.4597 91.3605C40.5012 91.1362 40.5509 90.9151 40.6085 90.6976L40.2534 90.6035C40.3141 90.3741 40.3833 90.1484 40.4606 89.9269L40.8074 90.0478C40.8824 89.833 40.9652 89.6222 41.0555 89.4158L40.719 89.2685C40.814 89.0514 40.917 88.8389 41.0276 88.6315L41.3517 88.8043C41.4586 88.6038 41.5729 88.4082 41.6941 88.2178L41.3842 88.0205C41.5113 87.8209 41.6457 87.6269 41.787 87.4387L42.0807 87.6594C42.217 87.4779 42.36 87.3022 42.5093 87.1325L42.2336 86.8899C42.3897 86.7125 42.5524 86.5415 42.7212 86.3773L42.9773 86.6406C43.1398 86.4826 43.3082 86.3312 43.4821 86.1866L43.2474 85.9041C43.4289 85.7533 43.6162 85.6096 43.8088 85.4736L44.0207 85.7736C44.2055 85.6431 44.3954 85.5199 44.59 85.4043L44.4024 85.0885C44.6051 84.9681 44.8126 84.8557 45.0246 84.7517L45.1865 85.0815C45.3891 84.982 45.596 84.8906 45.8067 84.8074L45.6718 84.4657C45.8907 84.3794 46.1136 84.3016 46.34 84.2328L46.4468 84.5843C46.6621 84.5189 46.8809 84.462 47.1025 84.4139L47.0246 84.0549C47.2542 84.0051 47.4867 83.9644 47.7218 83.9332L47.7702 84.2974C47.9927 84.2678 48.2177 84.2471 48.4448 84.2356L48.4262 83.8687C48.66 83.8568 48.896 83.8543 49.1337 83.8614L49.1227 84.2286C49.2354 84.2319 49.3485 84.2376 49.4619 84.2455C49.5754 84.2535 49.6881 84.2636 49.8002 84.276L49.8405 83.9109C50.0768 83.937 50.3101 83.9724 50.5401 84.0167L50.4705 84.3774C50.6938 84.4205 50.9137 84.4723 51.1299 84.5326L51.2285 84.1788C51.457 84.2425 51.6816 84.3152 51.902 84.3964L51.7749 84.7411C51.9876 84.8196 52.1963 84.9064 52.4004 85.0012L52.5551 84.668C52.7697 84.7677 52.9796 84.8758 53.1843 84.9918L53.0032 85.3114C53.2002 85.423 53.3923 85.5425 53.5791 85.6692L53.7853 85.3652C53.9808 85.4977 54.1706 85.638 54.3545 85.7854L54.1248 86.072C54.3014 86.2135 54.4722 86.362 54.637 86.517L54.8887 86.2494C55.0605 86.411 55.2259 86.5794 55.3847 86.754L55.1128 87.0011C55.2649 87.1685 55.4106 87.3419 55.5494 87.521L55.8397 87.2959C55.9841 87.4821 56.1213 87.6741 56.2512 87.8715L55.9443 88.0733C56.0685 88.2621 56.1856 88.4561 56.2953 88.6548L56.6169 88.4772C56.7306 88.6832 56.8367 88.8941 56.9347 89.1094L56.6003 89.2616C56.6938 89.467 56.7797 89.6766 56.8576 89.8901L57.2027 89.7642C57.2832 89.985 57.3556 90.2097 57.4195 90.438L57.0657 90.5369C57.1264 90.7539 57.179 90.9742 57.2233 91.1974L57.5836 91.1259C57.6292 91.3561 57.6663 91.5892 57.6945 91.8249L57.3297 91.8685C57.3565 92.0919 57.3749 92.3178 57.3846 92.5457L57.7516 92.53Z" stroke="#F94267" stroke-width="0.734662" stroke-dasharray="0.73 0.73"/>
<path d="M79.9169 93.3065C79.9767 93.5329 80.0285 93.7631 80.0718 93.9969L79.7106 94.0638C79.7312 94.1749 79.7498 94.287 79.7663 94.3998C79.7829 94.5127 79.7973 94.6253 79.8095 94.7377L80.1747 94.698C80.2004 94.9344 80.217 95.1698 80.2247 95.4037L79.8576 95.4159C79.8651 95.6439 79.8639 95.8705 79.8542 96.0953L80.2212 96.1112C80.2109 96.3483 80.1916 96.5836 80.1636 96.8165L79.7989 96.7726C79.7716 96.9985 79.7359 97.2221 79.6918 97.4431L80.052 97.5149C80.0057 97.7473 79.9505 97.9769 79.8869 98.2032L79.5333 98.1038C79.4718 98.3225 79.4021 98.5381 79.3244 98.75L79.6693 98.8764C79.5879 99.0985 79.4981 99.3168 79.4003 99.5308L79.0662 99.3782C78.9719 99.5846 78.8698 99.7868 78.7603 99.9845L79.0816 100.163C78.9671 100.369 78.8447 100.571 78.7149 100.768L78.4084 100.565C78.2835 100.754 78.1514 100.938 78.0124 101.117L78.3022 101.342C78.1572 101.529 78.005 101.709 77.8459 101.883L77.5747 101.635C77.4221 101.802 77.263 101.963 77.0976 102.118L77.3484 102.386C77.1762 102.547 76.9975 102.701 76.8127 102.848L76.5841 102.561C76.4074 102.701 76.2249 102.835 76.0369 102.961L76.2417 103.266C76.0464 103.398 75.8453 103.521 75.6389 103.637L75.4593 103.316C75.263 103.426 75.0615 103.529 74.8553 103.623L75.0082 103.957C74.7946 104.055 74.5762 104.144 74.3531 104.225L74.228 103.88C74.0169 103.956 73.8016 104.025 73.5822 104.085L73.6789 104.439C73.453 104.501 73.2231 104.554 72.9893 104.597L72.9215 104.236C72.8107 104.257 72.6991 104.276 72.5865 104.292C72.474 104.309 72.3617 104.323 72.2496 104.335L72.2884 104.7C72.0519 104.725 71.8164 104.741 71.5823 104.747L71.5731 104.379C71.3458 104.385 71.1199 104.382 70.8958 104.369L70.8751 104.736C70.6383 104.722 70.4033 104.699 70.1707 104.667L70.2211 104.303C69.9965 104.272 69.7741 104.232 69.5544 104.183L69.4746 104.542C69.2436 104.49 69.0155 104.43 68.7907 104.36L68.8992 104.009C68.6829 103.942 68.4696 103.867 68.26 103.783L68.1237 104.124C67.9044 104.036 67.6889 103.94 67.4777 103.835L67.6408 103.506C67.4381 103.406 67.2394 103.297 67.0452 103.181L66.8566 103.496C66.6542 103.375 66.4566 103.246 66.2642 103.11L66.4769 102.81C66.2925 102.679 66.1131 102.541 65.9391 102.396L65.7037 102.678C65.5229 102.527 65.3477 102.368 65.1786 102.203L65.4352 101.941C65.2734 101.783 65.1175 101.618 64.9679 101.448L64.6917 101.69C64.5366 101.513 64.3878 101.33 64.246 101.14L64.5401 100.92C64.4048 100.74 64.276 100.553 64.1543 100.361L63.8441 100.558C63.7182 100.36 63.5994 100.156 63.4882 99.9464L63.8126 99.774C63.7069 99.575 63.6083 99.3711 63.5173 99.1626L63.1806 99.3095C63.0868 99.0944 63.0007 98.8746 62.9227 98.6504L63.2697 98.5298C63.1958 98.3173 63.1295 98.1006 63.0712 97.88L62.716 97.9739C62.6562 97.7475 62.6044 97.5173 62.5611 97.2835L62.9223 97.2166C62.9017 97.1055 62.8831 96.9934 62.8666 96.8806C62.85 96.7677 62.8356 96.6551 62.8234 96.5427L62.4582 96.5824C62.4325 96.346 62.4159 96.1106 62.4082 95.8767L62.7753 95.8645C62.7678 95.6365 62.769 95.4099 62.7787 95.1851L62.4117 95.1692C62.422 94.9321 62.4413 94.6968 62.4693 94.4639L62.834 94.5078C62.8613 94.2819 62.897 94.0583 62.9411 93.8373L62.5809 93.7655C62.6272 93.5331 62.6824 93.3035 62.746 93.0772L63.0996 93.1766C63.1611 92.9579 63.2308 92.7423 63.3085 92.5304L62.9636 92.404C63.045 92.1819 63.1348 91.9636 63.2326 91.7496L63.5667 91.9022C63.661 91.6958 63.7631 91.4936 63.8726 91.2959L63.5513 91.1178C63.6659 90.9112 63.7882 90.7093 63.918 90.5128L64.2245 90.7152C64.3494 90.5261 64.4815 90.3421 64.6205 90.1637L64.3307 89.938C64.4757 89.7518 64.6279 89.5714 64.787 89.3972L65.0582 89.645C65.2108 89.4779 65.3699 89.3169 65.5353 89.1624L65.2845 88.894C65.4567 88.7331 65.6354 88.5789 65.8202 88.4319L66.0488 88.7194C66.2255 88.5789 66.408 88.4453 66.596 88.319L66.3912 88.0141C66.5865 87.8829 66.7876 87.7592 66.9941 87.6436L67.1736 87.9641C67.3699 87.8541 67.5714 87.7517 67.7776 87.6573L67.6247 87.3233C67.8383 87.2256 68.0567 87.136 68.2798 87.0552L68.4049 87.4006C68.616 87.3241 68.8313 87.2557 69.0507 87.1959L68.954 86.8415C69.1799 86.7798 69.4098 86.7268 69.6436 86.6829L69.7114 87.0439C69.8222 87.0231 69.9338 87.0044 70.0464 86.9879C70.1589 86.9714 70.2712 86.9572 70.3833 86.9453L70.3445 86.58C70.581 86.5549 70.8165 86.5396 71.0506 86.5337L71.0598 86.9009C71.2871 86.8952 71.513 86.8988 71.7372 86.9114L71.7578 86.5447C71.9946 86.558 72.2296 86.5809 72.4622 86.6132L72.4118 86.977C72.6364 87.0082 72.8588 87.0484 73.0785 87.0973L73.1583 86.7387C73.3893 86.7901 73.6174 86.8508 73.8422 86.9203L73.7337 87.2713C73.9501 87.3382 74.1633 87.4137 74.3729 87.4975L74.5092 87.1565C74.7285 87.2441 74.944 87.3405 75.1552 87.4451L74.9921 87.7742C75.1948 87.8747 75.3935 87.9832 75.5877 88.0993L75.7763 87.7841C75.9787 87.9052 76.1763 88.0342 76.3687 88.1709L76.156 88.4704C76.3404 88.6013 76.5198 88.7396 76.6938 88.8848L76.9292 88.6028C77.11 88.7538 77.2852 88.912 77.4543 89.077L77.1977 89.3399C77.3595 89.4977 77.5154 89.6621 77.665 89.8327L77.9412 89.5905C78.0964 89.7674 78.2451 89.9507 78.3869 90.14L78.0928 90.3602C78.2281 90.5409 78.3569 90.7273 78.4786 90.9191L78.7888 90.7222C78.9147 90.9207 79.0335 91.1248 79.1447 91.334L78.8203 91.5064C78.926 91.7054 79.0246 91.9093 79.1156 92.1178L79.4523 91.9709C79.5461 92.186 79.6322 92.4058 79.7102 92.63L79.3632 92.7506C79.4371 92.9631 79.5034 93.1798 79.5617 93.4004L79.9169 93.3065Z" stroke="#F94267" stroke-width="0.734662" stroke-dasharray="0.73 0.73"/>
</g>
<g clip-path="url(#clip4_2331_143483)">
<rect x="94.0195" y="116.095" width="21.6702" height="21.6702" rx="10.8351" transform="rotate(-32.9941 94.0195 116.095)" fill="#FDC4D0"/>
<path d="M105.358 121.145C105.636 121.374 105.906 121.615 106.17 121.868L105.779 122.275C105.904 122.395 106.027 122.518 106.149 122.644C106.271 122.77 106.389 122.898 106.505 123.028L106.925 122.651C107.169 122.923 107.401 123.202 107.62 123.487L107.172 123.831C107.386 124.109 107.587 124.393 107.776 124.682L108.248 124.374C108.448 124.679 108.634 124.99 108.808 125.306L108.313 125.577C108.481 125.884 108.637 126.195 108.779 126.51L109.293 126.277C109.443 126.609 109.58 126.945 109.703 127.284L109.173 127.477C109.292 127.805 109.398 128.136 109.49 128.47L110.034 128.319C110.131 128.669 110.214 129.022 110.284 129.377L109.73 129.485C109.797 129.828 109.851 130.171 109.891 130.516L110.451 130.451C110.493 130.811 110.521 131.173 110.535 131.534L109.971 131.556C109.985 131.904 109.984 132.252 109.971 132.599L110.534 132.621C110.52 132.983 110.491 133.345 110.449 133.705L109.888 133.638C109.847 133.983 109.793 134.327 109.725 134.667L110.278 134.778C110.207 135.133 110.122 135.485 110.023 135.834L109.48 135.68C109.385 136.013 109.277 136.344 109.155 136.669L109.684 136.867C109.558 137.205 109.417 137.54 109.263 137.869L108.752 137.629C108.605 137.942 108.446 138.251 108.273 138.553L108.762 138.833C108.583 139.146 108.391 139.453 108.185 139.754L107.719 139.435C107.524 139.719 107.317 139.997 107.096 140.268L107.534 140.624C107.307 140.903 107.068 141.175 106.815 141.439L106.408 141.049C106.288 141.174 106.165 141.298 106.04 141.419C105.914 141.54 105.786 141.659 105.657 141.774L106.032 142.195C105.76 142.438 105.479 142.668 105.193 142.885L104.852 142.434C104.574 142.645 104.289 142.843 103.997 143.028L104.3 143.504C103.992 143.699 103.679 143.881 103.359 144.049L103.097 143.549C102.788 143.712 102.475 143.86 102.157 143.996L102.378 144.515C102.044 144.658 101.705 144.786 101.362 144.9L101.183 144.365C100.853 144.475 100.519 144.572 100.183 144.655L100.318 145.203C99.9656 145.289 99.6104 145.362 99.2531 145.42L99.1621 144.863C98.8191 144.919 98.474 144.962 98.1277 144.991L98.1744 145.553C97.8134 145.583 97.4512 145.599 97.0887 145.6L97.0862 145.036C96.7388 145.038 96.3911 145.026 96.044 145L96.0025 145.563C95.6417 145.536 95.2814 145.495 94.9227 145.441L95.0077 144.883C94.6645 144.831 94.3228 144.765 93.9833 144.686L93.8554 145.236C93.5034 145.154 93.1537 145.058 92.8072 144.948L92.9772 144.41C92.6466 144.306 92.3191 144.188 91.9954 144.058L91.7845 144.581C91.4496 144.446 91.1187 144.298 90.7926 144.136L91.0433 143.631C90.7333 143.477 90.4278 143.311 90.1275 143.132L89.8387 143.616C89.5291 143.432 89.225 143.235 88.927 143.024L89.2521 142.563C88.9697 142.364 88.693 142.153 88.4227 141.93L88.0635 142.365C87.7862 142.136 87.5156 141.895 87.2523 141.642L87.6433 141.235C87.5181 141.115 87.3946 140.991 87.273 140.865C87.1513 140.739 87.0325 140.612 86.9167 140.482L86.4964 140.859C86.2527 140.587 86.0213 140.308 85.8023 140.022L86.2497 139.679C86.0363 139.401 85.835 139.117 85.6459 138.827L85.1736 139.136C84.9742 138.831 84.7878 138.52 84.6143 138.204L85.1089 137.933C84.9407 137.626 84.7852 137.315 84.6425 137L84.1285 137.232C83.9784 136.901 83.8418 136.565 83.7187 136.225L84.2491 136.033C84.1301 135.705 84.0242 135.374 83.9315 135.04L83.3879 135.19C83.2907 134.84 83.2074 134.487 83.1379 134.133L83.6916 134.024C83.6246 133.682 83.571 133.338 83.5309 132.994L82.9705 133.059C82.9285 132.698 82.9006 132.337 82.8867 131.975L83.4505 131.954C83.4372 131.606 83.4374 131.258 83.4512 130.911L82.8875 130.889C82.9019 130.526 82.9304 130.165 82.9732 129.805L83.5334 129.872C83.5744 129.527 83.629 129.183 83.6971 128.842L83.1438 128.732C83.2148 128.377 83.2998 128.024 83.399 127.676L83.9417 127.83C84.0365 127.496 84.1448 127.166 84.2664 126.84L83.7379 126.643C83.8643 126.304 84.0046 125.97 84.1588 125.641L84.6697 125.88C84.8164 125.567 84.9763 125.259 85.1492 124.957L84.6595 124.677C84.8386 124.364 85.0312 124.056 85.2372 123.756L85.7025 124.075C85.8975 123.791 86.1052 123.513 86.3254 123.242L85.8876 122.886C86.1144 122.607 86.354 122.335 86.6065 122.071L87.0142 122.461C87.1339 122.335 87.2566 122.212 87.3822 122.091C87.5079 121.97 87.6355 121.851 87.7647 121.736L87.3894 121.315C87.6621 121.072 87.9424 120.842 88.2293 120.625L88.5695 121.075C88.8481 120.865 89.1334 120.667 89.4244 120.482L89.1219 120.006C89.4295 119.811 89.7433 119.629 90.0626 119.461L90.3253 119.96C90.6335 119.798 90.9471 119.649 91.2652 119.514L91.0439 118.995C91.3783 118.852 91.7173 118.724 92.0602 118.609L92.2387 119.145C92.5687 119.035 92.9025 118.938 93.2391 118.855L93.1041 118.307C93.4563 118.22 93.8115 118.148 94.1687 118.09L94.2597 118.646C94.6027 118.59 94.9478 118.548 95.2942 118.519L95.2474 117.957C95.6084 117.927 95.9707 117.911 96.3332 117.909L96.3357 118.474C96.683 118.472 97.0307 118.484 97.3779 118.51L97.4194 117.947C97.7802 117.974 98.1404 118.014 98.4992 118.069L98.4142 118.627C98.7573 118.679 99.0991 118.745 99.4386 118.824L99.5665 118.274C99.9185 118.356 100.268 118.452 100.615 118.561L100.445 119.099C100.775 119.204 101.103 119.321 101.426 119.452L101.637 118.929C101.972 119.064 102.303 119.212 102.629 119.374L102.379 119.879C102.689 120.033 102.994 120.199 103.294 120.378L103.583 119.894C103.893 120.078 104.197 120.275 104.495 120.485L104.17 120.946C104.452 121.146 104.729 121.357 104.999 121.58L105.358 121.145Z" stroke="#F94267" stroke-width="1.12841" stroke-dasharray="1.13 1.13"/>
<path d="M129.027 96.6453C129.346 96.8096 129.662 96.9872 129.974 97.1781L129.679 97.6591C129.827 97.7499 129.974 97.8438 130.12 97.9409C130.265 98.038 130.409 98.1373 130.55 98.2389L130.88 97.7813C131.176 97.9949 131.462 98.2179 131.737 98.4496L131.373 98.8811C131.641 99.1069 131.898 99.3412 132.145 99.5834L132.54 99.1808C132.801 99.4363 133.049 99.7001 133.286 99.9716L132.861 100.343C133.091 100.606 133.309 100.877 133.516 101.154L133.969 100.817C134.186 101.109 134.392 101.407 134.585 101.713L134.108 102.014C134.294 102.309 134.468 102.61 134.63 102.917L135.129 102.653C135.299 102.974 135.456 103.301 135.6 103.633L135.082 103.857C135.221 104.177 135.347 104.501 135.46 104.829L135.993 104.646C136.111 104.989 136.216 105.336 136.307 105.686L135.761 105.828C135.848 106.165 135.922 106.505 135.983 106.847L136.539 106.748C136.602 107.105 136.651 107.464 136.687 107.825L136.125 107.88C136.159 108.225 136.179 108.573 136.186 108.92L136.75 108.91C136.756 109.272 136.749 109.634 136.726 109.996L136.163 109.962C136.142 110.308 136.107 110.653 136.058 110.998L136.616 111.077C136.565 111.435 136.5 111.792 136.42 112.146L135.869 112.022C135.793 112.359 135.703 112.694 135.599 113.026L136.137 113.195C136.029 113.539 135.907 113.881 135.77 114.218L135.247 114.006C135.117 114.326 134.974 114.642 134.817 114.954L135.321 115.208C135.159 115.529 134.983 115.846 134.793 116.158L134.311 115.864C134.221 116.012 134.127 116.158 134.031 116.304C133.934 116.449 133.834 116.592 133.733 116.732L134.19 117.063C133.975 117.359 133.751 117.644 133.517 117.917L133.088 117.55C132.861 117.815 132.625 118.069 132.38 118.312L132.777 118.713C132.519 118.969 132.251 119.214 131.975 119.446L131.612 119.015C131.345 119.239 131.071 119.452 130.789 119.652L131.116 120.112C130.82 120.323 130.516 120.521 130.206 120.706L129.917 120.221C129.618 120.399 129.313 120.565 129.002 120.718L129.251 121.224C128.925 121.384 128.594 121.531 128.258 121.665L128.049 121.14C127.726 121.268 127.398 121.384 127.066 121.486L127.232 122.025C126.886 122.132 126.536 122.225 126.182 122.304L126.059 121.753C125.72 121.829 125.377 121.892 125.033 121.941L125.113 122.5C124.755 122.551 124.394 122.588 124.032 122.611L123.995 122.048C123.649 122.071 123.301 122.08 122.953 122.075L122.945 122.639C122.584 122.635 122.222 122.616 121.86 122.583L121.911 122.021C121.566 121.99 121.221 121.945 120.876 121.887L120.782 122.443C120.426 122.383 120.071 122.309 119.718 122.221L119.855 121.673C119.519 121.59 119.185 121.492 118.854 121.382L118.675 121.917C118.333 121.803 117.994 121.676 117.658 121.534L117.877 121.014C117.558 120.88 117.243 120.733 116.931 120.573L116.673 121.075C116.353 120.91 116.037 120.733 115.726 120.542L116.021 120.061C115.873 119.97 115.726 119.876 115.58 119.779C115.434 119.682 115.291 119.583 115.15 119.481L114.82 119.939C114.524 119.725 114.238 119.502 113.963 119.27L114.327 118.839C114.059 118.613 113.801 118.379 113.555 118.137L113.159 118.539C112.899 118.284 112.651 118.02 112.414 117.748L112.839 117.377C112.609 117.114 112.39 116.843 112.183 116.566L111.731 116.903C111.514 116.611 111.308 116.313 111.115 116.007L111.592 115.706C111.406 115.411 111.231 115.11 111.069 114.803L110.571 115.067C110.401 114.746 110.244 114.419 110.1 114.087L110.618 113.863C110.479 113.543 110.353 113.219 110.24 112.89L109.707 113.074C109.589 112.731 109.484 112.384 109.393 112.034L109.939 111.892C109.852 111.555 109.778 111.215 109.717 110.873L109.161 110.972C109.098 110.615 109.048 110.256 109.013 109.895L109.575 109.84C109.541 109.495 109.521 109.147 109.514 108.8L108.95 108.81C108.943 108.448 108.951 108.086 108.973 107.724L109.537 107.758C109.558 107.412 109.593 107.067 109.642 106.722L109.083 106.643C109.134 106.285 109.2 105.928 109.28 105.574L109.83 105.698C109.907 105.361 109.997 105.026 110.101 104.694L109.563 104.525C109.671 104.181 109.793 103.839 109.93 103.502L110.453 103.714C110.583 103.394 110.726 103.078 110.883 102.766L110.379 102.512C110.541 102.191 110.717 101.874 110.907 101.562L111.389 101.856C111.479 101.708 111.572 101.562 111.669 101.416C111.766 101.271 111.865 101.128 111.967 100.988L111.51 100.657C111.725 100.361 111.949 100.076 112.183 99.8031L112.612 100.17C112.839 99.9047 113.075 99.6506 113.32 99.4077L112.922 99.0072C113.181 98.7506 113.449 98.506 113.725 98.2737L114.088 98.7052C114.355 98.4808 114.629 98.2683 114.911 98.0678L114.584 97.6082C114.88 97.3974 115.183 97.1994 115.494 97.0143L115.783 97.4989C116.082 97.3207 116.387 97.155 116.698 97.0019L116.449 96.4957C116.774 96.3356 117.106 96.1887 117.442 96.0552L117.65 96.5796C117.973 96.4515 118.301 96.3362 118.634 96.234L118.468 95.6948C118.814 95.5882 119.164 95.4953 119.518 95.4161L119.641 95.9667C119.98 95.8909 120.322 95.8283 120.667 95.779L120.587 95.2204C120.945 95.1692 121.306 95.1318 121.668 95.1085L121.704 95.6715C122.051 95.6492 122.399 95.6402 122.747 95.6447L122.755 95.0806C123.116 95.0853 123.478 95.104 123.84 95.1368L123.789 95.6987C124.134 95.7299 124.479 95.7746 124.823 95.8328L124.917 95.2765C125.273 95.3368 125.628 95.4109 125.982 95.4991L125.845 96.0465C126.181 96.1304 126.515 96.2275 126.846 96.338L127.025 95.8027C127.367 95.9167 127.706 96.0443 128.042 96.1858L127.823 96.7058C128.142 96.8399 128.457 96.987 128.769 97.1471L129.027 96.6453Z" stroke="#F94267" stroke-width="1.12841" stroke-dasharray="1.13 1.13"/>
</g>
<path d="M181.68 72.8096L192.032 75.2291L191.245 78.7038L181.06 77.1397L181.68 72.8096Z" fill="white"/>
<path d="M203.82 71.4214L211.407 63.9735L213.933 66.4412L207.208 74.2588L203.82 71.4214Z" fill="white"/>
<path d="M179.683 108.873C178.733 121.453 209.619 119.467 207.166 125.753C203.878 134.182 193.605 120.863 202.965 114.452C210.453 109.323 227.333 110.366 234.093 108.107C240.853 105.848 244.2 101.733 234.093 92.2846" stroke="#C4C6D3" stroke-width="1.11319" stroke-linecap="round"/>
<mask id="mask0_2331_143483" style="mask-type:alpha" maskUnits="userSpaceOnUse" x="172" y="11" width="34" height="102">
<path fill-rule="evenodd" clip-rule="evenodd" d="M194.234 11.9076C192.338 11.5415 190.519 12.8312 190.238 14.7418L177.509 101.084C177.387 101.913 176.803 102.585 176.067 102.987C175.75 103.16 175.442 103.354 175.146 103.567C174.209 104.243 173.403 105.103 172.774 106.101C172.746 106.144 172.719 106.188 172.692 106.232C171.72 107.832 172.97 109.667 174.809 110.022L179.854 110.996L184.899 111.97C186.738 112.324 188.581 111.087 188.274 109.24C188.265 109.189 188.256 109.138 188.247 109.087C188.034 107.928 187.607 106.829 186.988 105.853C186.793 105.545 186.58 105.251 186.35 104.973C185.823 104.333 185.532 103.503 185.718 102.695L205.28 17.6144C205.71 15.7439 204.503 13.8898 202.618 13.526L194.234 11.9076Z" fill="#FFCD67"/>
</mask>
<g mask="url(#mask0_2331_143483)">
<rect x="190.057" y="8.1814" width="19.1922" height="65.751" transform="rotate(10.9256 190.057 8.1814)" fill="#FF819A"/>
<rect x="177.189" y="74.8345" width="19.1922" height="3.55411" transform="rotate(10.9256 177.189 74.8345)" fill="#FF819A"/>
<rect x="176.518" y="78.3242" width="19.1922" height="31.2762" transform="rotate(10.9256 176.518 78.3242)" fill="white"/>
</g>
<mask id="mask1_2331_143483" style="mask-type:alpha" maskUnits="userSpaceOnUse" x="157" y="21" width="83" height="77">
<path fill-rule="evenodd" clip-rule="evenodd" d="M158.493 29.0514C157.192 30.4786 157.345 32.7028 158.828 33.9394L225.869 89.818C226.513 90.3547 226.782 91.2035 226.741 92.0407C226.723 92.4016 226.728 92.7652 226.756 93.1296C226.843 94.2812 227.158 95.4178 227.681 96.4745C227.704 96.5207 227.727 96.5668 227.751 96.6127C228.609 98.2768 230.826 98.1664 232.088 96.7827L235.549 92.9853L239.011 89.1879C240.272 87.8042 240.177 85.5859 238.441 84.8852C238.393 84.8658 238.345 84.8469 238.297 84.8284C237.196 84.4052 236.036 84.1971 234.881 84.2161C234.516 84.2221 234.154 84.2507 233.797 84.3015C232.976 84.4183 232.116 84.2337 231.524 83.6539L169.122 22.6013C167.75 21.2591 165.539 21.3223 164.246 22.7407L158.493 29.0514Z" fill="#FFCD67"/>
</mask>
<g mask="url(#mask1_2331_143483)">
<rect x="153.135" y="30.6733" width="19.1922" height="65.751" transform="rotate(-47.6489 153.135 30.6733)" fill="#FA6885"/>
<rect x="203.303" y="76.4045" width="19.1922" height="3.55411" transform="rotate(-47.6489 203.303 76.4045)" fill="#FA6885"/>
<rect x="205.93" y="78.7991" width="19.1922" height="31.2762" transform="rotate(-47.6489 205.93 78.7991)" fill="white"/>
</g>
<path d="M165.135 31.4752L164.308 30.7214L166.969 27.8027L167.796 28.5566L165.135 31.4752ZM167.352 31.4159L166.108 30.282L166.732 29.5975L167.976 30.7314L167.352 31.4159ZM168.921 29.5828L169.748 30.3366L167.088 33.2553L166.261 32.5014L168.921 29.5828Z" fill="white"/>
<path d="M170.601 31.7115C170.455 31.5785 170.379 31.4323 170.361 31.27C170.344 31.1078 170.394 30.969 170.502 30.8508C170.609 30.7327 170.746 30.6731 170.906 30.6724C171.069 30.6748 171.222 30.7376 171.368 30.8707C171.514 31.0037 171.593 31.1464 171.614 31.3052C171.635 31.464 171.588 31.5993 171.477 31.7209C171.366 31.8425 171.223 31.9091 171.063 31.9098C170.9 31.914 170.747 31.8446 170.601 31.7115Z" fill="#E0E0E0"/>
<mask id="mask2_2331_143483" style="mask-type:luminance" maskUnits="userSpaceOnUse" x="170" y="30" width="2" height="2">
<path d="M170.599 31.7115C170.453 31.5785 170.377 31.4323 170.359 31.27C170.342 31.1078 170.392 30.969 170.5 30.8508C170.607 30.7327 170.744 30.6731 170.904 30.6724C171.067 30.6748 171.22 30.7376 171.366 30.8707C171.512 31.0037 171.592 31.1464 171.612 31.3052C171.633 31.464 171.586 31.5993 171.475 31.7209C171.364 31.8425 171.221 31.9091 171.061 31.9098C170.898 31.914 170.745 31.8446 170.599 31.7115Z" fill="white"/>
</mask>
<g mask="url(#mask2_2331_143483)">
<path fill-rule="evenodd" clip-rule="evenodd" d="M170.711 30.6544C170.586 30.5407 170.392 30.5496 170.279 30.6744C170.165 30.7991 170.174 30.9924 170.299 31.1061C170.423 31.2198 170.617 31.2108 170.73 31.0861C170.844 30.9614 170.835 30.7681 170.711 30.6544ZM170.209 30.611C170.358 30.4479 170.611 30.4362 170.774 30.5849C170.937 30.7336 170.949 30.9863 170.8 31.1495C170.651 31.3126 170.399 31.3243 170.235 31.1756C170.072 31.0269 170.061 30.7741 170.209 30.611Z" fill="#F44A4A"/>
<path fill-rule="evenodd" clip-rule="evenodd" d="M171.642 31.5033C171.517 31.3896 171.324 31.3985 171.21 31.5232C171.097 31.648 171.106 31.8413 171.23 31.955C171.355 32.0687 171.548 32.0597 171.662 31.935C171.776 31.8103 171.767 31.617 171.642 31.5033ZM171.141 31.4599C171.29 31.2968 171.542 31.2851 171.705 31.4338C171.869 31.5825 171.88 31.8352 171.732 31.9983C171.583 32.1614 171.33 32.1731 171.167 32.0245C171.004 31.8758 170.992 31.623 171.141 31.4599Z" fill="#F44A4A"/>
</g>
<path d="M167.847 33.9355L169.906 31.677L170.698 32.3992L168.64 34.6576L167.847 33.9355Z" fill="#FFACBD"/>
<path d="M170.037 35.9443L172.102 33.6789L171.205 32.8617L171.801 32.2085L174.414 34.5903L173.818 35.2435L172.925 34.4295L170.86 36.695L170.033 35.9412L170.037 35.9443Z" fill="white"/>
<path d="M173.025 38.6662L173.497 38.1485L177.073 37.6736L176.907 38.0573L175.128 36.4356L175.724 35.7824L178.239 38.0755L177.767 38.5933L174.192 39.0682L174.357 38.6845L176.237 40.398L175.641 41.0512L173.028 38.6694L173.025 38.6662Z" fill="white"/>
<path d="M177.051 42.4075C176.804 42.1826 176.63 41.9344 176.527 41.6563C176.428 41.3813 176.402 41.103 176.452 40.8311C176.503 40.5525 176.634 40.3035 176.843 40.0741C177.052 39.8448 177.292 39.694 177.558 39.6184C177.824 39.5429 178.103 39.5433 178.383 39.6202C178.663 39.6971 178.929 39.8445 179.179 40.0726C179.43 40.3006 179.604 40.5488 179.703 40.8238C179.809 41.0984 179.832 41.3736 179.781 41.6455C179.731 41.9174 179.603 42.1696 179.394 42.399C179.185 42.6283 178.945 42.7791 178.676 42.8582C178.407 42.9372 178.127 42.9368 177.847 42.8599C177.561 42.7833 177.298 42.6324 177.051 42.4075ZM177.624 41.7786C177.715 41.8609 177.817 41.9161 177.925 41.9378C178.032 41.9594 178.148 41.9507 178.263 41.9088C178.377 41.8669 178.49 41.7851 178.594 41.6705C178.699 41.5558 178.767 41.4395 178.795 41.3251C178.823 41.2106 178.824 41.0974 178.789 40.9892C178.758 40.8842 178.693 40.7873 178.603 40.7049C178.513 40.6226 178.414 40.5706 178.306 40.5489C178.199 40.5273 178.086 40.5325 177.971 40.5744C177.857 40.6163 177.744 40.6914 177.642 40.8026C177.541 40.9138 177.47 41.0336 177.439 41.1582C177.408 41.2827 177.41 41.3925 177.442 41.4975C177.473 41.6025 177.534 41.6962 177.624 41.7786Z" fill="white"/>
<path d="M179.592 44.6525L178.765 43.8986L180.947 41.5046L181.774 42.2585L179.592 44.6525ZM181.673 44.7492L180.429 43.6153L181.053 42.9308L182.297 44.0647L181.673 44.7492ZM182.071 43.8588L182.898 44.6127L181.378 46.2805L180.551 45.5266L182.071 43.8588Z" fill="#FFACBD"/>
<path d="M183.072 47.8964C182.805 47.6525 182.62 47.3882 182.513 47.1069C182.407 46.8256 182.377 46.5441 182.431 46.2687C182.482 45.9901 182.613 45.7411 182.816 45.5187C183.019 45.2964 183.258 45.1389 183.524 45.0633C183.793 44.9843 184.062 44.9818 184.345 45.0553C184.622 45.129 184.885 45.2733 185.121 45.4886C185.343 45.6913 185.504 45.9202 185.605 46.1784C185.707 46.4366 185.733 46.7017 185.679 46.9771C185.628 47.249 185.488 47.5151 185.259 47.7653C185.234 47.7931 185.206 47.8243 185.167 47.8594C185.136 47.8941 185.097 47.9226 185.069 47.9538L183.279 46.3227L183.659 45.9057L185.028 47.1536L184.622 46.9994C184.717 46.8951 184.778 46.7924 184.81 46.6812C184.838 46.5667 184.833 46.4604 184.802 46.3554C184.77 46.2504 184.706 46.1535 184.612 46.068C184.518 45.9825 184.416 45.9273 184.308 45.9056C184.201 45.884 184.091 45.8924 183.983 45.934C183.875 45.9756 183.772 46.0469 183.68 46.1477L183.569 46.2693C183.468 46.3805 183.404 46.4999 183.376 46.621C183.348 46.7421 183.357 46.8648 183.406 46.9857C183.455 47.1066 183.534 47.2228 183.655 47.3336C183.767 47.435 183.876 47.5031 183.985 47.5447C184.093 47.5863 184.214 47.6073 184.357 47.6107L184.378 48.4251C184.163 48.445 183.942 48.4153 183.728 48.3353C183.511 48.2522 183.295 48.1124 183.08 47.916L183.072 47.8964Z" fill="white"/>
<path d="M22.7968 44.9091H17.9727V27.8828H22.7968V44.9091ZM29.6884 38.281H22.4319V34.2879H29.6884V38.281ZM29.3641 27.8828H34.1882V44.9091H29.3641V27.8828Z" fill="#454858"/>
<path d="M40.8975 29.7882C40.0462 29.7882 39.3773 29.545 38.8503 29.0788C38.3233 28.6126 38.0801 28.0248 38.0801 27.3357C38.0801 26.6465 38.3436 26.0587 38.8503 25.5925C39.3773 25.1263 40.0462 24.8831 40.8975 24.8831C41.7488 24.8831 42.4177 25.106 42.9447 25.5519C43.4717 25.9979 43.715 26.5654 43.715 27.2748C43.715 27.9843 43.4515 28.6126 42.9447 29.0788C42.438 29.5653 41.7488 29.7882 40.8975 29.7882Z" fill="white"/>
<mask id="mask3_2331_143483" style="mask-type:luminance" maskUnits="userSpaceOnUse" x="38" y="24" width="6" height="6">
<path d="M40.8956 29.7882C40.0443 29.7882 39.3754 29.545 38.8484 29.0788C38.3214 28.6126 38.0781 28.0248 38.0781 27.3357C38.0781 26.6465 38.3416 26.0587 38.8484 25.5925C39.3754 25.1263 40.0443 24.8831 40.8956 24.8831C41.7469 24.8831 42.4158 25.106 42.9428 25.5519C43.4698 25.9979 43.713 26.5654 43.713 27.2748C43.713 27.9843 43.4495 28.6126 42.9428 29.0788C42.436 29.5653 41.7469 29.7882 40.8956 29.7882Z" fill="white"/>
</mask>
<g mask="url(#mask3_2331_143483)">
<path fill-rule="evenodd" clip-rule="evenodd" d="M38.1819 26.099C37.4542 26.099 36.8644 26.6889 36.8644 27.4165C36.8644 28.1441 37.4542 28.734 38.1819 28.734C38.9095 28.734 39.4994 28.1441 39.4994 27.4165C39.4994 26.6889 38.9095 26.099 38.1819 26.099ZM36.459 27.4165C36.459 26.465 37.2304 25.6936 38.1819 25.6936C39.1334 25.6936 39.9048 26.465 39.9048 27.4165C39.9048 28.368 39.1334 29.1394 38.1819 29.1394C37.2304 29.1394 36.459 28.368 36.459 27.4165Z" fill="#F44A4A"/>
<path fill-rule="evenodd" clip-rule="evenodd" d="M43.6155 26.099C42.8878 26.099 42.298 26.6889 42.298 27.4165C42.298 28.1441 42.8878 28.734 43.6155 28.734C44.3431 28.734 44.933 28.1441 44.933 27.4165C44.933 26.6889 44.3431 26.099 43.6155 26.099ZM41.8926 27.4165C41.8926 26.465 42.6639 25.6936 43.6155 25.6936C44.567 25.6936 45.3384 26.465 45.3384 27.4165C45.3384 28.368 44.567 29.1394 43.6155 29.1394C42.6639 29.1394 41.8926 28.368 41.8926 27.4165Z" fill="#F44A4A"/>
</g>
<path d="M38.5859 44.8682V31.6931H43.2074V44.8682H38.5859Z" fill="#F94267"/>
<path d="M51.3955 44.9091V31.6935H46.166V27.8828H61.4086V31.6935H56.1994V44.9091H51.3752H51.3955Z" fill="#454858"/>
<path d="M68.8164 44.9091V41.889L78.8295 29.9908L79.4173 31.6935H69.0394V27.8828H83.7144V30.9029L73.7013 42.8011L73.1135 41.0985H84.0793V44.9091H68.8367H68.8164Z" fill="#454858"/>
<path d="M92.5111 45.1323C91.072 45.1323 89.795 44.8485 88.6599 44.2607C87.5451 43.6729 86.6533 42.8621 86.0249 41.8486C85.3763 40.8149 85.0723 39.6393 85.0723 38.3015C85.0723 36.9637 85.3966 35.7881 86.0249 34.7746C86.6533 33.7611 87.5451 32.9504 88.6599 32.3828C89.7748 31.8153 91.0517 31.5112 92.5111 31.5112C93.9705 31.5112 95.2475 31.795 96.3623 32.3828C97.4974 32.9504 98.369 33.7611 98.9973 34.7746C99.6257 35.7881 99.95 36.9637 99.95 38.3015C99.95 39.6393 99.6257 40.8149 98.9973 41.8486C98.369 42.8824 97.4771 43.6931 96.3623 44.2607C95.2272 44.8485 93.9503 45.1323 92.5111 45.1323ZM92.5111 41.4635C93.0381 41.4635 93.5246 41.3419 93.93 41.0987C94.3354 40.8554 94.68 40.4906 94.9232 40.0244C95.1664 39.5582 95.288 38.9704 95.288 38.3015C95.288 37.6326 95.1664 37.065 94.9232 36.6191C94.68 36.1732 94.3556 35.8083 93.93 35.5651C93.5246 35.3219 93.0381 35.2003 92.5111 35.2003C91.9841 35.2003 91.5179 35.3219 91.1125 35.5651C90.7072 35.8083 90.3626 36.1529 90.1193 36.6191C89.8761 37.0853 89.7342 37.6529 89.7342 38.3015C89.7342 38.9501 89.8558 39.5379 90.1193 40.0244C90.3828 40.5108 90.7072 40.8554 91.1125 41.0987C91.5179 41.3419 91.9841 41.4635 92.5111 41.4635Z" fill="#454858"/>
<path d="M107.125 44.9087H102.301V30.9431H107.125V44.9087ZM114.037 39.1725H106.78V35.1794H114.037V39.1725ZM112.719 35.1794H117.543V44.9087H112.719V35.1794Z" fill="#F94267"/>
<path d="M127.639 45.132C126.078 45.132 124.72 44.828 123.564 44.2402C122.409 43.6523 121.497 42.8416 120.869 41.8078C120.22 40.7741 119.916 39.5985 119.916 38.3012C119.916 37.004 120.22 35.8081 120.848 34.7946C121.477 33.7609 122.328 32.9704 123.443 32.3826C124.537 31.815 125.794 31.511 127.172 31.511C128.47 31.511 129.645 31.7745 130.72 32.3015C131.794 32.8285 132.645 33.5987 133.274 34.6325C133.902 35.6459 134.226 36.9026 134.226 38.362C134.226 38.5242 134.226 38.7066 134.206 38.9296C134.206 39.1323 134.165 39.335 134.165 39.5174H123.727V37.0851H131.713L129.97 37.7742C129.97 37.1661 129.868 36.6594 129.645 36.2135C129.402 35.7676 129.078 35.4432 128.672 35.2C128.267 34.9568 127.781 34.8352 127.233 34.8352C126.686 34.8352 126.2 34.9568 125.794 35.2C125.389 35.4432 125.064 35.7878 124.841 36.2338C124.619 36.6797 124.497 37.2067 124.497 37.7945V38.5039C124.497 39.1525 124.639 39.7201 124.902 40.1863C125.166 40.6525 125.551 41.0173 126.058 41.2606C126.564 41.5038 127.152 41.6457 127.862 41.6457C128.51 41.6457 129.058 41.5443 129.524 41.3619C129.99 41.1795 130.436 40.8957 130.902 40.4903L133.334 43.024C132.706 43.7132 131.915 44.2604 131.003 44.6253C130.071 44.9901 128.976 45.1726 127.72 45.1726L127.639 45.132Z" fill="#454858"/>
<path d="M15.4062 63.6597C15.4062 58.4406 19.6372 54.2097 24.8563 54.2097H150.596C155.815 54.2097 160.046 58.4406 160.046 63.6597V63.6597C160.046 68.8788 155.815 73.1097 150.596 73.1097H24.8562C19.6371 73.1097 15.4062 68.8788 15.4062 63.6597V63.6597Z" fill="white"/>
<path d="M27.9894 62.9727V63.5142H27.0242V66.7429H26.3646V60.5286H27.0242V62.9727H27.9894ZM23.0665 61.1327V64.6321C23.9345 64.6321 24.8406 64.5592 25.83 64.3544L25.9064 64.9099C24.844 65.1251 23.8581 65.1807 22.9277 65.1807H22.4139V61.1327H23.0665ZM33.676 60.5286V66.7499H33.0441V60.5286H33.676ZM32.4123 60.6466V66.4443H31.7805V63.4448H31.0792C31.0236 64.6599 30.5029 65.4167 29.7322 65.4098C28.9198 65.4167 28.3921 64.5627 28.3921 63.2157C28.3921 61.8687 28.9198 61.0216 29.7322 61.0285C30.489 61.0216 31.0028 61.7402 31.0792 62.9102H31.7805V60.6466H32.4123ZM29.7322 61.6465C29.2808 61.6465 29.0031 62.2228 29.0031 63.2157C29.0031 64.2086 29.2808 64.7849 29.7322 64.7849C30.1904 64.7849 30.4751 64.2086 30.4751 63.2157C30.4751 62.2228 30.1904 61.6465 29.7322 61.6465ZM39.8139 60.5286V66.7499H39.189V60.5286H39.8139ZM38.5016 60.6883V66.4443H37.8767V63.5559H36.6616C36.2902 64.278 35.7 64.9099 34.8216 65.4237L34.4467 64.9515C35.7659 64.1669 36.4013 63.1219 36.5158 61.8409H34.7383V61.2993H37.1685C37.165 61.9069 37.0817 62.4866 36.8908 63.0282H37.8767V60.6883H38.5016ZM47.1947 60.5286V63.0074H48.1598V63.5559H47.1947V66.7429H46.5351V60.5286H47.1947ZM45.57 61.1813C45.563 62.9796 44.7715 64.5835 42.7232 65.5973L42.3552 65.0834C43.914 64.3058 44.7611 63.181 44.8965 61.7298H42.6676V61.1813H45.57ZM50.6664 61.6743C50.6664 62.4658 51.2149 63.1879 52.1592 63.4865L51.8468 64.0003C51.1385 63.7746 50.6213 63.3059 50.347 62.7158C50.0762 63.3962 49.5311 63.9343 48.7847 64.1947L48.4445 63.667C49.4166 63.3476 49.9998 62.5422 50.0068 61.6812V61.5076H48.6389V60.973H52.0065V61.5076H50.6664V61.6743ZM53.3812 60.5286V62.07H54.2839V62.6116H53.3812V64.2641H52.7216V60.5286H53.3812ZM51.3746 64.4169C52.6591 64.4169 53.4368 64.8404 53.4368 65.5695C53.4368 66.3055 52.6591 66.7429 51.3746 66.736C50.0762 66.7429 49.2847 66.3055 49.2847 65.5695C49.2847 64.8404 50.0762 64.4169 51.3746 64.4169ZM51.3746 64.9376C50.472 64.9376 49.9373 65.1668 49.9443 65.5695C49.9373 65.9861 50.472 66.2152 51.3746 66.2152C52.2703 66.2152 52.7911 65.9861 52.7911 65.5695C52.7911 65.1668 52.2703 64.9376 51.3746 64.9376ZM56.6585 66.1597V61.1327H59.7761V61.7923H57.4223V63.3129H59.5539V63.9656H57.4223V66.1597H56.6585ZM60.5676 66.1597V62.3894H61.3106V66.1597H60.5676ZM60.9426 61.8062C60.6857 61.8062 60.4704 61.6118 60.4704 61.3688C60.4704 61.1257 60.6857 60.9313 60.9426 60.9313C61.1925 60.9313 61.4078 61.1257 61.4078 61.3688C61.4078 61.6118 61.1925 61.8062 60.9426 61.8062ZM63.9768 62.3894V62.9796H63.2061V65.0487C63.2061 65.4723 63.4213 65.5487 63.6574 65.5556C63.7616 65.5556 63.9282 65.5417 64.0324 65.5348V66.1805C63.9282 66.1944 63.7685 66.2083 63.5671 66.2083C62.9839 66.2083 62.4632 65.8889 62.4701 65.2015V62.9796H61.9146V62.3894H62.4701V61.4868H63.2061V62.3894H63.9768ZM69.3649 60.5355V62.5352H70.2675V63.0838H69.3649V65.1876H68.7052V60.5355H69.3649ZM68.1914 61.2577V61.7923H64.4837V61.2577H66.0112V60.5286H66.6708V61.2577H68.1914ZM66.3375 62.0909C67.2332 62.0909 67.8443 62.5561 67.8443 63.2643C67.8443 63.9725 67.2332 64.4308 66.3375 64.4308C65.4349 64.4308 64.8239 63.9725 64.8239 63.2643C64.8239 62.5561 65.4349 62.0909 66.3375 62.0909ZM66.3375 62.5977C65.8099 62.5977 65.4557 62.8546 65.4627 63.2643C65.4557 63.667 65.8099 63.917 66.3375 63.917C66.8652 63.917 67.2194 63.667 67.2263 63.2643C67.2194 62.8546 66.8652 62.5977 66.3375 62.5977ZM69.6287 66.0833V66.6179H65.421V64.8196H66.0806V66.0833H69.6287ZM72.5102 66.1597V65.6528L75.1487 61.7923H72.4824V61.1327H76.086V61.6395L73.4475 65.5H76.1069V66.1597H72.5102ZM78.5093 66.236C77.44 66.236 76.7456 65.4584 76.7456 64.2919C76.7456 63.1185 77.44 62.3408 78.5093 62.3408C79.5716 62.3408 80.2659 63.1185 80.2659 64.2919C80.2659 65.4584 79.5716 66.236 78.5093 66.236ZM78.5093 65.6181C79.1897 65.6181 79.516 65.014 79.516 64.2919C79.516 63.5698 79.1897 62.9518 78.5093 62.9518C77.8149 62.9518 77.4886 63.5698 77.4886 64.2919C77.4886 65.014 77.8149 65.6181 78.5093 65.6181ZM81.7379 63.9239V66.1597H80.995V62.3894H81.7101V63.0074H81.7518C81.9323 62.6047 82.3003 62.3408 82.8627 62.3408C83.6404 62.3408 84.1473 62.8269 84.1473 63.7642V66.1597H83.4113V63.8545C83.4113 63.3059 83.1127 62.9796 82.6128 62.9796C82.1059 62.9796 81.7379 63.3198 81.7379 63.9239ZM86.6746 66.236C85.5637 66.236 84.8833 65.4723 84.8833 64.2988C84.8833 63.1393 85.5776 62.3408 86.626 62.3408C87.487 62.3408 88.2994 62.8755 88.2994 64.2364V64.5002H85.6193C85.6401 65.2154 86.0602 65.625 86.6816 65.625C87.1051 65.625 87.3759 65.4445 87.5009 65.2154H88.2508C88.0841 65.8264 87.5009 66.236 86.6746 66.236ZM85.6262 63.9447H87.5703C87.5703 63.3684 87.2023 62.9518 86.633 62.9518C86.0393 62.9518 85.654 63.4101 85.6262 63.9447ZM94.1665 60.5286V66.7499H93.5347V60.5286H94.1665ZM92.9028 60.6466V66.4443H92.271V63.4448H91.5697C91.5142 64.6599 90.9934 65.4167 90.2227 65.4098C89.4103 65.4167 88.8826 64.5627 88.8826 63.2157C88.8826 61.8687 89.4103 61.0216 90.2227 61.0285C90.9795 61.0216 91.4933 61.7402 91.5697 62.9102H92.271V60.6466H92.9028ZM90.2227 61.6465C89.7714 61.6465 89.4936 62.2228 89.4936 63.2157C89.4936 64.2086 89.7714 64.7849 90.2227 64.7849C90.681 64.7849 90.9656 64.2086 90.9656 63.2157C90.9656 62.2228 90.681 61.6465 90.2227 61.6465ZM97.2008 62.1117C97.2008 63.2504 97.8396 64.3822 98.7908 64.8127L98.3881 65.3404C97.6799 64.9862 97.1487 64.2815 96.8744 63.4309C96.6002 64.3266 96.0551 65.0834 95.34 65.4584L94.9234 64.9238C95.8885 64.4655 96.5342 63.2643 96.5342 62.1117V61.0494H97.2008V62.1117ZM100.145 60.5286V66.7637H99.4921V63.1324H98.1034V62.5977H99.4921V60.5286H100.145ZM104.505 60.9938C105.436 60.9938 106.095 61.8409 106.102 63.174C106.095 64.5141 105.436 65.3612 104.505 65.3612C103.575 65.3612 102.908 64.5141 102.915 63.174C102.908 61.8409 103.575 60.9938 104.505 60.9938ZM104.505 61.584C103.936 61.584 103.547 62.195 103.547 63.174C103.547 64.16 103.936 64.771 104.505 64.771C105.081 64.771 105.47 64.16 105.47 63.174C105.47 62.195 105.081 61.584 104.505 61.584ZM108.65 62.0492V62.6116H107.685V63.9031H108.65V64.4447H107.685V66.7499H107.026V60.5286H107.685V62.0492H108.65ZM113.934 60.9174V61.466C113.934 62.0561 113.934 62.6949 113.761 63.5837H114.656V64.1253H112.136V66.7568H111.469V64.1253H108.984V63.5837H113.094C113.282 62.6984 113.282 62.0457 113.282 61.466V61.459H109.678V60.9174H113.934ZM120.815 63.3823V63.8892H115.122V63.3823H120.815ZM120.114 64.3266V65.6945H116.462V66.2083H120.308V66.6735H115.802V65.257H119.461V64.7988H115.795V64.3266H120.114ZM120.1 60.6883V62.0353H116.503V62.5075H120.204V62.9727H115.851V61.5979H119.44V61.1535H115.837V60.6883H120.1ZM128.682 63.1393V63.667H123.009V63.1393H128.682ZM127.967 64.1669V65.632H124.342V66.1805H128.14V66.6874H123.697V65.1529H127.314V64.6599H123.69V64.1669H127.967ZM128.175 60.7577V61.2854H126.238C126.356 61.834 127.248 62.2783 128.397 62.3617L128.182 62.8755C127.109 62.7748 126.217 62.3894 125.842 61.7992C125.464 62.3894 124.575 62.7748 123.509 62.8755L123.301 62.3617C124.436 62.2783 125.328 61.827 125.446 61.2854H123.53V60.7577H128.175ZM132.32 61.1952C132.32 61.5389 132.289 61.8756 132.23 62.202H133.681V60.5217H134.334V66.7429H133.681V64.4099H132.008V63.8684H133.681V62.7296H132.105C131.751 63.8857 130.946 64.8856 129.48 65.6042L129.133 65.0765C130.737 64.2884 131.532 63.1601 131.661 61.7229H129.418V61.1952H132.32ZM140.993 65.4306V65.9791H135.299V65.4306H137.806V64.153H135.952V60.9521H136.611V62.0214H139.666V60.9521H140.319V64.153H138.458V65.4306H140.993ZM136.611 63.6184H139.666V62.5561H136.611V63.6184ZM143.339 62.2297C143.339 63.2226 143.756 64.285 144.589 64.7918L144.221 65.2987C143.638 64.9481 143.242 64.3266 143.034 63.6045C142.801 64.3961 142.374 65.0696 141.77 65.4376L141.361 64.9446C142.242 64.4169 142.701 63.3198 142.701 62.2575V61.098H143.339V62.2297ZM146.797 60.5286V66.7499H146.165V60.5286H146.797ZM145.506 60.6466V66.4443H144.881V63.2643H143.916V62.7158H144.881V60.6466H145.506ZM153.282 65.4237V65.9722H147.589V65.4237H148.95V63.7989C148.439 63.5177 148.13 63.0699 148.13 62.5144C148.13 61.5354 149.089 60.8897 150.422 60.8897C151.762 60.8897 152.72 61.5354 152.72 62.5144C152.72 63.0629 152.421 63.5038 151.921 63.785V65.4237H153.282ZM150.422 61.4174C149.443 61.4174 148.769 61.8409 148.769 62.5144C148.769 63.181 149.443 63.6184 150.422 63.6184C151.394 63.6184 152.081 63.181 152.081 62.5144C152.081 61.8409 151.394 61.4174 150.422 61.4174ZM149.602 65.4237H151.255V64.035C151.001 64.101 150.72 64.1322 150.422 64.1322C150.13 64.1322 149.852 64.101 149.602 64.0419V65.4237Z" fill="#F94267"/>
<path d="M163.271 57.7339C163.883 57.5471 164.532 58.3964 164.136 58.8994L158.64 65.8719C158.371 66.2133 157.839 66.1584 157.645 65.7694L154.036 58.5269C153.809 58.0732 154.222 57.5529 154.718 57.6581C156.111 57.9538 158.377 58.364 160.025 58.3127C161.175 58.2769 162.311 58.0269 163.271 57.7339Z" fill="white"/>
</g>
<defs>
<clipPath id="clip0_2331_143483">
<path d="M0 7.99999C0 3.58172 3.58172 0 8 0H229C233.418 0 237 3.58172 237 8V124.425H0V7.99999Z" fill="white"/>
</clipPath>
<clipPath id="clip1_2331_143483">
<rect x="145.193" y="78.6936" width="19.9213" height="19.9213" rx="9.96067" transform="rotate(44.6126 145.193 78.6936)" fill="white"/>
</clipPath>
<clipPath id="clip2_2331_143483">
<rect x="-12.875" y="89.6606" width="36.0484" height="36.0484" rx="18.0242" transform="rotate(-20.5265 -12.875 89.6606)" fill="white"/>
</clipPath>
<clipPath id="clip3_2331_143483">
<rect x="55.2539" y="84.8445" width="14.1086" height="14.1086" rx="7.05428" transform="rotate(15 55.2539 84.8445)" fill="white"/>
</clipPath>
<clipPath id="clip4_2331_143483">
<rect x="94.0195" y="116.095" width="21.6702" height="21.6702" rx="10.8351" transform="rotate(-32.9941 94.0195 116.095)" fill="white"/>
</clipPath>
</defs>
</svg>
