<svg width="370" height="48" viewBox="0 0 370 48" fill="none" xmlns="http://www.w3.org/2000/svg">
<rect width="370" height="48" rx="8" fill="#FEE500"/>
<path d="M127.047 18.6875H129.078V23.8906H129.234L133.656 18.6875H136.141L131.766 23.7656L136.188 30H133.734L130.344 25.1406L129.078 26.625V30H127.047V18.6875ZM136.953 27.6094C136.953 26.7396 137.247 26.1094 137.836 25.7188C138.43 25.3281 139.188 25.1042 140.109 25.0469C140.583 25.0104 141.31 24.9714 142.289 24.9297L142.281 24.25C142.281 23.8281 142.148 23.5026 141.883 23.2734C141.622 23.0391 141.245 22.9219 140.75 22.9219C140.318 22.9219 139.964 23.013 139.688 23.1953C139.411 23.3776 139.234 23.625 139.156 23.9375H137.234C137.281 23.4531 137.453 23.0208 137.75 22.6406C138.047 22.2552 138.456 21.9531 138.977 21.7344C139.497 21.5156 140.104 21.4062 140.797 21.4062C141.391 21.4062 141.948 21.5 142.469 21.6875C142.995 21.8698 143.424 22.1797 143.758 22.6172C144.096 23.0495 144.266 23.6198 144.266 24.3281V30H142.359V28.8281H142.297C142.089 29.224 141.776 29.5469 141.359 29.7969C140.943 30.0469 140.422 30.1719 139.797 30.1719C139.25 30.1719 138.76 30.0729 138.328 29.875C137.901 29.6771 137.565 29.388 137.32 29.0078C137.076 28.6224 136.953 28.1562 136.953 27.6094ZM138.875 27.5938C138.875 27.9479 139.005 28.2214 139.266 28.4141C139.531 28.6068 139.88 28.7031 140.312 28.7031C140.703 28.7031 141.049 28.625 141.352 28.4688C141.654 28.3125 141.885 28.1016 142.047 27.8359C142.214 27.5651 142.297 27.2708 142.297 26.9531L142.289 26.2578C142.029 26.2682 141.719 26.2865 141.359 26.3125C141.005 26.3333 140.693 26.3542 140.422 26.375C139.938 26.4167 139.557 26.5391 139.281 26.7422C139.01 26.9453 138.875 27.2292 138.875 27.5938ZM146.141 18.6875H148.141V24.9219H148.281L151.328 21.5156H153.656L150.367 25.1719L153.859 30H151.484L148.875 26.3594L148.141 27.1406V30H146.141V18.6875ZM154.453 27.6094C154.453 26.7396 154.747 26.1094 155.336 25.7188C155.93 25.3281 156.688 25.1042 157.609 25.0469C158.083 25.0104 158.81 24.9714 159.789 24.9297L159.781 24.25C159.781 23.8281 159.648 23.5026 159.383 23.2734C159.122 23.0391 158.745 22.9219 158.25 22.9219C157.818 22.9219 157.464 23.013 157.188 23.1953C156.911 23.3776 156.734 23.625 156.656 23.9375H154.734C154.781 23.4531 154.953 23.0208 155.25 22.6406C155.547 22.2552 155.956 21.9531 156.477 21.7344C156.997 21.5156 157.604 21.4062 158.297 21.4062C158.891 21.4062 159.448 21.5 159.969 21.6875C160.495 21.8698 160.924 22.1797 161.258 22.6172C161.596 23.0495 161.766 23.6198 161.766 24.3281V30H159.859V28.8281H159.797C159.589 29.224 159.276 29.5469 158.859 29.7969C158.443 30.0469 157.922 30.1719 157.297 30.1719C156.75 30.1719 156.26 30.0729 155.828 29.875C155.401 29.6771 155.065 29.388 154.82 29.0078C154.576 28.6224 154.453 28.1562 154.453 27.6094ZM156.375 27.5938C156.375 27.9479 156.505 28.2214 156.766 28.4141C157.031 28.6068 157.38 28.7031 157.812 28.7031C158.203 28.7031 158.549 28.625 158.852 28.4688C159.154 28.3125 159.385 28.1016 159.547 27.8359C159.714 27.5651 159.797 27.2708 159.797 26.9531L159.789 26.2578C159.529 26.2682 159.219 26.2865 158.859 26.3125C158.505 26.3333 158.193 26.3542 157.922 26.375C157.438 26.4167 157.057 26.5391 156.781 26.7422C156.51 26.9453 156.375 27.2292 156.375 27.5938ZM167.344 30.1719C166.526 30.1719 165.81 29.9896 165.195 29.625C164.586 29.2604 164.115 28.7474 163.781 28.0859C163.448 27.4245 163.281 26.6615 163.281 25.7969C163.281 24.9219 163.448 24.1536 163.781 23.4922C164.115 22.8307 164.586 22.3177 165.195 21.9531C165.81 21.5885 166.526 21.4062 167.344 21.4062C168.161 21.4062 168.878 21.5885 169.492 21.9531C170.107 22.3177 170.578 22.8307 170.906 23.4922C171.24 24.1536 171.406 24.9219 171.406 25.7969C171.406 26.6615 171.24 27.4245 170.906 28.0859C170.578 28.7474 170.107 29.2604 169.492 29.625C168.878 29.9896 168.161 30.1719 167.344 30.1719ZM165.297 25.7812C165.297 26.3125 165.372 26.7891 165.523 27.2109C165.68 27.6328 165.911 27.9661 166.219 28.2109C166.531 28.4557 166.911 28.5781 167.359 28.5781C167.797 28.5781 168.169 28.4557 168.477 28.2109C168.784 27.9661 169.013 27.6328 169.164 27.2109C169.32 26.7891 169.396 26.3125 169.391 25.7812C169.396 25.25 169.32 24.7734 169.164 24.3516C169.013 23.9297 168.784 23.5964 168.477 23.3516C168.169 23.1068 167.797 22.9844 167.359 22.9844C166.911 22.9844 166.531 23.1068 166.219 23.3516C165.911 23.5964 165.68 23.9297 165.523 24.3516C165.372 24.7734 165.297 25.25 165.297 25.7812ZM185.375 29.75H172.469V28.3125H178.031V26.0156H174V21.3906H182.125V19.6406H173.969V18.2344H183.844V22.7656H175.734V24.5938H184.172V26.0156H179.75V28.3125H185.375V29.75ZM195.438 20.6562C195.432 21.526 195.576 22.3724 195.867 23.1953C196.159 24.0182 196.581 24.75 197.133 25.3906C197.685 26.0312 198.333 26.5104 199.078 26.8281L198.047 28.2188C197.25 27.849 196.555 27.3125 195.961 26.6094C195.372 25.901 194.911 25.0755 194.578 24.1328C194.245 25.1484 193.773 26.0391 193.164 26.8047C192.56 27.5703 191.839 28.151 191 28.5469L189.938 27.0938C190.703 26.7656 191.367 26.2708 191.93 25.6094C192.492 24.9427 192.922 24.1797 193.219 23.3203C193.516 22.4609 193.667 21.5729 193.672 20.6562V18.4062H195.438V20.6562ZM200.094 17.2656H201.844V31.4062H200.094V17.2656ZM208.984 19.7188C208.984 20.3125 209.109 20.8828 209.359 21.4297C209.615 21.9766 209.992 22.4661 210.492 22.8984C210.997 23.3307 211.609 23.6667 212.328 23.9062L211.453 25.25C210.677 24.9896 210.008 24.6094 209.445 24.1094C208.888 23.6094 208.451 23.0208 208.133 22.3438C207.815 23.0833 207.362 23.7266 206.773 24.2734C206.19 24.8151 205.495 25.224 204.688 25.5L203.766 24.1562C204.5 23.9115 205.128 23.5599 205.648 23.1016C206.174 22.6432 206.57 22.1224 206.836 21.5391C207.102 20.9505 207.234 20.3438 207.234 19.7188V19.5469H204.25V18.1562H211.922V19.5469H208.984V19.7188ZM205.656 26.4375H215.062V31.3906H213.328V27.8281H205.656V26.4375ZM213.328 17.2656H215.062V20.7969H217.031V22.25H215.062V25.7812H213.328V17.2656ZM228.812 22.8906H230.984V24.3281H228.812V31.3906H227.094V17.2656H228.812V22.8906ZM217.672 19.4375H221.016V17.4688H222.75V19.4375H226V20.8281H217.672V19.4375ZM218.328 25.0781C218.323 24.4375 218.474 23.8646 218.781 23.3594C219.089 22.849 219.513 22.4531 220.055 22.1719C220.596 21.8906 221.208 21.75 221.891 21.75C222.562 21.75 223.167 21.8906 223.703 22.1719C224.24 22.4531 224.661 22.849 224.969 23.3594C225.281 23.8646 225.438 24.4375 225.438 25.0781C225.438 25.7188 225.281 26.2917 224.969 26.7969C224.661 27.2969 224.24 27.6875 223.703 27.9688C223.167 28.25 222.562 28.3906 221.891 28.3906C221.208 28.3906 220.596 28.25 220.055 27.9688C219.513 27.6875 219.089 27.2969 218.781 26.7969C218.474 26.2917 218.323 25.7188 218.328 25.0781ZM219.984 25.0781C219.984 25.4531 220.065 25.7839 220.227 26.0703C220.388 26.3516 220.612 26.5703 220.898 26.7266C221.19 26.8776 221.521 26.9531 221.891 26.9531C222.25 26.9531 222.573 26.8776 222.859 26.7266C223.146 26.5755 223.37 26.3568 223.531 26.0703C223.693 25.7839 223.776 25.4531 223.781 25.0781C223.776 24.7031 223.69 24.3724 223.523 24.0859C223.362 23.7943 223.138 23.5703 222.852 23.4141C222.57 23.2526 222.25 23.1719 221.891 23.1719C221.521 23.1719 221.19 23.2526 220.898 23.4141C220.612 23.5703 220.388 23.7943 220.227 24.0859C220.065 24.3724 219.984 24.7031 219.984 25.0781ZM243.375 31.3906H241.625V17.2656H243.375V31.3906ZM231.672 27.5C233.495 26.6354 234.862 25.6016 235.773 24.3984C236.69 23.1953 237.229 21.776 237.391 20.1406H232.391V18.7656H239.156C239.156 21.0104 238.648 22.9792 237.633 24.6719C236.617 26.3646 234.932 27.7708 232.578 28.8906L231.672 27.5Z" fill="#030303"/>
<g clip-path="url(#clip0_1307_110127)">
<path fill-rule="evenodd" clip-rule="evenodd" d="M28 15.6C23.0292 15.6 19 18.713 19 22.5523C19 24.94 20.5584 27.045 22.9315 28.297L21.933 31.9445C21.8448 32.2668 22.2134 32.5237 22.4965 32.3369L26.8733 29.4482C27.2427 29.4839 27.6181 29.5047 28 29.5047C32.9705 29.5047 36.9999 26.3918 36.9999 22.5523C36.9999 18.713 32.9705 15.6 28 15.6Z" fill="#030303"/>
</g>
<defs>
<clipPath id="clip0_1307_110127">
<rect width="17.9999" height="18" fill="white" transform="translate(19 15)"/>
</clipPath>
</defs>
</svg>
