<svg width="370" height="48" viewBox="0 0 370 48" fill="none" xmlns="http://www.w3.org/2000/svg">
<rect x="0.5" y="0.5" width="369" height="47" rx="7.5" fill="white"/>
<rect x="0.5" y="0.5" width="369" height="47" rx="7.5" stroke="#D7D8E2"/>
<path d="M130.766 22.2969C130.578 21.6875 130.255 21.2135 129.797 20.875C129.339 20.5312 128.771 20.3594 128.094 20.3594C127.484 20.3594 126.94 20.5156 126.461 20.8281C125.987 21.1354 125.617 21.5885 125.352 22.1875C125.086 22.7865 124.953 23.5 124.953 24.3281C124.953 25.1667 125.086 25.888 125.352 26.4922C125.617 27.0911 125.99 27.5469 126.469 27.8594C126.948 28.1719 127.505 28.3281 128.141 28.3281C128.703 28.3281 129.195 28.2214 129.617 28.0078C130.044 27.7891 130.372 27.4818 130.602 27.0859C130.836 26.6849 130.958 26.2188 130.969 25.6875H128.344V24.0781H132.938V25.4375C132.938 26.3906 132.732 27.224 132.32 27.9375C131.914 28.651 131.349 29.2005 130.625 29.5859C129.901 29.9661 129.073 30.1562 128.141 30.1562C127.104 30.1562 126.19 29.9219 125.398 29.4531C124.607 28.9792 123.992 28.3047 123.555 27.4297C123.122 26.5495 122.906 25.5208 122.906 24.3438C122.906 23.1615 123.128 22.1328 123.57 21.2578C124.018 20.3776 124.633 19.7031 125.414 19.2344C126.201 18.7656 127.089 18.5312 128.078 18.5312C128.896 18.5312 129.646 18.6901 130.328 19.0078C131.016 19.3255 131.578 19.7708 132.016 20.3438C132.453 20.9115 132.729 21.5625 132.844 22.2969H130.766ZM138.391 30.1719C137.573 30.1719 136.857 29.9896 136.242 29.625C135.633 29.2604 135.161 28.7474 134.828 28.0859C134.495 27.4245 134.328 26.6615 134.328 25.7969C134.328 24.9219 134.495 24.1536 134.828 23.4922C135.161 22.8307 135.633 22.3177 136.242 21.9531C136.857 21.5885 137.573 21.4062 138.391 21.4062C139.208 21.4062 139.924 21.5885 140.539 21.9531C141.154 22.3177 141.625 22.8307 141.953 23.4922C142.286 24.1536 142.453 24.9219 142.453 25.7969C142.453 26.6615 142.286 27.4245 141.953 28.0859C141.625 28.7474 141.154 29.2604 140.539 29.625C139.924 29.9896 139.208 30.1719 138.391 30.1719ZM136.344 25.7812C136.344 26.3125 136.419 26.7891 136.57 27.2109C136.727 27.6328 136.958 27.9661 137.266 28.2109C137.578 28.4557 137.958 28.5781 138.406 28.5781C138.844 28.5781 139.216 28.4557 139.523 28.2109C139.831 27.9661 140.06 27.6328 140.211 27.2109C140.367 26.7891 140.443 26.3125 140.438 25.7812C140.443 25.25 140.367 24.7734 140.211 24.3516C140.06 23.9297 139.831 23.5964 139.523 23.3516C139.216 23.1068 138.844 22.9844 138.406 22.9844C137.958 22.9844 137.578 23.1068 137.266 23.3516C136.958 23.5964 136.727 23.9297 136.57 24.3516C136.419 24.7734 136.344 25.25 136.344 25.7812ZM147.703 30.1719C146.885 30.1719 146.169 29.9896 145.555 29.625C144.945 29.2604 144.474 28.7474 144.141 28.0859C143.807 27.4245 143.641 26.6615 143.641 25.7969C143.641 24.9219 143.807 24.1536 144.141 23.4922C144.474 22.8307 144.945 22.3177 145.555 21.9531C146.169 21.5885 146.885 21.4062 147.703 21.4062C148.521 21.4062 149.237 21.5885 149.852 21.9531C150.466 22.3177 150.938 22.8307 151.266 23.4922C151.599 24.1536 151.766 24.9219 151.766 25.7969C151.766 26.6615 151.599 27.4245 151.266 28.0859C150.938 28.7474 150.466 29.2604 149.852 29.625C149.237 29.9896 148.521 30.1719 147.703 30.1719ZM145.656 25.7812C145.656 26.3125 145.732 26.7891 145.883 27.2109C146.039 27.6328 146.271 27.9661 146.578 28.2109C146.891 28.4557 147.271 28.5781 147.719 28.5781C148.156 28.5781 148.529 28.4557 148.836 28.2109C149.143 27.9661 149.372 27.6328 149.523 27.2109C149.68 26.7891 149.755 26.3125 149.75 25.7812C149.755 25.25 149.68 24.7734 149.523 24.3516C149.372 23.9297 149.143 23.5964 148.836 23.3516C148.529 23.1068 148.156 22.9844 147.719 22.9844C147.271 22.9844 146.891 23.1068 146.578 23.3516C146.271 23.5964 146.039 23.9297 145.883 24.3516C145.732 24.7734 145.656 25.25 145.656 25.7812ZM157.016 33.3594C156.271 33.3594 155.62 33.2526 155.062 33.0391C154.505 32.8307 154.065 32.5312 153.742 32.1406C153.424 31.7552 153.245 31.2969 153.203 30.7656H155.188C155.255 31.1302 155.451 31.401 155.773 31.5781C156.096 31.7604 156.521 31.8542 157.047 31.8594C157.672 31.8542 158.156 31.7083 158.5 31.4219C158.844 31.1354 159.016 30.6927 159.016 30.0938V28.4688H158.922C158.724 28.8594 158.43 29.1927 158.039 29.4688C157.648 29.7396 157.125 29.875 156.469 29.875C155.802 29.875 155.203 29.7161 154.672 29.3984C154.146 29.0755 153.729 28.6016 153.422 27.9766C153.12 27.3464 152.969 26.5833 152.969 25.6875C152.969 24.7865 153.122 24.013 153.43 23.3672C153.737 22.7214 154.156 22.2344 154.688 21.9062C155.219 21.5729 155.818 21.4062 156.484 21.4062C157.146 21.4062 157.664 21.5521 158.039 21.8438C158.414 22.1354 158.708 22.4896 158.922 22.9062H159.016V21.5156H160.984V30.1406C160.984 30.8438 160.815 31.4349 160.477 31.9141C160.143 32.3984 159.677 32.7604 159.078 33C158.479 33.2396 157.792 33.3594 157.016 33.3594ZM155 25.7188C155 26.5156 155.174 27.1484 155.523 27.6172C155.872 28.0807 156.37 28.3125 157.016 28.3125C157.656 28.3125 158.151 28.0859 158.5 27.6328C158.854 27.1745 159.031 26.5365 159.031 25.7188C159.031 25.1771 158.953 24.7057 158.797 24.3047C158.641 23.8984 158.411 23.5859 158.109 23.3672C157.807 23.1432 157.443 23.0312 157.016 23.0312C156.583 23.0312 156.216 23.1484 155.914 23.3828C155.612 23.612 155.383 23.9297 155.227 24.3359C155.076 24.737 155 25.1979 155 25.7188ZM164.891 30H162.891V18.6875H164.891V30ZM170.562 30.1719C169.719 30.1719 168.987 29.9948 168.367 29.6406C167.747 29.2812 167.271 28.7734 166.938 28.1172C166.604 27.4609 166.438 26.6927 166.438 25.8125C166.438 24.9427 166.604 24.1771 166.938 23.5156C167.271 22.849 167.74 22.3307 168.344 21.9609C168.953 21.5911 169.656 21.4062 170.453 21.4062C171.172 21.4062 171.823 21.5625 172.406 21.875C172.995 22.1823 173.461 22.6562 173.805 23.2969C174.154 23.9375 174.328 24.7344 174.328 25.6875V26.3125H168.406C168.417 26.7865 168.51 27.1979 168.688 27.5469C168.87 27.8906 169.12 28.1536 169.438 28.3359C169.76 28.5182 170.135 28.6094 170.562 28.6094C170.99 28.6094 171.352 28.5312 171.648 28.375C171.945 28.2135 172.161 28 172.297 27.7344H174.25C174.13 28.224 173.904 28.6536 173.57 29.0234C173.237 29.388 172.812 29.6719 172.297 29.875C171.786 30.0729 171.208 30.1719 170.562 30.1719ZM172.422 24.9531C172.422 24.5729 172.339 24.2318 172.172 23.9297C172.01 23.6224 171.781 23.3828 171.484 23.2109C171.193 23.0391 170.859 22.9531 170.484 22.9531C170.099 22.9531 169.753 23.0443 169.445 23.2266C169.138 23.4036 168.896 23.6458 168.719 23.9531C168.542 24.2604 168.44 24.5938 168.414 24.9531H172.422ZM188.297 29.75H175.391V28.3125H180.953V26.0156H176.922V21.3906H185.047V19.6406H176.891V18.2344H186.766V22.7656H178.656V24.5938H187.094V26.0156H182.672V28.3125H188.297V29.75ZM198.359 20.6562C198.354 21.526 198.497 22.3724 198.789 23.1953C199.081 24.0182 199.503 24.75 200.055 25.3906C200.607 26.0312 201.255 26.5104 202 26.8281L200.969 28.2188C200.172 27.849 199.477 27.3125 198.883 26.6094C198.294 25.901 197.833 25.0755 197.5 24.1328C197.167 25.1484 196.695 26.0391 196.086 26.8047C195.482 27.5703 194.76 28.151 193.922 28.5469L192.859 27.0938C193.625 26.7656 194.289 26.2708 194.852 25.6094C195.414 24.9427 195.844 24.1797 196.141 23.3203C196.438 22.4609 196.589 21.5729 196.594 20.6562V18.4062H198.359V20.6562ZM203.016 17.2656H204.766V31.4062H203.016V17.2656ZM211.906 19.7188C211.906 20.3125 212.031 20.8828 212.281 21.4297C212.536 21.9766 212.914 22.4661 213.414 22.8984C213.919 23.3307 214.531 23.6667 215.25 23.9062L214.375 25.25C213.599 24.9896 212.93 24.6094 212.367 24.1094C211.81 23.6094 211.372 23.0208 211.055 22.3438C210.737 23.0833 210.284 23.7266 209.695 24.2734C209.112 24.8151 208.417 25.224 207.609 25.5L206.688 24.1562C207.422 23.9115 208.049 23.5599 208.57 23.1016C209.096 22.6432 209.492 22.1224 209.758 21.5391C210.023 20.9505 210.156 20.3438 210.156 19.7188V19.5469H207.172V18.1562H214.844V19.5469H211.906V19.7188ZM208.578 26.4375H217.984V31.3906H216.25V27.8281H208.578V26.4375ZM216.25 17.2656H217.984V20.7969H219.953V22.25H217.984V25.7812H216.25V17.2656ZM231.734 22.8906H233.906V24.3281H231.734V31.3906H230.016V17.2656H231.734V22.8906ZM220.594 19.4375H223.938V17.4688H225.672V19.4375H228.922V20.8281H220.594V19.4375ZM221.25 25.0781C221.245 24.4375 221.396 23.8646 221.703 23.3594C222.01 22.849 222.435 22.4531 222.977 22.1719C223.518 21.8906 224.13 21.75 224.812 21.75C225.484 21.75 226.089 21.8906 226.625 22.1719C227.161 22.4531 227.583 22.849 227.891 23.3594C228.203 23.8646 228.359 24.4375 228.359 25.0781C228.359 25.7188 228.203 26.2917 227.891 26.7969C227.583 27.2969 227.161 27.6875 226.625 27.9688C226.089 28.25 225.484 28.3906 224.812 28.3906C224.13 28.3906 223.518 28.25 222.977 27.9688C222.435 27.6875 222.01 27.2969 221.703 26.7969C221.396 26.2917 221.245 25.7188 221.25 25.0781ZM222.906 25.0781C222.906 25.4531 222.987 25.7839 223.148 26.0703C223.31 26.3516 223.534 26.5703 223.82 26.7266C224.112 26.8776 224.443 26.9531 224.812 26.9531C225.172 26.9531 225.495 26.8776 225.781 26.7266C226.068 26.5755 226.292 26.3568 226.453 26.0703C226.615 25.7839 226.698 25.4531 226.703 25.0781C226.698 24.7031 226.612 24.3724 226.445 24.0859C226.284 23.7943 226.06 23.5703 225.773 23.4141C225.492 23.2526 225.172 23.1719 224.812 23.1719C224.443 23.1719 224.112 23.2526 223.82 23.4141C223.534 23.5703 223.31 23.7943 223.148 24.0859C222.987 24.3724 222.906 24.7031 222.906 25.0781ZM246.297 31.3906H244.547V17.2656H246.297V31.3906ZM234.594 27.5C236.417 26.6354 237.784 25.6016 238.695 24.3984C239.612 23.1953 240.151 21.776 240.312 20.1406H235.312V18.7656H242.078C242.078 21.0104 241.57 22.9792 240.555 24.6719C239.539 26.3646 237.854 27.7708 235.5 28.8906L234.594 27.5Z" fill="#0059FF"/>
<path d="M38.501 24.2332C38.501 23.3699 38.4296 22.7399 38.2748 22.0865H28.2153V25.9832H34.12C34.001 26.9515 33.3582 28.4099 31.9296 29.3898L31.9096 29.5203L35.0902 31.935L35.3106 31.9565C37.3343 30.1249 38.501 27.4298 38.501 24.2332Z" fill="#4285F4"/>
<path d="M28.2145 34.5C31.1073 34.5 33.5358 33.5666 35.3097 31.9567L31.9287 29.3899C31.024 30.0083 29.8097 30.4399 28.2145 30.4399C25.3812 30.4399 22.9764 28.6083 22.1192 26.0766L21.9936 26.0871L18.6863 28.5954L18.6431 28.7132C20.4049 32.1433 24.024 34.5 28.2145 34.5Z" fill="#34A853"/>
<path d="M22.12 26.0767C21.8938 25.4233 21.7629 24.7233 21.7629 24C21.7629 23.2766 21.8938 22.5766 22.1081 21.9233L22.1021 21.7842L18.7534 19.2355L18.6438 19.2866C17.9176 20.71 17.501 22.3083 17.501 24C17.501 25.6916 17.9176 27.2899 18.6438 28.7133L22.12 26.0767Z" fill="#FBBC05"/>
<path d="M28.2145 17.56C30.2264 17.56 31.5835 18.4116 32.3574 19.1233L35.3812 16.23C33.5241 14.5383 31.1074 13.5 28.2145 13.5C24.024 13.5 20.405 15.8566 18.6431 19.2866L22.1073 21.9233C22.9765 19.3917 25.3812 17.56 28.2145 17.56Z" fill="#EB4335"/>
</svg>
