<svg width="327" height="311" viewBox="0 0 327 311" fill="none" xmlns="http://www.w3.org/2000/svg">
<path d="M86.1709 31.7693L20.6627 50.9643C20.6627 50.9643 74.4364 169.582 92.9621 239.873C97.1609 255.805 98.4777 272.136 98.863 282.551C99.126 289.661 102.196 296.616 109.299 297.023C113.635 297.272 119.576 296.719 127.554 294.381C135.532 292.043 140.832 289.303 144.349 286.753C150.109 282.577 148.939 275.064 145.324 268.937C140.027 259.962 132.322 245.502 127.258 229.824C104.919 160.65 86.1709 31.7693 86.1709 31.7693Z" fill="#D7D8E2"/>
<path d="M81.3848 40.333L29.7041 58.0572C29.7041 58.0572 82.5444 184.641 97.8302 242.469C101.509 256.385 102.385 270.71 102.542 279.174C102.633 284.102 104.238 289.234 108.994 290.528C112.696 291.534 118.193 291.795 126.011 289.505C133.828 287.214 138.315 284.028 140.888 281.182C144.194 277.527 142.775 272.34 140.193 268.142C135.756 260.932 128.763 248.399 124.35 234.698C106.009 177.766 81.3848 40.333 81.3848 40.333Z" fill="#FFDD33"/>
<path fill-rule="evenodd" clip-rule="evenodd" d="M41.7127 17.8294C36.4442 19.3731 32.4226 23.1843 30.3013 27.9864C28.9494 31.0468 26.9487 33.8806 24.4586 36.1152C18.3699 41.5793 15.6284 50.4278 18.1468 59.0225C19.1049 62.292 20.7235 65.1817 22.8061 67.5797C25.6936 70.9046 27.6458 75.2215 28.4154 79.5575C28.5496 80.3135 28.7268 81.0722 28.9488 81.8298C31.8006 91.5623 40.9529 97.4476 49.391 94.9751C54.7323 93.41 58.5071 88.8711 59.8351 83.2819C60.7244 79.5389 63.89 76.1377 67.5819 75.0559V75.0559C78.1215 71.9676 84.3664 61.0692 82.4401 49.9313C82.3109 49.1842 82.7898 48.4567 83.5175 48.2435V48.2435C90.9259 46.0727 95.0737 37.9721 92.7818 30.1503C90.4899 22.3285 82.6261 17.7475 75.2177 19.9183V19.9183C73.7202 20.3571 72.0663 20.137 70.7547 19.2915C67.4708 17.1745 63.419 16.43 59.4949 17.5799V17.5799C56.9277 18.3321 54.1106 18.5246 51.5364 17.7965C48.3978 16.9086 45.0209 16.86 41.7127 17.8294Z" fill="#F2F3F6"/>
<ellipse cx="19.7346" cy="99.8352" rx="8.64083" ry="10.369" transform="rotate(15.4847 19.7346 99.8352)" fill="#F2F3F6"/>
<ellipse cx="35.7719" cy="119.869" rx="4.32042" ry="7.34471" transform="rotate(-5.11796 35.7719 119.869)" fill="#F2F3F6"/>
<mask id="mask0_1654_116299" style="mask-type:alpha" maskUnits="userSpaceOnUse" x="108" y="87" width="219" height="218">
<path fill-rule="evenodd" clip-rule="evenodd" d="M116.193 158.211C114.793 160.581 113.566 163.038 112.799 165.15C110.016 172.811 107.983 184.326 109.41 200.51C111.06 219.229 115.99 243.485 131.467 265.826C146.943 288.168 171.755 300.681 195.15 303.119C215.895 305.28 231.566 302.129 250.165 296.865C268.764 291.601 285.731 275.613 285.731 275.613C284.859 276.213 283.235 277.151 280.961 278.297C310.15 258.554 324.665 227.588 325.888 201.812C326.47 189.559 326.515 185.157 320.557 172.451C326.124 141.386 301.505 125.838 288.986 122.938C279.362 92.8924 250.337 89.1241 236.96 92.8174C229.976 88.1997 214.632 85.3758 203.683 91.5661C191.73 98.3235 186.808 114.301 187.666 125.601C187.679 125.769 187.692 125.939 187.705 126.111C187.733 126.479 187.762 126.856 187.791 127.242C183.674 132.03 174.962 138.087 167.288 140.992C160.046 143.732 154.03 144.232 149.349 143.844C148.677 142.673 147.87 141.698 146.893 140.969C140.715 136.356 122.428 134.94 116.193 158.211Z" fill="#FCA8B9"/>
<path d="M112.799 165.15L113.384 165.362L113.384 165.362L112.799 165.15ZM116.193 158.211L116.729 158.527L116.772 158.454L116.794 158.372L116.193 158.211ZM109.41 200.51L110.03 200.455L110.03 200.455L109.41 200.51ZM131.467 265.826L131.978 265.472L131.978 265.472L131.467 265.826ZM195.15 303.119L195.085 303.738L195.085 303.738L195.15 303.119ZM250.165 296.865L249.996 296.266L249.996 296.266L250.165 296.865ZM285.731 275.613L286.158 276.066L285.378 275.1L285.731 275.613ZM280.961 278.297L280.612 277.781L281.241 278.853L280.961 278.297ZM325.888 201.812L326.51 201.842L326.51 201.842L325.888 201.812ZM320.557 172.451L319.944 172.341L319.909 172.536L319.993 172.715L320.557 172.451ZM288.986 122.938L288.393 123.128L288.501 123.465L288.846 123.545L288.986 122.938ZM236.96 92.8174L236.616 93.3367L236.852 93.4929L237.125 93.4175L236.96 92.8174ZM203.683 91.5661L203.376 91.0242L203.376 91.0242L203.683 91.5661ZM187.666 125.601L187.045 125.648L187.045 125.648L187.666 125.601ZM187.705 126.111L187.084 126.158L187.084 126.158L187.705 126.111ZM187.791 127.242L188.263 127.648L188.431 127.452L188.412 127.195L187.791 127.242ZM167.288 140.992L167.508 141.574L167.508 141.574L167.288 140.992ZM149.349 143.844L148.809 144.154L148.971 144.437L149.297 144.464L149.349 143.844ZM146.893 140.969L146.52 141.467L146.52 141.467L146.893 140.969ZM113.384 165.362C114.134 163.298 115.341 160.877 116.729 158.527L115.657 157.894C114.245 160.285 112.998 162.778 112.214 164.937L113.384 165.362ZM110.03 200.455C108.61 184.348 110.637 172.926 113.384 165.362L112.214 164.937C109.396 172.695 107.356 184.303 108.79 200.565L110.03 200.455ZM131.978 265.472C116.587 243.253 111.675 219.118 110.03 200.455L108.79 200.565C110.445 219.341 115.393 243.716 130.955 266.181L131.978 265.472ZM195.214 302.499C171.98 300.078 147.34 287.649 131.978 265.472L130.955 266.181C146.546 288.688 171.53 301.283 195.085 303.738L195.214 302.499ZM249.996 296.266C231.431 301.521 215.847 304.649 195.214 302.499L195.085 303.738C215.944 305.911 231.702 302.738 250.335 297.464L249.996 296.266ZM285.731 275.613C285.304 275.16 285.304 275.16 285.304 275.16C285.304 275.16 285.304 275.16 285.304 275.16C285.303 275.161 285.303 275.161 285.302 275.162C285.3 275.164 285.297 275.167 285.293 275.17C285.285 275.177 285.273 275.189 285.258 275.203C285.226 275.233 285.178 275.277 285.115 275.335C284.988 275.452 284.799 275.624 284.551 275.846C284.055 276.29 283.324 276.931 282.389 277.717C280.518 279.289 277.829 281.441 274.563 283.757C268.021 288.395 259.197 293.662 249.996 296.266L250.335 297.464C259.733 294.804 268.692 289.445 275.283 284.773C278.583 282.434 281.298 280.26 283.19 278.67C284.136 277.875 284.876 277.226 285.381 276.774C285.633 276.549 285.826 276.372 285.957 276.252C286.023 276.192 286.072 276.146 286.106 276.115C286.123 276.099 286.135 276.087 286.144 276.079C286.149 276.075 286.152 276.072 286.154 276.07C286.155 276.068 286.156 276.068 286.157 276.067C286.157 276.067 286.157 276.066 286.158 276.066C286.158 276.066 286.158 276.066 285.731 275.613ZM281.241 278.853C283.524 277.702 285.177 276.75 286.084 276.126L285.378 275.1C284.54 275.677 282.947 276.599 280.68 277.741L281.241 278.853ZM281.309 278.813C310.666 258.957 325.278 227.807 326.51 201.842L325.267 201.783C324.052 227.368 309.634 258.152 280.612 277.781L281.309 278.813ZM326.51 201.842C326.801 195.726 326.962 191.499 326.29 187.205C325.616 182.901 324.11 178.563 321.12 172.187L319.993 172.715C322.961 179.045 324.412 183.261 325.06 187.398C325.709 191.545 325.558 195.645 325.267 201.783L326.51 201.842ZM321.17 172.561C323.989 156.828 319.161 144.988 312.025 136.726C304.909 128.487 295.506 123.81 289.127 122.332L288.846 123.545C294.985 124.967 304.151 129.513 311.083 137.54C317.994 145.543 322.692 157.009 319.944 172.341L321.17 172.561ZM289.579 122.748C284.707 107.538 274.906 98.952 264.621 94.6513C254.361 90.3615 243.617 90.3335 236.794 92.2173L237.125 93.4175C243.679 91.608 254.137 91.6175 264.14 95.8C274.117 99.9716 283.641 108.293 288.393 123.128L289.579 122.748ZM237.303 92.2981C233.705 89.919 228.016 88.0344 221.86 87.5184C215.699 87.002 208.991 87.8499 203.376 91.0242L203.989 92.108C209.324 89.092 215.762 88.2567 221.756 88.7591C227.755 89.262 233.231 91.0981 236.616 93.3367L237.303 92.2981ZM203.376 91.0242C197.248 94.489 192.95 100.299 190.296 106.64C187.642 112.979 186.609 119.897 187.045 125.648L188.287 125.554C187.865 120.005 188.864 113.284 191.445 107.121C194.025 100.958 198.165 95.4006 203.989 92.108L203.376 91.0242ZM187.045 125.648C187.058 125.816 187.071 125.986 187.084 126.158L188.326 126.064C188.313 125.892 188.3 125.722 188.287 125.554L187.045 125.648ZM187.084 126.158C187.112 126.526 187.141 126.903 187.17 127.289L188.412 127.195C188.382 126.809 188.354 126.432 188.326 126.064L187.084 126.158ZM167.508 141.574C175.267 138.638 184.07 132.524 188.263 127.648L187.319 126.836C183.278 131.535 174.657 137.537 167.068 140.409L167.508 141.574ZM149.297 144.464C154.07 144.86 160.18 144.347 167.508 141.574L167.068 140.409C159.913 143.117 153.989 143.604 149.4 143.223L149.297 144.464ZM149.889 143.534C149.184 142.307 148.325 141.261 147.265 140.47L146.52 141.467C147.415 142.135 148.169 143.04 148.809 144.154L149.889 143.534ZM147.265 140.47C144.007 138.037 137.679 136.503 131.373 138.541C125.013 140.595 118.753 146.249 115.591 158.05L116.794 158.372C119.867 146.902 125.868 141.628 131.755 139.726C137.696 137.807 143.6 139.287 146.52 141.467L147.265 140.47Z" fill="#FCA8B9"/>
</mask>
<g mask="url(#mask0_1654_116299)">
<path d="M285.72 275.613C278.694 280.449 222.959 307.153 170.4 288.566C141.479 278.338 127.038 248.284 121.708 218.533C117.352 194.216 121.335 164.576 123.988 148.655C120.984 150.171 114.991 159.085 112.788 165.15C110.005 172.811 107.972 184.326 109.399 200.51C111.049 219.23 115.979 243.485 131.455 265.827C146.932 288.169 171.744 300.681 195.138 303.119C215.884 305.281 231.555 302.13 250.154 296.865C268.753 291.601 285.72 275.613 285.72 275.613Z" fill="#FA6885"/>
<path d="M167.276 140.992C155.949 145.278 147.621 144.083 142.709 142.582L143.67 187.508L155.333 212.008L199.903 171.667C196.49 153.822 189.763 118.997 190.162 122.46C190.662 126.788 177.963 136.948 167.276 140.992Z" fill="#F94267"/>
<path d="M114.346 184.618C120.277 273.893 164.486 290.98 193.909 297.295C282.142 306.132 323.767 246.256 325.877 201.812C326.458 189.559 326.503 185.157 320.545 172.451C326.113 141.386 301.493 125.838 288.974 122.938C279.35 92.8923 250.326 89.124 236.948 92.8174C229.964 88.1997 214.62 85.3758 203.671 91.566C191.718 98.3235 186.796 114.301 187.655 125.601C188.566 137.599 190.407 160.289 183.455 175.001C179.206 183.994 171.184 192.497 159.954 185.851C149.512 179.67 156.581 148.21 146.881 140.968C138.943 135.042 111.01 134.392 114.346 184.618Z" fill="#FCA8B9" stroke="#FCA8B9" stroke-width="1.24509"/>
<path d="M158.274 183.475C154.763 186.312 164.124 197.412 174.428 202.656C187.307 209.21 202.374 229.453 188.351 258.439" stroke="#FA6885" stroke-width="1.95682"/>
<path d="M238.006 91.9126C238.955 96.3159 245.937 118.433 237.497 169.4" stroke="#FA6885" stroke-width="1.95682"/>
<path d="M290.407 122.66C287.813 132.316 292.538 169.304 278.497 197.62" stroke="#FA6885" stroke-width="1.95682"/>
<path d="M322.284 171.871C318.714 191.421 304.459 233.064 283.296 240.358" stroke="#FA6885" stroke-width="1.95682"/>
<path d="M168.742 204.859C170.854 203.584 173.953 200.478 174.811 196.653" stroke="#FA6885" stroke-width="1.95682"/>
<path d="M179.111 211.417C181.223 210.143 184.322 207.036 185.18 203.211" stroke="#FA6885" stroke-width="1.95682"/>
<path d="M235.665 103.38C238.047 103.771 242.24 103.361 245.076 100.893" stroke="#FA6885" stroke-width="1.95682"/>
<path d="M285.905 129.889C288.206 130.653 292.406 130.912 295.541 128.917" stroke="#FA6885" stroke-width="1.95682"/>
<path d="M314.345 183.872C315.619 186.082 318.629 189.251 322.193 189.951" stroke="#FA6885" stroke-width="1.95682"/>
<path d="M236.987 117.088C239.368 117.478 243.562 117.068 246.397 114.6" stroke="#FA6885" stroke-width="1.95682"/>
<path d="M285.362 143.671C287.663 144.435 291.863 144.693 294.998 142.699" stroke="#FA6885" stroke-width="1.95682"/>
<path d="M309.818 196.863C311.092 199.074 314.102 202.243 317.665 202.942" stroke="#FA6885" stroke-width="1.95682"/>
<path d="M237.046 129.374C239.246 130.428 243.385 131.224 246.714 129.645" stroke="#FA6885" stroke-width="1.95683"/>
<path d="M283.762 155.845C285.795 157.238 289.778 158.681 293.281 157.645" stroke="#FA6885" stroke-width="1.95682"/>
<path d="M305.881 206.689C306.574 209.188 308.707 213.107 311.971 214.796" stroke="#FA6885" stroke-width="1.95682"/>
<path d="M184.889 220.937C187.277 220.559 191.187 218.845 193.242 215.594" stroke="#FA6885" stroke-width="1.95682"/>
<path d="M189.774 234.143C192.162 233.764 196.071 232.051 198.127 228.799" stroke="#FA6885" stroke-width="1.95682"/>
<path d="M189.402 244.034C191.535 245.238 195.617 246.319 199.031 244.972" stroke="#FA6885" stroke-width="1.95682"/>
<ellipse cx="245.013" cy="230.6" rx="44.2571" ry="35.7242" transform="rotate(-22.1504 245.013 230.6)" fill="black" fill-opacity="0.25"/>
<g clip-path="url(#clip0_1654_116299)">
<rect x="180.33" y="170.384" width="91.3823" height="91.3823" rx="45.6912" transform="rotate(-9.32109 180.33 170.384)" fill="#F2F3F6"/>
<path fill-rule="evenodd" clip-rule="evenodd" d="M219.07 217.558C218.833 216.834 218.581 216.111 218.314 215.391C218.047 214.67 217.768 213.958 217.477 213.253L213.079 215.071C213.348 215.72 213.605 216.378 213.851 217.043C214.098 217.708 214.33 218.374 214.549 219.042L219.07 217.558ZM220.335 221.962L215.715 223.102C216.054 224.478 216.339 225.856 216.569 227.234L221.262 226.45C221.012 224.953 220.703 223.456 220.335 221.962ZM221.844 230.996L217.105 231.419C217.23 232.826 217.301 234.23 217.317 235.628L222.075 235.572C222.057 234.051 221.981 232.525 221.844 230.996ZM221.953 240.154L217.205 239.844C217.113 241.251 216.967 242.65 216.768 244.036L221.478 244.712C221.695 243.205 221.853 241.684 221.953 240.154ZM220.653 249.22L216.009 248.183C215.702 249.557 215.342 250.917 214.932 252.257L219.481 253.651C219.928 252.193 220.319 250.715 220.653 249.22ZM217.97 257.977L213.542 256.235C213.028 257.543 212.462 258.83 211.849 260.091L216.127 262.173C216.795 260.801 217.41 259.401 217.97 257.977ZM213.962 266.213L209.86 263.801C209.149 265.011 208.391 266.192 207.586 267.341L211.486 270.069C212.362 268.816 213.188 267.53 213.962 266.213ZM208.711 273.716L205.042 270.687C204.151 271.766 203.217 272.81 202.24 273.817L205.654 277.131C206.721 276.032 207.74 274.893 208.711 273.716ZM202.332 280.288L199.197 276.708C198.148 277.627 197.059 278.506 195.932 279.342L198.766 283.164C199.998 282.251 201.187 281.291 202.332 280.288ZM194.975 285.742L192.462 281.702C191.282 282.436 190.065 283.127 188.813 283.771L190.99 288.002C192.357 287.298 193.686 286.544 194.975 285.742ZM186.834 289.932L185.005 285.54C184.36 285.808 183.707 286.065 183.046 286.31C182.385 286.554 181.722 286.785 181.058 287.001L182.53 291.526C183.255 291.29 183.977 291.039 184.698 290.772C185.419 290.505 186.131 290.225 186.834 289.932ZM178.119 292.767L177.016 288.138C175.646 288.465 174.273 288.733 172.899 288.944L173.623 293.647C175.123 293.416 176.623 293.124 178.119 292.767ZM169.067 294.159L168.729 289.413C167.329 289.512 165.93 289.554 164.536 289.54L164.488 294.298C166.01 294.314 167.537 294.268 169.067 294.159ZM159.91 294.066L160.344 289.327C158.947 289.199 157.558 289.016 156.179 288.777L155.367 293.465C156.87 293.726 158.386 293.927 159.91 294.066ZM150.887 292.504L152.07 287.895C150.711 287.546 149.366 287.143 148.039 286.688L146.496 291.19C147.941 291.685 149.406 292.124 150.887 292.504ZM142.223 289.534L144.114 285.168C142.827 284.61 141.56 284.002 140.317 283.344L138.091 287.55C139.443 288.265 140.822 288.927 142.223 289.534ZM134.127 285.251L136.673 281.23C135.488 280.48 134.33 279.683 133.202 278.839L130.353 282.651C131.579 283.568 132.839 284.435 134.127 285.251ZM126.791 279.767L129.926 276.187C128.872 275.264 127.85 274.298 126.864 273.29L123.463 276.618C124.535 277.713 125.645 278.764 126.791 279.767ZM120.386 273.219L124.034 270.164C123.136 269.092 122.275 267.98 121.454 266.831L117.582 269.596C118.474 270.845 119.41 272.053 120.386 273.219ZM115.063 265.767L119.135 263.306C118.413 262.11 117.731 260.879 117.093 259.614L112.844 261.757C113.537 263.131 114.278 264.468 115.063 265.767ZM110.936 257.591C110.645 256.887 110.366 256.174 110.099 255.454C109.832 254.733 109.58 254.011 109.342 253.287L113.863 251.803C114.083 252.47 114.315 253.137 114.561 253.802C114.808 254.467 115.065 255.124 115.333 255.773L110.936 257.591ZM108.078 248.882L112.698 247.742C112.358 246.366 112.074 244.988 111.844 243.61L107.15 244.395C107.401 245.892 107.709 247.388 108.078 248.882ZM106.568 239.848L111.308 239.425C111.183 238.018 111.112 236.614 111.095 235.216L106.337 235.273C106.355 236.793 106.432 238.319 106.568 239.848ZM106.459 230.69L111.208 231C111.3 229.593 111.446 228.194 111.645 226.808L106.934 226.132C106.718 227.64 106.559 229.16 106.459 230.69ZM107.76 221.624L112.404 222.662C112.711 221.287 113.07 219.928 113.481 218.587L108.931 217.193C108.485 218.652 108.094 220.13 107.76 221.624ZM110.442 212.867L114.87 214.609C115.385 213.301 115.95 212.014 116.564 210.753L112.285 208.671C111.617 210.044 111.002 211.444 110.442 212.867ZM114.451 204.632L118.553 207.043C119.264 205.833 120.022 204.652 120.826 203.503L116.927 200.775C116.051 202.028 115.225 203.315 114.451 204.632ZM119.701 197.128L123.371 200.157C124.261 199.079 125.196 198.034 126.173 197.028L122.758 193.714C121.692 194.812 120.672 195.951 119.701 197.128ZM126.081 190.557L129.216 194.136C130.265 193.217 131.353 192.339 132.481 191.502L129.647 187.68C128.415 188.594 127.226 189.554 126.081 190.557ZM133.437 185.102L135.951 189.142C137.131 188.408 138.348 187.718 139.6 187.074L137.422 182.842C136.055 183.546 134.727 184.3 133.437 185.102ZM141.579 180.912L143.408 185.305C144.053 185.036 144.706 184.779 145.367 184.535C146.028 184.29 146.691 184.06 147.355 183.844L145.882 179.319C145.158 179.554 144.435 179.805 143.715 180.072C142.994 180.339 142.282 180.619 141.579 180.912ZM150.294 178.077L151.397 182.706C152.767 182.38 154.14 182.111 155.513 181.9L154.79 177.197C153.289 177.428 151.79 177.721 150.294 178.077ZM159.345 176.685L159.683 181.432C161.084 181.332 162.482 181.29 163.876 181.304L163.925 176.546C162.403 176.53 160.875 176.576 159.345 176.685ZM168.502 176.778L168.069 181.517C169.466 181.645 170.855 181.829 172.233 182.068L173.046 177.379C171.542 177.118 170.027 176.918 168.502 176.778ZM177.526 178.341L176.343 182.95C177.702 183.298 179.046 183.701 180.374 184.156L181.917 179.655C180.471 179.159 179.007 178.721 177.526 178.341ZM186.19 181.31L184.299 185.676C185.586 186.234 186.853 186.842 188.096 187.5L190.321 183.294C188.969 182.579 187.591 181.917 186.19 181.31ZM194.285 185.594L191.74 189.614C192.925 190.364 194.083 191.162 195.211 192.005L198.06 188.194C196.833 187.277 195.574 186.41 194.285 185.594ZM201.622 191.077L198.487 194.657C199.541 195.58 200.562 196.546 201.549 197.554L204.95 194.227C203.878 193.131 202.768 192.081 201.622 191.077ZM208.027 197.625L204.379 200.681C205.277 201.753 206.138 202.864 206.959 204.014L210.831 201.248C209.939 199.999 209.003 198.791 208.027 197.625ZM213.35 205.078L209.277 207.538C210 208.734 210.682 209.965 211.32 211.231L215.568 209.087C214.875 207.714 214.135 206.377 213.35 205.078Z" fill="#F94267"/>
<path fill-rule="evenodd" clip-rule="evenodd" d="M353.699 162.066L349.6 164.484C349.243 163.878 348.874 163.277 348.491 162.68C348.108 162.083 347.716 161.496 347.315 160.919L351.221 158.203C351.656 158.828 352.081 159.465 352.496 160.111C352.911 160.758 353.312 161.41 353.699 162.066ZM348.465 154.541L344.774 157.544C343.88 156.445 342.95 155.388 341.989 154.375L345.441 151.099C346.485 152.2 347.495 153.348 348.465 154.541ZM342.16 147.898L338.97 151.428C337.922 150.481 336.843 149.579 335.736 148.724L338.646 144.959C339.849 145.889 341.022 146.868 342.16 147.898ZM334.913 142.298L332.302 146.276C331.123 145.502 329.919 144.777 328.692 144.101L330.988 139.933C332.322 140.668 333.632 141.456 334.913 142.298ZM326.891 137.879L324.924 142.211C323.642 141.629 322.34 141.098 321.022 140.619L322.648 136.147C324.081 136.668 325.497 137.245 326.891 137.879ZM318.284 134.749L317.01 139.334C315.655 138.957 314.287 138.634 312.911 138.365L313.824 133.695C315.322 133.988 316.81 134.339 318.284 134.749ZM309.295 132.992L308.751 137.719C307.357 137.559 305.957 137.453 304.556 137.403L304.725 132.648C306.253 132.702 307.777 132.817 309.295 132.992ZM300.142 132.667L300.352 137.421C298.955 137.483 297.559 137.601 296.167 137.775L295.576 133.053C297.095 132.863 298.618 132.735 300.142 132.667ZM291.055 133.805L292.025 138.464C290.661 138.748 289.304 139.089 287.957 139.486L286.611 134.922C288.082 134.488 289.565 134.116 291.055 133.805ZM282.271 136.396L283.984 140.836C282.687 141.336 281.403 141.892 280.135 142.504L278.067 138.218C279.452 137.55 280.854 136.943 282.271 136.396ZM274.024 140.375L276.43 144.48C275.828 144.833 275.23 145.2 274.636 145.581C274.043 145.961 273.46 146.352 272.888 146.752L270.161 142.852C270.785 142.416 271.421 141.99 272.067 141.575C272.714 141.16 273.366 140.76 274.024 140.375ZM266.514 145.627L269.546 149.295C268.461 150.192 267.42 151.127 266.424 152.097L263.104 148.688C264.192 147.628 265.329 146.607 266.514 145.627ZM259.953 152.017L263.54 155.144C262.617 156.203 261.742 157.294 260.914 158.416L257.085 155.59C257.989 154.365 258.945 153.173 259.953 152.017ZM254.515 159.385L258.56 161.892C257.821 163.084 257.132 164.304 256.493 165.548L252.26 163.374C252.957 162.017 253.709 160.686 254.515 159.385ZM250.331 167.531L254.723 169.361C254.184 170.656 253.696 171.972 253.26 173.305L248.737 171.828C249.211 170.376 249.743 168.942 250.331 167.531ZM247.486 176.237L252.111 177.355C251.782 178.719 251.505 180.096 251.282 181.485L246.584 180.73C246.826 179.22 247.127 177.721 247.486 176.237ZM246.033 185.28C245.909 186.8 245.843 188.327 245.837 189.859L250.596 189.878C250.601 188.47 250.662 187.065 250.776 185.667L246.033 185.28ZM245.995 194.439L250.741 194.091C250.844 195.488 251 196.885 251.212 198.279L246.507 198.993C246.277 197.477 246.107 195.958 245.995 194.439ZM247.368 203.495L252.004 202.422C252.32 203.784 252.689 205.141 253.112 206.488L248.573 207.915C248.113 206.451 247.711 204.976 247.368 203.495ZM250.115 212.232L254.531 210.461C255.051 211.758 255.624 213.044 256.25 214.315L251.981 216.417C251.301 215.037 250.679 213.641 250.115 212.232ZM254.159 220.449C254.546 221.105 254.947 221.757 255.361 222.404C255.776 223.051 256.201 223.687 256.636 224.312L260.543 221.596C260.142 221.019 259.75 220.432 259.367 219.835C258.984 219.238 258.614 218.637 258.257 218.032L254.159 220.449ZM259.392 227.974L263.083 224.971C263.978 226.07 264.907 227.127 265.869 228.14L262.417 231.416C261.372 230.315 260.363 229.167 259.392 227.974ZM265.697 234.618L268.888 231.087C269.936 232.034 271.015 232.936 272.121 233.791L269.211 237.556C268.009 236.627 266.836 235.647 265.697 234.618ZM272.944 240.218L275.555 236.239C276.734 237.013 277.939 237.738 279.166 238.414L276.87 242.582C275.536 241.847 274.226 241.059 272.944 240.218ZM280.966 244.637L282.934 240.304C284.216 240.886 285.518 241.417 286.836 241.897L285.21 246.369C283.776 245.847 282.361 245.27 280.966 244.637ZM289.574 247.766L290.848 243.182C292.203 243.558 293.57 243.882 294.947 244.151L294.034 248.821C292.536 248.528 291.048 248.176 289.574 247.766ZM298.563 249.523L299.107 244.796C300.501 244.956 301.9 245.062 303.302 245.112L303.133 249.867C301.605 249.813 300.081 249.698 298.563 249.523ZM307.715 249.848L307.505 245.094C308.903 245.032 310.299 244.915 311.691 244.741L312.282 249.462C310.763 249.652 309.239 249.781 307.715 249.848ZM316.803 248.71L315.832 244.051C317.197 243.767 318.554 243.427 319.901 243.03L321.247 247.594C319.776 248.028 318.293 248.399 316.803 248.71ZM325.587 246.119L323.874 241.68C325.17 241.179 326.454 240.624 327.722 240.012L329.79 244.297C328.406 244.965 327.004 245.572 325.587 246.119ZM333.834 242.14L331.428 238.035C332.03 237.682 332.628 237.315 333.222 236.935C333.815 236.554 334.398 236.164 334.97 235.763L337.697 239.663C337.073 240.1 336.437 240.526 335.79 240.94C335.143 241.355 334.491 241.755 333.834 242.14ZM341.344 236.888L338.312 233.221C339.397 232.323 340.438 231.388 341.433 230.419L344.753 233.828C343.666 234.887 342.529 235.908 341.344 236.888ZM347.904 230.498L344.318 227.371C345.24 226.313 346.116 225.221 346.944 224.1L350.772 226.925C349.869 228.15 348.912 229.342 347.904 230.498ZM353.342 223.13L349.298 220.624C350.037 219.431 350.726 218.211 351.365 216.967L355.598 219.141C354.901 220.498 354.149 221.829 353.342 223.13ZM357.527 214.984L353.135 213.154C353.674 211.859 354.162 210.543 354.598 209.21L359.121 210.687C358.647 212.14 358.115 213.573 357.527 214.984ZM360.372 206.278L355.746 205.16C356.076 203.797 356.353 202.419 356.576 201.031L361.274 201.785C361.032 203.295 360.731 204.794 360.372 206.278ZM361.824 197.236L357.082 196.848C357.196 195.45 357.256 194.045 357.262 192.637L362.021 192.657C362.014 194.188 361.949 195.716 361.824 197.236ZM361.862 188.076L357.117 188.424C357.014 187.027 356.858 185.63 356.646 184.236L361.351 183.523C361.581 185.038 361.751 186.558 361.862 188.076ZM360.489 179.02L355.854 180.094C355.538 178.731 355.169 177.375 354.745 176.027L359.285 174.6C359.745 176.064 360.146 177.539 360.489 179.02ZM357.743 170.283C357.178 168.875 356.557 167.479 355.877 166.098L351.608 168.2C352.234 169.472 352.806 170.757 353.326 172.054L357.743 170.283Z" fill="#F94267"/>
</g>
</g>
<defs>
<clipPath id="clip0_1654_116299">
<rect x="180.33" y="170.384" width="91.3823" height="91.3823" rx="45.6912" transform="rotate(-9.32109 180.33 170.384)" fill="white"/>
</clipPath>
</defs>
</svg>
