<svg width="406" height="405" viewBox="0 0 406 405" fill="none" xmlns="http://www.w3.org/2000/svg">
<rect x="215.881" y="68.0928" width="7.03715" height="18.1793" transform="rotate(-6.63899 215.881 68.0928)" fill="#D7D8E2"/>
<rect x="244.197" y="64.7888" width="7.03715" height="18.1793" transform="rotate(-6.63899 244.197 64.7888)" fill="#D7D8E2"/>
<path d="M213.317 57.7905L251.191 53.3821L254.133 66.0283L254.545 68.5636C254.886 70.6546 253.411 72.6065 251.307 72.8514L217.693 76.7639C215.582 77.0096 213.695 75.4382 213.555 73.3176L213.426 71.3567L213.317 57.7905Z" fill="#FA6885"/>
<path d="M213.317 57.7905L251.191 53.3821L254.005 66.0511C254.483 68.2017 252.996 70.2933 250.808 70.548L217.632 74.4094C215.444 74.6641 213.516 72.97 213.487 70.7672L213.317 57.7905Z" fill="#FB8099"/>
<path d="M210.294 31.7736C210.057 29.7351 211.517 27.8902 213.555 27.6529L244.035 24.1052C246.074 23.8679 247.919 25.3281 248.156 27.3667L251.184 53.3829L213.322 57.7899L210.294 31.7736Z" fill="#FCA8B9"/>
<ellipse cx="229.835" cy="32.5467" rx="6.22034" ry="3.11017" transform="rotate(-6.63899 229.835 32.5467)" fill="white"/>
<rect x="161.365" y="82.415" width="7.03715" height="18.1793" transform="rotate(-16.3485 161.365 82.415)" fill="#D7D8E2"/>
<rect x="188.721" y="74.3826" width="7.03715" height="18.1793" transform="rotate(-16.3485 188.721 74.3826)" fill="#D7D8E2"/>
<path d="M157.101 72.6931L193.69 61.9602L198.722 73.929L199.556 76.3584C200.244 78.3621 199.121 80.5347 197.088 81.131L164.615 90.6566C162.575 91.2548 160.451 90.0241 159.955 87.9575L159.497 86.0465L157.101 72.6931Z" fill="#FA6885"/>
<path d="M157.101 72.6931L193.69 61.9602L198.6 73.973C199.434 76.0122 198.321 78.3248 196.207 78.9449L164.158 88.346C162.044 88.9661 159.858 87.6215 159.458 85.4551L157.101 72.6931Z" fill="#FB8099"/>
<path d="M149.734 47.5582C149.157 45.5889 150.285 43.5241 152.254 42.9465L181.699 34.309C183.669 33.7313 185.733 34.8594 186.311 36.8287L193.684 61.9616L157.107 72.6911L149.734 47.5582Z" fill="#FCA8B9"/>
<ellipse cx="169.125" cy="45.025" rx="6.22034" ry="3.11017" transform="rotate(-16.3485 169.125 45.025)" fill="white"/>
<rect width="7.03715" height="18.1793" transform="matrix(-0.998564 -0.0535658 -0.0535658 0.998564 306.556 66.4958)" fill="#D7D8E2"/>
<rect width="7.03715" height="18.1793" transform="matrix(-0.998564 -0.0535658 -0.0535658 0.998564 278.087 64.9604)" fill="#D7D8E2"/>
<path d="M308.472 56.0538L270.397 54.0113L268.248 66.816L267.994 69.3721C267.784 71.4803 269.377 73.3366 271.492 73.4501L305.285 75.2628C307.407 75.3767 309.193 73.6908 309.2 71.5657L309.207 69.6005L308.472 56.0538Z" fill="#FA6885"/>
<path d="M308.472 56.0538L270.397 54.0113L268.376 66.8309C268.033 69.0071 269.648 71.0021 271.848 71.1201L305.199 72.9091C307.399 73.0271 309.218 71.2163 309.109 69.016L308.472 56.0538Z" fill="#FB8099"/>
<path d="M309.869 29.8991C309.979 27.8498 308.407 26.0994 306.358 25.9894L275.716 24.3457C273.666 24.2358 271.916 25.808 271.806 27.8573L270.403 54.0116L308.466 56.0534L309.869 29.8991Z" fill="#FCA8B9"/>
<ellipse cx="6.22034" cy="3.11017" rx="6.22034" ry="3.11017" transform="matrix(-0.998564 -0.0535657 -0.0535657 0.998564 296.793 29.1145)" fill="white"/>
<g clip-path="url(#clip0_1657_116379)">
<path d="M19.1186 243.143C72.2089 108.859 224.106 43.0382 358.391 96.1285L385.962 107.029C396.705 111.276 401.971 123.428 397.723 134.171L298.385 385.434C294.137 396.177 281.986 401.443 271.243 397.196L19.9792 297.857C9.23642 293.61 3.97079 281.458 8.21801 270.715L19.1186 243.143Z" fill="white"/>
<g opacity="0.9">
<path d="M203.729 -223.804L252.091 -204.685L48.1451 311.167L-0.215975 292.047L203.729 -223.804Z" fill="#FFACBD"/>
<path d="M252.09 -204.685L300.451 -185.565L96.5055 330.287L48.1444 311.167L252.09 -204.685Z" fill="#FF96AB"/>
<path d="M300.451 -185.565L348.812 -166.445L144.867 349.407L96.5057 330.287L300.451 -185.565Z" fill="#FFACBD"/>
<path d="M348.812 -166.445L397.174 -147.325L193.228 368.527L144.867 349.407L348.812 -166.445Z" fill="#FF96AB"/>
<path d="M397.174 -147.325L445.535 -128.205L241.589 387.647L193.228 368.527L397.174 -147.325Z" fill="#FFACBD"/>
<path d="M445.535 -128.205L493.896 -109.085L289.951 406.766L241.59 387.647L445.535 -128.205Z" fill="#FF96AB"/>
</g>
<path d="M391.869 402.79C366.555 466.818 294.13 498.202 230.102 472.888C166.074 447.574 134.69 375.149 160.004 311.121C185.318 247.093 257.744 215.71 321.771 241.023C385.799 266.337 417.183 338.763 391.869 402.79Z" fill="#FB8099"/>
<path d="M238.985 112.002C227.56 140.899 194.873 155.064 165.976 143.639C137.079 132.214 122.914 99.527 134.339 70.6298C145.764 41.7327 178.451 27.5684 207.348 38.9931C236.245 50.4178 250.41 83.1051 238.985 112.002Z" fill="#FB8099"/>
<path d="M3.89941 236.594L296.753 352.376L277.952 399.931L-14.9018 284.15L3.89941 236.594Z" fill="#FB8099"/>
<path d="M496.68 -114.374L334.267 296.427L279.396 274.733L441.809 -136.068L496.68 -114.374Z" fill="#FB8099"/>
<path fill-rule="evenodd" clip-rule="evenodd" d="M229.637 291.36L193.28 307.115C191.272 307.985 190.349 310.319 191.219 312.328L216.84 371.453C217.71 373.461 220.044 374.384 222.052 373.514L258.409 357.76C260.418 356.889 261.341 354.555 260.47 352.547L234.85 293.421C233.979 291.413 231.646 290.49 229.637 291.36ZM192.361 304.994C189.181 306.372 187.721 310.067 189.098 313.247L214.719 372.372C216.097 375.552 219.792 377.012 222.971 375.635L259.328 359.88C262.508 358.502 263.969 354.808 262.591 351.628L236.97 292.502C235.593 289.323 231.898 287.862 228.718 289.24L192.361 304.994Z" fill="white"/>
<path fill-rule="evenodd" clip-rule="evenodd" d="M292.09 266.884L255.733 282.638C253.725 283.509 252.802 285.843 253.672 287.851L279.293 346.977C280.163 348.985 282.497 349.908 284.506 349.037L320.862 333.283C322.871 332.413 323.794 330.079 322.923 328.07L297.303 268.945C296.433 266.937 294.099 266.014 292.09 266.884ZM254.814 280.518C251.634 281.896 250.174 285.59 251.552 288.77L277.172 347.896C278.55 351.075 282.245 352.536 285.425 351.158L321.781 335.404C324.961 334.026 326.422 330.331 325.044 327.151L299.424 268.026C298.046 264.846 294.351 263.386 291.171 264.763L254.814 280.518Z" fill="white"/>
<path fill-rule="evenodd" clip-rule="evenodd" d="M-19.4749 254.071L203.911 343L203.056 345.147L-20.3297 256.218L-19.4749 254.071Z" fill="white"/>
<path d="M266.458 238.668C265.231 243.422 258.862 245.888 252.231 244.177C245.601 242.466 241.22 237.225 242.447 232.471C243.674 227.717 250.044 225.25 256.675 226.962C263.305 228.673 267.685 233.914 266.458 238.668Z" fill="#535353" fill-opacity="0.5"/>
<g clip-path="url(#clip1_1657_116379)">
<rect x="248.988" y="214.616" width="27.1375" height="27.1375" rx="13.5688" transform="rotate(-7.34715 248.988 214.616)" fill="white"/>
<path fill-rule="evenodd" clip-rule="evenodd" d="M259.994 228.385L258.691 228.763C258.636 228.571 258.576 228.379 258.512 228.187C258.449 227.995 258.382 227.805 258.312 227.617L259.583 227.143C259.659 227.346 259.731 227.552 259.8 227.76C259.869 227.968 259.934 228.176 259.994 228.385ZM259.08 225.936L257.848 226.506C257.678 226.139 257.496 225.781 257.302 225.433L258.487 224.772C258.698 225.15 258.896 225.538 259.08 225.936ZM257.807 223.656L256.676 224.406C256.453 224.07 256.219 223.745 255.974 223.431L257.043 222.596C257.31 222.938 257.565 223.291 257.807 223.656ZM256.2 221.597L255.198 222.512C254.926 222.215 254.645 221.93 254.354 221.656L255.282 220.667C255.599 220.964 255.905 221.274 256.2 221.597ZM254.295 219.81L253.446 220.868C253.133 220.617 252.811 220.378 252.48 220.153L253.245 219.032C253.604 219.277 253.955 219.537 254.295 219.81ZM252.138 218.338C251.76 218.121 251.374 217.919 250.98 217.732L250.398 218.958C250.76 219.129 251.115 219.315 251.462 219.515L252.138 218.338ZM249.779 217.218L249.295 218.486C248.921 218.343 248.542 218.215 248.158 218.102L248.54 216.801C248.959 216.923 249.372 217.063 249.779 217.218ZM247.273 216.483L246.995 217.811C246.605 217.729 246.211 217.663 245.814 217.613L245.984 216.267C246.417 216.321 246.847 216.394 247.273 216.483ZM244.682 216.156L244.621 217.511C244.224 217.493 243.825 217.492 243.425 217.506L243.375 216.15C243.813 216.134 244.248 216.136 244.682 216.156ZM242.072 216.251L242.232 217.599C241.839 217.646 241.445 217.708 241.051 217.788L240.782 216.458C241.212 216.371 241.642 216.302 242.072 216.251ZM239.513 216.769L239.888 218.073C239.697 218.128 239.506 218.187 239.315 218.25C239.124 218.313 238.935 218.38 238.749 218.45L238.271 217.18C238.474 217.104 238.68 217.031 238.888 216.962C239.096 216.893 239.304 216.829 239.513 216.769ZM237.067 217.69L237.646 218.917C237.283 219.088 236.93 219.273 236.586 219.471L235.91 218.294C236.285 218.079 236.671 217.877 237.067 217.69ZM234.804 218.992L235.574 220.109C235.245 220.336 234.926 220.576 234.618 220.827L233.759 219.777C234.096 219.502 234.444 219.24 234.804 218.992ZM232.782 220.644L233.722 221.622C233.434 221.899 233.157 222.187 232.893 222.486L231.877 221.587C232.165 221.261 232.467 220.946 232.782 220.644ZM231.05 222.599L232.135 223.415C231.894 223.734 231.667 224.063 231.452 224.401L230.307 223.674C230.54 223.306 230.788 222.947 231.05 222.599ZM229.65 224.803C229.446 225.188 229.257 225.581 229.084 225.981L230.328 226.521C230.488 226.153 230.662 225.792 230.849 225.439L229.65 224.803ZM228.611 227.199L229.893 227.641C229.763 228.019 229.647 228.403 229.546 228.792L228.233 228.45C228.343 228.028 228.469 227.61 228.611 227.199ZM227.954 229.727L229.289 229.966C229.219 230.359 229.164 230.756 229.124 231.156L227.774 231.021C227.817 230.586 227.877 230.154 227.954 229.727ZM227.694 232.326L229.05 232.356C229.041 232.755 229.048 233.156 229.07 233.558L227.715 233.632C227.691 233.195 227.684 232.759 227.694 232.326ZM227.836 234.933C227.892 235.363 227.966 235.792 228.056 236.221L229.384 235.942C229.301 235.547 229.233 235.151 229.181 234.756L227.836 234.933ZM228.373 237.489C228.434 237.698 228.499 237.906 228.568 238.114C228.636 238.322 228.709 238.528 228.785 238.731L230.056 238.257C229.986 238.069 229.919 237.879 229.855 237.687C229.792 237.495 229.732 237.303 229.676 237.111L228.373 237.489ZM229.288 239.937L230.52 239.368C230.689 239.735 230.871 240.093 231.066 240.441L229.881 241.102C229.67 240.724 229.472 240.336 229.288 239.937ZM230.561 242.218L231.692 241.468C231.914 241.803 232.149 242.129 232.394 242.443L231.325 243.278C231.058 242.936 230.803 242.583 230.561 242.218ZM232.168 244.277L233.17 243.362C233.441 243.659 233.723 243.944 234.014 244.217L233.086 245.207C232.769 244.91 232.463 244.599 232.168 244.277ZM234.072 246.064L234.922 245.005C235.235 245.257 235.557 245.495 235.887 245.721L235.122 246.842C234.763 246.596 234.413 246.337 234.072 246.064ZM236.23 247.536L236.905 246.359C237.253 246.559 237.608 246.745 237.969 246.916L237.387 248.142C236.994 247.955 236.608 247.753 236.23 247.536ZM238.589 248.656L239.073 247.388C239.447 247.531 239.826 247.659 240.21 247.771L239.827 249.073C239.409 248.95 238.996 248.811 238.589 248.656ZM241.095 249.391L241.372 248.063C241.763 248.145 242.157 248.211 242.554 248.261L242.384 249.607C241.95 249.552 241.521 249.48 241.095 249.391ZM243.686 249.718L243.746 248.363C244.143 248.381 244.542 248.382 244.942 248.368L244.992 249.724C244.555 249.74 244.119 249.738 243.686 249.718ZM246.295 249.622L246.135 248.275C246.529 248.228 246.923 248.165 247.316 248.086L247.585 249.416C247.156 249.503 246.725 249.571 246.295 249.622ZM248.855 249.105L248.48 247.801C248.671 247.746 248.862 247.687 249.053 247.624C249.244 247.561 249.432 247.494 249.619 247.424L250.097 248.694C249.894 248.77 249.688 248.843 249.48 248.912C249.272 248.981 249.063 249.045 248.855 249.105ZM251.3 248.184L250.721 246.957C251.085 246.786 251.438 246.601 251.782 246.403L252.458 247.579C252.083 247.795 251.697 247.997 251.3 248.184ZM253.564 246.882L252.794 245.765C253.123 245.538 253.442 245.298 253.75 245.046L254.608 246.097C254.272 246.372 253.924 246.634 253.564 246.882ZM255.586 245.23L254.646 244.252C254.934 243.975 255.21 243.686 255.475 243.388L256.491 244.287C256.202 244.613 255.901 244.928 255.586 245.23ZM257.317 243.275L256.233 242.459C256.473 242.14 256.701 241.811 256.915 241.473L258.061 242.2C257.827 242.568 257.579 242.927 257.317 243.275ZM258.718 241.071L257.519 240.435C257.706 240.082 257.88 239.721 258.039 239.353L259.284 239.893C259.11 240.293 258.921 240.686 258.718 241.071ZM259.757 238.675L258.474 238.233C258.604 237.855 258.72 237.471 258.821 237.082L260.134 237.423C260.025 237.846 259.899 238.264 259.757 238.675ZM260.414 236.147L259.078 235.908C259.149 235.515 259.204 235.118 259.244 234.718L260.594 234.853C260.551 235.288 260.49 235.719 260.414 236.147ZM260.674 233.548L259.317 233.517C259.326 233.119 259.32 232.718 259.298 232.316L260.653 232.242C260.677 232.679 260.684 233.115 260.674 233.548ZM260.532 230.94L259.187 231.118C259.134 230.723 259.067 230.327 258.984 229.932L260.312 229.652C260.402 230.082 260.475 230.511 260.532 230.94Z" fill="#FF3D33"/>
<path fill-rule="evenodd" clip-rule="evenodd" d="M298.906 213.893L297.714 214.542C297.619 214.366 297.519 214.191 297.416 214.017C297.313 213.843 297.207 213.672 297.098 213.504L298.238 212.768C298.356 212.95 298.471 213.136 298.583 213.324C298.694 213.513 298.802 213.702 298.906 213.893ZM297.489 211.697L296.407 212.517C296.163 212.195 295.909 211.885 295.644 211.586L296.66 210.687C296.947 211.011 297.224 211.348 297.489 211.697ZM295.757 209.742L294.813 210.717C294.524 210.437 294.225 210.169 293.918 209.915L294.784 208.87C295.118 209.147 295.443 209.438 295.757 209.742ZM293.747 208.075L292.964 209.183C292.635 208.951 292.299 208.733 291.956 208.528L292.651 207.363C293.024 207.585 293.39 207.823 293.747 208.075ZM291.504 206.737L290.901 207.952C290.541 207.774 290.175 207.61 289.804 207.46L290.312 206.202C290.715 206.364 291.113 206.543 291.504 206.737ZM289.082 205.76C288.666 205.629 288.245 205.514 287.821 205.416L287.515 206.738C287.905 206.828 288.291 206.934 288.674 207.055L289.082 205.76ZM286.537 205.172L286.336 206.513C285.94 206.454 285.542 206.41 285.143 206.382L285.238 205.029C285.673 205.059 286.107 205.107 286.537 205.172ZM283.932 204.989L283.945 206.346C283.547 206.35 283.147 206.37 282.749 206.406L282.627 205.054C283.062 205.015 283.497 204.993 283.932 204.989ZM281.331 205.224L281.562 206.561C281.17 206.629 280.78 206.713 280.393 206.812L280.054 205.499C280.477 205.389 280.904 205.298 281.331 205.224ZM278.803 205.876L279.247 207.158C278.873 207.288 278.501 207.434 278.134 207.596L277.587 206.354C277.988 206.177 278.393 206.018 278.803 205.876ZM276.413 206.929L277.059 208.123C276.884 208.217 276.709 208.316 276.537 208.419C276.364 208.521 276.194 208.627 276.027 208.735L275.288 207.597C275.47 207.479 275.656 207.364 275.844 207.252C276.032 207.14 276.222 207.032 276.413 206.929ZM274.221 208.352L275.049 209.427C274.731 209.672 274.426 209.928 274.132 210.195L273.22 209.191C273.54 208.9 273.874 208.62 274.221 208.352ZM272.289 210.109L273.281 211.035C273.007 211.328 272.747 211.63 272.5 211.942L271.437 211.099C271.706 210.759 271.991 210.428 272.289 210.109ZM270.667 212.155L271.795 212.909C271.573 213.242 271.364 213.582 271.17 213.931L269.985 213.27C270.197 212.89 270.424 212.518 270.667 212.155ZM269.394 214.435L270.628 215C270.462 215.364 270.31 215.734 270.173 216.11L268.898 215.644C269.047 215.235 269.213 214.832 269.394 214.435ZM268.498 216.888L269.805 217.252C269.698 217.638 269.606 218.028 269.528 218.421L268.197 218.16C268.281 217.732 268.381 217.308 268.498 216.888ZM267.995 219.451L269.343 219.608C269.297 220.005 269.266 220.405 269.25 220.806L267.895 220.754C267.911 220.318 267.945 219.883 267.995 219.451ZM267.895 222.061L269.251 222.008C269.266 222.408 269.297 222.807 269.343 223.207L267.996 223.364C267.945 222.929 267.912 222.495 267.895 222.061ZM268.197 224.655L269.529 224.395C269.605 224.786 269.697 225.176 269.805 225.565L268.497 225.927C268.38 225.505 268.28 225.081 268.197 224.655ZM268.894 227.172L270.17 226.711C270.305 227.085 270.456 227.457 270.622 227.826L269.385 228.383C269.204 227.983 269.041 227.579 268.894 227.172ZM269.966 229.554C270.069 229.744 270.177 229.934 270.289 230.122C270.401 230.311 270.516 230.496 270.634 230.679L271.774 229.943C271.665 229.775 271.559 229.604 271.456 229.43C271.353 229.256 271.253 229.081 271.157 228.905L269.966 229.554ZM271.383 231.749L272.465 230.93C272.709 231.252 272.963 231.562 273.227 231.86L272.211 232.76C271.924 232.436 271.648 232.099 271.383 231.749ZM273.115 233.705L274.059 232.73C274.348 233.01 274.647 233.278 274.954 233.532L274.087 234.577C273.754 234.3 273.429 234.009 273.115 233.705ZM275.125 235.372L275.908 234.264C276.236 234.496 276.573 234.714 276.916 234.919L276.22 236.084C275.847 235.862 275.482 235.624 275.125 235.372ZM277.368 236.71L277.971 235.494C278.331 235.673 278.696 235.837 279.067 235.987L278.56 237.245C278.157 237.082 277.759 236.904 277.368 236.71ZM279.79 237.686L280.198 236.392C280.58 236.513 280.967 236.618 281.357 236.709L281.051 238.031C280.626 237.932 280.206 237.817 279.79 237.686ZM282.334 238.275L282.536 236.933C282.931 236.993 283.329 237.037 283.728 237.065L283.633 238.418C283.199 238.388 282.765 238.34 282.334 238.275ZM284.939 238.458L284.926 237.101C285.325 237.097 285.724 237.077 286.123 237.041L286.245 238.393C285.81 238.432 285.374 238.453 284.939 238.458ZM287.54 238.223L287.31 236.885C287.701 236.818 288.091 236.734 288.479 236.634L288.818 237.948C288.394 238.057 287.968 238.149 287.54 238.223ZM290.069 237.57L289.625 236.289C289.999 236.159 290.37 236.013 290.738 235.851L291.285 237.093C290.884 237.269 290.478 237.429 290.069 237.57ZM292.459 236.518L291.813 235.324C291.988 235.229 292.162 235.131 292.335 235.028C292.508 234.926 292.678 234.82 292.845 234.712L293.584 235.85C293.401 235.968 293.216 236.083 293.028 236.195C292.839 236.307 292.65 236.414 292.459 236.518ZM294.65 235.095L293.822 234.02C294.14 233.775 294.446 233.518 294.739 233.252L295.652 234.256C295.332 234.547 294.998 234.827 294.65 235.095ZM296.583 233.338L295.591 232.412C295.865 232.119 296.125 231.817 296.372 231.505L297.435 232.348C297.165 232.688 296.881 233.019 296.583 233.338ZM298.205 231.292L297.077 230.538C297.299 230.205 297.507 229.864 297.702 229.516L298.887 230.177C298.675 230.557 298.447 230.929 298.205 231.292ZM299.477 229.011L298.243 228.447C298.41 228.083 298.562 227.713 298.699 227.337L299.974 227.803C299.824 228.212 299.659 228.615 299.477 229.011ZM300.373 226.558L299.066 226.194C299.174 225.809 299.266 225.419 299.343 225.026L300.675 225.287C300.591 225.715 300.49 226.139 300.373 226.558ZM300.876 223.996L299.528 223.839C299.575 223.441 299.606 223.042 299.621 222.64L300.977 222.693C300.96 223.129 300.927 223.564 300.876 223.996ZM300.977 221.386L299.621 221.438C299.606 221.039 299.575 220.639 299.528 220.24L300.876 220.083C300.927 220.517 300.96 220.952 300.977 221.386ZM300.675 218.791L299.343 219.052C299.266 218.66 299.175 218.27 299.067 217.882L300.375 217.52C300.492 217.942 300.591 218.366 300.675 218.791ZM299.978 216.275L298.702 216.736C298.566 216.361 298.416 215.989 298.25 215.621L299.487 215.064C299.667 215.464 299.831 215.868 299.978 216.275Z" fill="#FF3D33"/>
</g>
<path d="M96.0739 176.469C93.7184 180.776 96.6794 186.932 102.688 190.217C108.696 193.503 115.476 192.674 117.832 188.366C120.187 184.058 117.226 177.903 111.218 174.617C105.21 171.332 98.4295 172.161 96.0739 176.469Z" fill="#535353" fill-opacity="0.5"/>
<g clip-path="url(#clip2_1657_116379)">
<rect width="27.1375" height="27.1375" rx="13.5688" transform="matrix(-0.636205 -0.77152 -0.77152 0.636205 125.267 170.866)" fill="white"/>
<path fill-rule="evenodd" clip-rule="evenodd" d="M107.82 173.385L108.512 174.552C108.684 174.45 108.859 174.351 109.037 174.254C109.215 174.158 109.393 174.065 109.573 173.976L108.97 172.76C108.775 172.857 108.582 172.957 108.389 173.062C108.197 173.167 108.007 173.274 107.82 173.385ZM110.162 172.224L110.671 173.482C111.046 173.33 111.423 173.194 111.803 173.073L111.391 171.78C110.978 171.912 110.568 172.059 110.162 172.224ZM112.65 171.431L112.962 172.751C113.354 172.659 113.748 172.582 114.142 172.52L113.932 171.18C113.504 171.246 113.076 171.33 112.65 171.431ZM115.23 171.028L115.336 172.38C115.737 172.349 116.138 172.333 116.537 172.333L116.536 170.976C116.102 170.977 115.666 170.994 115.23 171.028ZM117.842 171.026L117.738 172.379C118.139 172.41 118.537 172.456 118.932 172.517L119.14 171.176C118.71 171.11 118.277 171.059 117.842 171.026ZM120.423 171.427L120.111 172.748C120.501 172.84 120.887 172.947 121.268 173.069L121.682 171.776C121.267 171.644 120.847 171.527 120.423 171.427ZM122.91 172.223L122.396 173.479C122.767 173.631 123.131 173.797 123.488 173.977L124.099 172.765C123.71 172.569 123.313 172.388 122.91 172.223ZM125.241 173.4L124.536 174.559C124.876 174.766 125.209 174.988 125.533 175.222L126.329 174.124C125.976 173.868 125.613 173.626 125.241 173.4ZM127.355 174.933L126.473 175.964C126.775 176.222 127.067 176.494 127.349 176.778L128.312 175.823C128.004 175.512 127.685 175.216 127.355 174.933ZM129.194 176.788L128.156 177.661C128.411 177.965 128.656 178.28 128.888 178.607L129.994 177.821C129.74 177.463 129.473 177.119 129.194 176.788ZM130.708 178.915L129.542 179.61C129.644 179.781 129.743 179.955 129.839 180.132C129.935 180.308 130.027 180.486 130.115 180.665L131.333 180.065C131.237 179.87 131.136 179.676 131.032 179.484C130.927 179.291 130.819 179.102 130.708 178.915ZM131.862 181.26L130.601 181.759C130.749 182.132 130.88 182.509 130.996 182.888L132.294 182.493C132.167 182.079 132.024 181.667 131.862 181.26ZM132.623 183.758L131.297 184.046C131.383 184.437 131.451 184.83 131.504 185.224L132.849 185.044C132.791 184.614 132.716 184.185 132.623 183.758ZM132.969 186.346L131.614 186.416C131.635 186.816 131.64 187.215 131.628 187.614L132.985 187.652C132.997 187.218 132.992 186.782 132.969 186.346ZM132.895 188.956L131.547 188.81C131.503 189.207 131.444 189.603 131.37 189.996L132.703 190.249C132.784 189.821 132.848 189.389 132.895 188.956ZM132.41 191.522L131.1 191.166C130.995 191.552 130.875 191.934 130.74 192.312L132.018 192.769C132.165 192.358 132.295 191.942 132.41 191.522ZM131.53 193.981L130.292 193.426C130.128 193.791 129.95 194.15 129.758 194.503L130.95 195.152C131.159 194.769 131.352 194.378 131.53 193.981ZM130.281 196.275L129.143 195.536C128.925 195.871 128.694 196.198 128.45 196.518L129.527 197.342C129.793 196.995 130.044 196.639 130.281 196.275ZM128.693 198.349L127.682 197.444C127.416 197.741 127.138 198.029 126.847 198.307L127.785 199.288C128.101 198.985 128.404 198.672 128.693 198.349ZM126.806 200.154L125.946 199.105C125.638 199.357 125.318 199.6 124.987 199.832L125.765 200.943C126.124 200.692 126.472 200.429 126.806 200.154ZM124.667 201.652C124.48 201.762 124.29 201.87 124.097 201.975C123.905 202.079 123.711 202.18 123.517 202.276L122.914 201.061C123.093 200.972 123.272 200.879 123.45 200.782C123.627 200.686 123.802 200.586 123.975 200.484L124.667 201.652ZM122.325 202.812L121.815 201.555C121.441 201.707 121.063 201.843 120.684 201.964L121.096 203.257C121.508 203.125 121.918 202.977 122.325 202.812ZM119.837 203.606L119.525 202.285C119.133 202.378 118.739 202.455 118.345 202.516L118.555 203.857C118.983 203.79 119.411 203.706 119.837 203.606ZM117.256 204.009L117.151 202.656C116.75 202.687 116.349 202.703 115.95 202.703L115.951 204.06C116.385 204.06 116.82 204.043 117.256 204.009ZM114.645 204.011L114.749 202.658C114.348 202.627 113.95 202.581 113.555 202.519L113.347 203.86C113.776 203.927 114.209 203.977 114.645 204.011ZM112.064 203.61L112.376 202.289C111.986 202.197 111.599 202.09 111.218 201.968L110.805 203.26C111.219 203.393 111.64 203.509 112.064 203.61ZM109.577 202.813L110.09 201.557C109.72 201.406 109.356 201.24 108.999 201.06L108.388 202.271C108.777 202.468 109.174 202.648 109.577 202.813ZM107.245 201.637L107.951 200.478C107.61 200.27 107.278 200.049 106.954 199.814L106.157 200.913C106.511 201.169 106.874 201.41 107.245 201.637ZM105.131 200.103L106.014 199.073C105.712 198.814 105.42 198.543 105.138 198.258L104.174 199.214C104.482 199.524 104.802 199.821 105.131 200.103ZM103.293 198.249L104.331 197.375C104.076 197.072 103.831 196.757 103.598 196.429L102.493 197.216C102.747 197.573 103.014 197.918 103.293 198.249ZM101.779 196.121L102.944 195.426C102.842 195.255 102.743 195.082 102.647 194.905C102.551 194.728 102.459 194.551 102.371 194.372L101.154 194.972C101.25 195.166 101.35 195.36 101.455 195.553C101.56 195.745 101.668 195.935 101.779 196.121ZM100.624 193.777L101.886 193.277C101.738 192.904 101.607 192.528 101.491 192.148L100.193 192.544C100.319 192.958 100.463 193.369 100.624 193.777ZM99.8634 191.279L101.189 190.991C101.104 190.599 101.035 190.206 100.983 189.812L99.6379 189.992C99.6954 190.422 99.7705 190.852 99.8634 191.279ZM99.5174 188.691L100.872 188.62C100.852 188.221 100.847 187.821 100.858 187.423L99.5021 187.384C99.4897 187.819 99.4947 188.255 99.5174 188.691ZM99.5913 186.08L100.94 186.227C100.983 185.829 101.042 185.433 101.117 185.04L99.7836 184.788C99.7025 185.216 99.6383 185.647 99.5913 186.08ZM100.077 183.514L101.386 183.871C101.491 183.485 101.611 183.102 101.747 182.725L100.469 182.268C100.322 182.678 100.191 183.094 100.077 183.514ZM100.957 181.055L102.195 181.61C102.359 181.245 102.536 180.886 102.729 180.533L101.537 179.884C101.328 180.268 101.135 180.659 100.957 181.055ZM102.206 178.762L103.344 179.501C103.562 179.166 103.793 178.838 104.037 178.519L102.96 177.694C102.694 178.041 102.443 178.398 102.206 178.762ZM103.794 176.688L104.804 177.593C105.07 177.296 105.349 177.008 105.64 176.729L104.702 175.749C104.386 176.052 104.083 176.365 103.794 176.688ZM105.68 174.882L106.541 175.932C106.849 175.679 107.168 175.437 107.5 175.205L106.722 174.093C106.362 174.345 106.015 174.608 105.68 174.882Z" fill="#FF3D33"/>
<path fill-rule="evenodd" clip-rule="evenodd" d="M89.3379 136.203L89.7639 137.491C89.9541 137.428 90.1464 137.369 90.3406 137.312C90.5348 137.256 90.7292 137.204 90.9236 137.155L90.5949 135.839C90.3841 135.891 90.1735 135.948 89.963 136.009C89.7525 136.07 89.5441 136.135 89.3379 136.203ZM91.8738 135.57L92.1024 136.907C92.5007 136.839 92.8986 136.787 93.2953 136.75L93.1691 135.399C92.7382 135.439 92.3062 135.496 91.8738 135.57ZM94.4742 135.327L94.4965 136.684C94.8992 136.678 95.3 136.687 95.698 136.711L95.7802 135.356C95.3475 135.33 94.9119 135.32 94.4742 135.327ZM97.081 135.486L96.8947 136.83C97.293 136.885 97.6877 136.955 98.0779 137.041L98.3674 135.715C97.9431 135.622 97.5141 135.546 97.081 135.486ZM99.6324 136.043L99.2414 137.342C99.626 137.458 100.005 137.588 100.378 137.733L100.868 136.468C100.463 136.311 100.051 136.169 99.6324 136.043ZM102.068 136.987L101.48 138.21C101.842 138.384 102.196 138.571 102.542 138.772L103.223 137.598C102.846 137.379 102.461 137.176 102.068 136.987ZM104.327 138.297L103.556 139.414C103.886 139.641 104.206 139.881 104.516 140.134L105.372 139.081C105.034 138.806 104.685 138.545 104.327 138.297ZM106.352 139.946L105.415 140.927C105.703 141.202 105.981 141.489 106.247 141.788L107.26 140.886C106.97 140.56 106.667 140.246 106.352 139.946ZM108.089 141.896L107.007 142.713C107.246 143.031 107.474 143.358 107.688 143.696L108.834 142.969C108.599 142.6 108.351 142.242 108.089 141.896ZM109.489 144.101L108.288 144.732C108.472 145.083 108.643 145.443 108.8 145.812L110.049 145.281C109.877 144.877 109.69 144.484 109.489 144.101ZM110.512 146.503L109.225 146.932C109.288 147.121 109.347 147.312 109.403 147.505C109.459 147.698 109.511 147.891 109.559 148.085L110.876 147.76C110.824 147.549 110.768 147.338 110.707 147.128C110.646 146.917 110.581 146.709 110.512 146.503ZM111.138 149.04L109.799 149.258C109.863 149.654 109.911 150.05 109.943 150.445L111.295 150.337C111.261 149.905 111.208 149.473 111.138 149.04ZM111.347 151.643L109.99 151.641C109.989 152.041 109.972 152.44 109.94 152.836L111.292 152.948C111.328 152.516 111.346 152.08 111.347 151.643ZM111.131 154.245L109.792 154.024C109.727 154.419 109.646 154.81 109.55 155.197L110.866 155.525C110.971 155.103 111.06 154.676 111.131 154.245ZM110.5 156.779L109.214 156.348C109.087 156.727 108.944 157.101 108.787 157.469L110.036 158.001C110.207 157.6 110.362 157.192 110.5 156.779ZM109.477 159.182L108.274 158.554C108.089 158.908 107.889 159.256 107.677 159.596L108.827 160.316C109.058 159.946 109.275 159.568 109.477 159.182ZM108.091 161.396L107 160.589C106.762 160.91 106.512 161.223 106.249 161.526L107.274 162.415C107.56 162.085 107.832 161.745 108.091 161.396ZM106.38 163.369L105.427 162.403C105.142 162.684 104.846 162.954 104.539 163.214L105.415 164.25C105.749 163.968 106.071 163.674 106.38 163.369ZM104.385 165.055L103.592 163.954C103.268 164.188 102.934 164.409 102.59 164.619L103.297 165.778C103.671 165.55 104.034 165.309 104.385 165.055ZM102.156 166.415L101.54 165.206C101.185 165.386 100.821 165.555 100.448 165.71L100.97 166.963C101.375 166.794 101.77 166.611 102.156 166.415ZM99.7452 167.42C99.539 167.488 99.3306 167.552 99.1201 167.613C98.9096 167.674 98.699 167.731 98.4882 167.784L98.1595 166.467C98.3539 166.419 98.5483 166.366 98.7425 166.31C98.9367 166.254 99.129 166.194 99.3192 166.131L99.7452 167.42ZM97.2093 168.052L96.9807 166.715C96.5824 166.783 96.1845 166.835 95.7878 166.872L95.914 168.223C96.3449 168.183 96.7769 168.126 97.2093 168.052ZM94.6089 168.295L94.5867 166.938C94.1839 166.945 93.7831 166.936 93.3851 166.912L93.3029 168.266C93.7356 168.292 94.1712 168.302 94.6089 168.295ZM92.0021 168.137L92.1884 166.793C91.7901 166.737 91.3954 166.667 91.0052 166.582L90.7157 167.907C91.14 168 91.5691 168.077 92.0021 168.137ZM89.4507 167.579L89.8417 166.28C89.4571 166.164 89.078 166.034 88.7051 165.889L88.2147 167.155C88.6202 167.312 89.0325 167.454 89.4507 167.579ZM87.0156 166.635L87.6027 165.412C87.2412 165.239 86.887 165.051 86.5409 164.851L85.8603 166.025C86.2369 166.243 86.6223 166.447 87.0156 166.635ZM84.7563 165.325L85.5269 164.208C85.1976 163.981 84.8774 163.741 84.5671 163.489L83.7108 164.541C84.0489 164.816 84.3977 165.078 84.7563 165.325ZM82.7308 163.677L83.6682 162.696C83.3798 162.42 83.1021 162.133 82.8361 161.834L81.8229 162.737C82.1133 163.063 82.4163 163.376 82.7308 163.677ZM80.9937 161.727L82.0765 160.909C81.837 160.592 81.6095 160.264 81.395 159.926L80.2494 160.653C80.4837 161.022 80.7322 161.38 80.9937 161.727ZM79.5945 159.522L80.7956 158.89C80.6112 158.54 80.4399 158.179 80.2826 157.81L79.0343 158.342C79.2061 158.745 79.3931 159.139 79.5945 159.522ZM78.5711 157.12L79.8583 156.69C79.7952 156.501 79.7357 156.31 79.6798 156.117C79.6238 155.924 79.572 155.731 79.5243 155.538L78.207 155.863C78.259 156.074 78.3155 156.284 78.3765 156.495C78.4375 156.705 78.5024 156.914 78.5711 157.12ZM77.9451 154.583L79.2843 154.364C79.2198 153.968 79.1719 153.572 79.1402 153.177L77.7877 153.286C77.8223 153.717 77.8746 154.15 77.9451 154.583ZM77.7363 151.98L79.0932 151.982C79.0938 151.581 79.1107 151.183 79.1436 150.786L77.7914 150.674C77.7555 151.107 77.7369 151.542 77.7363 151.98ZM77.9521 149.377L79.2908 149.598C79.356 149.204 79.437 148.813 79.5334 148.425L78.2168 148.098C78.1117 148.52 78.0232 148.947 77.9521 149.377ZM78.5829 146.843L79.8693 147.275C79.9965 146.896 80.1388 146.522 80.2956 146.154L79.0474 145.622C78.8766 146.022 78.7216 146.43 78.5829 146.843ZM79.6065 144.441L80.8092 145.069C80.9944 144.714 81.1936 144.366 81.4064 144.027L80.2562 143.307C80.0248 143.676 79.808 144.055 79.6065 144.441ZM80.9921 142.227L82.0829 143.034C82.3207 142.712 82.5714 142.399 82.8346 142.096L81.8095 141.207C81.5234 141.537 81.2508 141.877 80.9921 142.227ZM82.7033 140.254L83.6566 141.219C83.9408 140.939 84.2367 140.668 84.5438 140.408L83.6678 139.372C83.334 139.654 83.0123 139.949 82.7033 140.254ZM84.6979 138.567L85.4914 139.668C85.8149 139.435 86.1488 139.213 86.4927 139.003L85.7862 137.845C85.4125 138.073 85.0496 138.314 84.6979 138.567ZM86.9274 137.208L87.543 138.417C87.8981 138.236 88.2623 138.067 88.6353 137.912L88.1135 136.66C87.7086 136.828 87.313 137.011 86.9274 137.208Z" fill="#FF3D33"/>
</g>
<path fill-rule="evenodd" clip-rule="evenodd" d="M90.3214 242.857C91.4317 244.922 94.0401 245.642 96.0524 244.44L167.464 201.784C167.557 201.728 167.673 201.726 167.767 201.781C168.389 202.147 169.061 202.432 169.768 202.627C170.834 202.921 171.957 203.005 173.072 202.874C174.923 202.657 175.555 200.535 174.672 198.894L172.374 194.622L170.076 190.35C169.194 188.709 167.074 188.067 165.874 189.491C165.15 190.35 164.601 191.333 164.258 192.384C164.038 193.062 163.906 193.759 163.864 194.46C163.856 194.595 163.774 194.715 163.652 194.775L89.0592 231.518C86.9699 232.548 86.1513 235.105 87.2546 237.156L90.3214 242.857Z" fill="#CE7F8E"/>
<path fill-rule="evenodd" clip-rule="evenodd" d="M87.2092 240.15C88.3191 242.214 90.9259 242.934 92.938 241.734L165.477 198.466C165.544 198.426 165.628 198.425 165.696 198.465C166.334 198.84 167.026 199.13 167.755 199.325C168.831 199.614 169.965 199.691 171.094 199.554C172.968 199.325 173.607 197.174 172.713 195.512L170.436 191.28L168.16 187.047C167.266 185.385 165.119 184.733 163.895 186.171C163.158 187.036 162.597 188.026 162.245 189.082C162.013 189.779 161.875 190.496 161.832 191.215C161.826 191.321 161.762 191.414 161.667 191.46L85.943 228.808C83.8548 229.838 83.0372 232.394 84.1402 234.445L87.2092 240.15Z" fill="#FFCD67"/>
<path fill-rule="evenodd" clip-rule="evenodd" d="M304.195 284.409L461.735 -117.316L463.887 -116.472L306.347 285.253L304.195 284.409Z" fill="white"/>
<path d="M278.886 316.477C279.532 318.016 279.538 319.75 278.903 321.294L269.999 342.919C268.706 346.061 265.148 347.602 261.972 346.398L240.185 338.136C238.576 337.526 237.289 336.283 236.623 334.697L229.608 317.98C228.277 314.81 229.745 311.161 232.899 309.794L263.613 296.485C266.818 295.096 270.541 296.592 271.894 299.814L278.886 316.477Z" fill="white"/>
<path fill-rule="evenodd" clip-rule="evenodd" d="M268.931 342.479L277.834 320.854C278.353 319.594 278.348 318.18 277.821 316.924L270.828 300.261C269.725 297.633 266.687 296.412 264.072 297.545L233.358 310.854C230.785 311.969 229.588 314.947 230.673 317.533L237.689 334.25C238.232 335.544 239.282 336.558 240.594 337.056L262.382 345.317C264.973 346.3 267.876 345.042 268.931 342.479ZM278.903 321.294C279.538 319.75 279.532 318.016 278.886 316.477L271.894 299.814C270.541 296.592 266.818 295.096 263.613 296.485L232.899 309.794C229.745 311.161 228.277 314.81 229.608 317.98L236.623 334.697C237.289 336.283 238.576 337.526 240.185 338.136L261.972 346.398C265.148 347.602 268.706 346.061 269.999 342.919L278.903 321.294Z" fill="#E2BB84"/>
</g>
<defs>
<clipPath id="clip0_1657_116379">
<path d="M19.1186 243.143C72.2089 108.859 224.106 43.0382 358.391 96.1285L385.962 107.029C396.705 111.276 401.971 123.428 397.723 134.171L298.385 385.434C294.137 396.177 281.986 401.443 271.243 397.196L19.9792 297.857C9.23642 293.61 3.97079 281.458 8.21801 270.715L19.1186 243.143Z" fill="white"/>
</clipPath>
<clipPath id="clip1_1657_116379">
<rect x="248.988" y="214.616" width="27.1375" height="27.1375" rx="13.5688" transform="rotate(-7.34715 248.988 214.616)" fill="white"/>
</clipPath>
<clipPath id="clip2_1657_116379">
<rect width="27.1375" height="27.1375" rx="13.5688" transform="matrix(-0.636205 -0.77152 -0.77152 0.636205 125.267 170.866)" fill="white"/>
</clipPath>
</defs>
</svg>
