<svg width="33" height="19" viewBox="0 0 33 19" fill="none" xmlns="http://www.w3.org/2000/svg">
<rect y="0.487793" width="32.0732" height="18.0244" rx="4" fill="#FB8099"/>
<path fill-rule="evenodd" clip-rule="evenodd" d="M8.63515 5.98804C10.6285 5.98804 12.2449 7.60404 12.2449 9.59779C12.2449 11.5912 10.6285 13.2075 8.63515 13.2075C6.64139 13.2075 5.02539 11.5912 5.02539 9.59779C5.02539 7.60404 6.64139 5.98804 8.63515 5.98804Z" stroke="white" stroke-width="0.780488" stroke-linecap="round" stroke-linejoin="round"/>
<path d="M8.73223 8.11621V9.8407" stroke="white" stroke-width="0.780488" stroke-linecap="round" stroke-linejoin="round"/>
<path d="M8.73028 11.0789H8.73418" stroke="white" stroke-width="0.780488" stroke-linecap="round" stroke-linejoin="round"/>
<path d="M15.562 6.13672H20.4927V6.97168H18.5151V12.5H17.5483V6.97168H15.562V6.13672ZM21.3979 7.72754H22.3384V12.5H21.3979V7.72754ZM21.8638 6.98926C21.7583 6.98926 21.6602 6.96436 21.5693 6.91455C21.4814 6.86475 21.4097 6.79736 21.354 6.7124C21.3013 6.62744 21.2749 6.53516 21.2749 6.43555C21.2749 6.33594 21.3013 6.24365 21.354 6.15869C21.4097 6.07373 21.4829 6.00635 21.5737 5.95654C21.6675 5.90674 21.7671 5.88184 21.8726 5.88184C21.978 5.88184 22.0762 5.90674 22.167 5.95654C22.2578 6.00635 22.3296 6.07373 22.3823 6.15869C22.4351 6.24365 22.4614 6.33594 22.4614 6.43555C22.4614 6.53809 22.4336 6.63184 22.3779 6.7168C22.3252 6.80176 22.2534 6.86914 22.1626 6.91895C22.0718 6.96582 21.9722 6.98926 21.8638 6.98926ZM23.481 7.72754H24.395V8.50098H24.4741C24.5562 8.35742 24.6455 8.22705 24.7422 8.10986C24.8418 7.99268 24.9824 7.89014 25.1641 7.80225C25.3486 7.71143 25.5757 7.66602 25.8452 7.66602C26.2319 7.66602 26.5762 7.76416 26.8779 7.96045C27.1826 8.15674 27.4199 8.44092 27.5898 8.81299C27.7627 9.18213 27.8491 9.62012 27.8491 10.127C27.8491 10.6279 27.7642 11.0659 27.5942 11.4409C27.4243 11.813 27.1885 12.0986 26.8867 12.2979C26.585 12.4941 26.2407 12.5938 25.854 12.5967C25.4761 12.5938 25.1831 12.5103 24.9751 12.3462C24.7671 12.1821 24.6001 11.9844 24.4741 11.7529H24.4214V14.293H23.481V7.72754ZM24.4038 10.1094C24.4038 10.4463 24.4521 10.7422 24.5488 10.9971C24.6455 11.249 24.7861 11.4453 24.9707 11.5859C25.1582 11.7266 25.3823 11.7969 25.6431 11.7969C25.9097 11.7969 26.1367 11.7236 26.3242 11.5771C26.5146 11.4307 26.6582 11.2314 26.7549 10.9795C26.8516 10.7246 26.8999 10.4346 26.8999 10.1094C26.8999 9.79004 26.8516 9.50732 26.7549 9.26123C26.6611 9.01221 26.5205 8.81738 26.333 8.67676C26.1455 8.53613 25.9155 8.46582 25.6431 8.46582C25.3794 8.46582 25.1538 8.5332 24.9663 8.66797C24.7817 8.7998 24.6411 8.99023 24.5444 9.23926C24.4507 9.48535 24.4038 9.77539 24.4038 10.1094Z" fill="white"/>
</svg>
