<svg width="33" height="19" viewBox="0 0 33 19" fill="none" xmlns="http://www.w3.org/2000/svg">
<rect y="0.487793" width="32.0732" height="18.0244" rx="4" fill="#FB8099"/>
<path fill-rule="evenodd" clip-rule="evenodd" d="M9.46327 5.98779C11.4566 5.98779 13.073 7.60379 13.073 9.59755C13.073 11.5909 11.4566 13.2073 9.46327 13.2073C7.46952 13.2073 5.85352 11.5909 5.85352 9.59755C5.85352 7.60379 7.46952 5.98779 9.46327 5.98779Z" stroke="white" stroke-width="0.780488" stroke-linecap="round" stroke-linejoin="round"/>
<path d="M9.56036 8.11597V9.84045" stroke="white" stroke-width="0.780488" stroke-linecap="round" stroke-linejoin="round"/>
<path d="M9.55841 11.0787H9.56231" stroke="white" stroke-width="0.780488" stroke-linecap="round" stroke-linejoin="round"/>
<path d="M17.0854 7.03354H20.9337V7.68521H19.3902V12H18.6357V7.68521H17.0854V7.03354ZM21.6402 8.27515H22.3742V12H21.6402V8.27515ZM22.0038 7.69893C21.9215 7.69893 21.8449 7.6795 21.774 7.64063C21.7054 7.60175 21.6494 7.54916 21.6059 7.48285C21.5648 7.41654 21.5442 7.34451 21.5442 7.26677C21.5442 7.18902 21.5648 7.117 21.6059 7.05069C21.6494 6.98438 21.7066 6.93178 21.7774 6.89291C21.8506 6.85404 21.9284 6.8346 22.0107 6.8346C22.093 6.8346 22.1696 6.85404 22.2405 6.89291C22.3114 6.93178 22.3674 6.98438 22.4085 7.05069C22.4497 7.117 22.4703 7.18902 22.4703 7.26677C22.4703 7.3468 22.4486 7.41997 22.4051 7.48628C22.3639 7.55259 22.3079 7.60518 22.237 7.64405C22.1662 7.68064 22.0884 7.69893 22.0038 7.69893ZM23.266 8.27515H23.9794V8.87881H24.0412C24.1052 8.76677 24.1749 8.66502 24.2504 8.57355C24.3281 8.48209 24.4379 8.40206 24.5796 8.33346C24.7237 8.26258 24.9009 8.22713 25.1113 8.22713C25.4131 8.22713 25.6818 8.30373 25.9173 8.45694C26.1551 8.61014 26.3403 8.83194 26.4729 9.12233C26.6079 9.41044 26.6753 9.75229 26.6753 10.1479C26.6753 10.5389 26.609 10.8807 26.4764 11.1734C26.3438 11.4638 26.1597 11.6867 25.9242 11.8422C25.6886 11.9954 25.42 12.0732 25.1181 12.0755C24.8232 12.0732 24.5945 12.008 24.4322 11.88C24.2698 11.7519 24.1395 11.5976 24.0412 11.4169H24V13.3994H23.266V8.27515ZM23.9863 10.1341C23.9863 10.3971 24.024 10.628 24.0995 10.827C24.1749 11.0236 24.2847 11.1768 24.4287 11.2866C24.5751 11.3963 24.75 11.4512 24.9535 11.4512C25.1616 11.4512 25.3388 11.3941 25.4851 11.2797C25.6338 11.1654 25.7458 11.0099 25.8213 10.8133C25.8967 10.6143 25.9345 10.388 25.9345 10.1341C25.9345 9.88491 25.8967 9.66425 25.8213 9.47218C25.7481 9.27782 25.6383 9.12576 25.492 9.01601C25.3457 8.90625 25.1662 8.85137 24.9535 8.85137C24.7477 8.85137 24.5716 8.90396 24.4253 9.00915C24.2813 9.11204 24.1715 9.26067 24.096 9.45503C24.0229 9.6471 23.9863 9.87348 23.9863 10.1341Z" fill="white"/>
</svg>
