<svg width="402" height="283" viewBox="0 0 402 283" fill="none" xmlns="http://www.w3.org/2000/svg">
<path d="M199 0C115.4 0 31.5 4 0 4V38H404V8C370.5 6 282.6 0 199 0Z" fill="#FCA8B9"/>
<path d="M199 26.5C115.4 26.5 31.5 30.5 0 30.5V283H404V34.5C370.5 32.5 282.6 26.5 199 26.5Z" fill="#FDC4D0"/>
<path d="M59.5 107.5L0.5 95V217.5H402.5V95L314.5 107.5C304 106.333 271.9 101 199.5 101C127.1 101 73.6667 106.333 59.5 107.5Z" fill="#FCA8B9"/>
<path d="M255.514 169.936L243.591 138.936C242.583 136.316 244.517 133.5 247.324 133.5H342.21C345.02 133.5 347.781 134.24 350.215 135.646L401.082 165.037C404.625 167.084 403.173 172.5 399.081 172.5H259.247C257.592 172.5 256.108 171.481 255.514 169.936Z" stroke="white" stroke-width="3"/>
<path d="M406 115L300 133.5" stroke="white" stroke-width="3"/>
<path d="M147.486 169.936L159.409 138.936C160.417 136.316 158.483 133.5 155.676 133.5H60.7899C57.9796 133.5 55.2189 134.24 52.7855 135.646L1.91753 165.037C-1.62537 167.084 -0.173096 172.5 3.91864 172.5H143.753C145.408 172.5 146.892 171.481 147.486 169.936Z" stroke="white" stroke-width="3"/>
<path d="M-3 115L103 133.5" stroke="white" stroke-width="3"/>
<path d="M173.5 156.228V152H229.5V156.228C229.5 157.895 228.466 159.388 226.904 159.973L202.904 168.973C201.999 169.313 201.001 169.313 200.096 168.973L176.096 159.973C174.534 159.388 173.5 157.895 173.5 156.228Z" fill="#F2F3F6"/>
<path d="M201.5 165V169" stroke="#D7D8E2"/>
<path d="M225.5 144H177.5C175.291 144 173.5 145.791 173.5 148V151.728C173.5 153.395 174.534 154.888 176.096 155.473L200.096 164.473C201.001 164.813 201.999 164.813 202.904 164.473L226.904 155.473C228.466 154.888 229.5 153.395 229.5 151.728V148C229.5 145.791 227.709 144 225.5 144Z" fill="white"/>
<path d="M263 53C263 56.866 235.242 60 201 60C166.758 60 139 56.866 139 53C139 49.134 166.758 40 201 40C235.242 40 263 49.134 263 53Z" fill="#FB8099"/>
<ellipse cx="104.815" cy="138.258" rx="11.8557" ry="8.50034" transform="rotate(-7.09902 104.815 138.258)" fill="#535353" fill-opacity="0.5"/>
<g clip-path="url(#clip0_1307_110081)">
<rect x="92.5898" y="121.548" width="25.9484" height="25.9484" rx="12.9742" transform="rotate(-28.9189 92.5898 121.548)" fill="white"/>
<path d="M105.543 128.066C105.842 128.352 106.133 128.65 106.414 128.962L105.933 129.396C106.066 129.545 106.198 129.696 106.327 129.851C106.456 130.005 106.582 130.161 106.705 130.319L107.217 129.922C107.475 130.254 107.717 130.593 107.945 130.938L107.404 131.295C107.626 131.631 107.833 131.973 108.027 132.321L108.594 132.005C108.797 132.372 108.986 132.743 109.159 133.12L108.569 133.391C108.737 133.756 108.89 134.126 109.028 134.499L109.637 134.274C109.782 134.667 109.911 135.063 110.024 135.462L109.4 135.64C109.51 136.026 109.604 136.414 109.683 136.805L110.319 136.676C110.402 137.086 110.469 137.497 110.519 137.91L109.876 137.989C109.924 138.387 109.958 138.786 109.976 139.184L110.624 139.155C110.642 139.572 110.645 139.989 110.631 140.405L109.983 140.383C109.97 140.783 109.941 141.182 109.897 141.579L110.542 141.651C110.495 142.065 110.433 142.477 110.355 142.886L109.718 142.764C109.642 143.157 109.552 143.546 109.446 143.931L110.071 144.104C109.961 144.505 109.835 144.902 109.692 145.294L109.083 145.073C108.947 145.448 108.795 145.817 108.629 146.181L109.219 146.451C109.047 146.829 108.858 147.201 108.655 147.565L108.088 147.249C107.895 147.596 107.686 147.936 107.463 148.269L108.002 148.63C107.771 148.975 107.525 149.311 107.264 149.639L106.756 149.235C106.509 149.545 106.249 149.847 105.974 150.14L106.447 150.584C106.164 150.886 105.867 151.178 105.556 151.46L105.12 150.98C104.973 151.113 104.822 151.245 104.668 151.374C104.514 151.502 104.358 151.628 104.2 151.749L104.596 152.263C104.264 152.519 103.923 152.76 103.577 152.985L103.223 152.441C102.886 152.66 102.543 152.863 102.194 153.052L102.502 153.623C102.134 153.821 101.759 154.004 101.379 154.171L101.118 153.576C100.752 153.737 100.38 153.882 100.004 154.012L100.215 154.625C99.8203 154.761 99.4209 154.881 99.0183 154.984L98.8573 154.356C98.4699 154.455 98.0792 154.538 97.6863 154.606L97.7964 155.245C97.3854 155.316 96.9721 155.37 96.5576 155.408L96.4988 154.762C96.1008 154.798 95.7015 154.819 95.302 154.823L95.3097 155.472C94.8932 155.477 94.4765 155.465 94.0606 155.438L94.1038 154.79C93.7053 154.764 93.3075 154.722 92.9115 154.664L92.8179 155.306C92.4063 155.246 91.9965 155.17 91.5895 155.078L91.7326 154.445C91.3433 154.357 90.9567 154.254 90.5738 154.135L90.3822 154.755C89.9852 154.632 89.592 154.494 89.2036 154.34L89.4425 153.737C89.0719 153.59 88.7059 153.429 88.3453 153.253L88.0606 153.836C87.6876 153.653 87.3202 153.456 86.9594 153.244L87.2883 152.685C86.9453 152.483 86.6085 152.267 86.2788 152.038L85.9079 152.57C85.5679 152.333 85.2352 152.082 84.9107 151.817L85.3212 151.314C85.0136 151.063 84.7135 150.798 84.4218 150.52L83.9742 150.99C83.6749 150.704 83.3842 150.406 83.1029 150.094L83.5846 149.659C83.4509 149.511 83.3194 149.36 83.1901 149.205C83.0609 149.051 82.9351 148.895 82.8128 148.737L82.3 149.134C82.0428 148.802 81.8003 148.463 81.5723 148.118L82.1136 147.761C81.8915 147.425 81.6839 147.082 81.4907 146.735L80.9238 147.051C80.72 146.684 80.5316 146.312 80.3585 145.936L80.9479 145.665C80.78 145.3 80.6271 144.93 80.4892 144.557L79.8807 144.782C79.7356 144.389 79.6064 143.993 79.4929 143.593L80.117 143.416C80.0073 143.03 79.913 142.641 79.834 142.251L79.1981 142.379C79.1153 141.97 79.0486 141.558 78.9979 141.146L79.6418 141.067C79.5929 140.669 79.5596 140.27 79.5417 139.872L78.8936 139.901C78.8749 139.484 78.8724 139.067 78.8861 138.651L79.5345 138.673C79.5476 138.273 79.5763 137.874 79.6205 137.477L78.9758 137.405C79.0219 136.991 79.0842 136.578 79.1625 136.169L79.7997 136.291C79.8749 135.899 79.9655 135.51 80.0715 135.124L79.446 134.952C79.5563 134.551 79.6827 134.154 79.825 133.762L80.4348 133.983C80.5707 133.608 80.7219 133.238 80.888 132.875L80.2979 132.605C80.4706 132.227 80.6588 131.855 80.8626 131.49L81.429 131.807C81.6228 131.46 81.8313 131.119 82.0544 130.787L81.5156 130.425C81.7466 130.081 81.9925 129.744 82.2534 129.417L82.761 129.821C83.0079 129.51 83.2687 129.208 83.5435 128.916L83.0704 128.472C83.3533 128.17 83.6504 127.878 83.9615 127.596L84.3973 128.076C84.5447 127.943 84.6955 127.811 84.8495 127.682C85.0036 127.553 85.1595 127.428 85.3172 127.307L84.9212 126.793C85.2538 126.537 85.594 126.296 85.9408 126.071L86.2941 126.615C86.6309 126.396 86.9742 126.192 87.3231 126.004L87.0151 125.433C87.3838 125.234 87.7586 125.052 88.1384 124.885L88.3989 125.479C88.7657 125.319 89.1375 125.173 89.5133 125.044L89.302 124.431C89.6971 124.295 90.0964 124.175 90.499 124.072L90.66 124.7C91.0475 124.601 91.4381 124.517 91.831 124.45L91.7209 123.811C92.1319 123.74 92.5452 123.686 92.9597 123.648L93.0185 124.294C93.4165 124.258 93.8158 124.237 94.2153 124.232L94.2077 123.584C94.6242 123.579 95.0408 123.59 95.4567 123.618L95.4135 124.265C95.812 124.292 96.2098 124.334 96.6058 124.392L96.6994 123.75C97.111 123.81 97.5209 123.886 97.9278 123.978L97.7848 124.611C98.174 124.699 98.5606 124.802 98.9435 124.921L99.1351 124.301C99.5321 124.424 99.9254 124.562 100.314 124.716L100.075 125.319C100.445 125.466 100.811 125.627 101.172 125.803L101.457 125.22C101.83 125.403 102.197 125.6 102.558 125.812L102.229 126.371C102.572 126.573 102.909 126.789 103.239 127.018L103.609 126.486C103.949 126.723 104.282 126.974 104.607 127.239L104.196 127.742C104.504 127.993 104.804 128.258 105.096 128.536L105.543 128.066Z" stroke="#FF3D33" stroke-width="1.29742" stroke-dasharray="1.3 1.3"/>
<path d="M134.691 101.902C135.044 102.116 135.392 102.346 135.734 102.59L135.356 103.118C135.519 103.234 135.679 103.354 135.839 103.477C135.998 103.6 136.154 103.726 136.308 103.854L136.723 103.356C137.046 103.625 137.355 103.904 137.652 104.193L137.199 104.658C137.488 104.939 137.764 105.228 138.027 105.526L138.514 105.097C138.791 105.411 139.055 105.734 139.304 106.065L138.787 106.456C139.029 106.776 139.257 107.105 139.472 107.44L140.018 107.09C140.244 107.442 140.455 107.802 140.651 108.168L140.08 108.474C140.269 108.828 140.445 109.187 140.605 109.552L141.199 109.291C141.367 109.673 141.521 110.06 141.658 110.453L141.046 110.668C141.179 111.046 141.297 111.428 141.4 111.814L142.027 111.647C142.134 112.05 142.226 112.456 142.302 112.865L141.664 112.983C141.736 113.377 141.794 113.773 141.836 114.17L142.481 114.102C142.524 114.517 142.552 114.933 142.563 115.349L141.914 115.366C141.925 115.766 141.919 116.165 141.898 116.564L142.546 116.599C142.524 117.014 142.486 117.429 142.431 117.843L141.788 117.757C141.735 118.152 141.667 118.546 141.582 118.937L142.216 119.074C142.128 119.48 142.024 119.883 141.903 120.283L141.282 120.096C141.167 120.476 141.036 120.853 140.89 121.226L141.493 121.463C141.341 121.849 141.173 122.231 140.988 122.607L140.406 122.321C140.231 122.677 140.041 123.027 139.835 123.372L140.393 123.705C140.181 124.06 139.953 124.409 139.71 124.751L139.181 124.375C139.066 124.537 138.946 124.698 138.824 124.857C138.701 125.015 138.575 125.171 138.447 125.323L138.944 125.741C138.674 126.062 138.393 126.37 138.102 126.664L137.641 126.209C137.359 126.494 137.067 126.766 136.766 127.025L137.189 127.517C136.872 127.79 136.545 128.049 136.209 128.293L135.828 127.768C135.504 128.003 135.172 128.225 134.832 128.432L135.17 128.986C134.813 129.203 134.449 129.405 134.078 129.592L133.786 129.013C133.429 129.193 133.065 129.358 132.696 129.508L132.94 130.109C132.554 130.266 132.161 130.408 131.765 130.533L131.569 129.915C131.188 130.035 130.802 130.141 130.413 130.231L130.559 130.863C130.153 130.957 129.744 131.035 129.332 131.096L129.236 130.455C128.841 130.514 128.443 130.558 128.044 130.586L128.09 131.233C127.675 131.263 127.258 131.276 126.841 131.274L126.845 130.625C126.446 130.622 126.046 130.604 125.647 130.57L125.593 131.217C125.178 131.182 124.765 131.131 124.352 131.064L124.457 130.423C124.063 130.359 123.671 130.28 123.281 130.185L123.128 130.815C122.725 130.717 122.323 130.603 121.926 130.473L122.127 129.856C121.749 129.733 121.374 129.594 121.003 129.44L120.754 130.04C120.371 129.881 119.993 129.707 119.619 129.517L119.912 128.939C119.558 128.759 119.208 128.564 118.864 128.355L118.527 128.91C118.174 128.695 117.826 128.466 117.484 128.221L117.862 127.694C117.7 127.578 117.539 127.458 117.379 127.335C117.22 127.211 117.064 127.086 116.911 126.958L116.495 127.456C116.172 127.186 115.863 126.907 115.567 126.619L116.019 126.154C115.73 125.873 115.454 125.583 115.191 125.285L114.704 125.715C114.427 125.401 114.163 125.078 113.914 124.747L114.431 124.356C114.189 124.035 113.961 123.707 113.746 123.372L113.2 123.722C112.974 123.369 112.763 123.01 112.567 122.644L113.139 122.337C112.949 121.984 112.774 121.624 112.613 121.259L112.019 121.521C111.851 121.139 111.697 120.751 111.56 120.359L112.172 120.144C112.039 119.766 111.921 119.384 111.818 118.998L111.191 119.165C111.084 118.762 110.992 118.355 110.917 117.946L111.554 117.828C111.482 117.435 111.424 117.039 111.383 116.642L110.737 116.709C110.694 116.295 110.666 115.879 110.656 115.463L111.304 115.445C111.293 115.046 111.299 114.646 111.32 114.247L110.672 114.213C110.694 113.797 110.732 113.382 110.787 112.969L111.43 113.055C111.483 112.659 111.552 112.266 111.636 111.875L111.002 111.738C111.09 111.332 111.194 110.928 111.315 110.528L111.936 110.716C112.051 110.335 112.182 109.958 112.328 109.586L111.725 109.348C111.877 108.962 112.045 108.581 112.23 108.205L112.812 108.491C112.987 108.135 113.177 107.784 113.383 107.439L112.826 107.107C113.037 106.752 113.265 106.403 113.509 106.061L114.037 106.437C114.153 106.275 114.272 106.114 114.395 105.955C114.517 105.796 114.643 105.641 114.771 105.488L114.274 105.071C114.544 104.749 114.825 104.441 115.116 104.147L115.577 104.603C115.859 104.317 116.151 104.045 116.452 103.787L116.029 103.295C116.346 103.022 116.673 102.763 117.009 102.519L117.39 103.044C117.714 102.808 118.046 102.587 118.386 102.38L118.048 101.826C118.405 101.608 118.769 101.406 119.141 101.219L119.432 101.799C119.79 101.619 120.153 101.454 120.523 101.304L120.278 100.703C120.665 100.545 121.057 100.404 121.454 100.279L121.649 100.897C122.03 100.776 122.416 100.671 122.805 100.581L122.659 99.9489C123.065 99.855 123.474 99.7771 123.886 99.7152L123.983 100.357C124.378 100.297 124.775 100.254 125.174 100.225L125.128 99.5781C125.543 99.5487 125.96 99.5353 126.377 99.5381L126.373 100.187C126.772 100.189 127.172 100.208 127.571 100.241L127.626 99.5948C128.04 99.6298 128.453 99.6808 128.866 99.748L128.761 100.388C129.155 100.452 129.547 100.532 129.937 100.627L130.09 99.9963C130.494 100.094 130.895 100.209 131.292 100.339L131.091 100.955C131.469 101.079 131.844 101.217 132.216 101.371L132.464 100.772C132.847 100.931 133.225 101.105 133.599 101.294L133.306 101.873C133.66 102.053 134.01 102.247 134.354 102.456L134.691 101.902Z" stroke="#FF3D33" stroke-width="1.29742" stroke-dasharray="1.3 1.3"/>
</g>
<ellipse cx="9.56198" cy="6.85576" rx="9.56198" ry="6.85576" transform="matrix(-0.990507 0.137462 0.137462 0.990507 367.582 64.3636)" fill="#535353" fill-opacity="0.5"/>
<g clip-path="url(#clip1_1307_110081)">
<rect width="20.9281" height="20.9281" rx="10.4641" transform="matrix(-0.970637 -0.240547 -0.240547 0.970637 365.09 56.8985)" fill="white"/>
<path d="M356.359 64.6806C356.186 64.9653 356.022 65.2586 355.868 65.5602L356.334 65.7982C356.26 65.9416 356.189 66.087 356.121 66.2344C356.053 66.3817 355.987 66.5296 355.925 66.6781L355.442 66.4756C355.311 66.7879 355.193 67.1025 355.088 67.4188L355.584 67.5844C355.481 67.8927 355.391 68.2026 355.313 68.5134L354.805 68.3861C354.723 68.714 354.654 69.043 354.598 69.3724L355.113 69.4605C355.059 69.78 355.017 70.0998 354.987 70.4194L354.466 70.3712C354.435 70.7073 354.417 71.0431 354.412 71.3779L354.935 71.3858C354.93 71.7094 354.938 72.0319 354.958 72.3528L354.436 72.3853C354.457 72.7216 354.491 73.0561 354.537 73.388L355.056 73.3152C355.101 73.6353 355.158 73.9529 355.227 74.2673L354.716 74.3799C354.789 74.7085 354.874 75.0338 354.971 75.3548L355.472 75.2029C355.565 75.5118 355.671 75.8166 355.788 76.1166L355.301 76.3071C355.424 76.6202 355.558 76.9283 355.705 77.2306L356.175 77.0025C356.316 77.2925 356.468 77.577 356.631 77.855L356.179 78.1196C356.349 78.4092 356.53 78.6923 356.723 78.968L357.152 78.6683C357.336 78.9319 357.531 79.1884 357.736 79.4372L357.333 79.7703C357.546 80.0288 357.771 80.2792 358.006 80.5209L358.381 80.1562C358.604 80.3861 358.838 80.6077 359.081 80.8203L358.737 81.2143C358.989 81.4344 359.25 81.6453 359.522 81.8462L359.833 81.4255C360.09 81.6156 360.356 81.7964 360.632 81.9672L360.356 82.4117C360.639 82.5876 360.932 82.7533 361.233 82.9082L361.472 82.4428C361.615 82.5162 361.76 82.5871 361.907 82.6553C362.054 82.7236 362.201 82.7886 362.349 82.8503L362.148 83.3333C362.461 83.4635 362.776 83.5801 363.093 83.6832L363.255 83.1856C363.563 83.2857 363.873 83.3725 364.184 83.4463L364.063 83.9553C364.392 84.0333 364.722 84.0974 365.053 84.1478L365.132 83.6306C365.451 83.6793 365.771 83.7147 366.091 83.7371L366.054 84.2591C366.39 84.2826 366.726 84.2925 367.061 84.2888L367.056 83.7656C367.378 83.7621 367.7 83.7455 368.02 83.7162L368.068 84.2373C368.403 84.2066 368.736 84.1626 369.067 84.1054L368.978 83.5899C369.296 83.535 369.611 83.4676 369.923 83.3879L370.053 83.8948C370.378 83.8117 370.7 83.7157 371.018 83.6073L370.85 83.1121C371.155 83.0081 371.456 82.8922 371.752 82.7646L371.959 83.2451C372.267 83.1125 372.571 82.9676 372.868 82.811L372.625 82.3479C372.91 82.1981 373.189 82.037 373.463 81.8648L373.742 82.3077C374.025 82.1292 374.303 81.9393 374.573 81.7384L374.261 81.3184C374.519 81.1267 374.771 80.9244 375.015 80.712L375.358 81.1067C375.611 80.8868 375.856 80.6565 376.093 80.4159L375.72 80.0489C375.945 79.8202 376.162 79.5818 376.371 79.334L376.771 79.6713C376.987 79.4158 377.193 79.1507 377.391 78.8763L376.966 78.5707C377.153 78.3105 377.332 78.0416 377.501 77.7641L377.948 78.0365C378.121 77.7518 378.285 77.4585 378.439 77.1569L377.974 76.9189C378.047 76.7755 378.118 76.6301 378.186 76.4828C378.255 76.3354 378.32 76.1875 378.382 76.039L378.865 76.2416C378.996 75.9293 379.114 75.6146 379.219 75.2983L378.723 75.1327C378.826 74.8244 378.916 74.5146 378.994 74.2037L379.502 74.3311C379.584 74.0031 379.653 73.6741 379.71 73.3447L379.194 73.2566C379.248 72.9372 379.29 72.6173 379.32 72.2977L379.841 72.3459C379.872 72.0098 379.89 71.674 379.895 71.3392L379.372 71.3314C379.377 71.0078 379.369 70.6852 379.349 70.3644L379.871 70.3318C379.85 69.9955 379.816 69.661 379.77 69.3291L379.252 69.4019C379.207 69.0818 379.149 68.7642 379.08 68.4499L379.591 68.3372C379.519 68.0086 379.433 67.6834 379.336 67.3623L378.835 67.5142C378.742 67.2054 378.636 66.9005 378.519 66.6005L379.006 66.41C378.884 66.0969 378.749 65.7888 378.603 65.4865L378.132 65.7146C377.991 65.4246 377.839 65.1402 377.676 64.8621L378.128 64.5975C377.958 64.3079 377.777 64.0249 377.584 63.7491L377.155 64.0488C376.971 63.7852 376.776 63.5287 376.571 63.28L376.974 62.9468C376.761 62.6884 376.536 62.4379 376.301 62.1962L375.926 62.5609C375.703 62.331 375.469 62.1094 375.226 61.8968L375.57 61.5029C375.319 61.2827 375.057 61.0719 374.785 60.871L374.474 61.2916C374.217 61.1015 373.951 60.9207 373.675 60.7499L373.951 60.3054C373.668 60.1295 373.375 59.9638 373.074 59.809L372.835 60.2743C372.692 60.2009 372.547 60.13 372.4 60.0618C372.254 59.9936 372.106 59.9286 371.958 59.8668L372.159 59.3839C371.846 59.2536 371.531 59.137 371.214 59.034L371.052 59.5316C370.744 59.4315 370.434 59.3447 370.123 59.2709L370.244 58.7618C369.915 58.6838 369.585 58.6198 369.254 58.5693L369.176 59.0866C368.856 59.0378 368.536 59.0024 368.216 58.98L368.253 58.4581C367.917 58.4345 367.581 58.4247 367.246 58.4283L367.251 58.9515C366.929 58.955 366.607 58.9716 366.287 59.0009L366.239 58.4799C365.904 58.5105 365.571 58.5546 365.24 58.6117L365.329 59.1273C365.012 59.1821 364.696 59.2495 364.384 59.3293L364.255 58.8223C363.929 58.9055 363.607 59.0014 363.289 59.1099L363.457 59.6051C363.153 59.709 362.851 59.8249 362.555 59.9526L362.348 59.472C362.04 59.6047 361.737 59.7495 361.439 59.9061L361.682 60.3692C361.397 60.519 361.118 60.6802 360.844 60.8523L360.566 60.4095C360.282 60.588 360.004 60.7778 359.734 60.9788L360.046 61.3988C359.788 61.5905 359.536 61.7927 359.292 62.0051L358.949 61.6105C358.696 61.8303 358.451 62.0606 358.214 62.3012L358.587 62.6682C358.362 62.8969 358.145 63.1353 357.936 63.3831L357.536 63.0459C357.321 63.3014 357.114 63.5665 356.916 63.8409L357.341 64.1465C357.154 64.4066 356.975 64.6755 356.806 64.953L356.359 64.6806Z" stroke="#FF3D33" stroke-width="1.04641" stroke-dasharray="1.05 1.05"/>
<path d="M328.19 50.3817C327.96 50.6226 327.737 50.874 327.522 51.1357L327.926 51.4679C327.824 51.5923 327.723 51.7191 327.625 51.8484C327.526 51.9777 327.431 52.1082 327.338 52.2399L326.91 51.9389C326.716 52.2159 326.533 52.4979 326.362 52.7843L326.811 53.0523C326.645 53.3314 326.49 53.6148 326.348 53.9017L325.879 53.6687C325.729 53.9714 325.591 54.278 325.465 54.5878L325.95 54.7842C325.828 55.0846 325.719 55.3881 325.622 55.6939L325.123 55.5353C325.021 55.857 324.931 56.1812 324.855 56.5072L325.364 56.6268C325.29 56.9418 325.229 57.2586 325.18 57.5763L324.663 57.4963C324.611 57.8293 324.573 58.1633 324.547 58.4975L325.069 58.5373C325.044 58.8596 325.032 59.1821 325.033 59.504L324.509 59.5046C324.51 59.8412 324.523 60.1771 324.55 60.5115L325.071 60.4703C325.097 60.7921 325.135 61.1124 325.185 61.4306L324.668 61.5124C324.721 61.8444 324.787 62.1742 324.865 62.5009L325.374 62.3788C325.449 62.6922 325.536 63.0025 325.636 63.309L325.139 63.4708C325.242 63.7901 325.359 64.1054 325.488 64.416L325.971 64.215C326.095 64.5119 326.23 64.8042 326.378 65.0911L325.912 65.3302C326.065 65.6283 326.231 65.921 326.409 66.2073L326.853 65.9314C327.022 66.2038 327.203 66.4702 327.395 66.7299L326.974 67.0411C327.173 67.31 327.384 67.572 327.606 67.8264L328 67.4821C328.211 67.7228 328.432 67.9563 328.664 68.1821L328.3 68.5573C328.539 68.7897 328.789 69.0142 329.05 69.2299L329.383 68.8265C329.507 68.9288 329.633 69.029 329.762 69.1271C329.891 69.2252 330.022 69.3203 330.153 69.4123L329.853 69.841C330.131 70.0352 330.414 70.2165 330.702 70.385L330.966 69.9336C331.245 70.0973 331.53 70.2484 331.818 70.387L331.591 70.8585C331.895 71.005 332.204 71.1382 332.516 71.2582L332.704 70.7699C333.005 70.8858 333.31 70.9889 333.618 71.0792L333.471 71.5812C333.794 71.6762 334.12 71.7577 334.448 71.8258L334.555 71.3135C334.871 71.3791 335.188 71.4318 335.507 71.4717L335.442 71.9909C335.776 72.0326 336.111 72.0609 336.447 72.0759L336.47 71.5532C336.792 71.5676 337.114 71.5692 337.436 71.5581L337.454 72.081C337.79 72.0695 338.125 72.0447 338.459 72.0069L338.401 71.487C338.721 71.4507 339.04 71.4019 339.356 71.3407L339.456 71.8544C339.785 71.7907 340.113 71.7142 340.437 71.6249L340.298 71.1205C340.609 71.0351 340.916 70.9375 341.22 70.8279L341.398 71.3201C341.713 71.2064 342.025 71.0804 342.332 70.942L342.117 70.4649C342.41 70.3329 342.699 70.1892 342.983 70.0339L343.234 70.4929C343.528 70.3322 343.816 70.1596 344.099 69.9753L343.813 69.537C344.082 69.3618 344.345 69.1754 344.603 68.9781L344.921 69.3931C345.186 69.1896 345.445 68.9749 345.697 68.7491L345.347 68.3597C345.586 68.1457 345.818 67.9212 346.042 67.6863L346.42 68.048C346.651 67.807 346.874 67.5557 347.089 67.294L346.685 66.9618C346.787 66.8374 346.887 66.7106 346.986 66.5813C347.084 66.452 347.18 66.3215 347.272 66.1898L347.7 66.4908C347.895 66.2138 348.078 65.9318 348.249 65.6454L347.799 65.3774C347.966 65.0983 348.12 64.8149 348.263 64.528L348.731 64.761C348.882 64.4583 349.02 64.1517 349.145 63.8419L348.66 63.6455C348.782 63.3451 348.892 63.0416 348.989 62.7358L349.487 62.8944C349.59 62.5727 349.679 62.2485 349.756 61.9225L349.246 61.8029C349.32 61.4879 349.382 61.1711 349.431 60.8534L349.948 60.9334C349.999 60.6004 350.038 60.2664 350.063 59.9322L349.542 59.8924C349.566 59.5701 349.578 59.2476 349.578 58.9257L350.101 58.925C350.101 58.5885 350.087 58.2526 350.061 57.9181L349.539 57.9594C349.514 57.6376 349.476 57.3173 349.425 56.9991L349.942 56.9173C349.89 56.5853 349.824 56.2555 349.746 55.9288L349.237 56.0509C349.162 55.7375 349.074 55.4272 348.975 55.1207L349.472 54.9589C349.368 54.6396 349.252 54.3243 349.122 54.0137L348.639 54.2147C348.516 53.9178 348.38 53.6255 348.233 53.3386L348.698 53.0995C348.545 52.8014 348.38 52.5087 348.202 52.2224L347.757 52.4983C347.588 52.2259 347.408 51.9595 347.216 51.6998L347.636 51.3886C347.437 51.1197 347.227 50.8577 347.004 50.6033L346.61 50.9476C346.4 50.7069 346.179 50.4733 345.946 50.2476L346.311 49.8724C346.072 49.64 345.822 49.4155 345.56 49.1998L345.227 49.6032C345.103 49.5009 344.977 49.4007 344.848 49.3026C344.719 49.2045 344.589 49.1094 344.457 49.0174L344.757 48.5887C344.48 48.3945 344.197 48.2132 343.909 48.0446L343.645 48.4961C343.365 48.3324 343.081 48.1813 342.793 48.0427L343.02 47.5712C342.715 47.4247 342.407 47.2915 342.094 47.1715L341.907 47.6598C341.605 47.5439 341.3 47.4408 340.993 47.3505L341.14 46.8485C340.817 46.7535 340.49 46.672 340.162 46.6039L340.056 47.1161C339.74 47.0506 339.422 46.9979 339.103 46.958L339.168 46.4388C338.834 46.3971 338.499 46.3688 338.164 46.3538L338.141 46.8765C337.819 46.8621 337.496 46.8605 337.174 46.8716L337.156 46.3487C336.82 46.3602 336.485 46.385 336.151 46.4228L336.21 46.9427C335.89 46.979 335.571 47.0278 335.254 47.089L335.155 46.5753C334.825 46.639 334.498 46.7155 334.174 46.8048L334.312 47.3092C334.002 47.3946 333.694 47.4922 333.39 47.6018L333.213 47.1096C332.898 47.2232 332.586 47.3493 332.279 47.4877L332.494 47.9648C332.201 48.0968 331.912 48.2405 331.628 48.3958L331.377 47.9368C331.083 48.0975 330.794 48.27 330.511 48.4544L330.797 48.8927C330.528 49.0679 330.265 49.2543 330.008 49.4516L329.689 49.0366C329.424 49.2401 329.166 49.4548 328.914 49.6806L329.263 50.07C329.025 50.284 328.793 50.5085 328.568 50.7434L328.19 50.3817Z" stroke="#FF3D33" stroke-width="1.04641" stroke-dasharray="1.05 1.05"/>
</g>
<defs>
<clipPath id="clip0_1307_110081">
<rect x="92.5898" y="121.548" width="25.9484" height="25.9484" rx="12.9742" transform="rotate(-28.9189 92.5898 121.548)" fill="white"/>
</clipPath>
<clipPath id="clip1_1307_110081">
<rect width="20.9281" height="20.9281" rx="10.4641" transform="matrix(-0.970637 -0.240547 -0.240547 0.970637 365.09 56.8985)" fill="white"/>
</clipPath>
</defs>
</svg>
