<svg width="402" height="197" viewBox="0 0 402 197" fill="none" xmlns="http://www.w3.org/2000/svg">
<g opacity="0.7">
<rect x="220.605" y="49.1327" width="6.26523" height="27.1493" transform="rotate(36.2587 220.605 49.1327)" fill="#FB8099"/>
<rect x="341" y="29.4852" width="6.26523" height="27.1493" transform="rotate(-45.7168 341 29.4852)" fill="#FB8099"/>
<rect x="-5" y="177.059" width="10.047" height="27.1493" transform="rotate(-45.7168 -5 177.059)" fill="#FCA8B9"/>
<rect x="402.286" y="84.5801" width="6.26523" height="15.3143" transform="rotate(27.2018 402.286 84.5801)" fill="#008FD7"/>
<rect x="133" y="60.4911" width="6.26523" height="6.26523" transform="rotate(-13.7686 133 60.4911)" fill="#FA6885"/>
<rect x="248.788" y="18.6797" width="6.26523" height="6.26523" transform="rotate(-13.7686 248.788 18.6797)" fill="#CEDA82"/>
<rect x="261.542" y="2.48682" width="10.4485" height="10.4485" transform="rotate(-13.7686 261.542 2.48682)" fill="#FFDD33"/>
<rect x="36" y="7.13074" width="13.1544" height="13.1544" transform="rotate(-13.7686 36 7.13074)" fill="#F5A545"/>
<path d="M50.1199 73.7211L52.7462 76.5762L56.273 74.9608L54.3693 78.3407L56.9955 81.1958L53.1927 80.4296L51.2889 83.8096L50.8424 79.9561L47.0396 79.19L50.5664 77.5746L50.1199 73.7211Z" fill="#4699F2"/>
<path d="M79.3978 41L81.1927 47.2891L87.5366 45.6989L82.9875 50.3978L87.5366 55.0968L81.1927 53.5066L79.3978 59.7957L77.603 53.5066L71.2591 55.0968L75.8082 50.3978L71.2591 45.6989L77.603 47.2891L79.3978 41Z" fill="#FFF4C0"/>
<path d="M359.312 82.4633L359.129 87.3535L364.011 87.6943L359.685 89.9813L361.83 94.3793L357.687 91.7761L354.951 95.8333L355.133 90.9432L350.252 90.6024L354.578 88.3154L352.432 83.9173L356.576 86.5205L359.312 82.4633Z" fill="#FFF4C0"/>
<path d="M45.8095 105.464L46.9064 109.308L50.7832 108.336L48.0032 111.207L50.7832 114.079L46.9064 113.107L45.8095 116.951L44.7127 113.107L40.8358 114.079L43.6159 111.207L40.8358 108.336L44.7127 109.308L45.8095 105.464Z" fill="#FFDD33"/>
<path d="M193.563 116.951L194.959 121.842L199.893 120.605L196.355 124.26L199.893 127.915L194.959 126.678L193.563 131.569L192.167 126.678L187.233 127.915L190.771 124.26L187.233 120.605L192.167 121.842L193.563 116.951Z" fill="#FDC4D0"/>
<path d="M397.065 33.5998L401.351 38.8163L397.714 44.5045L391.18 42.8036L390.779 36.064L397.065 33.5998Z" fill="#5E346E"/>
<path d="M392.165 130.109L399.843 137.678L397.126 148.111L386.733 150.975L379.056 143.406L381.772 132.973L392.165 130.109Z" fill="#65C5DE"/>
<path d="M15.4602 42.3044L21.9735 48.7257L19.6691 57.577L10.8515 60.007L4.33819 53.5857L6.64255 44.7344L15.4602 42.3044Z" fill="#FA6885"/>
<circle cx="307.383" cy="90.8455" r="5.22102" fill="#FA6885"/>
<circle cx="340.655" cy="120.655" r="3.65472" fill="#FDC4D0"/>
</g>
</svg>
