<svg width="54" height="30" viewBox="0 0 54 30" fill="none" xmlns="http://www.w3.org/2000/svg">
<path d="M0 8C0 3.58172 3.58172 0 8 0H46C50.4183 0 54 3.58172 54 8V22C54 26.4183 50.4183 30 46 30H8C3.58172 30 0 26.4183 0 22V8Z" fill="#FEECF0"/>
<path fill-rule="evenodd" clip-rule="evenodd" d="M16.1667 9C19.572 9 22.3333 11.7607 22.3333 15.1667C22.3333 18.572 19.572 21.3333 16.1667 21.3333C12.7607 21.3333 10 18.572 10 15.1667C10 11.7607 12.7607 9 16.1667 9Z" stroke="#F94267" stroke-width="1.33333" stroke-linecap="round" stroke-linejoin="round"/>
<path d="M16.3333 12.6357V15.5817" stroke="#F94267" stroke-width="1.33333" stroke-linecap="round" stroke-linejoin="round"/>
<path d="M16.33 17.6966H16.3367" stroke="#F94267" stroke-width="1.33333" stroke-linecap="round" stroke-linejoin="round"/>
<path d="M28.791 10.5156H35.3652V11.6289H32.7285V19H31.4395V11.6289H28.791V10.5156ZM36.5723 12.6367H37.8262V19H36.5723V12.6367ZM37.1934 11.6523C37.0527 11.6523 36.9219 11.6191 36.8008 11.5527C36.6836 11.4863 36.5879 11.3965 36.5137 11.2832C36.4434 11.1699 36.4082 11.0469 36.4082 10.9141C36.4082 10.7812 36.4434 10.6582 36.5137 10.5449C36.5879 10.4316 36.6855 10.3418 36.8066 10.2754C36.9316 10.209 37.0645 10.1758 37.2051 10.1758C37.3457 10.1758 37.4766 10.209 37.5977 10.2754C37.7188 10.3418 37.8145 10.4316 37.8848 10.5449C37.9551 10.6582 37.9902 10.7812 37.9902 10.9141C37.9902 11.0508 37.9531 11.1758 37.8789 11.2891C37.8086 11.4023 37.7129 11.4922 37.5918 11.5586C37.4707 11.6211 37.3379 11.6523 37.1934 11.6523ZM39.3496 12.6367H40.5684V13.668H40.6738C40.7832 13.4766 40.9023 13.3027 41.0312 13.1465C41.1641 12.9902 41.3516 12.8535 41.5938 12.7363C41.8398 12.6152 42.1426 12.5547 42.502 12.5547C43.0176 12.5547 43.4766 12.6855 43.8789 12.9473C44.2852 13.209 44.6016 13.5879 44.8281 14.084C45.0586 14.5762 45.1738 15.1602 45.1738 15.8359C45.1738 16.5039 45.0605 17.0879 44.834 17.5879C44.6074 18.084 44.293 18.4648 43.8906 18.7305C43.4883 18.9922 43.0293 19.125 42.5137 19.1289C42.0098 19.125 41.6191 19.0137 41.3418 18.7949C41.0645 18.5762 40.8418 18.3125 40.6738 18.0039H40.6035V21.3906H39.3496V12.6367ZM40.5801 15.8125C40.5801 16.2617 40.6445 16.6562 40.7734 16.9961C40.9023 17.332 41.0898 17.5938 41.3359 17.7812C41.5859 17.9688 41.8848 18.0625 42.2324 18.0625C42.5879 18.0625 42.8906 17.9648 43.1406 17.7695C43.3945 17.5742 43.5859 17.3086 43.7148 16.9727C43.8438 16.6328 43.9082 16.2461 43.9082 15.8125C43.9082 15.3867 43.8438 15.0098 43.7148 14.6816C43.5898 14.3496 43.4023 14.0898 43.1523 13.9023C42.9023 13.7148 42.5957 13.6211 42.2324 13.6211C41.8809 13.6211 41.5801 13.7109 41.3301 13.8906C41.084 14.0664 40.8965 14.3203 40.7676 14.6523C40.6426 14.9805 40.5801 15.3672 40.5801 15.8125Z" fill="#F94267"/>
</svg>
